<svg width="400" height="100" viewBox="0 0 400 100" fill="none" xmlns="http://www.w3.org/2000/svg">
<rect x="1.5" y="1.5" width="397" height="97" rx="18.5" fill="#FCFFC1"/>
<path d="M99.4707 66L113.021 31H118.521L131.971 66H126.221L118.221 44.9C118.121 44.6667 117.921 44.1 117.621 43.2C117.354 42.3 117.037 41.3 116.671 40.2C116.304 39.1 115.971 38.1 115.671 37.2C115.371 36.2667 115.171 35.6667 115.071 35.4L116.221 35.35C116.021 35.9167 115.771 36.6333 115.471 37.5C115.204 38.3667 114.904 39.2833 114.571 40.25C114.271 41.2167 113.971 42.1333 113.671 43C113.371 43.8333 113.121 44.5333 112.921 45.1L104.971 66H99.4707ZM105.471 57.3L107.471 52.1H123.371L125.671 57.3H105.471ZM142.94 66L131.84 39.75H137.39L145.39 59.4L144.44 59.85L152.99 39.75H158.29L146.64 66H142.94ZM172.37 66.5C170.203 66.5 168.22 65.9 166.42 64.7C164.653 63.5 163.237 61.8667 162.17 59.8C161.103 57.7333 160.57 55.4 160.57 52.8C160.57 50.1667 161.103 47.8333 162.17 45.8C163.27 43.7333 164.737 42.1167 166.57 40.95C168.437 39.7833 170.52 39.2 172.82 39.2C174.187 39.2 175.437 39.4 176.57 39.8C177.703 40.2 178.687 40.7667 179.52 41.5C180.387 42.2 181.087 43.0167 181.62 43.95C182.187 44.8833 182.537 45.8833 182.67 46.95L181.52 46.55V39.75H186.72V66H181.52V59.75L182.72 59.4C182.52 60.3 182.103 61.1833 181.47 62.05C180.87 62.8833 180.087 63.6333 179.12 64.3C178.187 64.9667 177.137 65.5 175.97 65.9C174.837 66.3 173.637 66.5 172.37 66.5ZM173.72 61.75C175.287 61.75 176.67 61.3667 177.87 60.6C179.07 59.8333 180.003 58.7833 180.67 57.45C181.37 56.0833 181.72 54.5333 181.72 52.8C181.72 51.1 181.37 49.5833 180.67 48.25C180.003 46.9167 179.07 45.8667 177.87 45.1C176.67 44.3333 175.287 43.95 173.72 43.95C172.187 43.95 170.82 44.3333 169.62 45.1C168.453 45.8667 167.52 46.9167 166.82 48.25C166.153 49.5833 165.82 51.1 165.82 52.8C165.82 54.5333 166.153 56.0833 166.82 57.45C167.52 58.7833 168.453 59.8333 169.62 60.6C170.82 61.3667 172.187 61.75 173.72 61.75ZM194.761 66V39.75H199.911V66H194.761ZM197.261 33.95C196.161 33.95 195.311 33.6667 194.711 33.1C194.111 32.5333 193.811 31.7333 193.811 30.7C193.811 29.7333 194.111 28.95 194.711 28.35C195.344 27.75 196.194 27.45 197.261 27.45C198.361 27.45 199.211 27.7333 199.811 28.3C200.411 28.8667 200.711 29.6667 200.711 30.7C200.711 31.6667 200.394 32.45 199.761 33.05C199.161 33.65 198.327 33.95 197.261 33.95ZM207.927 66V29H213.077V66H207.927ZM229.987 66.5C227.82 66.5 225.837 65.9 224.037 64.7C222.27 63.5 220.854 61.8667 219.787 59.8C218.72 57.7333 218.187 55.4 218.187 52.8C218.187 50.1667 218.72 47.8333 219.787 45.8C220.887 43.7333 222.354 42.1167 224.187 40.95C226.054 39.7833 228.137 39.2 230.437 39.2C231.804 39.2 233.054 39.4 234.187 39.8C235.32 40.2 236.304 40.7667 237.137 41.5C238.004 42.2 238.704 43.0167 239.237 43.95C239.804 44.8833 240.154 45.8833 240.287 46.95L239.137 46.55V39.75H244.337V66H239.137V59.75L240.337 59.4C240.137 60.3 239.72 61.1833 239.087 62.05C238.487 62.8833 237.704 63.6333 236.737 64.3C235.804 64.9667 234.754 65.5 233.587 65.9C232.454 66.3 231.254 66.5 229.987 66.5ZM231.337 61.75C232.904 61.75 234.287 61.3667 235.487 60.6C236.687 59.8333 237.62 58.7833 238.287 57.45C238.987 56.0833 239.337 54.5333 239.337 52.8C239.337 51.1 238.987 49.5833 238.287 48.25C237.62 46.9167 236.687 45.8667 235.487 45.1C234.287 44.3333 232.904 43.95 231.337 43.95C229.804 43.95 228.437 44.3333 227.237 45.1C226.07 45.8667 225.137 46.9167 224.437 48.25C223.77 49.5833 223.437 51.1 223.437 52.8C223.437 54.5333 223.77 56.0833 224.437 57.45C225.137 58.7833 226.07 59.8333 227.237 60.6C228.437 61.3667 229.804 61.75 231.337 61.75ZM265.328 66.5C264.194 66.5 263.061 66.3167 261.928 65.95C260.828 65.5833 259.811 65.1 258.878 64.5C257.978 63.8667 257.211 63.1833 256.578 62.45C255.978 61.6833 255.578 60.9167 255.378 60.15L256.678 59.45V65.85H251.528V29H256.678V45.75L255.878 45.3C256.044 44.5333 256.411 43.8 256.978 43.1C257.544 42.3667 258.261 41.7167 259.128 41.15C260.028 40.55 260.994 40.0833 262.028 39.75C263.061 39.3833 264.111 39.2 265.178 39.2C267.544 39.2 269.644 39.7833 271.478 40.95C273.311 42.1167 274.761 43.7333 275.828 45.8C276.894 47.8333 277.428 50.1667 277.428 52.8C277.428 55.4333 276.894 57.7833 275.828 59.85C274.794 61.9167 273.361 63.55 271.528 64.75C269.694 65.9167 267.628 66.5 265.328 66.5ZM264.478 61.8C266.011 61.8 267.378 61.4167 268.578 60.65C269.778 59.85 270.728 58.7833 271.428 57.45C272.128 56.0833 272.478 54.5333 272.478 52.8C272.478 51.1 272.128 49.5833 271.428 48.25C270.761 46.8833 269.828 45.8167 268.628 45.05C267.428 44.2833 266.044 43.9 264.478 43.9C262.911 43.9 261.528 44.2833 260.328 45.05C259.128 45.8167 258.178 46.8833 257.478 48.25C256.778 49.5833 256.428 51.1 256.428 52.8C256.428 54.5333 256.778 56.0833 257.478 57.45C258.178 58.7833 259.128 59.85 260.328 60.65C261.528 61.4167 262.911 61.8 264.478 61.8ZM283.122 66V29H288.272V66H283.122ZM307.332 66.5C304.632 66.5 302.232 65.9333 300.132 64.8C298.066 63.6333 296.432 62.05 295.232 60.05C294.066 58.05 293.482 55.75 293.482 53.15C293.482 51.0833 293.816 49.2 294.482 47.5C295.149 45.8 296.066 44.3333 297.232 43.1C298.432 41.8333 299.849 40.8667 301.482 40.2C303.149 39.5 304.949 39.15 306.882 39.15C308.582 39.15 310.166 39.4833 311.632 40.15C313.099 40.7833 314.366 41.6667 315.432 42.8C316.532 43.9333 317.366 45.2833 317.932 46.85C318.532 48.3833 318.816 50.0667 318.782 51.9L318.732 54.1H297.282L296.132 50H314.282L313.532 50.85V49.65C313.432 48.55 313.066 47.5667 312.432 46.7C311.799 45.8333 310.999 45.15 310.032 44.65C309.066 44.15 308.016 43.9 306.882 43.9C305.082 43.9 303.566 44.25 302.332 44.95C301.099 45.6167 300.166 46.6167 299.532 47.95C298.899 49.25 298.582 50.8667 298.582 52.8C298.582 54.6333 298.966 56.2333 299.732 57.6C300.499 58.9333 301.582 59.9667 302.982 60.7C304.382 61.4333 305.999 61.8 307.832 61.8C309.132 61.8 310.332 61.5833 311.432 61.15C312.566 60.7167 313.782 59.9333 315.082 58.8L317.682 62.45C316.882 63.25 315.899 63.95 314.732 64.55C313.599 65.15 312.382 65.6333 311.082 66C309.816 66.3333 308.566 66.5 307.332 66.5Z" fill="#E0C100"/>
<g clip-path="url(#clip0_2974_372)">
<path fill-rule="evenodd" clip-rule="evenodd" d="M22.7725 64.2188V62.7491C22.7724 62.6893 22.7585 62.6302 22.732 62.5766C22.7055 62.5229 22.6671 62.476 22.6197 62.4395C20.9364 61.154 19.9585 59.1982 19.9585 57.0799V33.4624C19.9585 29.741 22.9842 26.7153 26.7055 26.7153H76.1354C79.8567 26.7153 82.8824 29.741 82.8824 33.4624V57.0799C82.8824 60.8012 79.8567 63.8269 76.1354 63.8269H35.3554C35.2868 63.8269 35.2182 63.8465 35.1594 63.8798L28.671 67.6247C27.7167 68.1753 26.7761 68.7436 25.8374 69.3178C25.1888 69.7136 24.5264 70.1311 23.8523 70.4838L22.7569 71.058L22.7059 69.8214C22.6746 69.0631 22.7039 68.2812 22.7235 67.5208C22.751 66.4195 22.7725 65.3201 22.7725 64.2188ZM108.616 109.667C108.52 109.741 108.463 109.857 108.463 109.978V111.448C108.463 112.549 108.485 113.649 108.512 114.75C108.532 115.51 108.561 116.292 108.53 117.051L108.479 118.287L107.384 117.713C106.712 117.36 106.047 116.943 105.399 116.547C104.458 115.973 103.517 115.405 102.563 114.854L96.0747 111.109C96.0139 111.074 95.9473 111.056 95.8787 111.056H55.0987C51.3773 111.056 48.3517 108.03 48.3517 104.309V80.6935C48.3517 76.9721 51.3773 73.9445 55.0987 73.9445H104.529C108.25 73.9445 111.276 76.9721 111.276 80.6935V104.309C111.278 106.427 110.296 108.379 108.616 109.667Z" fill="#FCFFC1"/>
<path fill-rule="evenodd" clip-rule="evenodd" d="M37.7324 41.9907H43.6466V55.5906H37.7324V41.9907Z" fill="#FCFFC1"/>
<path fill-rule="evenodd" clip-rule="evenodd" d="M62.9546 46.4725V50.7269C62.9546 52.7316 61.7671 55.0831 59.7506 55.7063C57.1756 56.5019 54.5713 56.7332 51.8944 56.4412C49.5037 56.1825 47.205 55.528 44.9495 54.7167L44.4302 54.5305V42.8374L45.1611 42.7864C46.6642 42.6826 48.4435 42.324 49.441 41.0855C50.6834 39.5432 50.1856 37.37 49.7996 35.6161C49.6702 35.0243 49.441 34.0935 49.486 33.5036L49.537 32.8452L50.1935 32.7845C50.2483 32.7786 50.3032 32.7766 50.3581 32.7766C52.8213 32.7766 54.826 34.7813 54.826 37.2446V42.6316C54.826 42.7374 54.8692 42.8393 54.9436 42.9118C55.02 42.9863 55.1219 43.0255 55.2258 43.0216L59.3175 42.9236C60.3111 42.9001 61.1713 43.2371 61.8827 43.9328C62.596 44.6285 62.9546 45.477 62.9546 46.4725ZM92.6137 83.6154C94.6282 84.2386 95.8177 86.5902 95.8177 88.5929V92.8473C95.8177 93.8428 95.461 94.6913 94.7477 95.387C94.0384 96.0807 93.1741 96.4177 92.1826 96.3942L88.0948 96.2962C87.9909 96.2943 87.8851 96.3296 87.8067 96.406C87.7303 96.4804 87.6891 96.5823 87.6891 96.6882V102.073C87.6891 104.538 85.6864 106.541 83.2212 106.541C83.1741 106.541 83.1271 106.539 83.0801 106.537L82.3981 106.496L82.3472 105.814C82.3021 105.224 82.5314 104.297 82.6607 103.706C83.0468 101.95 83.5425 99.7805 82.3001 98.2343C81.3046 96.9958 79.5214 96.6372 78.0203 96.5334L77.2913 96.4824V84.7932L77.8106 84.607C80.0661 83.7957 82.3648 83.1392 84.7556 82.8806C87.4324 82.5886 90.0368 82.8198 92.6137 83.6154Z" fill="#FFEB26"/>
<path fill-rule="evenodd" clip-rule="evenodd" d="M110.493 104.309C110.493 106.175 109.635 107.901 108.14 109.046C107.997 109.155 107.881 109.297 107.801 109.458C107.721 109.62 107.68 109.798 107.679 109.978V111.448C107.679 112.757 107.705 113.872 107.728 114.77C107.748 115.603 107.77 116.453 107.746 117.019C107.244 116.757 106.517 116.312 105.806 115.879C105.04 115.41 104.087 114.83 102.955 114.176L96.4664 110.431C96.2881 110.327 96.0863 110.272 95.8785 110.272H55.0985C51.8102 110.272 49.1353 107.597 49.1353 104.309V80.6936C49.1353 77.4033 51.8102 74.7284 55.0985 74.7284H104.528C107.817 74.7284 110.492 77.4033 110.492 80.6936V104.309H110.493ZM104.528 72.3769H55.0985C50.513 72.3769 46.7838 76.108 46.7838 80.6936V104.309C46.7838 108.895 50.5149 112.624 55.0985 112.624H95.563L101.777 116.212C102.884 116.853 103.825 117.425 104.579 117.885C106.353 118.967 107.405 119.61 108.271 119.61C108.563 119.61 108.836 119.537 109.106 119.381C110.174 118.763 110.145 117.494 110.076 114.713C110.055 113.827 110.029 112.728 110.029 111.448V110.535C111.824 108.95 112.843 106.714 112.843 104.309V80.6936C112.845 76.108 109.112 72.3769 104.528 72.3769ZM95.0339 92.8472V88.5929C95.0339 86.9174 94.0423 84.8754 92.3825 84.364C87.0602 82.7179 82.3649 83.7996 78.0772 85.3418V95.7495C80.3758 95.9101 81.9671 96.5647 82.9136 97.7424C84.3755 99.559 83.8503 101.95 83.429 103.872C83.2957 104.48 83.1017 105.363 83.1311 105.753C83.1566 105.755 83.1879 105.757 83.2232 105.757C85.2553 105.757 86.9073 104.105 86.9073 102.073V96.6881C86.9073 96.3707 87.0347 96.0669 87.262 95.8455C87.4893 95.624 87.795 95.5084 88.1125 95.5123L92.2042 95.6103C92.9881 95.628 93.6406 95.3732 94.203 94.8265C94.7596 94.2778 95.0339 93.6311 95.0339 92.8472ZM75.7256 96.5451V84.5149H71.3792V96.5451H75.7256ZM93.0763 82.1163C87.409 80.3644 82.3237 81.3971 77.9851 82.8825C77.8954 82.6692 77.7447 82.4871 77.5519 82.3592C77.3591 82.2312 77.1328 82.1631 76.9014 82.1633H70.2014C69.5528 82.1633 69.0256 82.6885 69.0256 83.3391V97.7208C69.0256 98.3714 69.5528 98.8966 70.2014 98.8966H76.9014C77.4168 98.8966 77.8558 98.5635 78.0125 98.101C79.5352 98.2206 80.5855 98.6007 81.0794 99.216C81.8338 100.155 81.4595 101.862 81.1303 103.367C80.7991 104.875 80.4856 106.302 81.2851 107.294C81.7202 107.835 82.3708 108.109 83.2232 108.109C86.5507 108.109 89.2589 105.401 89.2589 102.073V97.8913L92.1474 97.9619C93.5564 98.0011 94.836 97.4935 95.8433 96.5078C96.8525 95.5241 97.3855 94.2582 97.3855 92.8472V88.5929C97.3855 86.0355 95.906 82.9903 93.0763 82.1163ZM62.1708 50.7268C62.1708 52.4043 61.1793 54.4443 59.5195 54.9577C54.1951 56.6018 49.5018 55.5201 45.2141 53.9798V43.5702C47.5147 43.4115 49.104 42.755 50.0505 41.5773C51.5104 39.7627 50.9852 37.37 50.5659 35.4495C50.4326 34.8401 50.2386 33.9563 50.268 33.5663C50.2935 33.5643 50.3248 33.5624 50.3601 33.5624C52.3923 33.5624 54.0442 35.2163 54.0442 37.2465V42.6335C54.0442 42.7903 54.0756 42.9456 54.1366 43.09C54.1976 43.2345 54.2868 43.3653 54.3992 43.4747C54.5115 43.5841 54.6446 43.6699 54.7906 43.7271C54.9367 43.7842 55.0927 43.8115 55.2494 43.8074L59.3411 43.7094C60.1269 43.6917 60.7775 43.9465 61.34 44.4952C61.9004 45.0419 62.1728 45.6886 62.1728 46.4725V50.7268H62.1708ZM42.8626 54.8068H38.5161V42.7746H42.8626V54.8068ZM59.2823 41.3578L56.3958 41.4284V37.2465C56.3958 33.919 53.6876 31.2108 50.3601 31.2108C49.5096 31.2108 48.859 31.4852 48.422 32.026C47.6245 33.0196 47.9361 34.4442 48.2672 35.9531C48.5984 37.4581 48.9727 39.165 48.2182 40.1036C47.7225 40.719 46.6721 41.0991 45.1514 41.2187C45.072 40.9866 44.922 40.7851 44.7224 40.6424C44.5228 40.4998 44.2837 40.4231 44.0383 40.4231H37.3403C36.6897 40.4231 36.1645 40.9482 36.1645 41.5988V55.9826C36.1645 56.6312 36.6917 57.1583 37.3403 57.1583H44.0383C44.5263 57.1583 44.9437 56.8605 45.122 56.4372C47.8439 57.368 50.8579 58.1225 54.1246 58.1225C56.0666 58.1225 58.1007 57.856 60.2132 57.2034C63.0409 56.3294 64.5224 53.2841 64.5224 50.7268V46.4725C64.5224 45.0635 63.9894 43.7976 62.9802 42.8119C61.971 41.8262 60.6913 41.3206 59.2823 41.3578ZM35.3552 63.0431H76.1352C79.4235 63.0431 82.0984 60.3682 82.0984 57.08V33.4624C82.0984 30.1742 79.4235 27.4993 76.1352 27.4993H26.7054C23.4171 27.4993 20.7422 30.1742 20.7422 33.4624V57.08C20.7422 58.9455 21.6005 60.672 23.0957 61.8164C23.2389 61.9262 23.3548 62.0674 23.4347 62.2291C23.5146 62.3909 23.5561 62.5688 23.5562 62.7492V64.2189C23.5562 65.526 23.5307 66.643 23.5072 67.5405C23.4876 68.3733 23.4661 69.2238 23.4896 69.7902C23.9913 69.5276 24.7183 69.0827 25.4296 68.6497C26.1959 68.1813 27.1482 67.6012 28.2809 66.9467L34.7693 63.2019C34.9476 63.098 35.1494 63.0431 35.3552 63.0431ZM84.4499 57.08C84.4499 61.6655 80.7188 65.3947 76.1352 65.3947H35.6707L29.4567 68.9828C28.3475 69.6236 27.4089 70.1958 26.6544 70.6563C24.8809 71.738 23.8267 72.3808 22.9625 72.3808C22.6685 72.3808 22.3981 72.3083 22.1257 72.1515C21.0577 71.5342 21.089 70.2644 21.1557 67.4837C21.1772 66.5979 21.2047 65.4986 21.2047 64.2189V63.3038C19.4077 61.7204 18.3906 59.4844 18.3906 57.08V33.4624C18.3906 28.8789 22.1218 25.1477 26.7054 25.1477H76.1352C80.7207 25.1477 84.4499 28.8789 84.4499 33.4624V57.08Z" fill="#E0C100"/>
</g>
<rect x="1.5" y="1.5" width="397" height="97" rx="18.5" stroke="#E0C100" stroke-width="3"/>
<defs>
<clipPath id="clip0_2974_372">
<rect width="70" height="49" fill="white" transform="translate(16 23)"/>
</clipPath>
</defs>
</svg>
