<?xml version="1.0" encoding="UTF-8"?>
<svg version="1.1" xmlns="http://www.w3.org/2000/svg" width="512" height="512">
<path d="M0 0 C1.20863975 -0.00445668 1.20863975 -0.00445668 2.44169647 -0.0090034 C5.1391048 -0.01766831 7.83646863 -0.01919678 10.53388977 -0.02069092 C12.46911717 -0.02532068 14.40434366 -0.03034556 16.33956909 -0.03573608 C21.59597482 -0.04884749 26.85236778 -0.05530268 32.1087873 -0.05974674 C35.39459705 -0.06267972 38.68040332 -0.06678497 41.96621132 -0.07125092 C52.25195731 -0.08492302 62.53769534 -0.09459088 72.82344979 -0.09845281 C84.6869862 -0.10293189 96.5504073 -0.12047411 108.41390866 -0.1494534 C117.59031302 -0.1710888 126.76668499 -0.18115809 135.94311458 -0.18249393 C141.42075683 -0.18354069 146.89829065 -0.18942111 152.37590599 -0.20731354 C157.53135392 -0.22382612 162.68661226 -0.22593421 167.84207726 -0.21717453 C169.72941598 -0.21640584 171.61676504 -0.22072456 173.50407791 -0.23063278 C196.79424503 -0.34568793 196.79424503 -0.34568793 206.16523743 7.30889893 C212.38002831 13.68954231 216.05891471 23.01594455 220.06892395 30.85949707 C221.03824833 32.75490715 222.01217597 34.64789075 222.98725891 36.54034424 C225.57438277 41.56319887 228.1541524 46.58981426 230.73188782 51.61749268 C237.78003257 65.35093549 245.05745852 78.87160738 252.94917297 92.14044189 C255.17860039 91.3194202 255.17860039 91.3194202 255.69526672 88.92559814 C256.15542544 87.11356071 256.61376543 85.30106043 257.07026672 83.48809814 C257.94917297 81.14044189 257.94917297 81.14044189 260.94917297 79.14044189 C265.1627133 78.66967737 269.39970079 78.770075 273.63667297 78.76544189 C274.79618469 78.74094971 275.95569641 78.71645752 277.15034485 78.69122314 C284.24571487 78.66702063 288.944438 79.27621833 294.94917297 83.14044189 C298.4106087 86.77938715 299.78708199 89.42227746 300.26167297 94.45294189 C299.8216942 99.64469144 298.0558103 102.20734906 294.24214172 105.70684814 C286.2473765 111.80610498 274.90325798 114.54293989 264.94917297 114.14044189 C265.4570636 115.13559814 265.96495422 116.13075439 266.48823547 117.15606689 C279.79024957 143.88656476 282.72998904 169.71127194 279.03266907 199.09552002 C278.69888881 201.76771687 278.38764718 204.44190688 278.07807922 207.11700439 C276.3252432 221.7168922 274.10971602 235.13184138 264.94917297 247.14044189 C264.42927795 247.51918457 263.90938293 247.89792725 263.37373352 248.28814697 C261.12424837 251.21305594 261.48818436 254.43797406 261.47261047 257.98419189 C261.45703094 258.7496936 261.44145142 259.51519531 261.42539978 260.30389404 C261.37788187 262.74939952 261.35012588 265.19462054 261.32417297 267.64044189 C261.28764968 270.08606113 261.24698355 272.53152044 261.20152283 274.97698975 C261.17436376 276.49829774 261.1529832 278.01972225 261.13798523 279.54119873 C261.09155134 282.66698815 260.94503928 285.15284299 259.94917297 288.14044189 C276.44917297 288.14044189 292.94917297 288.14044189 309.94917297 288.14044189 C310.27917297 289.79044189 310.60917297 291.44044189 310.94917297 293.14044189 C308.53298491 295.55662996 307.29794103 295.3800705 304.0015173 295.40631306 C303.30784841 295.40163073 302.61417952 295.3969484 301.89949036 295.39212418 C301.16165093 295.39503106 300.42381151 295.39793794 299.66361332 295.40093291 C297.16562008 295.40829175 294.66786797 295.40126241 292.1698761 295.39440918 C290.37116113 295.39671129 288.57244709 295.39988613 286.77373505 295.40386367 C281.81100346 295.41225462 276.84834826 295.408067 271.8856163 295.40189123 C266.54131793 295.39738523 261.19703314 295.40434125 255.85273743 295.40985107 C245.3753647 295.41876661 234.89802054 295.41681348 224.42064667 295.41102579 C215.90907557 295.40651778 207.3975125 295.40589266 198.88594055 295.40807343 C197.07212694 295.40853312 197.07212694 295.40853312 195.22167063 295.40900211 C192.76555315 295.40964153 190.30943568 295.41028996 187.85331821 295.41094729 C164.79641966 295.41665691 141.73953698 295.4100828 118.68264103 295.39934656 C98.87824789 295.39041048 79.07387819 295.39196234 59.26948547 295.40118408 C36.29777897 295.41187557 13.32608639 295.41610753 -9.64562225 295.40995955 C-12.09294637 295.40932242 -14.54027049 295.40869368 -16.9875946 295.40807343 C-18.19187528 295.40776487 -19.39615596 295.40745632 -20.63692999 295.40713842 C-29.14298174 295.40540811 -37.64902469 295.4083338 -46.15507507 295.41303253 C-56.51435454 295.41862893 -66.87360367 295.41715117 -77.23287964 295.40647104 C-82.5231544 295.40119754 -87.81337851 295.39918598 -93.10365295 295.40576935 C-97.93948527 295.41169639 -102.77521964 295.40850783 -107.61104298 295.39781424 C-109.36739918 295.39556635 -111.12376353 295.39674728 -112.88011456 295.40156582 C-115.25391152 295.40758248 -117.62736584 295.4014762 -120.00114441 295.39212418 C-120.6948133 295.39680651 -121.38848219 295.40148884 -122.10317135 295.40631306 C-126.82252627 295.36874265 -126.82252627 295.36874265 -129.05082703 293.14044189 C-128.72082703 291.49044189 -128.39082703 289.84044189 -128.05082703 288.14044189 C-111.55082703 288.14044189 -95.05082703 288.14044189 -78.05082703 288.14044189 C-78.38082703 287.48044189 -78.71082703 286.82044189 -79.05082703 286.14044189 C-79.13766148 283.36883563 -79.16638492 280.62269425 -79.14848328 277.85137939 C-79.14706833 277.03295563 -79.14565338 276.21453186 -79.14419556 275.37130737 C-79.13858992 272.75264865 -79.12603651 270.13407486 -79.11332703 267.51544189 C-79.10831275 265.74200563 -79.10374972 263.96856802 -79.09965515 262.19512939 C-79.08861867 257.84353408 -79.07135028 253.4920024 -79.05082703 249.14044189 C-79.67408875 248.85394775 -80.29735046 248.56745361 -80.9394989 248.27227783 C-86.18782631 245.45876652 -89.14270185 238.53921455 -91.17094421 233.18170166 C-93.94615704 223.71190933 -95.35386664 214.28615984 -96.48881531 204.5010376 C-96.79939594 201.84020242 -97.1328085 199.18294043 -97.46879578 196.52520752 C-101.14345394 166.4862606 -96.54326041 141.20514555 -83.05082703 114.14044189 C-83.77785828 114.11466064 -84.50488953 114.08887939 -85.25395203 114.06231689 C-96.41205397 113.4328855 -106.78984874 111.09085709 -115.05082703 103.14044189 C-117.48028681 100.17953778 -117.99509398 98.57038253 -118.48832703 94.76544189 C-117.96200118 90.40445628 -116.81185283 87.543174 -114.05082703 84.14044189 C-106.89758239 78.59302768 -100.83430523 78.89838598 -92.11332703 78.82794189 C-90.92029968 78.79893799 -89.72727234 78.76993408 -88.49809265 78.74005127 C-87.35147156 78.73167236 -86.20485046 78.72329346 -85.02348328 78.71466064 C-83.44965881 78.69278687 -83.44965881 78.69278687 -81.84403992 78.67047119 C-78.35382683 79.25771533 -77.22811071 80.4115336 -75.05082703 83.14044189 C-74.00395203 85.49981689 -74.00395203 85.49981689 -73.30082703 87.89044189 C-73.05848328 88.68966064 -72.81613953 89.48887939 -72.56645203 90.31231689 C-72.39629578 90.91559814 -72.22613953 91.51887939 -72.05082703 92.14044189 C-67.46461224 86.65510407 -64.22328636 80.57429465 -60.80082703 74.32794189 C-60.45478424 73.70005768 -60.10874146 73.07217346 -59.75221252 72.42526245 C-54.11549868 62.1846073 -48.79960644 51.80276278 -43.61332703 41.32794189 C-25.93293281 5.67303467 -25.93293281 5.67303467 -13.05082703 1.14044189 C-8.71066523 0.02886043 -4.45177083 -0.00514989 0 0 Z M-20.05082703 255.14044189 C-20.38082703 265.04044189 -20.71082703 274.94044189 -21.05082703 285.14044189 C-21.38082703 286.13044189 -21.71082703 287.12044189 -22.05082703 288.14044189 C52.52917297 288.14044189 127.10917297 288.14044189 203.94917297 288.14044189 C203.61917297 287.15044189 203.28917297 286.16044189 202.94917297 285.14044189 C202.61917297 275.24044189 202.28917297 265.34044189 201.94917297 255.14044189 C128.68917297 255.14044189 55.42917297 255.14044189 -20.05082703 255.14044189 Z " fill="#F3644D" transform="translate(165.0508270263672,216.85955810546875)"/>
<path d="M0 0 C0.79618258 -0.00467997 1.59236516 -0.00935994 2.41267449 -0.01418173 C5.08355852 -0.02615848 7.753932 -0.0166641 10.42481995 -0.00723267 C12.33845825 -0.01129721 14.25209421 -0.01663843 16.16572571 -0.02316284 C21.3661303 -0.03685708 26.56635664 -0.03152883 31.7667644 -0.02202559 C37.20569008 -0.01443882 42.64460034 -0.02147196 48.08352661 -0.02618408 C57.21896611 -0.03164496 66.35433289 -0.02444177 75.48976135 -0.01016235 C86.05416108 0.00615989 96.61838708 0.00088005 107.18278259 -0.01564157 C116.24869889 -0.02925277 125.31456286 -0.03117773 134.38048607 -0.02332556 C139.7970461 -0.01864642 145.21352447 -0.01803076 150.63007927 -0.02793503 C155.72314464 -0.03659688 160.81598595 -0.03059696 165.9090271 -0.01325226 C167.77910553 -0.00928304 169.6492028 -0.01042888 171.51927376 -0.01704025 C174.07055877 -0.02522878 176.62112421 -0.01496689 179.17236328 0 C180.28452663 -0.01003825 180.28452663 -0.01003825 181.41915792 -0.02027929 C185.84775289 0.03016984 188.60473475 0.70458083 192.14967346 3.38095093 C196.37603527 7.76632437 198.84628881 13.25493052 201.58717346 18.63095093 C202.10867981 19.6409314 202.63018616 20.65091187 203.16749573 21.6914978 C204.83345225 24.91865244 206.49226792 28.14939737 208.14967346 31.38095093 C216.09151811 46.85220144 224.25294332 62.14202524 232.93556213 77.21224976 C235.36554662 81.55279915 236.76294285 84.27037266 236.14967346 89.38095093 C234.10973438 93.03877273 232.64548085 95.05041267 229.14967346 97.38095093 C226.46217346 97.50595093 226.46217346 97.50595093 224.14967346 97.38095093 C224.16538391 97.98455444 224.18109436 98.58815796 224.19728088 99.21005249 C224.63474811 118.57674484 222.89444117 135.3311558 210.02467346 150.75595093 C199.51468981 161.58657815 185.89014901 167.56332468 170.84034729 167.89561462 C167.6786784 167.93650339 164.51854014 167.92793819 161.35670471 167.91439819 C159.60249613 167.9214711 157.84829365 167.93022184 156.09410095 167.94050598 C151.36677442 167.96285388 146.63978498 167.96009499 141.91242599 167.95118451 C137.95136311 167.94604586 133.99036198 167.95339025 130.02930546 167.96065658 C120.67907286 167.97760864 111.32900365 167.97413654 101.97877502 167.95736694 C92.36229235 167.9404419 82.74626351 167.95629616 73.12983036 167.98858982 C64.84320012 168.01535397 56.55671056 168.02254359 48.27004147 168.01407474 C43.33395238 168.00916644 38.39813628 168.01124719 33.46208191 168.03186226 C28.81933331 168.05032762 24.17723373 168.04412926 19.5345192 168.01966286 C17.84033653 168.01468961 16.14610345 168.01805303 14.45196152 168.03081131 C0.18583394 168.12967008 -11.30867845 165.28450803 -22.85032654 156.38095093 C-23.53739685 155.86919312 -24.22446716 155.3574353 -24.93235779 154.83016968 C-35.72784148 146.18139785 -41.9482839 132.88110145 -43.85032654 119.38095093 C-44.06456678 115.4998684 -44.04276223 111.64128432 -43.97532654 107.75595093 C-43.9663031 106.75177124 -43.95727966 105.74759155 -43.94798279 104.71298218 C-43.924704 102.26870966 -43.89201141 99.82496684 -43.85032654 97.38095093 C-44.95634216 97.26622437 -46.06235779 97.1514978 -47.20188904 97.03329468 C-50.85032654 96.38095093 -50.85032654 96.38095093 -53.22532654 93.94345093 C-55.6854792 90.06397943 -56.18335641 88.01532455 -55.85032654 83.38095093 C-54.72386169 80.59872437 -54.72386169 80.59872437 -53.13938904 77.74032593 C-52.55931091 76.67958862 -51.97923279 75.61885132 -51.38157654 74.52597046 C-50.75251404 73.40561401 -50.12345154 72.28525757 -49.47532654 71.13095093 C-48.82572163 69.95174302 -48.17729466 68.77188548 -47.53001404 67.59140015 C-44.78245571 62.59352202 -41.98956234 57.62117342 -39.18626404 52.65438843 C-38.4073085 51.27175036 -37.62865262 49.88894343 -36.85032654 48.50595093 C-36.46731384 47.82838745 -36.08430115 47.15082397 -35.68968201 46.45272827 C-33.10225633 41.81222511 -30.68748665 37.09719976 -28.33470154 32.33407593 C-27.87275391 31.40031631 -27.87275391 31.40031631 -27.401474 30.44769287 C-25.86981309 27.34594497 -24.34990712 24.2391267 -22.84642029 21.12362671 C-12.44530054 -0.11199279 -12.44530054 -0.11199279 0 0 Z " fill="#E64C3C" transform="translate(165.85032653808594,233.61904907226563)"/>
<path d="M0 0 C0.77576482 -0.00538554 1.55152964 -0.01077108 2.35080248 -0.01631981 C4.9525809 -0.03063754 7.55385328 -0.02348639 10.15565491 -0.01637268 C12.02003387 -0.02207426 13.88440935 -0.0290377 15.7487793 -0.03717041 C20.81488246 -0.05514043 25.88081279 -0.0539262 30.94693828 -0.04822803 C35.17422379 -0.0451417 39.40147583 -0.05122242 43.62875658 -0.05726677 C53.60031601 -0.07132304 63.57178978 -0.06974156 73.54335022 -0.05836487 C83.83513106 -0.0468824 94.12665135 -0.06095904 104.41839784 -0.08776134 C113.25077399 -0.10990302 122.08306825 -0.11655918 130.91547018 -0.11068493 C136.19233631 -0.1073105 141.4690354 -0.10976266 146.74587822 -0.12693596 C151.7076707 -0.14237857 156.66907659 -0.13847937 161.63085365 -0.11963081 C163.45255839 -0.11593748 165.2742916 -0.119075 167.09597015 -0.1295166 C169.58176237 -0.14267767 172.06626556 -0.13122334 174.55200195 -0.11352539 C175.27398944 -0.1231304 175.99597693 -0.1327354 176.73984283 -0.14263147 C181.54706246 -0.07214427 183.96310289 0.98749645 187.3394928 4.38768005 C189.06532288 7.06639099 189.06532288 7.06639099 190.60902405 10.12205505 C191.18322083 11.24482849 191.7574176 12.36760193 192.34901428 13.5243988 C192.95017734 14.72874093 193.55116648 15.93316989 194.1519928 17.13768005 C194.78252375 18.37910485 195.41412303 19.6199876 196.04676819 20.8603363 C198.87990421 26.42914594 201.65970388 32.02384975 204.41395569 37.63206482 C204.69875793 38.21141785 204.98356018 38.79077087 205.2769928 39.38768005 C205.56115051 39.96638855 205.84530823 40.54509705 206.13807678 41.14134216 C209.61480278 48.10857246 213.43154621 54.89620225 217.2144928 61.70018005 C217.72047501 62.61078186 217.72047501 62.61078186 218.23667908 63.53977966 C222.10404089 70.5748907 222.10404089 70.5748907 226.3394928 77.38768005 C226.5894928 80.45018005 226.5894928 80.45018005 226.3394928 83.38768005 C223.87504603 85.85212682 223.20824678 85.63803755 219.81982422 85.63936234 C218.86262513 85.64457783 217.90542604 85.64979332 216.91922092 85.65516686 C215.33082606 85.6484747 215.33082606 85.6484747 213.71034241 85.64164734 C212.03155581 85.64632731 212.03155581 85.64632731 210.31885433 85.65110183 C206.54312923 85.6591224 202.76756304 85.65274238 198.99183655 85.64646912 C196.29530867 85.64917718 193.598792 85.65266431 190.90226746 85.65708923 C184.32317111 85.66600087 177.74412029 85.66405337 171.16502213 85.65826395 C165.8199261 85.65375441 160.47484287 85.65313148 155.12974548 85.65531158 C154.37014493 85.65561805 153.61054438 85.65592452 152.82792562 85.65624027 C151.28500215 85.65687969 149.74207868 85.65752812 148.19915521 85.65818545 C133.717743 85.66389393 119.23635608 85.65732275 104.75494802 85.64658472 C92.31859872 85.63764874 79.88228674 85.63920063 67.44593811 85.64842224 C53.01773876 85.65911575 38.58956159 85.66334456 24.16135883 85.65719771 C22.62398593 85.65656059 21.08661302 85.65593185 19.54924011 85.65531158 C18.41449789 85.65484876 18.41449789 85.65484876 17.25683159 85.65437658 C11.91571741 85.65264688 6.57461726 85.65557066 1.23350525 85.66027069 C-5.27203233 85.66586933 -11.77752162 85.66438461 -18.28305364 85.6537092 C-21.60478423 85.6484387 -24.92641716 85.64748854 -28.24814987 85.65300751 C-31.84263394 85.65843111 -35.43688763 85.65166768 -39.03135681 85.64164734 C-40.61975168 85.6483395 -40.61975168 85.6483395 -42.24023533 85.65516686 C-43.19743442 85.64995137 -44.1546335 85.64473588 -45.14083862 85.63936234 C-45.971342 85.63903763 -46.80184538 85.63871293 -47.65751553 85.63837838 C-49.6605072 85.38768005 -49.6605072 85.38768005 -51.6605072 83.38768005 C-52.09948661 78.94710131 -51.4509005 76.2848162 -49.20347595 72.47361755 C-48.67326843 71.55789978 -48.14306091 70.64218201 -47.5967865 69.69871521 C-47.01968933 68.72982361 -46.44259216 67.76093201 -45.8480072 66.76268005 C-44.64918525 64.69549646 -43.45128458 62.62777834 -42.2542572 60.55955505 C-41.64968689 59.52379333 -41.04511658 58.48803162 -40.42222595 57.42088318 C-37.84352598 52.98105939 -35.33052598 48.50687983 -32.8480072 44.01268005 C-32.39731873 43.19702576 -31.94663025 42.38137146 -31.48228455 41.54100037 C-28.24323067 35.61007028 -25.33557522 29.56748255 -22.51573181 23.42869568 C-11.62268758 -0.09645281 -11.62268758 -0.09645281 0 0 Z " fill="#65C4EE" transform="translate(168.66050720214844,239.61231994628906)"/>
<path d="M0 0 C1.20863975 -0.00445668 1.20863975 -0.00445668 2.44169647 -0.0090034 C5.1391048 -0.01766831 7.83646863 -0.01919678 10.53388977 -0.02069092 C12.46911717 -0.02532068 14.40434366 -0.03034556 16.33956909 -0.03573608 C21.59597482 -0.04884749 26.85236778 -0.05530268 32.1087873 -0.05974674 C35.39459705 -0.06267972 38.68040332 -0.06678497 41.96621132 -0.07125092 C52.25195731 -0.08492302 62.53769534 -0.09459088 72.82344979 -0.09845281 C84.6869862 -0.10293189 96.5504073 -0.12047411 108.41390866 -0.1494534 C117.59031302 -0.1710888 126.76668499 -0.18115809 135.94311458 -0.18249393 C141.42075683 -0.18354069 146.89829065 -0.18942111 152.37590599 -0.20731354 C157.53135392 -0.22382612 162.68661226 -0.22593421 167.84207726 -0.21717453 C169.72941598 -0.21640584 171.61676504 -0.22072456 173.50407791 -0.23063278 C196.79424503 -0.34568793 196.79424503 -0.34568793 206.16523743 7.30889893 C212.38002831 13.68954231 216.05891471 23.01594455 220.06892395 30.85949707 C221.03824833 32.75490715 222.01217597 34.64789075 222.98725891 36.54034424 C225.57438277 41.56319887 228.1541524 46.58981426 230.73188782 51.61749268 C237.78003257 65.35093549 245.05745852 78.87160738 252.94917297 92.14044189 C255.17860039 91.3194202 255.17860039 91.3194202 255.69526672 88.92559814 C256.15542544 87.11356071 256.61376543 85.30106043 257.07026672 83.48809814 C257.94917297 81.14044189 257.94917297 81.14044189 260.94917297 79.14044189 C265.1627133 78.66967737 269.39970079 78.770075 273.63667297 78.76544189 C274.79618469 78.74094971 275.95569641 78.71645752 277.15034485 78.69122314 C284.24571487 78.66702063 288.944438 79.27621833 294.94917297 83.14044189 C298.4106087 86.77938715 299.78708199 89.42227746 300.26167297 94.45294189 C299.8216942 99.64469144 298.0558103 102.20734906 294.24214172 105.70684814 C286.2473765 111.80610498 274.90325798 114.54293989 264.94917297 114.14044189 C265.4570636 115.13559814 265.96495422 116.13075439 266.48823547 117.15606689 C279.79024957 143.88656476 282.72998904 169.71127194 279.03266907 199.09552002 C278.69888881 201.76771687 278.38764718 204.44190688 278.07807922 207.11700439 C276.3252432 221.7168922 274.10971602 235.13184138 264.94917297 247.14044189 C264.42927795 247.51918457 263.90938293 247.89792725 263.37373352 248.28814697 C261.12424837 251.21305594 261.48818436 254.43797406 261.47261047 257.98419189 C261.45703094 258.7496936 261.44145142 259.51519531 261.42539978 260.30389404 C261.37788187 262.74939952 261.35012588 265.19462054 261.32417297 267.64044189 C261.28764968 270.08606113 261.24698355 272.53152044 261.20152283 274.97698975 C261.17436376 276.49829774 261.1529832 278.01972225 261.13798523 279.54119873 C261.09155134 282.66698815 260.94503928 285.15284299 259.94917297 288.14044189 C276.44917297 288.14044189 292.94917297 288.14044189 309.94917297 288.14044189 C310.27917297 289.79044189 310.60917297 291.44044189 310.94917297 293.14044189 C308.53298491 295.55662996 307.29794103 295.3800705 304.0015173 295.40631306 C303.30784841 295.40163073 302.61417952 295.3969484 301.89949036 295.39212418 C301.16165093 295.39503106 300.42381151 295.39793794 299.66361332 295.40093291 C297.16562008 295.40829175 294.66786797 295.40126241 292.1698761 295.39440918 C290.37116113 295.39671129 288.57244709 295.39988613 286.77373505 295.40386367 C281.81100346 295.41225462 276.84834826 295.408067 271.8856163 295.40189123 C266.54131793 295.39738523 261.19703314 295.40434125 255.85273743 295.40985107 C245.3753647 295.41876661 234.89802054 295.41681348 224.42064667 295.41102579 C215.90907557 295.40651778 207.3975125 295.40589266 198.88594055 295.40807343 C197.07212694 295.40853312 197.07212694 295.40853312 195.22167063 295.40900211 C192.76555315 295.40964153 190.30943568 295.41028996 187.85331821 295.41094729 C164.79641966 295.41665691 141.73953698 295.4100828 118.68264103 295.39934656 C98.87824789 295.39041048 79.07387819 295.39196234 59.26948547 295.40118408 C36.29777897 295.41187557 13.32608639 295.41610753 -9.64562225 295.40995955 C-12.09294637 295.40932242 -14.54027049 295.40869368 -16.9875946 295.40807343 C-18.19187528 295.40776487 -19.39615596 295.40745632 -20.63692999 295.40713842 C-29.14298174 295.40540811 -37.64902469 295.4083338 -46.15507507 295.41303253 C-56.51435454 295.41862893 -66.87360367 295.41715117 -77.23287964 295.40647104 C-82.5231544 295.40119754 -87.81337851 295.39918598 -93.10365295 295.40576935 C-97.93948527 295.41169639 -102.77521964 295.40850783 -107.61104298 295.39781424 C-109.36739918 295.39556635 -111.12376353 295.39674728 -112.88011456 295.40156582 C-115.25391152 295.40758248 -117.62736584 295.4014762 -120.00114441 295.39212418 C-120.6948133 295.39680651 -121.38848219 295.40148884 -122.10317135 295.40631306 C-126.82252627 295.36874265 -126.82252627 295.36874265 -129.05082703 293.14044189 C-128.72082703 291.49044189 -128.39082703 289.84044189 -128.05082703 288.14044189 C-111.55082703 288.14044189 -95.05082703 288.14044189 -78.05082703 288.14044189 C-78.38082703 287.48044189 -78.71082703 286.82044189 -79.05082703 286.14044189 C-79.13766148 283.36883563 -79.16638492 280.62269425 -79.14848328 277.85137939 C-79.14706833 277.03295563 -79.14565338 276.21453186 -79.14419556 275.37130737 C-79.13858992 272.75264865 -79.12603651 270.13407486 -79.11332703 267.51544189 C-79.10831275 265.74200563 -79.10374972 263.96856802 -79.09965515 262.19512939 C-79.08861867 257.84353408 -79.07135028 253.4920024 -79.05082703 249.14044189 C-79.67408875 248.85394775 -80.29735046 248.56745361 -80.9394989 248.27227783 C-86.18782631 245.45876652 -89.14270185 238.53921455 -91.17094421 233.18170166 C-93.94615704 223.71190933 -95.35386664 214.28615984 -96.48881531 204.5010376 C-96.79939594 201.84020242 -97.1328085 199.18294043 -97.46879578 196.52520752 C-101.14345394 166.4862606 -96.54326041 141.20514555 -83.05082703 114.14044189 C-83.77785828 114.11466064 -84.50488953 114.08887939 -85.25395203 114.06231689 C-96.41205397 113.4328855 -106.78984874 111.09085709 -115.05082703 103.14044189 C-117.48028681 100.17953778 -117.99509398 98.57038253 -118.48832703 94.76544189 C-117.96200118 90.40445628 -116.81185283 87.543174 -114.05082703 84.14044189 C-106.89758239 78.59302768 -100.83430523 78.89838598 -92.11332703 78.82794189 C-90.92029968 78.79893799 -89.72727234 78.76993408 -88.49809265 78.74005127 C-87.35147156 78.73167236 -86.20485046 78.72329346 -85.02348328 78.71466064 C-83.44965881 78.69278687 -83.44965881 78.69278687 -81.84403992 78.67047119 C-78.35382683 79.25771533 -77.22811071 80.4115336 -75.05082703 83.14044189 C-74.00395203 85.49981689 -74.00395203 85.49981689 -73.30082703 87.89044189 C-73.05848328 88.68966064 -72.81613953 89.48887939 -72.56645203 90.31231689 C-72.39629578 90.91559814 -72.22613953 91.51887939 -72.05082703 92.14044189 C-67.46461224 86.65510407 -64.22328636 80.57429465 -60.80082703 74.32794189 C-60.45478424 73.70005768 -60.10874146 73.07217346 -59.75221252 72.42526245 C-54.11549868 62.1846073 -48.79960644 51.80276278 -43.61332703 41.32794189 C-25.93293281 5.67303467 -25.93293281 5.67303467 -13.05082703 1.14044189 C-8.71066523 0.02886043 -4.45177083 -0.00514989 0 0 Z M-21.48149109 14.59405518 C-23.15784035 17.3140805 -24.70821032 20.03555961 -26.16020203 22.88262939 C-26.74164978 24.01547363 -27.32309753 25.14831787 -27.92216492 26.31549072 C-28.22752167 26.9169693 -28.53287842 27.51844788 -28.8474884 28.13815308 C-29.82179768 30.05673673 -30.80345964 31.97140291 -31.78691101 33.88531494 C-34.56659476 39.29976056 -37.33039532 44.7222626 -40.08842468 50.14776611 C-42.09080085 54.08586548 -44.09877644 58.021056 -46.11332703 61.95294189 C-46.44656982 62.6034552 -46.77981262 63.25396851 -47.12315369 63.92419434 C-51.5624346 72.56699229 -56.21115636 81.03448056 -61.17582703 89.39044189 C-83.32989774 126.73316651 -95.18165721 156.11762266 -90.30082703 199.39044189 C-90.1833461 200.46585236 -90.1833461 200.46585236 -90.06349182 201.56298828 C-88.2428199 217.91792297 -86.1824954 234.3625624 -73.17192078 245.57403564 C-69.71581571 248.12633423 -66.89811007 248.26646949 -62.73211956 248.27186966 C-61.62212681 248.2757108 -60.51213407 248.27955195 -59.36850518 248.28350949 C-58.14401486 248.28264301 -56.91952455 248.28177653 -55.65792847 248.28088379 C-53.71257917 248.28534047 -53.71257917 248.28534047 -51.72792989 248.28988719 C-48.12058719 248.29796592 -44.51326438 248.29974725 -40.90591371 248.30048466 C-37.01828436 248.30233369 -33.13066537 248.30988025 -29.24304199 248.31661987 C-20.73895718 248.33020974 -12.23487709 248.33622888 -3.73078322 248.34063053 C1.57749612 248.34339175 6.88577363 248.34762887 12.19405174 248.3521347 C26.88631609 248.36432804 41.57857898 248.37462735 56.27084827 248.3780098 C57.21143392 248.37822936 58.15201956 248.37844893 59.1211078 248.37867515 C60.0639642 248.37889343 61.00682061 248.3791117 61.97824842 248.3793366 C63.88888538 248.37978006 65.79952234 248.38022663 67.7101593 248.38067627 C69.131777 248.38100841 69.131777 248.38100841 70.58211424 248.38134727 C85.9423589 248.38529611 101.30255613 248.40275246 116.66278247 248.42603579 C132.4265813 248.44973833 148.19035632 248.46221114 163.95417327 248.46337771 C172.80753676 248.46429507 181.66083846 248.47006271 190.51418495 248.48819733 C198.05237866 248.50358348 205.59049149 248.50872756 213.12869791 248.50045922 C216.9755042 248.49654748 220.82214754 248.49750773 224.66893387 248.51151657 C228.83784864 248.52655982 233.00639485 248.51840459 237.17532349 248.50793457 C238.39312164 248.51599097 239.61091979 248.52404738 240.86562091 248.53234792 C247.8770108 248.49101377 252.49949359 247.91016639 258.10932922 243.40606689 C269.12031527 231.73939584 269.97610384 216.04440754 271.64057922 200.8303833 C271.91127423 198.47079657 272.22494591 196.12615473 272.57417297 193.77716064 C278.08732104 155.68283894 264.5241667 125.84537842 245.47212219 93.612854 C236.73085218 78.77239627 228.61456915 63.57449472 220.94917297 48.15216064 C220.61804001 47.48617859 220.28690704 46.82019653 219.94573975 46.1340332 C218.35942393 42.93731451 216.78320513 39.73614442 215.22285461 36.52667236 C212.29874821 30.57498044 209.26112145 24.7171733 205.88276672 19.01153564 C205.27360413 17.97827148 204.66444153 16.94500732 204.03681946 15.88043213 C200.62411806 11.40133637 196.25863117 8.85088213 190.94917297 7.14044189 C188.20582277 6.94817997 185.56465199 6.85753632 182.82241821 6.86628723 C182.00849127 6.86105055 181.19456434 6.85581387 180.35597295 6.85041851 C177.63088627 6.83542687 174.9059875 6.83471354 172.18086243 6.83404541 C170.22592858 6.82642326 168.27099774 6.81799566 166.31607056 6.80882263 C161.00594141 6.78687367 155.69586985 6.77807794 150.38570046 6.77299619 C147.06638357 6.76935246 143.74708176 6.76311224 140.42777061 6.7559948 C128.84253146 6.73149691 117.25733709 6.7184481 105.67207336 6.71490479 C94.88217686 6.71127141 84.09256515 6.68139092 73.30275565 6.6395002 C64.03292631 6.60477566 54.76319121 6.58935595 45.49329728 6.58865875 C39.95968969 6.58786655 34.42637206 6.57915388 28.8928318 6.55066109 C23.6847472 6.52444428 18.47719217 6.52229563 13.26907158 6.53831673 C11.36237557 6.54012845 9.45564887 6.53346561 7.54901886 6.51749802 C-8.3434371 6.32041136 -8.3434371 6.32041136 -21.48149109 14.59405518 Z M-20.05082703 255.14044189 C-20.38082703 265.04044189 -20.71082703 274.94044189 -21.05082703 285.14044189 C-21.38082703 286.13044189 -21.71082703 287.12044189 -22.05082703 288.14044189 C52.52917297 288.14044189 127.10917297 288.14044189 203.94917297 288.14044189 C203.61917297 287.15044189 203.28917297 286.16044189 202.94917297 285.14044189 C202.61917297 275.24044189 202.28917297 265.34044189 201.94917297 255.14044189 C128.68917297 255.14044189 55.42917297 255.14044189 -20.05082703 255.14044189 Z " fill="#020101" transform="translate(165.0508270263672,216.85955810546875)"/>
<path d="M0 0 C4.75988982 2.69791326 7.70729524 7.16092164 9.23728943 12.37286377 C9.68714522 14.49832373 9.80806799 16.36506046 9.80102539 18.53417969 C9.80091209 19.70494049 9.80091209 19.70494049 9.80079651 20.89935303 C9.79563522 21.73178528 9.79047394 22.56421753 9.78515625 23.421875 C9.7837413 24.28186096 9.78232635 25.14184692 9.78086853 26.02789307 C9.77528097 28.76863109 9.76273075 31.50928676 9.75 34.25 C9.74498339 36.1106759 9.74042077 37.97135309 9.73632812 39.83203125 C9.72531561 44.38805246 9.70805951 48.94401228 9.6875 53.5 C10.35136719 53.6868335 11.01523437 53.87366699 11.69921875 54.06616211 C24.21866173 57.68606309 35.10935736 64.37216626 41.80078125 75.9765625 C46.03159293 83.88541649 49.14224596 91.40508081 48.6875 100.5 C49.450625 100.726875 50.21375 100.95375 51 101.1875 C54.4368432 102.86595831 55.31811787 103.92439111 56.6875 107.5 C56.93818892 110.71231621 56.88585872 113.49638845 55.6875 116.5 C52.15505294 120.42270738 49.82481993 121.80974668 44.52661133 122.13491821 C42.44112454 122.16454551 40.35513559 122.16665648 38.26953125 122.14697266 C36.55629166 122.16011505 36.55629166 122.16011505 34.80844116 122.17352295 C31.03857266 122.19550275 27.26988013 122.18096758 23.5 122.1640625 C20.87735774 122.167431 18.254717 122.17228389 15.63208008 122.17855835 C10.13772883 122.18764283 4.64371415 122.17569907 -0.85058594 122.15185547 C-7.19356986 122.12464589 -13.53575011 122.13346095 -19.87871456 122.1609875 C-25.99238132 122.18645222 -32.10569309 122.18370538 -38.21939087 122.16907883 C-40.81572584 122.16574412 -43.41208133 122.16983409 -46.00839233 122.18147659 C-49.63765744 122.19417965 -53.26538093 122.17481215 -56.89453125 122.14697266 C-58.50311508 122.16215439 -58.50311508 122.16215439 -60.14419556 122.17764282 C-68.26923273 122.06221514 -68.26923273 122.06221514 -71.96704102 119.09994507 C-74.94576606 115.79802355 -75.34281829 114.01816696 -75.55078125 109.72265625 C-75.16615849 106.13494561 -73.72188614 104.10474177 -71.3125 101.5 C-69.16796875 100.84375 -69.16796875 100.84375 -67.3125 100.5 C-67.29123047 99.51773438 -67.29123047 99.51773438 -67.26953125 98.515625 C-66.68531821 87.33662944 -62.68482539 77.89283821 -55.3125 69.5 C-54.76207031 68.83355469 -54.21164063 68.16710937 -53.64453125 67.48046875 C-47.12965037 60.21547365 -37.90910002 55.23806337 -28.3125 53.5 C-28.32821045 52.36046875 -28.3439209 51.2209375 -28.36010742 50.046875 C-28.41470033 45.79027466 -28.44895623 41.53370485 -28.47729492 37.27685547 C-28.49231496 35.43988834 -28.51273709 33.60295666 -28.53881836 31.76611328 C-28.57550202 29.11481946 -28.59229438 26.46400268 -28.60546875 23.8125 C-28.62095261 23.00071289 -28.63643646 22.18892578 -28.65238953 21.35253906 C-28.65435971 14.56881838 -27.42039819 9.06365997 -23 3.6875 C-16.02159453 -1.99259748 -8.4546976 -3.5960434 0 0 Z " fill="#020202" transform="translate(265.3125,1.5)"/>
<path d="M0 0 C0.79618258 -0.00467997 1.59236516 -0.00935994 2.41267449 -0.01418173 C5.08355852 -0.02615848 7.753932 -0.0166641 10.42481995 -0.00723267 C12.33845825 -0.01129721 14.25209421 -0.01663843 16.16572571 -0.02316284 C21.3661303 -0.03685708 26.56635664 -0.03152883 31.7667644 -0.02202559 C37.20569008 -0.01443882 42.64460034 -0.02147196 48.08352661 -0.02618408 C57.21896611 -0.03164496 66.35433289 -0.02444177 75.48976135 -0.01016235 C86.05416108 0.00615989 96.61838708 0.00088005 107.18278259 -0.01564157 C116.24869889 -0.02925277 125.31456286 -0.03117773 134.38048607 -0.02332556 C139.7970461 -0.01864642 145.21352447 -0.01803076 150.63007927 -0.02793503 C155.72314464 -0.03659688 160.81598595 -0.03059696 165.9090271 -0.01325226 C167.77910553 -0.00928304 169.6492028 -0.01042888 171.51927376 -0.01704025 C174.07055877 -0.02522878 176.62112421 -0.01496689 179.17236328 0 C180.28452663 -0.01003825 180.28452663 -0.01003825 181.41915792 -0.02027929 C185.84775289 0.03016984 188.60473475 0.70458083 192.14967346 3.38095093 C196.37603527 7.76632437 198.84628881 13.25493052 201.58717346 18.63095093 C202.10867981 19.6409314 202.63018616 20.65091187 203.16749573 21.6914978 C204.83345225 24.91865244 206.49226792 28.14939737 208.14967346 31.38095093 C216.09151811 46.85220144 224.25294332 62.14202524 232.93556213 77.21224976 C235.36554662 81.55279915 236.76294285 84.27037266 236.14967346 89.38095093 C234.10973438 93.03877273 232.64548085 95.05041267 229.14967346 97.38095093 C226.46217346 97.50595093 226.46217346 97.50595093 224.14967346 97.38095093 C224.16538391 97.98455444 224.18109436 98.58815796 224.19728088 99.21005249 C224.63474811 118.57674484 222.89444117 135.3311558 210.02467346 150.75595093 C199.51468981 161.58657815 185.89014901 167.56332468 170.84034729 167.89561462 C167.6786784 167.93650339 164.51854014 167.92793819 161.35670471 167.91439819 C159.60249613 167.9214711 157.84829365 167.93022184 156.09410095 167.94050598 C151.36677442 167.96285388 146.63978498 167.96009499 141.91242599 167.95118451 C137.95136311 167.94604586 133.99036198 167.95339025 130.02930546 167.96065658 C120.67907286 167.97760864 111.32900365 167.97413654 101.97877502 167.95736694 C92.36229235 167.9404419 82.74626351 167.95629616 73.12983036 167.98858982 C64.84320012 168.01535397 56.55671056 168.02254359 48.27004147 168.01407474 C43.33395238 168.00916644 38.39813628 168.01124719 33.46208191 168.03186226 C28.81933331 168.05032762 24.17723373 168.04412926 19.5345192 168.01966286 C17.84033653 168.01468961 16.14610345 168.01805303 14.45196152 168.03081131 C0.18583394 168.12967008 -11.30867845 165.28450803 -22.85032654 156.38095093 C-23.53739685 155.86919312 -24.22446716 155.3574353 -24.93235779 154.83016968 C-35.72784148 146.18139785 -41.9482839 132.88110145 -43.85032654 119.38095093 C-44.06456678 115.4998684 -44.04276223 111.64128432 -43.97532654 107.75595093 C-43.9663031 106.75177124 -43.95727966 105.74759155 -43.94798279 104.71298218 C-43.924704 102.26870966 -43.89201141 99.82496684 -43.85032654 97.38095093 C-44.95634216 97.26622437 -46.06235779 97.1514978 -47.20188904 97.03329468 C-50.85032654 96.38095093 -50.85032654 96.38095093 -53.22532654 93.94345093 C-55.6854792 90.06397943 -56.18335641 88.01532455 -55.85032654 83.38095093 C-54.72386169 80.59872437 -54.72386169 80.59872437 -53.13938904 77.74032593 C-52.55931091 76.67958862 -51.97923279 75.61885132 -51.38157654 74.52597046 C-50.75251404 73.40561401 -50.12345154 72.28525757 -49.47532654 71.13095093 C-48.82572163 69.95174302 -48.17729466 68.77188548 -47.53001404 67.59140015 C-44.78245571 62.59352202 -41.98956234 57.62117342 -39.18626404 52.65438843 C-38.4073085 51.27175036 -37.62865262 49.88894343 -36.85032654 48.50595093 C-36.46731384 47.82838745 -36.08430115 47.15082397 -35.68968201 46.45272827 C-33.10225633 41.81222511 -30.68748665 37.09719976 -28.33470154 32.33407593 C-27.87275391 31.40031631 -27.87275391 31.40031631 -27.401474 30.44769287 C-25.86981309 27.34594497 -24.34990712 24.2391267 -22.84642029 21.12362671 C-12.44530054 -0.11199279 -12.44530054 -0.11199279 0 0 Z M-9.85032654 10.38095093 C-11.64570459 13.06527793 -11.64570459 13.06527793 -13.11985779 16.11532593 C-13.69405457 17.23809937 -14.26825134 18.3608728 -14.85984802 19.51766968 C-15.46101108 20.72201181 -16.06200022 21.92644077 -16.66282654 23.13095093 C-17.29335749 24.37237573 -17.92495677 25.61325847 -18.55760193 26.85360718 C-21.39073795 32.42241681 -24.17053762 38.01712063 -26.92478943 43.62533569 C-27.3519928 44.49436523 -27.3519928 44.49436523 -27.78782654 45.38095093 C-28.07198425 45.95965942 -28.35614197 46.53836792 -28.64891052 47.13461304 C-32.12563652 54.10184333 -35.94237995 60.88947312 -39.72532654 67.69345093 C-40.06264801 68.3005188 -40.39996948 68.90758667 -40.74751282 69.53305054 C-46.44510693 79.77312152 -46.44510693 79.77312152 -48.85032654 83.38095093 C-49.18373125 86.4229052 -49.18373125 86.4229052 -48.85032654 89.38095093 C-46.38587977 91.84539769 -45.71908052 91.63130843 -42.33065796 91.63263321 C-41.37345887 91.6378487 -40.41625978 91.6430642 -39.43005466 91.64843774 C-38.37112475 91.64397629 -37.31219484 91.63951485 -36.22117615 91.63491821 C-35.10198508 91.63803819 -33.98279402 91.64115818 -32.82968807 91.6443727 C-29.05396297 91.65239327 -25.27839678 91.64601326 -21.50267029 91.63973999 C-18.80614241 91.64244805 -16.10962574 91.64593518 -13.4131012 91.65036011 C-6.83400485 91.65927174 -0.25495403 91.65732425 6.32414412 91.65153483 C11.66924016 91.64702528 17.01432339 91.64640236 22.35942078 91.64858246 C23.11902133 91.64888892 23.87862188 91.64919539 24.66124064 91.64951114 C26.20416411 91.65015057 27.74708758 91.65079899 29.29001105 91.65145633 C43.77142326 91.65716481 58.25281018 91.65059362 72.73421824 91.63985559 C85.17056754 91.63091961 97.60687952 91.63247151 110.04322815 91.64169312 C124.4714275 91.65238662 138.89960467 91.65661543 153.32780743 91.65046859 C154.86518033 91.64983146 156.40255324 91.64920272 157.93992615 91.64858246 C158.69642096 91.64827391 159.45291577 91.64796536 160.23233467 91.64764746 C165.57344885 91.64591775 170.914549 91.64884154 176.25566101 91.65354156 C182.76119859 91.6591402 189.26668788 91.65765548 195.7722199 91.64698008 C199.09395049 91.64170957 202.41558342 91.64075941 205.73731613 91.64627838 C209.3318002 91.65170198 212.92605389 91.64493855 216.52052307 91.63491821 C218.10891794 91.64161038 218.10891794 91.64161038 219.72940159 91.64843774 C220.68660068 91.64322224 221.64379976 91.63800675 222.63000488 91.63263321 C223.87575995 91.63214615 223.87575995 91.63214615 225.14668179 91.63164926 C227.3795318 91.56030242 227.3795318 91.56030242 229.14967346 89.38095093 C229.58865287 84.94037218 228.94006676 82.27808707 226.69264221 78.46688843 C226.16243469 77.55117065 225.63222717 76.63545288 225.08595276 75.69198608 C224.22030701 74.23864868 224.22030701 74.23864868 223.33717346 72.75595093 C222.13835151 70.68876733 220.94045084 68.62104921 219.74342346 66.55282593 C219.13885315 65.51706421 218.53428284 64.48130249 217.91139221 63.41415405 C215.33269224 58.97433027 212.81969224 54.5001507 210.33717346 50.00595093 C209.66114075 48.78246948 209.66114075 48.78246948 208.97145081 47.53427124 C205.73239693 41.60334115 202.82474148 35.56075342 200.00489807 29.42196655 C194.5525409 16.23353328 194.5525409 16.23353328 185.14967346 6.38095093 C182.51638058 6.09028831 180.12107181 5.97142957 177.48916626 5.99327087 C176.71340144 5.98788534 175.93763662 5.9824998 175.13836378 5.97695106 C172.53658536 5.96263333 169.93531298 5.96978448 167.33351135 5.97689819 C165.46913239 5.97119661 163.60475691 5.96423318 161.74038696 5.95610046 C156.6742838 5.93813044 151.60835347 5.93934467 146.54222798 5.94504285 C142.31494247 5.94812917 138.08769043 5.94204845 133.86040968 5.9360041 C123.88885025 5.92194784 113.91737648 5.92352931 103.94581604 5.93490601 C93.6540352 5.94638848 83.36251491 5.93231184 73.07076842 5.90550953 C64.23839227 5.88336785 55.40609801 5.87671169 46.57369608 5.88258594 C41.29682995 5.88596037 36.02013086 5.88350821 30.74328804 5.86633492 C25.78149556 5.8508923 20.82008966 5.8547915 15.85831261 5.87364006 C14.03660787 5.87733339 12.21487466 5.87419587 10.39319611 5.86375427 C7.90740389 5.8505932 5.4229007 5.86204754 2.93716431 5.87974548 C1.85418307 5.86533797 1.85418307 5.86533797 0.74932343 5.8506394 C-4.0578962 5.9211266 -6.47393663 6.98076732 -9.85032654 10.38095093 Z M-36.85032654 97.38095093 C-37.22801206 124.18210758 -37.22801206 124.18210758 -24.71360779 146.65438843 C-10.88559378 159.46776829 2.72096538 161.68437378 20.86183167 161.67147827 C22.54810379 161.67747046 24.23437319 161.68427759 25.92063904 161.6918335 C30.48069855 161.70942952 35.04068291 161.71418614 39.6007731 161.71546507 C42.45512111 161.71689076 45.30945026 161.72116823 48.16379356 161.7264595 C58.13688232 161.744938 68.10991776 161.75313277 78.08302307 161.7515564 C87.35514109 161.75035531 96.62702623 161.7714568 105.89908534 161.80304372 C113.88071571 161.8292582 121.86227025 161.83992154 129.8439433 161.83864558 C134.60174749 161.8381375 139.35934448 161.84373495 144.11710548 161.86500168 C148.59472372 161.88447172 153.07193892 161.88444909 157.54957199 161.86996841 C159.18451596 161.86789011 160.81948574 161.87252231 162.45438576 161.88468933 C178.14828486 161.99383838 192.38849843 158.48872735 204.14967346 147.38095093 C217.32107989 131.96245416 217.14967346 118.15346933 217.14967346 97.38095093 C133.32967346 97.38095093 49.50967346 97.38095093 -36.85032654 97.38095093 Z " fill="#030101" transform="translate(165.85032653808594,233.61904907226563)"/>
<path d="M0 0 C0.9741259 -0.00020928 1.9482518 -0.00041857 2.95189667 -0.00063419 C4.07076767 -0.01046833 5.18963867 -0.02030247 6.34241486 -0.03043461 C7.57056412 -0.02076664 8.79871338 -0.01109867 10.06407928 -0.00113773 C11.35692337 -0.00654072 12.64976746 -0.0119437 13.98178864 -0.01751041 C17.52939014 -0.03148742 21.07650787 -0.02028003 24.62408257 -0.0037992 C28.33426939 0.01003768 32.04442774 0.00359278 35.75463104 0.00006771 C41.98562682 -0.00263551 48.21643009 0.01085059 54.44738007 0.03401852 C61.65416787 0.06062909 68.86063376 0.06237585 76.06745386 0.05063015 C82.99637889 0.03985581 89.92518732 0.04603669 96.85410309 0.06018543 C99.8046214 0.06594827 102.75505446 0.06586025 105.70557404 0.06112003 C109.82395244 0.05546739 113.94184889 0.07465579 118.06017303 0.09651852 C119.2883223 0.09201687 120.51647156 0.08751522 121.78183746 0.08287716 C123.46014397 0.09773411 123.46014397 0.09773411 125.17235565 0.1128912 C126.14648155 0.11532109 127.12060745 0.11775099 128.12425232 0.12025452 C130.97553728 0.56506481 131.87422155 1.19729345 133.56212616 3.50057125 C133.95030975 5.81307125 133.95030975 5.81307125 133.96056366 8.50057125 C133.96443085 9.46994625 133.96829803 10.43932125 133.97228241 11.43807125 C133.95488007 12.95400875 133.95488007 12.95400875 133.93712616 14.50057125 C133.94872772 15.51119625 133.96032928 16.52182125 133.97228241 17.56307125 C133.96841522 18.53244625 133.96454803 19.50182125 133.96056366 20.50057125 C133.95717987 21.38744625 133.95379608 22.27432125 133.95030975 23.18807125 C133.47024124 26.04795109 132.85207648 26.75752644 130.56212616 28.50057125 C128.12425232 28.88088799 128.12425232 28.88088799 125.17235565 28.8882513 C124.05348465 28.89815594 122.93461365 28.90806057 121.78183746 28.91826534 C120.5536882 28.91376369 119.32553894 28.90926205 118.06017303 28.90462399 C116.76732895 28.91148724 115.47448486 28.91835049 114.14246368 28.92542171 C110.5949607 28.94338685 107.0477046 28.9421787 103.50016975 28.93647933 C100.54025786 28.93339267 97.58039375 28.93947399 94.62048864 28.94551808 C87.63924288 28.95957234 80.65811946 28.95799423 73.67687225 28.94661617 C66.47004068 28.93513016 59.26358102 28.94921638 52.05679846 28.97601265 C45.87242682 28.99814804 39.68817212 29.00481206 33.50376368 28.99893624 C29.80864463 28.99556068 26.11376409 28.99802115 22.41867828 29.01518726 C18.3002378 29.03348471 14.18252431 29.01949182 10.06407928 29.00228024 C8.83593002 29.0119482 7.60778076 29.02161617 6.34241486 29.03157711 C5.22354385 29.02174297 4.10467285 29.01190884 2.95189667 29.0017767 C1.97777077 29.00156741 1.00364487 29.00135813 0 29.0011425 C-2.43787384 28.50057125 -2.43787384 28.50057125 -4.25047302 26.60840607 C-5.62610113 24.16643637 -5.82438836 22.66441416 -5.83631134 19.87557125 C-5.84017853 19.004165 -5.84404572 18.13275875 -5.84803009 17.23494625 C-5.83642853 16.3326025 -5.82482697 15.43025875 -5.81287384 14.50057125 C-5.8244754 13.5982275 -5.83607697 12.69588375 -5.84803009 11.76619625 C-5.8441629 10.89479 -5.84029572 10.02338375 -5.83631134 9.12557125 C-5.83292755 8.33408688 -5.82954376 7.5426025 -5.82605743 6.72713375 C-5.17810371 3.01056898 -3.79715288 0.77967347 0 0 Z " fill="#EDEFED" transform="translate(192.43787384033203,422.4994287490845)"/>
<path d="M0 0 C1.4981434 -0.01146085 2.9962479 -0.03181832 4.49414062 -0.06152344 C17.93601284 -0.32765496 28.40417824 1.85701495 39.20336914 10.29516602 C39.81954102 10.7734082 40.43571289 11.25165039 41.07055664 11.74438477 C47.54286533 17.45439932 51.50248199 26.19250457 54.20336914 34.29516602 C54.20336914 36.60516602 54.20336914 38.91516602 54.20336914 41.29516602 C20.54336914 41.29516602 -13.11663086 41.29516602 -47.79663086 41.29516602 C-47.79663086 29.55013216 -42.83298246 20.50564314 -34.76538086 12.20532227 C-24.03221012 2.05794077 -14.29719867 0.07595823 0 0 Z " fill="#EAECEA" transform="translate(252.796630859375,60.704833984375)"/>
<path d="M0 0 C0.77661924 -0.00623996 1.55323849 -0.01247993 2.35339165 -0.01890898 C4.95221309 -0.03484673 7.5500976 -0.02223209 10.14892578 -0.00964355 C12.01345364 -0.01506434 13.87797722 -0.02218675 15.74249268 -0.03088379 C20.80446109 -0.04912525 25.86610355 -0.04204617 30.9280777 -0.02936745 C36.22419619 -0.01924408 41.52028667 -0.02863128 46.81640625 -0.03491211 C55.71050022 -0.04219044 64.60446135 -0.03259591 73.49853516 -0.0135498 C83.78296237 0.00821925 94.0670724 0.00116801 104.35149193 -0.02085543 C113.17965092 -0.0390041 122.00771439 -0.04157034 130.835886 -0.03110075 C136.10937322 -0.02486291 141.38271132 -0.02403823 146.65618896 -0.0372467 C151.61390794 -0.04879679 156.57121777 -0.04079477 161.52889252 -0.01766968 C163.34897939 -0.0123781 165.16910067 -0.01390403 166.98917389 -0.02272034 C169.47274048 -0.03364191 171.95499379 -0.01995423 174.43847656 0 C175.52043462 -0.01338433 175.52043462 -0.01338433 176.62425041 -0.02703905 C181.42827507 0.04789659 183.84451187 1.11076888 187.21923828 4.50793457 C188.94506836 7.18664551 188.94506836 7.18664551 190.48876953 10.24230957 C191.06296631 11.36508301 191.63716309 12.48785645 192.22875977 13.64465332 C192.82992282 14.84899545 193.43091197 16.05342441 194.03173828 17.25793457 C194.66226924 18.49935937 195.29386851 19.74024211 195.92651367 20.98059082 C198.75964969 26.54940045 201.53944936 32.14410427 204.29370117 37.75231934 C204.57850342 38.33167236 204.86330566 38.91102539 205.15673828 39.50793457 C205.440896 40.08664307 205.72505371 40.66535156 206.01782227 41.26159668 C209.49454826 48.22882698 213.31129169 55.01645676 217.09423828 61.82043457 C217.60022049 62.73103638 217.60022049 62.73103638 218.11642456 63.66003418 C221.98378637 70.69514522 221.98378637 70.69514522 226.21923828 77.50793457 C226.46923828 80.57043457 226.46923828 80.57043457 226.21923828 83.50793457 C224.21923828 85.50793457 224.21923828 85.50793457 222.21394527 85.75633156 C220.96656398 85.7551924 220.96656398 85.7551924 219.69398308 85.75403023 C218.25633435 85.76000337 218.25633435 85.76000337 216.78964221 85.76609719 C215.19920099 85.75735866 215.19920099 85.75735866 213.57662964 85.7484436 C212.45602744 85.75015245 211.33542525 85.7518613 210.18086541 85.75362194 C206.40046118 85.75693395 202.62023181 85.74588498 198.83984375 85.73498535 C196.14007453 85.73330996 193.44030881 85.73464887 190.74053955 85.73587036 C184.91503949 85.73692064 179.08958412 85.7306292 173.26409531 85.71939468 C164.8413541 85.70316189 156.41863458 85.69793396 147.99587943 85.6954187 C134.33155059 85.6910381 120.66724558 85.67771912 107.00292969 85.65881348 C93.72688924 85.64046411 80.45085525 85.62630299 67.17480469 85.61779785 C65.94793768 85.61700968 65.94793768 85.61700968 64.69628547 85.61620559 C60.59319126 85.61359557 56.490097 85.61106814 52.38700271 85.60858178 C18.33106394 85.58783792 -15.72484597 85.55260248 -49.78076172 85.50793457 C-49.78076172 85.17793457 -49.78076172 84.84793457 -49.78076172 84.50793457 C37.99923828 84.17793457 125.77923828 83.84793457 216.21923828 83.50793457 C210.93923828 73.93793457 205.65923828 64.36793457 200.21923828 54.50793457 C197.89990753 49.93850682 195.59387104 45.37526933 193.3359375 40.77746582 C190.78338989 35.58977834 188.20356754 30.41731511 185.59423828 25.25793457 C184.78563354 23.61196289 184.78563354 23.61196289 183.96069336 21.93273926 C183.43499756 20.90052246 182.90930176 19.86830566 182.36767578 18.80480957 C181.90538574 17.88022949 181.4430957 16.95564941 180.96679688 16.00305176 C178.73096204 12.81078687 176.63122621 11.40225337 173.21923828 9.50793457 C170.48765188 9.13622828 168.17059067 8.97784791 165.44989014 9.02018738 C164.3050059 9.01400248 164.3050059 9.01400248 163.13699269 9.00769264 C160.58949398 8.99879033 158.04303247 9.01839245 155.49560547 9.03796387 C153.66547521 9.03745491 151.83534474 9.03519815 150.00521851 9.03132629 C145.04264089 9.02591057 140.08043709 9.04530704 135.1179266 9.06942725 C129.92720131 9.09072367 124.73647737 9.09012838 119.54571533 9.09211731 C110.83330856 9.09856279 102.12104229 9.11980557 93.40869141 9.15124512 C82.21471631 9.19158588 71.02083264 9.20894011 59.82679367 9.2185545 C50.2117522 9.22684589 40.5967302 9.24408355 30.98170567 9.263592 C27.88572074 9.2696639 24.78973507 9.2748036 21.69374847 9.27994347 C16.83792833 9.28870865 11.98215376 9.30300002 7.12636185 9.32165337 C5.34048843 9.32778856 3.55460832 9.33223164 1.76872635 9.33489609 C-0.66067557 9.33886191 -3.0899735 9.34896453 -5.51934814 9.36076355 C-6.23314613 9.36057919 -6.94694411 9.36039482 -7.68237233 9.36020488 C-11.35518243 9.33835911 -11.35518243 9.33835911 -14.78076172 10.50793457 C-12.68631764 2.13015827 -8.27945871 -0.1024208 0 0 Z " fill="#57ABD0" transform="translate(168.78076171875,239.4920654296875)"/>
<path d="M0 0 C1.67169754 -0.01279495 1.67169754 -0.01279495 3.37716675 -0.02584839 C4.59543655 -0.02494202 5.81370636 -0.02403564 7.06889343 -0.02310181 C8.35545837 -0.02981903 9.64202332 -0.03653625 10.96757507 -0.04345703 C14.49457428 -0.0611164 18.02147642 -0.06581243 21.54851556 -0.0670886 C23.75369985 -0.06851101 25.95885953 -0.07278234 28.1640377 -0.07808304 C35.86199381 -0.09658441 43.55988068 -0.10475368 51.25785828 -0.10317993 C58.42542213 -0.10197909 65.59268458 -0.12306962 72.76017219 -0.15466726 C78.91998593 -0.18085163 85.07970138 -0.1915463 91.23957032 -0.19026911 C94.91581613 -0.18976003 98.59179417 -0.1954129 102.26798439 -0.21662521 C106.37109975 -0.23965451 110.47354365 -0.23047359 114.57670593 -0.21841431 C115.78890305 -0.22965332 117.00110016 -0.24089233 118.25003052 -0.25247192 C124.90084769 -0.20278599 129.13025757 0.24879082 134.51689148 4.26742554 C138.77936157 8.80883028 137.99486003 14.83698568 137.95439148 20.70492554 C137.97437195 21.72908569 137.99435242 22.75324585 138.01493835 23.80844116 C138.01108008 29.76947993 137.75240337 33.70773137 133.51689148 38.26742554 C127.85106892 43.39869761 122.09190046 42.83421304 114.7219696 42.78500366 C113.43350632 42.79201294 112.14504303 42.79902222 110.8175354 42.8062439 C107.29471881 42.82443066 103.77237244 42.81742937 100.24954796 42.80472755 C96.55678956 42.79457557 92.86407047 42.80399932 89.17131042 42.81027222 C82.9708384 42.81754226 76.77055717 42.80797794 70.57011414 42.78890991 C63.40927543 42.76714222 56.24889234 42.77419406 49.08806467 42.79621553 C42.93159803 42.814388 36.77526827 42.81691889 30.61878347 42.80646086 C26.94542572 42.800236 23.27228187 42.79936229 19.59893799 42.81260681 C15.50295687 42.82634453 11.40775684 42.80728571 7.31181335 42.78500366 C6.09916306 42.79310059 4.88651276 42.80119751 3.63711548 42.80953979 C-2.67968781 42.7458483 -6.73014141 42.61277623 -11.48310852 38.26742554 C-15.63420303 32.8902207 -14.99807471 27.35144175 -14.98310852 20.82992554 C-15.0114679 19.71037476 -15.03982727 18.59082397 -15.06904602 17.43734741 C-15.0908385 8.25726508 -15.0908385 8.25726508 -12.20185852 4.60726929 C-8.07857843 1.05864174 -5.44327502 0.0188471 0 0 Z M-7.2957077 9.15959072 C-8.67133581 11.60156042 -8.86962304 13.10358263 -8.88154602 15.89242554 C-8.88541321 16.76383179 -8.8892804 17.63523804 -8.89326477 18.53305054 C-8.88166321 19.43539429 -8.87006165 20.33773804 -8.85810852 21.26742554 C-8.86971008 22.16976929 -8.88131165 23.07211304 -8.89326477 24.00180054 C-8.88939758 24.87320679 -8.8855304 25.74461304 -8.88154602 26.64242554 C-8.87816223 27.43390991 -8.87477844 28.22539429 -8.87129211 29.04086304 C-8.37118611 31.90939559 -7.4957697 33.16641642 -5.48310852 35.26742554 C-2.97809537 35.86686255 -2.97809537 35.86686255 -0.09333801 35.76863098 C1.58496849 35.78338219 1.58496849 35.78338219 3.29718018 35.7984314 C4.52532944 35.78876343 5.7534787 35.77909546 7.0188446 35.76913452 C8.95811073 35.777239 8.95811073 35.777239 10.93655396 35.7855072 C14.48415546 35.79948421 18.03127319 35.78827682 21.57884789 35.77179599 C25.28903471 35.7579591 28.99919306 35.764404 32.70939636 35.76792908 C38.94039214 35.77063229 45.17119541 35.75714619 51.40214539 35.73397827 C58.60893319 35.7073677 65.81539908 35.70562094 73.02221918 35.71736664 C79.95114421 35.72814098 86.87995264 35.7219601 93.80886841 35.70781136 C96.75938671 35.70204852 99.70981978 35.70213654 102.66033936 35.70687675 C106.77871776 35.7125294 110.89661421 35.69334099 115.01493835 35.67147827 C116.85716225 35.67823074 116.85716225 35.67823074 118.73660278 35.68511963 C119.85547379 35.675215 120.97434479 35.66531036 122.12712097 35.65510559 C123.10124687 35.6526757 124.07537277 35.6502458 125.07901764 35.64774227 C127.9303026 35.20293198 128.82898687 34.57070334 130.51689148 32.26742554 C130.97773578 29.9039923 130.97773578 29.9039923 130.91532898 27.26742554 C130.91919617 26.29805054 130.92306335 25.32867554 130.92704773 24.32992554 C130.91544617 23.31930054 130.9038446 22.30867554 130.89189148 21.26742554 C130.90929382 19.75148804 130.90929382 19.75148804 130.92704773 18.20492554 C130.92318054 17.23555054 130.91931335 16.26617554 130.91532898 15.26742554 C130.9102533 13.93711304 130.9102533 13.93711304 130.90507507 12.57992554 C130.42500656 9.7200457 129.8068418 9.01047035 127.51689148 7.26742554 C125.00413849 6.81230057 125.00413849 6.81230057 122.12712097 6.87974548 C120.44881447 6.86488853 120.44881447 6.86488853 118.73660278 6.84973145 C116.89437889 6.85648392 116.89437889 6.85648392 115.01493835 6.8633728 C113.07567223 6.85307793 113.07567223 6.85307793 111.097229 6.84257507 C107.54972602 6.82460994 104.00246992 6.82581809 100.45493507 6.83151746 C97.49502318 6.83460412 94.53515907 6.82852279 91.57525396 6.82247871 C84.5940082 6.80842445 77.61288478 6.81000256 70.63163757 6.82138062 C63.424806 6.83286663 56.21834634 6.8187804 49.01156378 6.79198414 C42.82719214 6.76984875 36.64293744 6.76318473 30.458529 6.76906055 C26.76340995 6.77243611 23.06852941 6.76997564 19.3734436 6.75280952 C15.25500312 6.73451207 11.13728963 6.74850497 7.0188446 6.76571655 C5.79069534 6.75604858 4.56254608 6.74638062 3.29718018 6.73641968 C1.61887367 6.75117088 1.61887367 6.75117088 -0.09333801 6.76622009 C-1.55452686 6.76653402 -1.55452686 6.76653402 -3.04523468 6.76685429 C-5.62396013 7.05573316 -5.62396013 7.05573316 -7.2957077 9.15959072 Z " fill="#0E0A09" transform="translate(195.4831085205078,415.7325744628906)"/>
<path d="M0 0 C2.09879547 0.46844389 4.20145491 0.91566081 6.30493164 1.36254883 C7.65612921 1.66269602 9.00705176 1.96408453 10.35766602 2.2668457 C11.56656494 2.53279541 12.77546387 2.79874512 14.02099609 3.07275391 C20.22317563 5.132393 23.23928851 9.0700502 26.65063477 14.46606445 C27.35961914 15.55532227 28.06860352 16.64458008 28.79907227 17.7668457 C30.57813117 21.84738557 30.5422591 23.91290618 29.27563477 28.15356445 C27.47979599 30.20543827 26.00334587 31.04427622 23.30078125 31.45014954 C20.77107663 31.60223789 18.25914949 31.64804868 15.72485352 31.6574707 C14.79268509 31.6674559 13.86051666 31.6774411 12.90010071 31.68772888 C10.92905103 31.70290388 8.95792444 31.70995486 6.98681641 31.70947266 C3.9834758 31.71602011 0.98346655 31.77046717 -2.01928711 31.82739258 C-3.93789564 31.83619808 -5.85651982 31.84215 -7.77514648 31.8449707 C-8.66704178 31.86652725 -9.55893707 31.8880838 -10.4778595 31.91029358 C-16.20900308 31.8478738 -19.21881618 30.70291548 -23.36932373 26.71412659 C-28.81743809 20.43969075 -30.67545878 11.86627683 -30.25952148 3.73950195 C-29.70741984 1.07168235 -29.23166782 -0.21764342 -27.34936523 -2.15893555 C-19.1323062 -5.9841182 -8.55401977 -1.92387259 0 0 Z " fill="#070401" transform="translate(106.724365234375,369.846435546875)"/>
<path d="M0 0 C2.72790627 2.54843875 3.10257723 4.63219591 3.25 8.3125 C2.73773669 17.14010719 -0.10072106 24.91322106 -6.375 31.1875 C-9.46685341 33.24873561 -10.18204078 33.44495829 -13.69116211 33.49389648 C-14.55893784 33.50988388 -15.42671356 33.52587128 -16.32078552 33.54234314 C-17.25519974 33.54770584 -18.18961395 33.55306854 -19.15234375 33.55859375 C-20.11523819 33.56762222 -21.07813263 33.5766507 -22.07020569 33.58595276 C-24.1069121 33.60046155 -26.14366518 33.60934355 -28.18041992 33.61303711 C-31.29750921 33.62494274 -34.41262495 33.67412998 -37.52929688 33.72460938 C-39.50780283 33.73407246 -41.48632095 33.74130804 -43.46484375 33.74609375 C-44.86342873 33.77539223 -44.86342873 33.77539223 -46.29026794 33.80528259 C-52.754296 33.76017368 -52.754296 33.76017368 -55.9621582 30.80053711 C-57.60208275 27.76751267 -58.03755237 26.57053257 -57.375 23.1875 C-56.0405327 20.6725424 -54.70226057 18.41108549 -53.125 16.0625 C-52.72925781 15.44246094 -52.33351563 14.82242187 -51.92578125 14.18359375 C-48.19044468 8.48873635 -45.24239844 6.1140353 -38.61328125 4.65234375 C-37.49373047 4.40033203 -36.37417969 4.14832031 -35.22070312 3.88867188 C-34.05474609 3.63666016 -32.88878906 3.38464844 -31.6875 3.125 C-30.54087891 2.86912109 -29.39425781 2.61324219 -28.21289062 2.34960938 C-25.96907055 1.84998373 -23.72421643 1.35497558 -21.47827148 0.86499023 C-18.73020931 0.26504746 -15.9859244 -0.34941201 -13.2421875 -0.96875 C-7.78343754 -2.15974999 -5.00669178 -2.68877892 0 0 Z " fill="#070401" transform="translate(432.375,367.8125)"/>
<path d="M0 0 C0.95169067 0.23771118 0.95169067 0.23771118 1.92260742 0.48022461 C6.0327829 1.1744383 10.07638129 1.23449356 14.23828125 1.31640625 C15.11904831 1.33718735 15.99981537 1.35796844 16.90727234 1.37937927 C19.70893879 1.44453937 22.51069557 1.50360321 25.3125 1.5625 C27.21680606 1.60571715 29.12110312 1.64933244 31.02539062 1.69335938 C35.68350218 1.80018623 40.34170422 1.9015474 45 2 C45.14532035 6.56216465 45.23408477 11.12373362 45.3125 15.6875 C45.35439453 16.98107422 45.39628906 18.27464844 45.43945312 19.60742188 C45.45556641 20.85458984 45.47167969 22.10175781 45.48828125 23.38671875 C45.51446533 24.53358154 45.54064941 25.68044434 45.56762695 26.86206055 C44.79800643 31.11665523 43.50502019 32.50231458 40 35 C37.05808391 35.48745933 34.70925607 35.68079763 31.77734375 35.62890625 C30.60359947 35.63252419 30.60359947 35.63252419 29.40614319 35.63621521 C27.75793368 35.63523889 26.10969052 35.62189628 24.46166992 35.59692383 C21.94141237 35.56255336 19.42465213 35.57628742 16.90429688 35.59570312 C15.29946428 35.58880572 13.6946407 35.57913428 12.08984375 35.56640625 C11.33871811 35.57136612 10.58759247 35.57632599 9.81370544 35.58143616 C6.50324822 35.50700051 4.33062952 35.21149488 1.51879883 33.4128418 C-0.57259508 30.09034605 -0.4547169 27.73773101 -0.390625 23.828125 C-0.38496521 23.1457074 -0.37930542 22.46328979 -0.37347412 21.76019287 C-0.35115636 19.58940238 -0.30097508 17.42028794 -0.25 15.25 C-0.22992876 13.7747635 -0.21167907 12.29950101 -0.1953125 10.82421875 C-0.1513088 7.21560499 -0.08231583 3.60796619 0 0 Z " fill="#868686" transform="translate(93,470)"/>
<path d="M0 0 C0.12383963 4.19911597 0.21444607 8.39725816 0.2746582 12.59765625 C0.29976347 14.02557901 0.33385587 15.45337375 0.37719727 16.88085938 C0.43803678 18.93651918 0.46624551 20.99047753 0.48828125 23.046875 C0.51446533 24.28276367 0.54064941 25.51865234 0.56762695 26.79199219 C0 30 0 30 -2.0324707 32.39916992 C-5.72735662 34.39237164 -8.86932468 34.59448646 -12.96875 34.56640625 C-13.72667847 34.57260483 -14.48460693 34.57880341 -15.26550293 34.58518982 C-16.86237305 34.59226989 -18.45931727 34.58914558 -20.05615234 34.57641602 C-22.49324808 34.56253845 -24.92650885 34.59665264 -27.36328125 34.63476562 C-28.91927177 34.63571684 -30.47526707 34.63385786 -32.03125 34.62890625 C-32.75534058 34.64216446 -33.47943115 34.65542267 -34.22546387 34.66908264 C-37.98544443 34.6002087 -39.88737548 34.08068567 -42.9675293 31.87402344 C-45.42874364 28.39373331 -45.58479002 26.61380298 -45.48828125 22.38671875 C-45.47216797 21.13955078 -45.45605469 19.89238281 -45.43945312 18.60742188 C-45.39755859 17.31384766 -45.35566406 16.02027344 -45.3125 14.6875 C-45.28994141 13.37458984 -45.26738281 12.06167969 -45.24414062 10.70898438 C-45.18527725 7.4714987 -45.10308804 4.23633 -45 1 C-39.39495834 0.85677909 -33.78989648 0.7143864 -28.18481445 0.57275391 C-26.27888422 0.5244779 -24.37295966 0.47597743 -22.46704102 0.42724609 C-19.72413579 0.3571536 -16.98121103 0.28787406 -14.23828125 0.21875 C-13.38913651 0.19687622 -12.53999176 0.17500244 -11.66511536 0.15246582 C-7.77560856 0.05518227 -3.89112805 -0.02767024 0 0 Z " fill="#868686" transform="translate(419,471)"/>
<path d="M0 0 C2.22265625 0.109375 2.22265625 0.109375 5 1 C6.73087669 3.08307247 8.06447353 4.95046222 9.4375 7.25 C9.82220459 7.87608154 10.20690918 8.50216309 10.60327148 9.1472168 C21.95020252 27.9845901 21.95020252 27.9845901 20 37 C18.35509741 42.59469955 15.54353436 46.33059869 10.40625 49.1484375 C4.88585433 51.10208402 -0.88585433 51.10208402 -6.40625 49.1484375 C-10.74573409 46.76819809 -13.19720003 43.83313787 -15.40625 39.453125 C-17.18915207 32.08692434 -15.85971965 26.26323061 -12.5 19.625 C-12.14486328 18.89547119 -11.78972656 18.16594238 -11.42382812 17.41430664 C-8.25575883 11.09974321 -4.45805662 5.48957504 0 0 Z " fill="#010203" transform="translate(254,145)"/>
<path d="M0 0 C3.03662476 0.31609916 4.59266045 0.58817433 6.7734375 2.79296875 C21.66761795 25.06158488 21.66761795 25.06158488 20 38 C18.11694518 42.95674071 15.00860989 46.99138462 10.15625 49.375 C4.15562359 51.114312 -1.88487953 51.01979022 -7.5 48.3125 C-11.95639693 44.19033284 -15.62043045 40.26804872 -16.17578125 34.0234375 C-15.90815027 21.71241247 -7.23590513 9.40667667 0 0 Z " fill="#010202" transform="translate(203,145)"/>
<path d="M0 0 C4.08690926 1.63951592 5.50675996 4.62777043 7.6875 8.328125 C8.12102783 9.04814697 8.55455566 9.76816895 9.0012207 10.51000977 C19.16208796 27.81001727 19.16208796 27.81001727 17.33203125 37.1484375 C15.34747237 43.09008651 11.23855164 47.30259918 5.6875 50.078125 C-1.69449585 50.76143569 -7.45216478 50.86207212 -13.3125 46.078125 C-16.78224237 42.23662452 -18.62820052 38.52770006 -18.9375 33.328125 C-18.48909188 25.78567041 -9.39639526 0.31744579 0 0 Z " fill="#010202" transform="translate(307.3125,144.921875)"/>
<path d="M0 0 C3.18459646 1.51992104 5.73579966 3.28295959 8 6 C9.29487016 9.88461047 9.1232604 13.55883956 9.09765625 17.60546875 C9.0962413 18.44467361 9.09482635 19.28387848 9.09336853 20.14851379 C9.08777215 22.82821216 9.07522035 25.5078269 9.0625 28.1875 C9.05748453 30.00455608 9.05292171 31.82161348 9.04882812 33.63867188 C9.03865491 38.09250604 9.0190788 42.54615943 9 47 C1.08 47 -6.84 47 -15 47 C-15.13819412 41.57204193 -15.25747507 36.15024348 -15.32958984 30.72192383 C-15.35966233 28.87796288 -15.4005326 27.03414379 -15.45263672 25.19067383 C-15.52587858 22.53170709 -15.55955005 19.87463925 -15.5859375 17.21484375 C-15.61690521 16.39789536 -15.64787292 15.58094696 -15.67977905 14.73924255 C-15.68302278 9.15429654 -14.33732337 6.34852762 -10.48721313 2.3049469 C-7.18951516 -0.58859986 -4.26505583 -0.28915633 0 0 Z " fill="#838383" transform="translate(259,7)"/>
<path d="M0 0 C0.95769791 -0.00426498 1.91539581 -0.00852997 2.90211487 -0.01292419 C4.49098511 -0.01224442 4.49098511 -0.01224442 6.11195374 -0.0115509 C7.22079422 -0.01490952 8.3296347 -0.01826813 9.47207642 -0.02172852 C13.1581177 -0.03127134 16.84411373 -0.03318327 20.53016663 -0.03425598 C23.07985453 -0.03746617 25.62954224 -0.04083006 28.17922974 -0.04434204 C33.53180951 -0.05034161 38.88437225 -0.05222375 44.23695374 -0.05158997 C50.43028111 -0.05098902 56.62352142 -0.06154248 62.81682676 -0.07733363 C68.76647306 -0.09196505 74.71609266 -0.09557859 80.66575813 -0.09498024 C83.20120665 -0.09616446 85.73665573 -0.10061076 88.27209282 -0.10831261 C91.81123554 -0.11805661 95.35015149 -0.11525665 98.88929749 -0.10920715 C99.94652008 -0.11482666 101.00374268 -0.12044617 102.09300232 -0.12623596 C103.53377892 -0.11994423 103.53377892 -0.11994423 105.00366211 -0.11352539 C105.84119491 -0.11407016 106.6787277 -0.11461493 107.54164028 -0.1151762 C109.56532288 0.13371277 109.56532288 0.13371277 111.56532288 2.13371277 C111.00976732 6.68926832 111.00976732 6.68926832 109.56532288 8.13371277 C108.08981077 8.23372201 106.60954029 8.26446504 105.13064575 8.26742554 C104.17294785 8.27169052 103.21524994 8.27595551 102.22853088 8.28034973 C100.63966064 8.27966995 100.63966064 8.27966995 99.01869202 8.27897644 C97.90985153 8.28233505 96.80101105 8.28569366 95.65856934 8.28915405 C91.97252805 8.29869687 88.28653202 8.30060881 84.60047913 8.30168152 C82.05079123 8.30489171 79.50110352 8.30825559 76.95141602 8.31176758 C71.59883624 8.31776715 66.24627351 8.31964929 60.89369202 8.3190155 C54.70036464 8.31841456 48.50712433 8.32896801 42.31381899 8.34475917 C36.36417269 8.35939058 30.41455309 8.36300412 24.46488762 8.36240578 C21.92943911 8.36359 19.39399003 8.3680363 16.85855293 8.37573814 C13.31941021 8.38548215 9.78049426 8.38268218 6.24134827 8.37663269 C4.65551437 8.38506195 4.65551437 8.38506195 3.03764343 8.3936615 C2.0771257 8.38946701 1.11660797 8.38527252 0.12698364 8.38095093 C-1.12931555 8.38176808 -1.12931555 8.38176808 -2.41099453 8.38260174 C-4.43467712 8.13371277 -4.43467712 8.13371277 -6.43467712 6.13371277 C-5.78645886 0.81832299 -5.23461424 0.01047881 0 0 Z " fill="#E9EBE9" transform="translate(203.43467712402344,107.86628723144531)"/>
<path d="M0 0 C4.40647097 2.5205014 6.97382535 5.75810253 8.75 10.5 C9.77559668 15.79611401 9.3336185 20.14539286 6.6875 24.875 C3.37200142 29.4500176 -0.0356591 31.94851994 -5.640625 32.91015625 C-11.09672882 33.23651829 -15.10075002 32.31909513 -19.5546875 29.109375 C-23.69047579 25.18323496 -25.4332468 20.64017586 -25.8125 15 C-25.54884402 9.91143951 -23.61097809 6.26940074 -20.25 2.5 C-14.35364464 -2.69405993 -7.08499972 -2.98877578 0 0 Z " fill="#0C0808" transform="translate(397.25,421.5)"/>
<path d="M0 0 C5.00230198 2.45567552 8.49851535 5.9970307 11 11 C11.5072965 16.55531248 11.76260422 21.41830236 9.3125 26.5 C5.12011827 31.03230457 1.99913802 33.55645924 -4.1484375 34.23828125 C-9.64856215 34.42161874 -12.67863446 33.7183843 -17 30 C-21.83106777 24.51608524 -22.35024743 21.19460601 -22.28125 13.984375 C-21.77938024 8.65897925 -19.24614624 6.0977955 -15.375 2.6875 C-10.48380548 -0.78782242 -5.87256961 -0.59805518 0 0 Z " fill="#080404" transform="translate(130,420)"/>
<path d="M0 0 C8.29087346 0.09067053 16.39730517 1.96412663 24.4375 3.8125 C25.59443359 4.06064453 26.75136719 4.30878906 27.94335938 4.56445312 C29.05388672 4.81775391 30.16441406 5.07105469 31.30859375 5.33203125 C32.80604126 5.66811401 32.80604126 5.66811401 34.33374023 6.01098633 C38.86522735 7.69188133 41.2555241 11.06671916 43.75 15.0625 C44.17796875 15.73410156 44.6059375 16.40570313 45.046875 17.09765625 C46 19 46 19 46 22 C40.67985484 22.12383064 35.36055286 22.21444676 30.03930664 22.2746582 C28.23023868 22.2997639 26.42127178 22.33385595 24.61254883 22.37719727 C22.00837249 22.43802579 19.40553969 22.46624809 16.80078125 22.48828125 C15.99538406 22.51408768 15.18998688 22.5398941 14.36018372 22.56648254 C10.0661482 22.56861516 8.50990713 22.4157574 5.05932617 19.60229492 C4.37974854 18.7435376 3.7001709 17.88478027 3 17 C2.4225 16.29875 1.845 15.5975 1.25 14.875 C-0.67338242 10.45122044 -0.96777266 5.80187378 -1 1 C-0.67 0.67 -0.34 0.34 0 0 Z " fill="#F3DC08" transform="translate(84,373)"/>
<path d="M0 0 C1 1 1 1 1.3125 4 C1.21411962 9.97660828 -1.42314847 14.97956439 -5.03515625 19.60766602 C-9.05134579 22.84833147 -11.79766244 22.6485905 -16.80078125 22.48828125 C-17.63715622 22.48120651 -18.47353119 22.47413177 -19.33525085 22.46684265 C-21.99526052 22.43894985 -24.65313139 22.37622481 -27.3125 22.3125 C-29.12041221 22.28741034 -30.92835757 22.26459833 -32.73632812 22.24414062 C-37.15837073 22.18914042 -41.57882331 22.10290643 -46 22 C-45.21463229 18.57648602 -44.01741619 15.92698157 -42.25 12.875 C-41.51523437 11.57175781 -41.51523437 11.57175781 -40.765625 10.2421875 C-36.51075102 4.83887408 -27.87392223 4.58459934 -21.50732422 3.28564453 C-19.5046335 2.87594789 -17.50426943 2.4560527 -15.50390625 2.03515625 C-14.23417969 1.77347656 -12.96445312 1.51179688 -11.65625 1.2421875 C-10.49931641 1.0035498 -9.34238281 0.76491211 -8.15039062 0.51904297 C-5.34316516 0.05653821 -2.83482462 -0.18507613 0 0 Z " fill="#F3DC08" transform="translate(428,373)"/>
<path d="M0 0 C3.37483413 -0.08767555 6.74937215 -0.14061628 10.125 -0.1875 C11.55199219 -0.22520508 11.55199219 -0.22520508 13.0078125 -0.26367188 C18.4185834 -0.32003407 22.37940796 -0.16650796 27 3 C29.15369773 6.23054659 29.50794675 7.25170331 29 11 C23.73808322 17.22253919 15.70599315 19.73126202 7.87109375 20.3984375 C3.91632801 20.67948462 -0.0379497 20.85901907 -4 21 C-7.0078125 16.2421875 -7.0078125 16.2421875 -6.9375 14.0625 C-6 12 -6 12 -4.0625 9.125 C-2.05360487 6.0812195 -1.07332032 3.45580265 0 0 Z " fill="#F3644D" transform="translate(429,303)"/>
<path d="M0 0 C0.93779297 0.00322266 1.87558594 0.00644531 2.84179688 0.00976562 C4.30649414 0.02233398 4.30649414 0.02233398 5.80078125 0.03515625 C6.78884766 0.03966797 7.77691406 0.04417969 8.79492188 0.04882812 C11.23443599 0.06061322 13.67382814 0.07706614 16.11328125 0.09765625 C16.38785156 1.18820312 16.66242188 2.27875 16.9453125 3.40234375 C17.97260374 6.65256955 18.45094286 7.97381378 20.80078125 10.22265625 C23.11328125 13.09765625 23.11328125 13.09765625 23.05078125 15.78515625 C22.11328125 18.09765625 22.11328125 18.09765625 20.11328125 21.09765625 C9.64440648 22.32928858 -1.93836405 19.73293451 -10.34765625 13.40234375 C-11.88671875 12.09765625 -11.88671875 12.09765625 -12.88671875 11.09765625 C-12.53377757 4.74471507 -12.53377757 4.74471507 -10.01171875 2.22265625 C-6.54537556 0.38753338 -3.8586422 -0.02338571 0 0 Z " fill="#F4644D" transform="translate(66.88671875,302.90234375)"/>
<path d="M0 0 C3.91076979 3.41640611 6.00828098 7.25039909 8.3125 11.8125 C8.68439453 12.49892578 9.05628906 13.18535156 9.43945312 13.89257812 C11.84628424 18.63004644 12.42956244 21.68176542 11 27 C9.17660948 29.70567626 7.92542564 31.53728718 5 33 C1.94079426 33.42071592 -0.9467746 33.48514117 -4 33 C-6.75569447 30.81840855 -8.43588747 29.12822506 -10 26 C-10.54276122 19.52165778 -9.3791996 15.73315157 -6.125 10.1875 C-5.76019531 9.53330078 -5.39539063 8.87910156 -5.01953125 8.20507812 C-3.44163733 5.39642694 -1.78729155 2.68093733 0 0 Z " fill="#62C0E9" transform="translate(306,155)"/>
<path d="M0 0 C5.11925785 6.10460173 11.34171639 14.23756127 11.625 22.5 C10.85022391 26.83874611 9.83421216 29.57339054 6.3125 32.3125 C2.84416773 33.34362581 -0.44725505 33.57917512 -4 33 C-7.4001699 30.93033136 -9.91812696 28.89474294 -11 25 C-10.67425683 18.44972979 -8.85390921 14.13331205 -5.5 8.5625 C-5.08363281 7.84384766 -4.66726562 7.12519531 -4.23828125 6.38476562 C-1.23028274 1.23028274 -1.23028274 1.23028274 0 0 Z " fill="#62C0E9" transform="translate(205,155)"/>
<path d="M0 0 C0.66 0 1.32 0 2 0 C3.72540799 2.95868 5.39767265 5.94437667 7.0625 8.9375 C7.54783203 9.76830078 8.03316406 10.59910156 8.53320312 11.45507812 C11.36494195 16.61647443 12.53317423 20.21905525 11.63647461 26.0859375 C10.73775266 28.7886533 9.21170523 30.57030867 6.87890625 32.18359375 C3.23319161 33.76769845 -0.14591792 33.8588286 -4 33 C-7.67045285 30.6294992 -9.28084217 28.25176289 -10.25 24.0625 C-10.71808045 17.09980338 -6.34762527 10.82318009 -3 5 C-2.46890625 4.03578125 -1.9378125 3.0715625 -1.390625 2.078125 C-0.93171875 1.39234375 -0.4728125 0.7065625 0 0 Z " fill="#62C0E9" transform="translate(255,155)"/>
<path d="M0 0 C0.98040756 0.00068733 0.98040756 0.00068733 1.98062134 0.00138855 C3.3469629 0.0043846 4.71330188 0.0121903 6.07958984 0.0246582 C8.17948337 0.04310421 10.27893953 0.04516623 12.37890625 0.04492188 C22.64869063 0.09009688 22.64869063 0.09009688 23.7890625 1.23046875 C23.9140625 3.73046875 23.9140625 3.73046875 23.7890625 6.23046875 C22.06135452 7.95817673 19.71073187 7.4008656 17.35546875 7.44140625 C16.23076172 7.46976563 15.10605469 7.498125 13.94726562 7.52734375 C11.58542903 7.57866013 9.2234322 7.62314511 6.86132812 7.66015625 C-2.49177781 7.91480689 -10.65467615 9.16068519 -18.6484375 14.29296875 C-19.45152344 14.79957031 -20.25460938 15.30617187 -21.08203125 15.828125 C-22.79532825 16.95670045 -24.50390178 18.09244494 -26.2109375 19.23046875 C-28.8984375 18.85546875 -28.8984375 18.85546875 -31.2109375 18.23046875 C-31.6484375 16.10546875 -31.6484375 16.10546875 -31.2109375 13.23046875 C-23.99259977 4.30682793 -11.05248949 -0.03741384 0 0 Z " fill="#000000" transform="translate(157.2109375,196.76953125)"/>
<path d="M0 0 C2.70567626 1.82339052 4.53728718 3.07457436 6 6 C6.54724071 11.69130337 5.59333707 14.56117185 2 19 C-1.46015135 20.73007568 -5.21672555 20.4835273 -9 20 C-12.49890004 17.88608123 -13.70578686 16.88263941 -15 13 C-15.37935127 8.90300628 -15.44928789 6.72206983 -13.25 3.1875 C-8.78673078 -1.15178952 -6.15511289 -1.51178211 0 0 Z " fill="#E7E9E7" transform="translate(129,427)"/>
<path d="M0 0 C3.125 1.9375 3.125 1.9375 5 5 C5.93971476 9.68164203 5.66873692 12.93002092 3.125 17 C-0.37857054 20.29747816 -3.06242886 20.41854976 -7.734375 20.328125 C-10 20 -10 20 -13.0625 18.125 C-15.79643714 13.71542397 -15.99442918 10.05501501 -15 5 C-11.45243133 -0.91261444 -6.34121278 -1.25784713 0 0 Z " fill="#EBEDEB" transform="translate(394,427)"/>
<path d="M0 0 C2.625 0.9375 2.625 0.9375 5 2 C4.574454 11.84625398 3.66508082 21.58930308 2.5 31.375 C2.36940186 32.48673584 2.23880371 33.59847168 2.10424805 34.74389648 C1.97703369 35.78489502 1.84981934 36.82589355 1.71875 37.8984375 C1.60466797 38.83349121 1.49058594 39.76854492 1.37304688 40.73193359 C1 43 1 43 0 45 C-1.98 45 -3.96 45 -6 45 C-6.94445157 39.81606655 -6.92924293 35.22091299 -6.2578125 29.984375 C-6.16998505 29.24672913 -6.08215759 28.50908325 -5.9916687 27.74908447 C-5.80580767 26.20232565 -5.61565295 24.65607722 -5.42138672 23.11035156 C-5.12423413 20.74390078 -4.84030496 18.37614639 -4.55859375 16.0078125 C-4.37576339 14.49990724 -4.1921956 12.99209118 -4.0078125 11.484375 C-3.87960617 10.42497711 -3.87960617 10.42497711 -3.74880981 9.34417725 C-3.37913996 6.42233179 -2.93446998 3.80340995 -2 1 C-1.34 0.67 -0.68 0.34 0 0 Z " fill="#000000" transform="translate(461,397)"/>
<path d="M0 0 C1.12341797 -0.01224609 2.24683594 -0.02449219 3.40429688 -0.03710938 C5.01208008 -0.04000977 5.01208008 -0.04000977 6.65234375 -0.04296875 C8.13528931 -0.04913208 8.13528931 -0.04913208 9.64819336 -0.05541992 C12.0625 0.1875 12.0625 0.1875 14.0625 2.1875 C13.7325 3.5075 13.4025 4.8275 13.0625 6.1875 C4.8125 6.1875 -3.4375 6.1875 -11.9375 6.1875 C-12.2675 4.5375 -12.5975 2.8875 -12.9375 1.1875 C-10.40440278 -1.34559722 -3.40755092 0.00194829 0 0 Z " fill="#FCFEFE" transform="translate(172.9375,303.8125)"/>
<path d="M0 0 C3.53571429 0.53571429 3.53571429 0.53571429 5 2 C4.86138586 8.65347895 1.88841021 12.75599724 -2 18 C-3.65 17.67 -5.3 17.34 -7 17 C-7.77500082 10.95499361 -5.22548189 6.88709378 -2 2 C-1.34 1.34 -0.68 0.68 0 0 Z " fill="#000000" transform="translate(117,224)"/>
<path d="M0 0 C1.2684375 0.12375 1.2684375 0.12375 2.5625 0.25 C4.65190868 3.38411302 4.83614412 4.22450472 4.8125 7.8125 C4.81765625 8.59753906 4.8228125 9.38257813 4.828125 10.19140625 C4.5625 12.25 4.5625 12.25 2.5625 14.25 C-0.0625 13.875 -0.0625 13.875 -2.4375 13.25 C-3.76856125 9.25681626 -3.57397721 5.41255487 -3.4375 1.25 C-2.4375 0.25 -2.4375 0.25 0 0 Z " fill="#000000" transform="translate(461.4375,369.75)"/>
<path d="M0 0 C1.09054688 0.02320313 2.18109375 0.04640625 3.3046875 0.0703125 C4.40039062 0.08835937 5.49609375 0.10640625 6.625 0.125 C7.46804687 0.14820313 8.31109375 0.17140625 9.1796875 0.1953125 C9.56187517 1.85145907 9.89363852 3.51988274 10.1796875 5.1953125 C9.1796875 6.1953125 9.1796875 6.1953125 6.23828125 6.29296875 C4.44583984 6.27556641 4.44583984 6.27556641 2.6171875 6.2578125 C0.82087891 6.24427734 0.82087891 6.24427734 -1.01171875 6.23046875 C-1.93855469 6.21886719 -2.86539063 6.20726562 -3.8203125 6.1953125 C-4.4453125 4.3203125 -4.4453125 4.3203125 -4.8203125 2.1953125 C-2.8203125 0.1953125 -2.8203125 0.1953125 0 0 Z " fill="#FBFDFE" transform="translate(201.8203125,303.8046875)"/>
<path d="M0 0 C0.33 0.99 0.66 1.98 1 3 C0.34 3.66 -0.32 4.32 -1 5 C-1.66 5 -2.32 5 -3 5 C-3.99 5.66 -4.98 6.32 -6 7 C-4.60667426 3.63279613 -3.0210714 2.0140476 0 0 Z " fill="#DB5A45" transform="translate(382,377)"/>
</svg>
