<?xml version="1.0" encoding="UTF-8"?>
<svg version="1.1" xmlns="http://www.w3.org/2000/svg" width="128" height="128">
<path d="M0 0 C1.23621094 0.45503906 2.47242187 0.91007812 3.74609375 1.37890625 C4.67550781 1.72824219 5.60492188 2.07757813 6.5625 2.4375 C6.93051906 10.37035519 6.33726512 16.9720605 3.5625 24.4375 C4.243125 24.086875 4.92375 23.73625 5.625 23.375 C9.42121788 22.1634411 11.72715178 22.39149594 15.5625 23.4375 C18.98216355 27.00755028 20.63498808 30.63684223 22.3125 35.25 C22.74046875 36.41144531 23.1684375 37.57289062 23.609375 38.76953125 C23.92390625 39.64996094 24.2384375 40.53039063 24.5625 41.4375 C25.2225 41.1075 25.8825 40.7775 26.5625 40.4375 C26.8925 39.4475 27.2225 38.4575 27.5625 37.4375 C31.5225 37.4375 35.4825 37.4375 39.5625 37.4375 C39.66015625 45.15234375 39.66015625 45.15234375 39.5625 47.4375 C38.5625 48.4375 38.5625 48.4375 36.05859375 48.53515625 C35.04925781 48.52355469 34.03992188 48.51195312 33 48.5 C31.98808594 48.49097656 30.97617188 48.48195312 29.93359375 48.47265625 C29.15113281 48.46105469 28.36867188 48.44945312 27.5625 48.4375 C27.995625 49.04851562 28.42875 49.65953125 28.875 50.2890625 C34.75719885 59.95656524 35.30181981 71.34011255 33.5625 82.4375 C32.9025 83.0975 32.2425 83.7575 31.5625 84.4375 C30.5725 84.4375 29.5825 84.4375 28.5625 84.4375 C28.61470703 85.35982422 28.61470703 85.35982422 28.66796875 86.30078125 C28.69503906 87.10902344 28.72210938 87.91726562 28.75 88.75 C28.80220703 89.95076172 28.80220703 89.95076172 28.85546875 91.17578125 C28.5625 93.4375 28.5625 93.4375 27.453125 95.203125 C24.67533942 97.01672055 22.41314582 96.87126771 19.125 96.875 C17.99191406 96.89433594 16.85882813 96.91367188 15.69140625 96.93359375 C12.5625 96.4375 12.5625 96.4375 10.16796875 94.73828125 C8.2298175 91.96073603 8.13633695 90.53459796 8.3125 87.1875 C8.34859375 86.29546875 8.3846875 85.4034375 8.421875 84.484375 C8.46828125 83.80890625 8.5146875 83.1334375 8.5625 82.4375 C6.9125 82.4375 5.2625 82.4375 3.5625 82.4375 C3.5625 83.0975 3.5625 83.7575 3.5625 84.4375 C-1.1875 83.5625 -1.1875 83.5625 -3.4375 82.4375 C-3.4375 83.0975 -3.4375 83.7575 -3.4375 84.4375 C-13.9975 84.4375 -24.5575 84.4375 -35.4375 84.4375 C-34.7775 85.7575 -34.1175 87.0775 -33.4375 88.4375 C-33.10192633 91.18920413 -32.9682212 92.73104058 -34.51953125 95.06640625 C-37.42597133 97.14412614 -39.91360271 96.83452436 -43.4375 96.8125 C-44.675 96.82023437 -45.9125 96.82796875 -47.1875 96.8359375 C-50.4375 96.4375 -50.4375 96.4375 -52.36328125 95.20703125 C-53.75594772 92.91292975 -53.74087422 91.41510705 -53.625 88.75 C-53.59792969 87.94175781 -53.57085937 87.13351563 -53.54296875 86.30078125 C-53.50816406 85.68589844 -53.47335938 85.07101563 -53.4375 84.4375 C-54.076875 84.31375 -54.71625 84.19 -55.375 84.0625 C-56.3959375 83.753125 -56.3959375 83.753125 -57.4375 83.4375 C-60.54062194 77.23125613 -59.59920011 65.77355761 -57.84423828 59.22314453 C-56.42429289 55.41835953 -54.55692114 51.89417495 -52.4375 48.4375 C-53.21996094 48.44910156 -54.00242187 48.46070313 -54.80859375 48.47265625 C-55.82050781 48.48167969 -56.83242188 48.49070313 -57.875 48.5 C-58.88433594 48.51160156 -59.89367187 48.52320313 -60.93359375 48.53515625 C-63.4375 48.4375 -63.4375 48.4375 -64.4375 47.4375 C-64.5354057 45.94011876 -64.56724864 44.43807108 -64.5625 42.9375 C-64.56507812 42.1228125 -64.56765625 41.308125 -64.5703125 40.46875 C-64.4375 38.4375 -64.4375 38.4375 -63.4375 37.4375 C-61.0390625 37.19921875 -61.0390625 37.19921875 -58.0625 37.125 C-56.59683594 37.06892578 -56.59683594 37.06892578 -55.1015625 37.01171875 C-52.4375 37.4375 -52.4375 37.4375 -50.5859375 39.45703125 C-50.20695312 40.11058594 -49.82796875 40.76414063 -49.4375 41.4375 C-48.97859375 40.31730469 -48.5196875 39.19710937 -48.046875 38.04296875 C-47.42768941 36.57005757 -46.8078641 35.0974152 -46.1875 33.625 C-45.88714844 32.88701172 -45.58679688 32.14902344 -45.27734375 31.38867188 C-42.2891972 24.3633486 -42.2891972 24.3633486 -38.4375 22.4375 C-36.078125 21.92578125 -36.078125 21.92578125 -33.6875 21.75 C-32.88828125 21.68425781 -32.0890625 21.61851563 -31.265625 21.55078125 C-30.66234375 21.51339844 -30.0590625 21.47601563 -29.4375 21.4375 C-29.581875 20.89222656 -29.72625 20.34695312 -29.875 19.78515625 C-31.25278597 14.18790076 -31.62037437 9.19804255 -31.4375 3.4375 C-28.44984408 2.07507357 -25.44731428 0.75019159 -22.4375 -0.5625 C-21.38175781 -1.04203125 -21.38175781 -1.04203125 -20.3046875 -1.53125 C-19.64726563 -1.8096875 -18.98984375 -2.088125 -18.3125 -2.375 C-17.73242188 -2.62894531 -17.15234375 -2.88289062 -16.5546875 -3.14453125 C-10.84364545 -4.27198789 -5.28618648 -1.96344069 0 0 Z " fill="#063543" transform="translate(75.4375,17.5625)"/>
<path d="M0 0 C1.98 0 3.96 0 6 0 C6 0.66 6 1.32 6 2 C6.763125 2.061875 7.52625 2.12375 8.3125 2.1875 C11 3 11 3 12.46875 5.0703125 C14.27901333 8.53382652 15.75978934 12.05300695 17.1875 15.6875 C17.46013672 16.36361328 17.73277344 17.03972656 18.01367188 17.73632812 C20 22.73948543 20 22.73948543 20 25 C4.16 25 -11.68 25 -28 25 C-28 25.99 -28 26.98 -28 28 C-11.5 28 5 28 22 28 C26 35 26 35 26 37 C-1.06 37 -28.12 37 -56 37 C-52 29 -52 29 -51 28 C-49.31391034 27.92794489 -47.62499341 27.91613932 -45.9375 27.9375 C-45.01839844 27.94652344 -44.09929688 27.95554687 -43.15234375 27.96484375 C-42.44207031 27.97644531 -41.73179688 27.98804687 -41 28 C-41 27.01 -41 26.02 -41 25 C-43.64 25 -46.28 25 -49 25 C-48.37664907 20.04397535 -46.93961534 15.83250219 -45.0625 11.25 C-44.79759766 10.57839844 -44.53269531 9.90679687 -44.25976562 9.21484375 C-43.10271812 6.34950029 -42.20706617 4.20706617 -40 2 C-35.94461002 1.38518869 -32.05195828 1.3543583 -28 2 C-25.625 4.75 -25.625 4.75 -24 8 C-20.94854016 10.52077117 -18.91017806 11.84830366 -15 12.5 C-11.86519931 12.22281296 -11.86519931 12.22281296 -9.4375 10 C-4.18089021 6.94160885 1.05434245 7.68242779 7 8 C7.67119549 9.4562545 8.33681807 10.91507867 9 12.375 C9.37125 13.18710937 9.7425 13.99921875 10.125 14.8359375 C11 17 11 17 11 19 C-6.16 19 -23.32 19 -41 19 C-38 9 -38 9 -37 8 C-34.66702567 7.95907063 -32.33294775 7.95758277 -30 8 C-30 6.68 -30 5.36 -30 4 C-34.11499249 3.99848153 -34.11499249 3.99848153 -38 5 C-41.84729062 9.47518671 -43.24555492 16.73666476 -45 22 C-25.2 22 -5.4 22 15 22 C13.173693 15.91231001 11.58305872 10.65812862 9 5 C3.555 4.505 3.555 4.505 -2 4 C-1.34 2.68 -0.68 1.36 0 0 Z " fill="#0B8BB5" transform="translate(78,42)"/>
<path d="M0 0 C1.32 0 2.64 0 4 0 C4.0825 1.258125 4.165 2.51625 4.25 3.8125 C4.62168772 6.72921611 4.76948116 7.73654989 6.75 10 C10.51425876 11.67300389 13.15415232 11.28194923 17 10 C17.165 8.72125 17.33 7.4425 17.5 6.125 C17.63921875 5.04605469 17.63921875 5.04605469 17.78125 3.9453125 C18.0372485 1.99501656 18.0372485 1.99501656 18 0 C20.31 0 22.62 0 25 0 C25.66 2.31 26.32 4.62 27 7 C36.9 6.67 46.8 6.34 57 6 C57 4.35 57 2.7 57 1 C58 0 58 0 59.84765625 -0.09765625 C61.8984375 -0.06510417 63.94921875 -0.03255208 66 0 C66.103125 1.258125 66.20625 2.51625 66.3125 3.8125 C66.64065065 6.31797458 66.88788577 7.81117604 68.1875 10 C70.92103786 11.50815882 72.93903917 11.3826201 76 11 C77.97578739 10.10938785 77.97578739 10.10938785 79 8 C79.53940483 5.31884069 79.77568114 2.7366901 80 0 C81.32 0 82.64 0 84 0 C84 5.28 84 10.56 84 16 C77.4 16 70.8 16 64 16 C64 16.66 64 17.32 64 18 C62.02 18 60.04 18 58 18 C58 18.66 58 19.32 58 20 C55.23723823 19.47731534 52.6739124 18.89130413 50 18 C50 17.34 50 16.68 50 16 C33.5 16 17 16 0 16 C0 10.72 0 5.44 0 0 Z " fill="#4BCECC" transform="translate(21,82)"/>
<path d="M0 0 C0.97582031 0.36222656 1.95164062 0.72445313 2.95703125 1.09765625 C3.69308594 1.37480469 4.42914063 1.65195312 5.1875 1.9375 C5.70459869 11.24527641 3.71712124 19.01332526 -2.26953125 26.30078125 C-4.31734392 28.47301798 -5.98329759 29.92188888 -8.8125 30.9375 C-13.85502217 29.92899557 -17.08669333 26.43099309 -19.9453125 22.30078125 C-23.93767133 15.72078245 -25.07939022 9.54387133 -24.8125 1.9375 C-22.58835391 1.06770539 -20.35977408 0.21666816 -18.125 -0.625 C-17.49916016 -0.87185547 -16.87332031 -1.11871094 -16.22851562 -1.37304688 C-9.85797053 -3.74115526 -6.14110135 -2.29366436 0 0 Z " fill="#1A8EE4" transform="translate(72.8125,21.0625)"/>
<path d="M0 0 C3.13810027 0.47005299 4.95550531 1.56897268 7.375 3.5625 C9.83639183 5.36787055 10.97450218 5.99531673 14.0625 6.5625 C17.13914055 6.20480803 17.13914055 6.20480803 19.5625 4 C24.81910979 0.94160885 30.05434245 1.68242779 36 2 C36.67119549 3.4562545 37.33681807 4.91507867 38 6.375 C38.37125 7.18710937 38.7425 7.99921875 39.125 8.8359375 C40 11 40 11 40 13 C22.84 13 5.68 13 -12 13 C-9 3 -9 3 -8 2 C-5.66666667 1.66666667 -3.33333333 1.33333333 -1 1 C-0.67 0.67 -0.34 0.34 0 0 Z " fill="#D6F1F2" transform="translate(49,48)"/>
<path d="M0 0 C1.98 0 3.96 0 6 0 C6 0.66 6 1.32 6 2 C6.763125 2.061875 7.52625 2.12375 8.3125 2.1875 C11 3 11 3 12.46875 5.0703125 C14.27901333 8.53382652 15.75978934 12.05300695 17.1875 15.6875 C17.46013672 16.36361328 17.73277344 17.03972656 18.01367188 17.73632812 C20 22.73948543 20 22.73948543 20 25 C12.18487182 25.15441521 4.36965183 25.30258843 -3.44573975 25.4429636 C-7.07538294 25.50834953 -10.70496148 25.5758225 -14.33447266 25.64819336 C-17.84219554 25.71805687 -21.34998191 25.78227059 -24.85787964 25.84269524 C-26.83639713 25.87821326 -28.81480902 25.91946499 -30.79321289 25.96083069 C-36.97944079 26.06267725 -42.88847106 25.99513382 -49 25 C-48.37664907 20.04397535 -46.93961534 15.83250219 -45.0625 11.25 C-44.79759766 10.57839844 -44.53269531 9.90679687 -44.25976562 9.21484375 C-43.10271812 6.34950029 -42.20706617 4.20706617 -40 2 C-37.1796875 1.8046875 -37.1796875 1.8046875 -33.875 1.875 C-32.77929688 1.89304688 -31.68359375 1.91109375 -30.5546875 1.9296875 C-29.71164063 1.95289063 -28.86859375 1.97609375 -28 2 C-27.34 3.32 -26.68 4.64 -26 6 C-27.32 6.33 -28.64 6.66 -30 7 C-30 6.01 -30 5.02 -30 4 C-34.11499249 3.99848153 -34.11499249 3.99848153 -38 5 C-41.84729062 9.47518671 -43.24555492 16.73666476 -45 22 C-25.2 22 -5.4 22 15 22 C13.173693 15.91231001 11.58305872 10.65812862 9 5 C3.555 4.505 3.555 4.505 -2 4 C-1.34 2.68 -0.68 1.36 0 0 Z " fill="#45C2C1" transform="translate(78,42)"/>
<path d="M0 0 C9.57 0 19.14 0 29 0 C28.34 1.32 27.68 2.64 27 4 C18.09 3.67 9.18 3.34 0 3 C0 2.01 0 1.02 0 0 Z " fill="#085B77" transform="translate(50,82)"/>
<path d="M0 0 C0.99 0 1.98 0 3 0 C2.15236957 5.03001744 -1.00669099 8.03039944 -5 11 C-7.75 11.25 -7.75 11.25 -10 10 C-11.8125 7.4375 -11.8125 7.4375 -13 5 C-10.33333333 5 -7.66666667 5 -5 5 C-3.31288577 3.3540349 -1.6454378 1.68762851 0 0 Z " fill="#0E3A48" transform="translate(68,28)"/>
<path d="M0 0 C4.70588235 0.70588235 4.70588235 0.70588235 6 2 C6.125 4.5 6.125 4.5 6 7 C5 8 5 8 2.5625 8.1875 C0 8 0 8 -2 6 C-1.44444444 1.44444444 -1.44444444 1.44444444 0 0 Z " fill="#E8C92E" transform="translate(30,82)"/>
<path d="M0 0 C2.625 0.375 2.625 0.375 5 1 C5.625 3.375 5.625 3.375 6 6 C5.34 6.66 4.68 7.32 4 8 C1.375 7.625 1.375 7.625 -1 7 C-1.625 4.625 -1.625 4.625 -2 2 C-1.34 1.34 -0.68 0.68 0 0 Z " fill="#EDCD2E" transform="translate(92,82)"/>
<path d="M0 0 C3.3 0 6.6 0 10 0 C10.66 1.32 11.32 2.64 12 4 C10.68 4.33 9.36 4.66 8 5 C8 4.01 8 3.02 8 2 C5.03 2 2.06 2 -1 2 C-0.67 1.34 -0.34 0.68 0 0 Z " fill="#49C8C7" transform="translate(40,44)"/>
<path d="M0 0 C2.18975773 3.28463659 2.99806563 6.20696275 4 10 C3.01 10 2.02 10 1 10 C-0.83691257 6.21812119 -1.15837626 4.05431692 0 0 Z " fill="#44C0BF" transform="translate(90,47)"/>
</svg>
