<svg width="400" height="100" viewBox="0 0 400 100" fill="none" xmlns="http://www.w3.org/2000/svg">
<g clip-path="url(#clip0_3051_227)">
<path fill-rule="evenodd" clip-rule="evenodd" d="M36.508 56.4001V56.3974L36.5435 56.3181C37.2025 54.8429 37.4472 53.1093 37.3119 51.5042C37.1957 50.1357 36.7691 48.5716 35.8326 47.5271C34.598 46.1503 33.1419 45.5939 31.3031 45.5939C30.666 45.5939 30.0316 45.6623 29.4177 45.8345L29.0349 45.9412L28.916 45.5611C28.2994 43.5896 27.9535 41.5443 27.881 39.4798L27.866 39.0546H31.9306C32.1576 39.0546 32.3408 38.8714 32.3408 38.6445C32.3408 38.4189 32.1562 38.2343 31.9306 38.2343H27.866L27.881 37.8091C28.0054 34.3078 28.9187 30.8966 30.5648 27.8041L30.7644 27.4294L34.2794 29.4583C34.3423 29.4953 34.4121 29.5144 34.4845 29.5144C34.6308 29.5144 34.7662 29.4365 34.84 29.3093C34.9535 29.1125 34.8851 28.8623 34.6896 28.7488L31.1759 26.7212L31.4029 26.3603C33.2609 23.4058 35.7697 20.8957 38.7242 19.0376L39.0851 18.8107L41.114 22.3257C41.1878 22.4529 41.3232 22.5308 41.4708 22.5308C41.5419 22.5308 41.6117 22.513 41.6746 22.4761C41.8701 22.3626 41.9384 22.1111 41.825 21.9156L39.796 18.4005L40.1707 18.2009C43.2619 16.5548 46.6757 15.6416 50.1757 15.5158L50.6009 15.5007V19.564C50.6009 19.7896 50.7855 19.9742 51.0111 19.9742C51.2367 19.9742 51.4212 19.7896 51.4212 19.564V15.5007L51.8464 15.5158C55.3464 15.6416 58.7603 16.5548 61.8515 18.2009L62.2261 18.4005L60.1972 21.9156C60.0837 22.1111 60.1507 22.364 60.3476 22.4761C60.4105 22.5117 60.4802 22.5308 60.5513 22.5308C60.6976 22.5308 60.833 22.4542 60.9068 22.3257L62.9371 18.8107L63.298 19.0376C66.2525 20.8957 68.7613 23.4058 70.6193 26.3603L70.8462 26.7212L67.3326 28.7501C67.1371 28.8636 67.0687 29.1152 67.1822 29.3107C67.256 29.4378 67.3914 29.5158 67.5376 29.5158C67.6101 29.5158 67.6798 29.4966 67.7427 29.4597L71.2578 27.4308L71.4574 27.8054C73.1035 30.898 74.0167 34.3091 74.1412 37.8105L74.1562 38.2357H70.0929C69.8673 38.2357 69.6828 38.4203 69.6828 38.6459C69.6828 38.8728 69.866 39.056 70.0929 39.056H74.1576L74.1425 39.4812C74.0687 41.5457 73.7228 43.591 73.1062 45.5625L72.9873 45.9425L72.6031 45.8345C71.9933 45.6623 71.3603 45.5939 70.7273 45.5939C68.8857 45.5939 67.4255 46.149 66.1882 47.5271C65.2517 48.5703 64.8251 50.1357 64.7089 51.5029C64.5736 53.1052 64.8169 54.8361 65.4732 56.3099C65.4759 56.3154 65.4787 56.3222 65.4814 56.3277L65.5115 56.396V56.4562C65.5128 56.4658 65.5128 56.4767 65.5128 56.4863V56.6845L65.357 56.8076C63.216 58.5001 60.7742 59.8085 58.1792 60.6562L57.2373 60.9638L57.6857 60.0806C57.7691 59.9152 57.8498 59.7484 57.9263 59.5789C58.8 57.6224 59.1281 55.3283 58.9531 53.1996C58.8027 51.3826 58.238 49.3072 56.9953 47.9209C55.3669 46.1052 53.4406 45.3697 51.0138 45.3697C48.5843 45.3697 46.6525 46.1025 45.0214 47.9209C43.7787 49.3072 43.214 51.3826 43.0636 53.1996C42.8873 55.3283 43.2154 57.6224 44.089 59.5775C44.1642 59.747 44.2462 59.9138 44.331 60.0792L44.7876 60.9666L43.8388 60.6576C41.2439 59.8113 38.8007 58.5029 36.6597 56.8089L36.4123 56.6134L36.508 56.4001Z" fill="#87ED9E"/>
<path fill-rule="evenodd" clip-rule="evenodd" d="M51.0164 46.1899C53.2039 46.1899 54.917 46.8312 56.3867 48.469C57.5338 49.7474 58.015 51.7325 58.1326 53.4046C58.268 55.3433 57.9754 57.4638 57.181 59.2452C56.0176 61.8511 53.9545 63.5013 51.0123 63.5013C48.0687 63.5013 46.0056 61.8511 44.8408 59.2438C44.0465 57.4624 43.7539 55.3419 43.8892 53.4032C44.0068 51.7312 44.4867 49.746 45.6338 48.4677C47.1062 46.8271 48.8262 46.1899 51.0164 46.1899Z" fill="#F1F1F2"/>
<path fill-rule="evenodd" clip-rule="evenodd" d="M35.7942 55.9832C34.9479 57.8794 33.4413 59.0894 31.2989 59.0894C29.1552 59.0894 27.6472 57.8808 26.8009 55.9832C26.2185 54.6789 25.9997 53.1257 26.0954 51.7039C26.1788 50.472 26.5288 49.0173 27.3737 48.0753C28.4606 46.8654 29.6856 46.4128 31.3017 46.4128C32.9149 46.4128 34.1358 46.8667 35.22 48.0753C36.0649 49.0173 36.4149 50.472 36.4983 51.7039C36.5954 53.1257 36.3767 54.6789 35.7942 55.9832Z" fill="#F1F1F2"/>
<path fill-rule="evenodd" clip-rule="evenodd" d="M66.8006 48.0753C67.8862 46.8654 69.1125 46.4128 70.7272 46.4128C72.3405 46.4128 73.5614 46.8667 74.6456 48.0753C75.4905 49.0173 75.8405 50.472 75.9239 51.7039C76.0196 53.1257 75.7995 54.6789 75.2184 55.9832C74.3721 57.8794 72.8668 59.0894 70.7231 59.0894C68.5807 59.0894 67.0727 57.8808 66.2264 55.9832C65.644 54.6789 65.4252 53.1257 65.5209 51.7039C65.6057 50.472 65.9557 49.0173 66.8006 48.0753Z" fill="#F1F1F2"/>
<path fill-rule="evenodd" clip-rule="evenodd" d="M73.4137 60.622C75.5342 60.622 77.477 61.5694 78.8893 63.1321C80.3686 64.77 81.1397 66.9315 81.1397 69.13V70.2032C81.1397 70.9347 80.6092 71.6743 79.834 71.6743H64.9303L64.8223 71.431C63.9678 69.5169 62.6471 67.8216 60.9572 66.5747L60.7139 66.3956L60.8123 66.1099C61.8869 63.0159 64.6801 60.6206 68.0324 60.6206H73.4137V60.622Z" fill="#87ED9E"/>
<path fill-rule="evenodd" clip-rule="evenodd" d="M65.1464 76.8504V78.2928C65.1464 79.3661 64.3808 80.4106 63.2501 80.4106H38.772C37.6427 80.4106 36.8757 79.3647 36.8757 78.2928V76.8504C36.8757 73.8563 37.9285 70.9141 39.9464 68.6856C41.8687 66.5637 44.5115 65.2786 47.3962 65.2786H54.6259C57.5093 65.2786 60.1521 66.5637 62.0744 68.6856C64.0937 70.9141 65.1464 73.8549 65.1464 76.8504Z" fill="#87ED9E"/>
<path fill-rule="evenodd" clip-rule="evenodd" d="M41.0647 66.5748C39.3749 67.8217 38.0542 69.517 37.1997 71.4311L37.0917 71.6744H22.188C21.4128 71.6744 20.8823 70.9348 20.8823 70.2033V69.1301C20.8823 66.9316 21.6534 64.7701 23.1327 63.1322C24.545 61.5695 26.4864 60.6221 28.6083 60.6221H33.9882C37.3405 60.6221 40.1337 63.0174 41.2083 66.1113L41.3067 66.3971L41.0647 66.5748Z" fill="#87ED9E"/>
<path fill-rule="evenodd" clip-rule="evenodd" d="M51.011 35.5134C52.7378 35.5134 54.1446 36.9175 54.1446 38.6457C54.1446 40.3738 52.7392 41.7792 51.011 41.7792C49.2829 41.7792 47.8774 40.3738 47.8774 38.6457C47.8774 36.9175 49.2829 35.5134 51.011 35.5134Z" fill="#CFFFE5"/>
<path fill-rule="evenodd" clip-rule="evenodd" d="M51.011 42.5996C52.9045 42.5996 54.5397 41.246 54.8924 39.3894L54.9553 39.0558H62.0305C62.2575 39.0558 62.4407 38.8726 62.4407 38.6456C62.4407 38.4201 62.2575 38.2355 62.0305 38.2355H54.9553L54.8924 37.9019C54.5383 36.0439 52.9045 34.6931 51.011 34.6931C50.5379 34.6931 50.069 34.7779 49.626 34.9447L49.3075 35.065L44.0971 26.5187C43.9795 26.3259 43.7266 26.2644 43.5338 26.382C43.3411 26.4995 43.2795 26.7525 43.3971 26.9453L48.6075 35.4943L48.3559 35.7226C47.5287 36.4732 47.0571 37.53 47.0571 38.6484C47.0571 40.8249 48.8303 42.5996 51.011 42.5996Z" fill="#F1F1F2"/>
<path fill-rule="evenodd" clip-rule="evenodd" d="M80.7296 70.2032C80.7296 70.7788 80.3194 71.2641 79.8341 71.2641H65.197C64.2905 69.2338 62.9042 67.503 61.2007 66.2452C62.2767 63.1485 65.0138 61.0321 68.0339 61.0321H73.4138C77.4483 61.0321 80.7296 64.6647 80.7296 69.1299V70.2032ZM64.7362 78.2928V76.8504C64.7362 70.6954 60.1999 65.6887 54.6259 65.6887H47.3962C41.8222 65.6887 37.2858 70.6954 37.2858 76.8504V78.2928C37.2858 79.2348 37.953 80.0004 38.772 80.0004H63.2501C64.069 80.0004 64.7362 79.2348 64.7362 78.2928ZM22.188 71.2641C21.7026 71.2641 21.2925 70.7788 21.2925 70.2032V69.1299C21.2925 64.6647 24.5737 61.0321 28.6083 61.0321H33.9882C37.0083 61.0321 39.7454 63.1485 40.8214 66.2452C39.1179 67.503 37.7315 69.2338 36.8251 71.2641H22.188ZM27.68 48.35C28.6397 47.2809 29.7226 46.8243 31.303 46.8243C32.8767 46.8243 33.9567 47.2809 34.9165 48.35C36.281 49.8704 36.5161 53.3608 35.4196 55.8163C34.8372 57.1219 33.6491 58.6791 31.2989 58.6791C28.9474 58.6791 27.7593 57.1219 27.1755 55.8163C26.0804 53.3594 26.3155 49.8704 27.68 48.35ZM28.2897 39.4661C28.3622 41.5045 28.7026 43.5075 29.3069 45.4393C29.9167 45.2684 30.5771 45.1836 31.303 45.1836C33.3333 45.1836 34.87 45.8413 36.1374 47.2536C37.9421 49.2661 38.2921 53.4073 36.9181 56.4848C36.9181 56.4862 36.9167 56.4875 36.9167 56.4875C39.0249 58.1542 41.4243 59.4379 43.9687 60.2678C43.8812 60.0983 43.7978 59.9247 43.7171 59.7456C41.9124 55.7028 42.3622 50.2751 44.7192 47.6473C46.364 45.8126 48.3655 44.9594 51.0165 44.9594C53.6606 44.9594 55.6581 45.8126 57.3028 47.6473C59.6599 50.2751 60.1097 55.7028 58.3036 59.7469C58.2243 59.926 58.1409 60.0983 58.0548 60.2678C60.5978 59.4379 62.9972 58.1542 65.1054 56.4875C65.1054 56.4862 65.104 56.4862 65.104 56.4848C63.73 53.4059 64.08 49.2661 65.8847 47.2536C67.1521 45.8413 68.6915 45.1836 70.7286 45.1836C71.4505 45.1836 72.1081 45.2684 72.7151 45.4393C73.3194 43.5075 73.6599 41.5045 73.7323 39.4661H70.0929C69.6403 39.4661 69.2726 39.0997 69.2726 38.6458C69.2726 38.1932 69.6403 37.8254 70.0929 37.8254H73.731C73.6052 34.2858 72.6659 30.9499 71.095 27.9981L67.9478 29.8151C67.8179 29.8903 67.6771 29.9258 67.5376 29.9258C67.2546 29.9258 66.9784 29.7782 66.8267 29.5157C66.5997 29.1233 66.7351 28.6215 67.1274 28.3946L70.272 26.579C68.4468 23.675 65.9831 21.2114 63.0792 19.3848L61.2622 22.5307C61.1104 22.7932 60.8356 22.9409 60.5513 22.9409C60.4118 22.9409 60.271 22.9053 60.1425 22.8315C59.7501 22.6045 59.6147 22.1028 59.8417 21.7104L61.6587 18.5631C58.7083 16.9922 55.371 16.053 51.8313 15.9258V19.5639C51.8313 20.0165 51.4636 20.3842 51.011 20.3842C50.5585 20.3842 50.1907 20.0165 50.1907 19.5639V15.9258C46.6511 16.053 43.3138 16.9922 40.3634 18.5631L42.1804 21.7104C42.4073 22.1028 42.272 22.6045 41.8796 22.8315C41.7511 22.9053 41.6103 22.9409 41.4708 22.9409C41.1864 22.9409 40.9116 22.7932 40.7599 22.5307L38.9429 19.3848C36.039 21.2114 33.5767 23.675 31.7501 26.579L34.8946 28.3946C35.287 28.6215 35.4224 29.1233 35.1954 29.5157C35.0437 29.7782 34.7675 29.9258 34.4845 29.9258C34.345 29.9258 34.2042 29.8903 34.0743 29.8151L30.9271 27.9981C29.3562 30.9499 28.4169 34.2858 28.2911 37.8254H31.9292C32.3817 37.8254 32.7495 38.1932 32.7495 38.6458C32.7495 39.0997 32.3817 39.4661 31.9292 39.4661H28.2897ZM74.8438 55.8163C74.2614 57.1219 73.0733 58.6791 70.7231 58.6791C68.373 58.6791 67.1835 57.1219 66.6011 55.8163C65.5046 53.3594 65.7397 49.8704 67.1056 48.35C68.064 47.2809 69.1468 46.8243 70.7272 46.8243C72.3009 46.8243 73.381 47.2809 74.3407 48.35C75.7065 49.8704 75.9417 53.3608 74.8438 55.8163ZM56.8065 59.0784C55.989 60.909 54.321 63.0911 51.0124 63.0911C47.7024 63.0911 46.0331 60.909 45.2155 59.077C43.7034 55.6891 44.0425 50.8588 45.9401 48.7424C47.2704 47.2604 48.8358 46.6 51.0165 46.6C53.1903 46.6 54.7517 47.2604 56.0819 48.7424C57.981 50.8588 58.3187 55.6891 56.8065 59.0784ZM42.2378 65.3497C43.7964 64.517 45.5478 64.0481 47.3962 64.0481H47.7476C46.8876 63.6543 46.1124 63.0952 45.4384 62.3815C42.056 61.5885 38.8458 60.0559 36.0882 57.9204C35.637 58.5288 35.1093 59.0278 34.5159 59.4106C37.9038 59.6321 40.9198 61.9686 42.2378 65.3497ZM54.6259 64.0481C56.4743 64.0481 58.2257 64.517 59.7843 65.3497C61.1036 61.9686 64.1183 59.6321 67.5075 59.4106C66.9128 59.0278 66.3851 58.5288 65.9339 57.9204C63.1763 60.0559 59.9675 61.5885 56.5837 62.3801C55.911 63.0952 55.1358 63.6543 54.2759 64.0481H54.6259ZM73.9429 59.4106C74.9505 58.7598 75.7694 57.7741 76.3437 56.4862C77.7177 53.4073 77.3677 49.2661 75.563 47.2536C75.1487 46.7915 74.7044 46.4114 74.2231 46.1079C74.9956 43.7043 75.388 41.1983 75.388 38.6458C75.388 34.242 74.2136 30.1077 72.1628 26.5379C72.1505 26.5106 72.1368 26.4846 72.1218 26.4573C72.1054 26.4286 72.0862 26.4012 72.0671 26.3752C69.9438 22.7467 66.9114 19.7129 63.2829 17.5911C63.2569 17.5706 63.2296 17.5528 63.1995 17.535C63.1735 17.52 63.1476 17.5063 63.1202 17.4954C59.5505 15.4432 55.4147 14.2688 51.011 14.2688C46.6073 14.2688 42.4716 15.4432 38.9019 17.4954C38.8745 17.5063 38.8485 17.52 38.8226 17.535C38.7938 17.5528 38.7665 17.5706 38.7392 17.5911C35.1106 19.7129 32.0782 22.7467 29.955 26.3752C29.9358 26.4012 29.9167 26.4286 29.9003 26.4573C29.8853 26.4833 29.8716 26.5106 29.8593 26.5366C27.8085 30.1063 26.6341 34.242 26.6341 38.6458C26.6341 41.1983 27.0265 43.7043 27.7989 46.1079C27.3177 46.4114 26.8733 46.7915 26.4591 47.2536C24.6544 49.2661 24.3044 53.4059 25.6784 56.4848C26.2526 57.7741 27.0716 58.7598 28.0792 59.4092C23.3856 59.7086 19.6519 63.9524 19.6519 69.1299V70.2032C19.6519 71.6934 20.7894 72.9047 22.188 72.9047H36.2181C35.8476 74.1489 35.6452 75.4737 35.6452 76.8504V78.2928C35.6452 80.1385 37.0479 81.6411 38.772 81.6411H63.2501C64.9741 81.6411 66.3769 80.1385 66.3769 78.2928V76.8504C66.3769 75.4737 66.1745 74.1489 65.804 72.9047H79.8341C81.2327 72.9047 82.3702 71.6934 82.3702 70.2032V69.1299C82.3702 63.9538 78.6364 59.7086 73.9429 59.4106ZM53.7345 38.6458C53.7345 40.1483 52.5122 41.3692 51.011 41.3692C49.5099 41.3692 48.2876 40.1483 48.2876 38.6458C48.2876 37.1446 49.5099 35.9237 51.011 35.9237C52.5122 35.9237 53.7345 37.1446 53.7345 38.6458ZM48.0812 35.4165L43.0472 27.1573C42.8106 26.7704 42.9337 26.2659 43.3206 26.0307C43.7075 25.7942 44.212 25.9172 44.4472 26.3042L49.4812 34.5606C49.9569 34.3815 50.4724 34.2831 51.011 34.2831C53.137 34.2831 54.9116 35.8102 55.2958 37.8254H62.0306C62.4831 37.8254 62.8509 38.1932 62.8509 38.6458C62.8509 39.0997 62.4831 39.4661 62.0306 39.4661H55.2958C54.9116 41.4813 53.137 43.0098 51.011 43.0098C48.6048 43.0098 46.647 41.052 46.647 38.6458C46.647 37.3674 47.2007 36.2149 48.0812 35.4165Z" fill="#358527"/>
</g>
<path d="M102.941 65V30H116.641C119.141 30 121.391 30.4167 123.391 31.25C125.424 32.0833 127.158 33.2833 128.591 34.85C130.024 36.4167 131.124 38.2667 131.891 40.4C132.658 42.5333 133.041 44.9 133.041 47.5C133.041 50.1 132.658 52.4833 131.891 54.65C131.124 56.7833 130.024 58.6333 128.591 60.2C127.191 61.7333 125.474 62.9167 123.441 63.75C121.408 64.5833 119.141 65 116.641 65H102.941ZM108.341 60.35L108.191 59.8H116.391C118.158 59.8 119.724 59.5167 121.091 58.95C122.491 58.3833 123.658 57.5833 124.591 56.55C125.558 55.4833 126.291 54.1833 126.791 52.65C127.291 51.1167 127.541 49.4 127.541 47.5C127.541 45.6 127.291 43.9 126.791 42.4C126.291 40.8667 125.558 39.5667 124.591 38.5C123.624 37.4333 122.458 36.6167 121.091 36.05C119.724 35.4833 118.158 35.2 116.391 35.2H108.041L108.341 34.75V60.35ZM148.243 65.5C146.377 65.5 144.743 65.0667 143.343 64.2C141.977 63.3333 140.91 62.1167 140.143 60.55C139.41 58.9833 139.043 57.1167 139.043 54.95V38.75H144.193V53.55C144.193 55.0833 144.427 56.4167 144.893 57.55C145.393 58.65 146.093 59.5 146.993 60.1C147.927 60.7 149.043 61 150.343 61C151.31 61 152.193 60.85 152.993 60.55C153.793 60.2167 154.477 59.7667 155.043 59.2C155.643 58.6333 156.11 57.95 156.443 57.15C156.777 56.35 156.943 55.4833 156.943 54.55V38.75H162.093V65H156.943V59.5L157.843 58.9C157.443 60.1333 156.76 61.25 155.793 62.25C154.86 63.25 153.743 64.05 152.443 64.65C151.143 65.2167 149.743 65.5 148.243 65.5ZM172.567 65V32.05H177.717V65H172.567ZM167.117 43.75V38.75H183.817V43.75H167.117ZM192.906 76.5L198.206 64.25L198.256 68.35L185.156 38.75H191.156L199.356 58.05C199.523 58.3833 199.723 58.9 199.956 59.6C200.19 60.2667 200.39 60.9333 200.556 61.6L199.256 61.9C199.523 61.2 199.773 60.5 200.006 59.8C200.273 59.1 200.523 58.4 200.756 57.7L207.606 38.75H213.706L202.906 65L198.456 76.5H192.906Z" fill="#358527"/>
<rect x="1.5" y="1.5" width="397" height="97" rx="18.5" stroke="#358527" stroke-width="3"/>
<defs>
<clipPath id="clip0_3051_227">
<rect width="70" height="70" fill="white" transform="translate(16 13)"/>
</clipPath>
</defs>
</svg>
