<svg id="Layer_1" enable-background="new 0 0 512 512" viewBox="0 0 512 512" xmlns="http://www.w3.org/2000/svg"><g clip-rule="evenodd" fill-rule="evenodd"><g><g><ellipse cx="256.005" cy="255.996" fill="#f4f6f8" rx="210.282" ry="210.282" transform="matrix(.707 -.707 .707 .707 -106.034 256.002)"/><path d="m256.005 15.996c16.413 0 29.718 13.305 29.718 29.718 0 16.412-13.305 29.718-29.718 29.718s-29.718-13.305-29.718-29.718 13.305-29.718 29.718-29.718zm-210.283 210.282c16.413 0 29.718 13.305 29.718 29.718s-13.305 29.718-29.718 29.718-29.718-13.305-29.718-29.718 13.306-29.718 29.718-29.718zm210.283 210.282c16.413 0 29.718 13.305 29.718 29.718s-13.305 29.718-29.718 29.718-29.718-13.305-29.718-29.718 13.305-29.718 29.718-29.718zm210.282-210.282c16.413 0 29.718 13.305 29.718 29.718s-13.305 29.718-29.718 29.718-29.718-13.305-29.718-29.718 13.305-29.718 29.718-29.718z" fill="#fdcd56"/></g><g><g><path d="m219.026 318.288c0 33.8-122.405 33.8-122.405 0 0-33.799 27.404-61.201 61.205-61.201 33.799 0 61.2 27.401 61.2 61.201z" fill="#f76c82"/><path d="m129.538 212.499c0 15.623 12.664 28.287 28.287 28.287s28.287-12.664 28.287-28.287c0-15.618-12.664-28.282-28.287-28.282-15.623-.001-28.287 12.663-28.287 28.282z" fill="#efc7a4"/></g><g><path d="m415.389 318.288c0 33.8-122.405 33.8-122.405 0 0-33.799 27.404-61.201 61.205-61.201 33.799 0 61.2 27.401 61.2 61.201z" fill="#c6ea94"/><path d="m325.901 212.499c0 15.623 12.664 28.287 28.287 28.287s28.287-12.664 28.287-28.287c0-15.618-12.664-28.282-28.287-28.282-15.623-.001-28.287 12.663-28.287 28.282z" fill="#efc7a4"/></g><g><path d="m317.207 366.568c0 33.8-122.405 33.8-122.405 0 0-33.799 27.404-61.201 61.205-61.201 33.799 0 61.2 27.402 61.2 61.201z" fill="#66d4f1"/><path d="m227.72 260.779c0 15.623 12.664 28.287 28.287 28.287s28.287-12.664 28.287-28.287c0-15.618-12.664-28.282-28.287-28.282-15.624 0-28.287 12.664-28.287 28.282z" fill="#efc7a4"/></g></g></g><path d="m300.15 170.32 20.14-34.891c1.943-3.351 6.221-4.499 9.562-2.56 3.35 1.929 4.499 6.211 2.569 9.562l-20.149 34.887c-1.289 2.244-3.651 3.501-6.07 3.501-1.181 0-2.39-.297-3.492-.937-3.351-1.935-4.49-6.212-2.56-9.562zm-51.15-9.962v-40.279c0-3.868 3.129-7.002 7.002-7.002 3.868 0 6.997 3.134 6.997 7.002v40.279c0 3.872-3.129 7.002-6.997 7.002-3.872 0-7.002-3.13-7.002-7.002zm-69.42-17.928c-1.929-3.351-.776-7.633 2.569-9.562 3.341-1.929 7.632-.79 9.561 2.56l20.14 34.891c1.929 3.35.791 7.628-2.56 9.562-1.101.64-2.311.937-3.491.937-2.419 0-4.781-1.247-6.066-3.501zm76.422 97.07c11.74 0 21.288 9.547 21.288 21.278 0 11.74-9.548 21.288-21.288 21.288s-21.278-9.547-21.278-21.288c0-11.73 9.538-21.278 21.278-21.278zm0 56.57c19.457 0 35.287-15.829 35.287-35.291 0-19.448-15.829-35.277-35.287-35.277-19.452 0-35.282 15.829-35.282 35.277 0 19.462 15.83 35.291 35.282 35.291zm98.181-104.853c11.74 0 21.288 9.552 21.288 21.283 0 11.74-9.547 21.288-21.288 21.288-11.731 0-21.283-9.547-21.283-21.288 0-11.731 9.552-21.283 21.283-21.283zm-35.282 21.283c0 19.457 15.829 35.291 35.282 35.291 19.457 0 35.286-15.834 35.286-35.291 0-19.453-15.829-35.282-35.286-35.282-19.453 0-35.282 15.829-35.282 35.282zm83.499 114.066c-17.519 11.561-63.708 13.42-88.581 3.901-3.736-5.967-8.366-11.307-13.707-15.848 1.911-28.139 25.509-50.528 54.071-50.528 29.889 0 54.198 24.318 54.198 54.198 0 2.88-2.009 5.67-5.981 8.277zm-146.398 58.353c29.89 0 54.198-8.23 54.198-18.352 0-29.88-24.309-54.198-54.198-54.198s-54.203 24.318-54.203 54.198c.001 10.122 24.314 18.352 54.203 18.352zm-146.402-58.353c-3.967-2.607-5.976-5.397-5.976-8.277 0-29.88 24.308-54.198 54.198-54.198 28.567 0 52.17 22.389 54.071 50.528-5.341 4.541-9.971 9.882-13.712 15.839-24.869 9.528-71.058 7.67-88.581-3.892zm244.583-76.478c-33.273 0-61.191 24.153-67.054 55.831-9.341-4.809-19.918-7.552-31.127-7.552-11.213 0-21.791 2.743-31.132 7.552-5.858-31.677-33.771-55.831-67.049-55.831-37.611 0-68.202 30.6-68.202 68.202 0 5.421 2.132 13.279 12.272 19.97 12.408 8.178 34.242 12.47 56.198 12.47 11.223 0 22.459-1.129 32.501-3.421-1.812 6.112-2.79 12.568-2.79 19.26 0 7.694 4.113 18.37 23.711 25.584 11.848 4.367 27.65 6.767 44.491 6.767 16.836 0 32.638-2.4 44.5-6.767 19.589-7.214 23.697-17.89 23.697-25.584 0-6.691-.979-13.147-2.786-19.26 10.037 2.292 21.279 3.421 32.496 3.421 21.951 0 43.79-4.291 56.203-12.47 10.14-6.691 12.267-14.549 12.267-19.97.001-37.602-30.59-68.202-68.196-68.202zm-196.361-58.871c11.74 0 21.288 9.552 21.288 21.283 0 11.74-9.547 21.288-21.288 21.288-11.74 0-21.292-9.547-21.292-21.288-.001-11.731 9.551-21.283 21.292-21.283zm0 56.574c19.462 0 35.291-15.834 35.291-35.291 0-19.453-15.829-35.282-35.291-35.282s-35.292 15.829-35.292 35.282c0 19.457 15.83 35.291 35.292 35.291zm308.461 30.93c-12.521 0-22.723-10.192-22.723-22.723s10.202-22.718 22.723-22.718c12.531 0 22.718 10.188 22.718 22.718s-10.188 22.723-22.718 22.723zm-174.985 177.496c83.744-14.691 150.233-81.179 164.924-164.919-15.373-4.381-26.661-18.54-26.661-35.301s11.289-30.92 26.661-35.296c-14.691-83.744-81.179-150.233-164.924-164.924-4.376 15.373-18.535 26.661-35.296 26.661s-30.92-11.289-35.301-26.661c-83.73 14.69-150.229 81.189-164.919 164.924 15.368 4.376 26.657 18.535 26.657 35.296s-11.288 30.92-26.657 35.301c14.69 83.739 81.189 150.228 164.919 164.919 4.381-15.368 18.54-26.647 35.301-26.647 16.762 0 30.92 11.279 35.296 26.647zm-35.296 32.784c-12.531 0-22.723-10.192-22.723-22.723 0-12.521 10.192-22.709 22.723-22.709s22.718 10.187 22.718 22.709c.001 12.531-10.187 22.723-22.718 22.723zm-233.003-233.003c0-12.531 10.192-22.718 22.723-22.718 12.521 0 22.718 10.188 22.718 22.718s-10.197 22.723-22.718 22.723c-12.531 0-22.723-10.193-22.723-22.723zm233.003-232.999c12.531 0 22.718 10.187 22.718 22.718 0 12.521-10.188 22.723-22.718 22.723-12.531 0-22.723-10.202-22.723-22.723 0-12.53 10.192-22.718 22.723-22.718zm246.998 232.999c0-18.921-14.38-34.529-32.778-36.496-7.51-44.542-28.37-84.934-60.579-117.144-32.209-32.209-72.602-53.069-117.144-60.579-1.968-18.399-17.576-32.779-36.497-32.779s-34.529 14.38-36.501 32.779c-44.538 7.51-84.93 28.37-117.139 60.579s-53.069 72.602-60.584 117.144c-18.398 1.966-32.778 17.575-32.778 36.496s14.38 34.529 32.778 36.501c7.515 44.538 28.374 84.93 60.584 117.139 32.209 32.209 72.602 53.069 117.139 60.583 1.972 18.399 17.581 32.779 36.501 32.779 18.921 0 34.529-14.38 36.496-32.779 44.542-7.515 84.935-28.374 117.144-60.583s53.069-72.602 60.579-117.139c18.399-1.972 32.779-17.58 32.779-36.501z"/></g></svg>