<?xml version="1.0" encoding="UTF-8"?>
<svg version="1.1" xmlns="http://www.w3.org/2000/svg" width="512" height="512">
<path d="M0 0 C0.6581369 0.00021149 1.3162738 0.00042297 1.99435425 0.00064087 C31.83099358 0.09607252 58.18264896 11.82254631 79.6875 32.25 C100.09512012 53.82997277 110.85207745 80.28268045 110.8125 109.9375 C110.81228851 110.5956369 110.81207703 111.2537738 110.81185913 111.93185425 C110.73335443 136.47629371 103.13885453 160.66911223 87.00390625 179.51953125 C85.37808518 181.29778799 85.37808518 181.29778799 84.4375 183.375 C85.26765625 183.82746094 86.0978125 184.27992188 86.953125 184.74609375 C98.31776748 191.01192771 109.38710817 197.75084169 120.45451355 204.52223206 C122.14126876 205.55143888 123.83241367 206.57344067 125.52368164 207.59521484 C127.21751343 208.62982178 128.90055781 209.68342013 130.55249023 210.78369141 C134.97444627 213.64506728 138.20518037 213.67400739 143.375 213.125 C144.05884766 213.05925781 144.74269531 212.99351562 145.44726562 212.92578125 C147.11281524 212.76272045 148.77559643 212.57177623 150.4375 212.375 C150.54964844 211.65183594 150.66179687 210.92867187 150.77734375 210.18359375 C152.51712443 202.78180494 157.10959511 196.97128055 163.21484375 192.62890625 C170.31299028 188.62450372 176.68726768 187.53974906 184.75 186.6875 C186.47573242 186.50078735 186.47573242 186.50078735 188.23632812 186.31030273 C218.71109832 183.20206314 218.71109832 183.20206314 230.6875 192.375 C239.43778397 200.91501292 241.43434436 211.55951083 242.421875 223.28125 C242.56989366 224.81822145 242.72037146 226.35495757 242.87298584 227.89147949 C243.21707549 231.38792611 243.54762602 234.88535386 243.87084961 238.38378906 C244.49162087 245.03402479 245.17918271 251.67695158 245.86914062 258.3203125 C247.08850799 270.08503715 248.28266547 281.85211552 249.45935822 293.62117004 C249.59495943 294.97710328 249.73057704 296.33303488 249.86621094 297.68896484 C249.96718433 298.69847025 249.96718433 298.69847025 250.07019758 299.72836971 C250.62054015 305.22302673 251.17997297 310.71673404 251.7409842 316.21031046 C252.35826355 322.26109814 252.96449608 328.31295031 253.56707001 334.36521912 C253.82045899 336.89450197 254.07713122 339.42345849 254.33740997 341.95204163 C255.52446177 353.50777961 256.65129789 365.02585916 256.74511719 376.65039062 C256.75619633 377.44371544 256.76727547 378.23704025 256.77869034 379.05440521 C256.71988801 387.38884496 253.80271252 393.43587527 248.421875 399.734375 C239.3521499 408.67360046 227.98474555 410.05673768 215.75 411.125 C214.48349609 411.25003906 213.21699219 411.37507813 211.91210938 411.50390625 C198.6261576 412.76791212 187.80664975 413.1502722 176.48828125 405.12890625 C173.21754875 402.33165121 170.58169724 399.10842578 168.4375 395.375 C168.4375 394.715 168.4375 394.055 168.4375 393.375 C167.47070312 393.519375 166.50390625 393.66375 165.5078125 393.8125 C158.09362824 394.86957181 150.94756744 395.69307344 143.4375 395.375 C143.9428125 396.2 144.448125 397.025 144.96875 397.875 C150.27110415 407.06682573 152.12422071 414.824938 150.4375 425.375 C147.19901675 435.5464095 140.84991544 443.2695041 131.4375 448.25 C124.11193951 451.57166636 117.46789368 452.70959974 109.4375 452.375 C109.251875 453.344375 109.06625 454.31375 108.875 455.3125 C106.54227818 463.3150318 100.49211632 468.98919577 93.5625 473.2265625 C84.43481325 478.15954026 76.21043553 477.54875956 66.4375 475.375 C66.2725 476.2 66.1075 477.025 65.9375 477.875 C62.51170039 485.86853243 55.2359869 490.97177338 47.4375 494.375 C38.65241428 497.71753262 29.49474541 497.16404649 20.7265625 494.12890625 C19.59347656 493.75572266 19.59347656 493.75572266 18.4375 493.375 C17.65632813 493.04113281 16.87515625 492.70726562 16.0703125 492.36328125 C12.8489798 492.37761953 12.44801116 492.97128392 10.203125 495.1640625 C9.01917128 496.43153233 7.84784716 497.71088377 6.6875 499 C-0.94006632 507.06442694 -7.59631436 512.26934844 -18.99414062 512.76977539 C-28.93235918 512.97506201 -36.43324204 511.0454106 -44.0078125 504.1484375 C-48.14480452 499.71488692 -51.5625 495.67847983 -51.5625 489.375 C-52.57828125 489.44460938 -53.5940625 489.51421875 -54.640625 489.5859375 C-65.44607643 490.10380853 -73.58677846 488.72118848 -81.97265625 481.21875 C-85.98144646 476.96986891 -88.68234527 472.89795452 -90.5625 467.375 C-91.50609375 467.37242187 -92.4496875 467.36984375 -93.421875 467.3671875 C-103.75151968 467.05605362 -111.97610461 465.35575059 -119.9765625 458.22265625 C-123.9776237 453.96698206 -126.682173 449.89846057 -128.5625 444.375 C-129.45710938 444.34921875 -130.35171875 444.3234375 -131.2734375 444.296875 C-143.28776334 443.73330321 -152.27619988 441.47332062 -160.5625 432.375 C-166.91503733 424.01809974 -168.58614703 415.77811054 -167.5625 405.375 C-166.52088692 401.56179037 -165.18033473 397.97901576 -163.5625 394.375 C-164.8825 394.045 -166.2025 393.715 -167.5625 393.375 C-167.76875 394.055625 -167.975 394.73625 -168.1875 395.4375 C-172.23155796 404.07707838 -178.87118966 407.88911779 -187.5625 411.375 C-191.94358708 412.64225659 -196.18593224 412.35700422 -200.6875 412.0625 C-201.46939697 412.01327393 -202.25129395 411.96404785 -203.05688477 411.91333008 C-205.5598619 411.74679684 -208.06109923 411.56367599 -210.5625 411.375 C-211.39346191 411.31441406 -212.22442383 411.25382812 -213.08056641 411.19140625 C-228.14632999 410.03860919 -240.03195036 408.31484253 -250.5625 396.375 C-254.99671013 389.59464694 -255.74430472 383.59810077 -255.75 375.75 C-255.76224609 374.88503906 -255.77449219 374.02007812 -255.78710938 373.12890625 C-255.80306002 366.03618551 -255.63226742 359.11604334 -251.25 353.3125 C-248.22838983 351.13412988 -247.15047206 351.18868989 -243.5625 351.375 C-243.50191406 350.3128125 -243.44132813 349.250625 -243.37890625 348.15625 C-242.56047889 334.21828379 -242.56047889 334.21828379 -241.5625 327.375 C-242.7071875 327.00375 -242.7071875 327.00375 -243.875 326.625 C-246.91471435 325.21117937 -247.94627797 324.28419965 -249.5625 321.375 C-250.69178575 317.66448968 -250.73691646 315.86917996 -249.4375 312.1875 C-246.77755039 308.19757558 -244.03046923 306.86432308 -239.5625 305.375 C-239.50715088 304.78485107 -239.45180176 304.19470215 -239.39477539 303.58666992 C-239.14182313 300.91158792 -238.883473 298.23705397 -238.625 295.5625 C-238.53798828 294.63373047 -238.45097656 293.70496094 -238.36132812 292.74804688 C-238.27431641 291.85537109 -238.18730469 290.96269531 -238.09765625 290.04296875 C-238.019104 289.22078857 -237.94055176 288.3986084 -237.85961914 287.55151367 C-237.5625 285.375 -237.5625 285.375 -236.5625 282.375 C-237.305 282.313125 -238.0475 282.25125 -238.8125 282.1875 C-241.5625 281.375 -241.5625 281.375 -243.875 279.5625 C-247.90904816 271.94263126 -245.39711028 260.93422992 -244.5390625 252.58203125 C-244.37970718 250.97481453 -244.37970718 250.97481453 -244.21713257 249.33512878 C-243.99303471 247.09039645 -243.76600304 244.8459552 -243.53613281 242.60180664 C-243.18739884 239.18650926 -242.85089271 235.77015832 -242.515625 232.35351562 C-242.29499944 230.1587808 -242.07366941 227.96411666 -241.8515625 225.76953125 C-241.75251617 224.75993851 -241.65346985 223.75034576 -241.55142212 222.7101593 C-240.32406645 210.9020085 -238.35172366 200.48362126 -229.3125 192 C-216.08077713 181.94046123 -199.5794999 184.98682959 -184.0625 186.5625 C-182.97710937 186.66312744 -181.89171875 186.76375488 -180.7734375 186.86743164 C-171.8263383 187.88895625 -162.99304676 190.76582694 -156.5625 197.375 C-153.18215287 202.24667675 -150.6213965 206.51133005 -149.5625 212.375 C-137.51916978 214.49159125 -130.53073576 212.34836714 -120.375 205.6875 C-119.12028786 204.90263229 -117.86333608 204.12133437 -116.60424805 203.34350586 C-114.09312004 201.78617449 -111.59476853 200.21111617 -109.10546875 198.61914062 C-104.10434251 195.43173628 -98.98514305 192.44561861 -93.875 189.4375 C-92.28523398 188.49513454 -90.6977273 187.54893927 -89.11328125 186.59765625 C-88.47044189 186.21359619 -87.82760254 185.82953613 -87.1652832 185.43383789 C-85.39556053 184.34154562 -85.39556053 184.34154562 -83.5625 182.375 C-83.96339844 181.983125 -84.36429688 181.59125 -84.77734375 181.1875 C-94.63056643 170.82039042 -101.14964538 156.85853344 -105.5625 143.375 C-105.77277832 142.74029785 -105.98305664 142.1055957 -106.19970703 141.45166016 C-115.24345146 112.65918483 -109.65767935 82.12364474 -96.375 55.8125 C-81.77075053 29.60222446 -57.39788733 11.53398463 -28.8125 3.12890625 C-19.12469628 0.88161524 -9.9601562 -0.01329287 0 0 Z " fill="#010101" transform="translate(255.5625,-0.375)"/>
<path d="M0 0 C5.37297113 2.35298641 10.20330094 5.65624298 15 9 C13.64439137 12.59625736 12.03871198 15.86262467 10.12109375 19.19140625 C9.53859863 20.20372314 8.95610352 21.21604004 8.35595703 22.2590332 C7.72286621 23.34917725 7.08977539 24.43932129 6.4375 25.5625 C6.10909119 26.13012054 5.78068237 26.69774109 5.44232178 27.28256226 C0.28358486 36.1958801 -5.00981374 45.02223728 -10.375 53.8125 C-16.05440274 63.12221259 -21.70099314 72.44979951 -27.24591064 81.84042358 C-27.98870575 83.09667847 -28.73372299 84.35162257 -29.48114014 85.60513306 C-35.89708267 96.37359302 -40.89900938 105.35065329 -38.6015625 118.234375 C-36.87127808 124.03195136 -32.92421291 127.66307916 -28 131 C-24.34934139 132.71219712 -21.44267313 133.26448144 -17.421875 133.30078125 C-16.35179199 133.31044922 -15.28170898 133.32011719 -14.17919922 133.33007812 C8.64814884 133.21306481 27.39286888 131.32344201 44.125 114.4375 C48.61147103 109.79169635 52.82721933 104.92743249 57 100 C61.06891127 100.88953943 64.34321732 102.77809562 67.9375 104.8125 C75.46954698 108.95199056 83.57212564 112.89758728 92.3125 113.0625 C98.01411569 114.51206331 101.04244626 118.36921948 105 122.5625 C105.76828125 123.34947266 106.5365625 124.13644531 107.328125 124.94726562 C110.67686986 128.40137065 113.92210375 131.90859502 117.04882812 135.56420898 C121.45854239 140.62043681 126.21140213 145.32412367 130.97114563 150.04631042 C132.63113059 151.69333883 134.28780235 153.34363952 135.94372559 154.99475098 C139.45965651 158.49934639 142.97951953 161.99997555 146.5 165.5 C150.58492585 169.56119008 154.66814893 173.62406294 158.74714661 177.69120789 C160.36626771 179.30392583 161.98840784 180.91356218 163.61071777 182.52307129 C168.44620256 187.33482816 173.18713984 192.17604048 177.60282898 197.38017273 C179.71451189 199.82837808 181.99783293 202.05542962 184.3125 204.3125 C190.85188554 210.69165557 190.85188554 210.69165557 191.375 215.3125 C190.81534837 220.81574104 188.47374288 223.67003692 184.4375 227.3125 C180.76728252 229.8534198 177.92412199 230.15790962 173.5625 230.1875 C172.61503906 230.20167969 171.66757812 230.21585938 170.69140625 230.23046875 C167.90703518 229.9920393 166.43030304 229.29250203 164 228 C162.00914743 227.61543625 162.00914743 227.61543625 160 227.625 C159.34 227.59664062 158.68 227.56828125 158 227.5390625 C154.97727627 228.23570586 153.84426492 229.5409801 152 232 C151.4504194 235.06555611 151.4504194 235.06555611 151.5 238.375 C151.15978565 245.27980495 149.47094534 248.39177991 144.75 253.375 C141.04360556 255.56514217 138.12371196 255.96127069 134 255 C131.12049684 253.58478964 128.42110336 252.0292033 125.7109375 250.3125 C122.5296532 248.77228167 120.49461398 248.62506205 117 249 C114.30009338 250.79993774 112.4581135 252.083773 111 255 C110.87267044 256.41477289 110.77190365 257.83201863 110.6875 259.25 C110.12566314 264.71035196 108.08142933 268.17086514 103.9375 271.8125 C100.61204488 273.85068217 97.81543659 274.15911133 94 274.1875 C93.13375 274.20167969 92.2675 274.21585937 91.375 274.23046875 C89 274 89 274 86 272 C85.62890625 269.12890625 85.62890625 269.12890625 85.5625 265.5625 C85.07861607 256.48037084 83.1775536 248.26101861 76.76953125 241.49609375 C69.93441299 235.71717478 62.05184125 232.69281957 53.125 232.875 C51.97257813 232.89304687 50.82015625 232.91109375 49.6328125 232.9296875 C48.76398438 232.95289063 47.89515625 232.97609375 47 233 C46.69707031 232.34773437 46.39414063 231.69546875 46.08203125 231.0234375 C41.10637171 220.64344622 35.97492588 215.16378728 25.14453125 210.8671875 C21.66253173 209.90693422 18.72944101 209.80143998 15.125 209.875 C13.97257812 209.89304687 12.82015625 209.91109375 11.6328125 209.9296875 C10.76398438 209.95289063 9.89515625 209.97609375 9 210 C8.59910156 209.14277344 8.19820313 208.28554688 7.78515625 207.40234375 C3.33125593 198.44404537 -1.44698912 192.38658522 -10.6875 188.0625 C-16.52137574 186.11391421 -22.93900388 186.77015886 -29 187 C-29.40089844 186.14277344 -29.80179687 185.28554688 -30.21484375 184.40234375 C-34.66874407 175.44404537 -39.44698912 169.38658522 -48.6875 165.0625 C-57.16875871 162.39840681 -65.74573239 162.94269324 -73.6875 166.8125 C-77.40372345 168.82823829 -77.40372345 168.82823829 -80.4453125 171.68359375 C-82.88153423 173.74642471 -85.06552468 173.32319989 -88.1875 173.25 C-89.27417969 173.23453125 -90.36085938 173.2190625 -91.48046875 173.203125 C-95.36063652 172.97918635 -99.14573206 172.49687521 -103 172 C-102.3491578 156.46066831 -100.82355144 141.02663042 -99.27734375 125.5546875 C-99.00896454 122.84521909 -98.7417489 120.13563626 -98.47450256 117.42605591 C-97.84721126 111.07272294 -97.21603866 104.71978214 -96.58338982 98.36698067 C-95.86204375 91.12153974 -95.14514875 83.87566045 -94.42858493 76.62974524 C-92.95726201 61.75267854 -91.480488 46.87615766 -90 32 C-89.02338032 32.03016284 -89.02338032 32.03016284 -88.02703094 32.06093502 C-85.03314352 32.14151093 -82.0394852 32.19093958 -79.04492188 32.23999023 C-78.02098328 32.27216393 -76.99704468 32.30433762 -75.94207764 32.33748627 C-65.50709858 32.46538632 -58.89869663 28.82029215 -50.5 23.0625 C-49.19320465 22.21848731 -47.88329027 21.37928442 -46.5703125 20.54492188 C-43.9775038 18.88912588 -41.40309866 17.20945289 -38.83984375 15.50830078 C-34.94502972 12.9400049 -30.97370791 10.51313122 -26.96875 8.12109375 C-26.37179321 7.76427017 -25.77483643 7.40744659 -25.15979004 7.03981018 C-23.44383219 6.01982776 -21.72194776 5.0098373 -20 4 C-19.37810791 3.63027573 -18.75621582 3.26055145 -18.11547852 2.87962341 C-11.90354852 -0.76382246 -7.08624092 -1.43547646 0 0 Z " fill="#F4C5AE" transform="translate(195,201)"/>
<path d="M0 0 C17.59676204 14.23136159 29.80670939 35.51872358 32.77587891 58.01782227 C35.31740556 84.8133568 27.48039306 108.69417382 10.76025391 129.52954102 C-4.1067754 146.99027867 -26.95107377 158.27106838 -49.81396484 160.2409668 C-73.94731405 161.28728881 -95.35789838 155.61588041 -114.22412109 140.01782227 C-115.49835938 138.9872168 -115.49835938 138.9872168 -116.79833984 137.93579102 C-133.44054932 123.79118725 -144.20774999 102.54988004 -147.22412109 81.01782227 C-149.25992404 55.74847386 -143.55465622 32.76999332 -127.22412109 13.01782227 C-126.53705078 12.16833008 -125.84998047 11.31883789 -125.14208984 10.44360352 C-93.37460729 -26.93327236 -37.72145083 -29.39125092 0 0 Z " fill="#B6EABA" transform="translate(313.22412109375,39.982177734375)"/>
<path d="M0 0 C8.47733794 3.3523984 16.27422747 8.433004 24.01260376 13.20632935 C25.85831938 14.34065943 27.71163443 15.46159711 29.56713867 16.57983398 C40.83181979 23.38840022 40.83181979 23.38840022 45.90039062 27.31542969 C53.09060887 32.00486212 58.46649531 32.45050242 66.94921875 32.21484375 C68.01378296 32.19933472 69.07834717 32.18382568 70.1751709 32.16784668 C72.78414795 32.12759598 75.39171602 32.07123846 78 32 C79.6997612 49.07202561 81.39502372 66.14449118 83.08496857 83.21749115 C83.86978669 91.14520683 84.65606241 99.07277283 85.44580078 107 C86.13433089 113.91135783 86.8200944 120.82298369 87.50257158 127.73494196 C87.86385297 131.392931 88.22649488 135.05077335 88.592453 138.70829773 C89.00146591 142.79665207 89.40429954 146.88559306 89.80664062 150.97460938 C89.92820023 152.18014465 90.04975983 153.38567993 90.17500305 154.62774658 C90.74290678 160.45124992 91.13698061 166.14884291 91 172 C85.82325503 172.59780031 80.64549735 173.18548093 75.46655273 173.76391602 C73.70582312 173.96200012 71.94539897 174.16281975 70.18530273 174.36645508 C67.65163801 174.65910373 65.1170286 174.94181559 62.58203125 175.22265625 C61.40674614 175.36164085 61.40674614 175.36164085 60.2077179 175.50343323 C50.97665594 176.50283661 50.97665594 176.50283661 46.96524048 173.45298767 C46.30462616 172.78650711 45.64401184 172.12002655 44.96337891 171.43334961 C44.20554108 170.67843735 43.44770325 169.92352509 42.66690063 169.14573669 C41.86158905 168.32291702 41.05627747 167.50009735 40.2265625 166.65234375 C39.3845932 165.80708633 38.5426239 164.96182892 37.67514038 164.09095764 C34.98229071 161.3823491 32.30388614 158.65991203 29.625 155.9375 C27.8289908 154.12999867 26.03212505 152.323348 24.234375 150.51757812 C22.50183318 148.77159805 20.77003833 147.02487638 19.0390625 145.27734375 C18.23779938 144.4686937 17.43653625 143.66004364 16.61099243 142.82688904 C12.44690965 138.59286249 8.41711916 134.29239562 4.55793762 129.77784729 C1.86990026 126.71038177 -1.03319543 123.86095674 -3.9375 121 C-4.52595703 120.41605469 -5.11441406 119.83210938 -5.72070312 119.23046875 C-7.14479793 117.81795195 -8.5720525 116.4086219 -10 115 C-7.37293575 112.37293575 -4.52475409 111.52092772 -1.09375 110.1953125 C1.42192599 108.75912434 2.02137341 107.6899422 3 105 C3.59909679 100.97749297 3.34662495 99.49827337 1 96.125 C-2.75425726 93.46573444 -5.60916036 93.44419751 -10 94 C-10.85980469 94.165 -11.71960938 94.33 -12.60546875 94.5 C-30.5822718 97.14790655 -47.49172695 95.12411443 -62.68359375 84.77734375 C-64.79419896 83.15790805 -66.69833005 81.45511702 -68.625 79.625 C-71.81150487 76.79000406 -74.62458578 75.88766362 -78.87890625 75.72265625 C-85.47422882 76.58502808 -89.6645007 84.16068362 -93.49609375 88.9453125 C-96.16101799 92.19643692 -98.91726632 95.33296987 -101.75 98.4375 C-102.63171875 99.40558594 -103.5134375 100.37367188 -104.421875 101.37109375 C-114.50342157 111.65121623 -126.88888407 114.03664802 -140.85595703 114.18066406 C-150.50160906 114.20447629 -150.50160906 114.20447629 -153 114 C-154 113 -154 113 -154.22583008 110.24560547 C-153.97839752 106.68953149 -153.25733622 105.06436954 -151.38671875 102.0703125 C-150.80776855 101.12647705 -150.22881836 100.1826416 -149.63232422 99.21020508 C-148.99053223 98.1920874 -148.34874023 97.17396973 -147.6875 96.125 C-146.66604417 94.46510334 -145.6446469 92.80516938 -144.62536621 91.14393616 C-143.90018782 89.96335884 -143.17334085 88.78380506 -142.44494629 87.60520935 C-138.41135612 81.07535323 -134.49998267 74.47414854 -130.59182739 67.86871338 C-129.37501888 65.8125319 -128.15643058 63.75741595 -126.93725586 61.70263672 C-113.394154 38.8951133 -113.394154 38.8951133 -100 16 C-98.29141784 16.14288854 -96.5831436 16.28946089 -94.875 16.4375 C-93.44800781 16.55931641 -93.44800781 16.55931641 -91.9921875 16.68359375 C-89 17 -89 17 -86.23046875 17.515625 C-62.30082882 21.10362422 -35.95661689 15.61736176 -15.75390625 2.2578125 C-10.51267816 -1.10963239 -6.05232361 -0.91902834 0 0 Z " fill="#FDDBD4" transform="translate(329,201)"/>
<path d="M0 0 C0.78528076 0.05752441 1.57056152 0.11504883 2.37963867 0.17431641 C4.81824186 0.36372723 7.2523443 0.58322224 9.6875 0.8125 C10.45320313 0.88130371 11.21890625 0.95010742 12.0078125 1.02099609 C27.28313988 2.44806827 27.28313988 2.44806827 32.30853271 7.41452026 C34.27141978 10.82791771 34.08227691 14.0348112 33.98925781 17.85986328 C33.9786797 18.65408251 33.96810158 19.44830173 33.95720291 20.26658821 C33.76857523 29.24547343 32.84344279 38.13464239 31.859375 47.0546875 C31.66742214 48.86101935 31.47638984 50.66744922 31.28620911 52.47396851 C30.88555111 56.26515507 30.47954122 60.05570944 30.06887817 63.8458252 C29.11313818 72.66993024 28.18529762 81.49698923 27.25529671 90.32383728 C26.95082919 93.2112897 26.64529948 96.09862843 26.33970642 98.98596191 C24.60877635 115.37559724 23.04933443 131.77607527 21.6321106 148.19589233 C21.38820038 151.00294796 21.13700059 153.80930863 20.88311768 156.61547852 C20.74346266 158.18397214 20.60834277 159.75287228 20.47625732 161.32202148 C20.25548442 163.919051 20.01787747 166.51410929 19.77734375 169.109375 C19.71309708 169.90563293 19.6488504 170.70189087 19.58265686 171.52227783 C19.05100609 177.01675352 17.91572775 180.7931686 13.6875 184.625 C6.12199816 187.61967781 -3.65627864 185.70133584 -11.625 185 C-13.0490918 184.89461914 -13.0490918 184.89461914 -14.50195312 184.78710938 C-21.01512164 184.21896837 -25.51401517 183.0908717 -30.6875 178.87890625 C-33.27213374 174.00165268 -32.56975931 169.16209272 -32.3125 163.75 C-32.21034522 161.59325712 -32.12625048 159.43556323 -32.0625 157.27734375 C-31.99289063 155.84829712 -31.99289063 155.84829712 -31.921875 154.39038086 C-32.43235364 151.02154091 -33.71633797 149.93411082 -36.3125 147.8125 C-38.44559192 146.57737921 -38.44559192 146.57737921 -40.3125 145.8125 C-39.34894647 128.9195615 -39.34894647 128.9195615 -38.3125 121.8125 C-39.4571875 121.44125 -39.4571875 121.44125 -40.625 121.0625 C-43.66471435 119.64867937 -44.69627797 118.72169965 -46.3125 115.8125 C-47.44178575 112.10198968 -47.48691646 110.30667996 -46.1875 106.625 C-43.52755039 102.63507558 -40.78046923 101.30182308 -36.3125 99.8125 C-36.25715088 99.22235107 -36.20180176 98.63220215 -36.14477539 98.02416992 C-35.89182313 95.34908792 -35.633473 92.67455397 -35.375 90 C-35.28798828 89.07123047 -35.20097656 88.14246094 -35.11132812 87.18554688 C-35.02431641 86.29287109 -34.93730469 85.40019531 -34.84765625 84.48046875 C-34.769104 83.65828857 -34.69055176 82.8361084 -34.60961914 81.98901367 C-34.3125 79.8125 -34.3125 79.8125 -33.3125 76.8125 C-31.32277499 75.90728445 -29.32117624 75.35946828 -27.22265625 74.75390625 C-24.71623243 73.51863398 -24.38496064 72.35651591 -23.3125 69.8125 C-22.83837205 67.85083004 -22.83837205 67.85083004 -22.6015625 65.76171875 C-22.49328125 64.93655762 -22.385 64.11139648 -22.2734375 63.26123047 C-22.16257812 62.35002441 -22.05171875 61.43881836 -21.9375 60.5 C-21.81375 59.53465332 -21.69 58.56930664 -21.5625 57.57470703 C-20.70427246 50.65735096 -20.00020489 43.73114543 -19.3359375 36.79296875 C-19.25131256 35.92179916 -19.16668762 35.05062958 -19.07949829 34.15306091 C-18.65240662 29.75523051 -18.23801659 25.35692656 -17.84619141 20.95581055 C-17.68964521 19.31163683 -17.53260288 17.66751026 -17.375 16.0234375 C-17.28126602 14.89188484 -17.28126602 14.89188484 -17.18563843 13.73747253 C-16.63831912 8.23232183 -15.41624737 4.58268022 -11.14453125 0.98828125 C-7.34509312 -0.58914065 -4.00672342 -0.346921 0 0 Z " fill="#FD5C7C" transform="translate(52.3125,205.1875)"/>
<path d="M0 0 C3.43449494 3.09104544 4.65435853 5.75945629 5.09379578 10.31645203 C5.21593602 11.52069478 5.21593602 11.52069478 5.34054375 12.74926567 C5.46140941 14.06000148 5.46140941 14.06000148 5.5847168 15.3972168 C5.67696596 16.32646029 5.76921513 17.25570377 5.86425972 18.21310616 C6.17048533 21.3119938 6.46588641 24.41182312 6.76171875 27.51171875 C6.97756056 29.71051524 7.19435093 31.9092188 7.41203308 34.10783386 C7.7553481 37.57574526 8.09813037 41.04369928 8.43817234 44.51193333 C9.58445395 56.1924479 10.80324188 67.86499805 12.02936172 79.53735733 C12.63995031 85.35979182 13.24454558 91.1828486 13.84960938 97.00585938 C14.58795813 104.11128489 15.32802139 111.21651571 16.07495117 118.32104492 C16.69557022 124.22547474 17.31016604 130.13050413 17.92069054 136.03598595 C18.15015524 138.24521091 18.38175564 140.45421527 18.61567116 142.6629734 C21.84547581 173.18874558 21.84547581 173.18874558 18.3125 177.875 C12.86090136 182.47857219 7.31535218 182.78503582 0.4375 183.375 C-0.49900391 183.4577417 -1.43550781 183.5404834 -2.40039062 183.62573242 C-22.4667182 185.31470619 -22.4667182 185.31470619 -27.5 181.25 C-30.26156635 175.89775623 -31.14469703 171.07803789 -31.69995117 165.12426758 C-31.79217516 164.23406858 -31.88439915 163.34386959 -31.9794178 162.42669487 C-32.28212037 159.47944959 -32.56880981 156.53087669 -32.85546875 153.58203125 C-33.06760557 151.48450116 -33.28077704 149.38707549 -33.49491882 147.28974915 C-33.94488056 142.86499589 -34.38825282 138.43965169 -34.82659912 134.01373291 C-35.48123169 127.41422302 -36.15736767 120.81704784 -36.83837891 114.22021484 C-37.84821395 104.42206541 -38.84146539 94.62236045 -39.82159615 84.8211956 C-40.37654074 79.27290799 -40.93512029 73.72504053 -41.50219727 68.17797852 C-42.06705037 62.65212018 -42.62302546 57.12543352 -43.17287254 51.59806252 C-43.37913641 49.53885273 -43.58834683 47.47993542 -43.80086708 45.42136192 C-44.80121499 35.7110573 -45.69662449 26.00037939 -45.93823242 16.23754883 C-45.97256284 15.51447131 -46.00689325 14.7913938 -46.04226398 14.04640484 C-46.07386111 10.17095535 -45.4945209 7.77842081 -43.10249329 4.81034851 C-40.57352918 2.32233845 -39.65556399 1.46550875 -36.25 1 C-35.38890625 0.87367188 -34.5278125 0.74734375 -33.640625 0.6171875 C-32.60421875 0.49601563 -31.5678125 0.37484375 -30.5 0.25 C-29.14045841 0.06633312 -27.78109505 -0.118656 -26.421875 -0.3046875 C-6.00907956 -3.00453978 -6.00907956 -3.00453978 0 0 Z " fill="#97E9F8" transform="translate(471.5,206.75)"/>
<path d="M0 0 C6.35096823 6.63964861 9.87490058 13.63344431 10.1875 22.8125 C10.24808594 24.03839844 10.30867187 25.26429687 10.37109375 26.52734375 C9.45827435 38.63980331 0.04248792 47.45435223 -8.11328125 55.46484375 C-9.27244202 56.62296405 -10.43055943 57.78212948 -11.58769226 58.942276 C-13.99991523 61.35432087 -16.42200302 63.75582313 -18.85229492 66.1496582 C-21.94913727 69.20102772 -25.02323032 72.27416396 -28.09066486 75.35506344 C-30.4741154 77.74523034 -32.86749636 80.12524729 -35.26408958 82.50222969 C-36.40087819 83.63138498 -37.53506084 84.76317077 -38.66643715 85.89774895 C-47.50864527 94.74413961 -55.33649984 101.88902831 -68.375 102.1875 C-84.98494367 101.96479684 -94.4670193 89.87414431 -105.55639648 78.91870117 C-106.56413536 77.92762454 -107.57722328 76.94195895 -108.59545898 75.96166992 C-117.24884363 67.62637357 -124.27957806 59.30573736 -124.5625 46.8125 C-124.47474121 38.04637236 -122.04363303 30.88570425 -116.02734375 24.41015625 C-108.18566289 17.63701212 -100.18737841 16.3094598 -90.0859375 16.53515625 C-80.96071666 17.3436025 -75.15557214 22.25672421 -69.25 28.875 C-64.85977234 25.28523461 -60.78860228 21.47851003 -56.81640625 17.43359375 C-56.331185 16.94049713 -55.84596375 16.44740051 -55.34603882 15.93936157 C-53.32405208 13.88100505 -51.30495574 11.82001554 -49.2956543 9.74926758 C-34.87206592 -5.08982472 -19.33236272 -12.64039101 0 0 Z " fill="#020202" transform="translate(313.25,62.125)"/>
<path d="M0 0 C2.92259352 1.32285812 3.83656259 2.4038751 6 5 C7.01717882 11.40822657 5.76975124 13.69765741 2 19 C0.47170046 20.69659873 -1.10489513 22.35063372 -2.72094727 23.96386719 C-4.11743248 25.36496735 -4.11743248 25.36496735 -5.54212952 26.79437256 C-6.55004158 27.79538816 -7.55813823 28.79621794 -8.56640625 29.796875 C-9.60761933 30.83689433 -10.64846121 31.87728541 -11.68894958 32.91802979 C-13.86206093 35.08958306 -16.03847179 37.25775364 -18.2175293 39.42333984 C-21.00912172 42.19789045 -23.79403316 44.9790313 -26.5767374 47.76249313 C-28.72198772 49.90747155 -30.86983393 52.04983429 -33.01856804 54.19132233 C-34.0466057 55.21618155 -35.07404212 56.24164426 -36.1008625 57.26772308 C-37.53421336 58.69890466 -38.97124804 60.12639396 -40.40844727 61.55371094 C-41.22467056 62.36612244 -42.04089386 63.17853394 -42.8818512 64.01556396 C-46.83390083 67.71813183 -49.4072589 68.59249894 -54.66455078 68.47216797 C-58.91300954 67.61323851 -61.18337435 64.72759024 -63.9375 61.5625 C-65.04920372 60.35401565 -66.16241438 59.14691531 -67.27734375 57.94140625 C-67.75421631 57.40201416 -68.23108887 56.86262207 -68.72241211 56.30688477 C-69.98807433 54.86972918 -69.98807433 54.86972918 -72 54 C-72 53.34 -72 52.68 -72 52 C-72.66 52 -73.32 52 -74 52 C-74 51.34 -74 50.68 -74 50 C-74.66 50 -75.32 50 -76 50 C-77.33203125 48.64453125 -77.33203125 48.64453125 -78.8125 46.8125 C-80.74439356 44.47339359 -82.65880981 42.34119019 -84.8125 40.1875 C-87.76870569 37.23129431 -87.95539295 36.45350505 -88.375 32.1875 C-88.30791111 28.83915436 -87.97938747 27.96808382 -86.0625 25 C-82.53998851 22.69958433 -80.4789088 22.14322729 -76.328125 22.390625 C-71.84971977 23.56282503 -69.1151799 26.73181519 -66 30 C-64.54295666 31.45962218 -63.08464774 32.91798226 -61.625 34.375 C-60.97789062 35.04273438 -60.33078125 35.71046875 -59.6640625 36.3984375 C-57.81300907 38.1799678 -56.71052714 38.94013171 -54.13998413 39.15672302 C-46.69803076 38.82107909 -43.29827754 35.34476957 -38.3515625 30.09765625 C-37.57235443 29.30475693 -36.79314636 28.5118576 -35.99032593 27.69493103 C-33.51563256 25.16904064 -31.07004755 22.61706681 -28.625 20.0625 C-26.1526421 17.51782143 -23.67469801 14.97869991 -21.19540405 12.44078064 C-19.65748489 10.86232247 -18.12475909 9.2787841 -16.59780884 7.68971252 C-15.90633759 6.97234421 -15.21486633 6.25497589 -14.50244141 5.51586914 C-13.89671295 4.88379044 -13.2909845 4.25171173 -12.66690063 3.60047913 C-8.76508954 -0.14585529 -5.23093108 -0.93585396 0 0 Z " fill="#FAFAFA" transform="translate(297,76)"/>
<path d="M0 0 C4.08998175 1.80720124 6.66247347 4.19069751 9 8 C9.68964047 12.74127824 9.09968027 15.3780134 6.37304688 19.27172852 C3.5246609 22.857028 0.25132142 26.03401903 -3 29.25 C-3.7115625 29.96929687 -4.423125 30.68859375 -5.15625 31.4296875 C-5.8471875 32.11804688 -6.538125 32.80640625 -7.25 33.515625 C-7.87390625 34.13727539 -8.4978125 34.75892578 -9.140625 35.39941406 C-11.95623984 37.82314974 -14.19086314 38.89446041 -17.875 39.375 C-21.84487514 38.89861498 -23.89536536 37.46959574 -27 35 C-29.86511741 30.70232388 -29.94407262 27.03757149 -29 22 C-27.18062203 18.80211722 -24.6581606 16.51639204 -22 14 C-20.98591467 12.97235738 -19.97576592 11.94082109 -18.96875 10.90625 C-7.64754651 -0.65927125 -7.64754651 -0.65927125 0 0 Z " fill="#FAD8D1" transform="translate(138,384)"/>
<path d="M0 0 C4.01209167 3.25982448 5.72194014 5.44286478 6.625 10.5 C6.50812846 16.99805746 1.32755883 20.71522777 -3 25 C-3.98949407 26.08519815 -4.97371839 27.1752204 -5.953125 28.26953125 C-14.48748423 37.62022049 -14.48748423 37.62022049 -19.875 38.5 C-24.1322962 38.39955563 -26.83529912 36.85594958 -30 34 C-32.53123666 29.7252192 -33.2298952 25.84366133 -32 21 C-29.4295252 17.22128359 -26.27705871 14.16798868 -23 11 C-22.19949219 10.16597656 -21.39898437 9.33195312 -20.57421875 8.47265625 C-14.19107218 1.85349417 -9.51601858 -2.8789404 0 0 Z " fill="#FAD8D1" transform="translate(217,431)"/>
<path d="M0 0 C3.9798524 2.87749002 5.77939183 5.74253345 6.625 10.5625 C5.25245585 18.11149282 -0.7442328 23.05136071 -6 28.25 C-6.7115625 28.96929687 -7.423125 29.68859375 -8.15625 30.4296875 C-8.8471875 31.11804688 -9.538125 31.80640625 -10.25 32.515625 C-10.87390625 33.13727539 -11.4978125 33.75892578 -12.140625 34.39941406 C-14.95623984 36.82314974 -17.19086314 37.89446041 -20.875 38.375 C-24.84487514 37.89861498 -26.89536536 36.46959574 -30 34 C-32.4496781 30.32548284 -32.72356957 28.09429548 -32.62890625 23.74609375 C-31.36032059 18.20686567 -26.98328013 14.80142198 -23 11 C-22.11441406 10.0821875 -21.22882813 9.164375 -20.31640625 8.21875 C-9.42564505 -3.04420661 -9.42564505 -3.04420661 0 0 Z " fill="#FAD8D1" transform="translate(179,408)"/>
<path d="M0 0 C2.70552388 2.19823815 4.44778333 3.89556667 6 7 C6.51290603 13.79600489 4.86869366 16.78910925 0.546875 21.90234375 C-0.37963796 22.91935718 -1.31214341 23.93093773 -2.25 24.9375 C-2.73726562 25.46384033 -3.22453125 25.99018066 -3.7265625 26.5324707 C-14.12874799 37.64155074 -14.12874799 37.64155074 -21.375 38.3125 C-25.63776957 37.94501986 -27.05291871 37.03128361 -30 34 C-32.21704734 31.04393688 -32.62181543 27.79220112 -32.48046875 24.1171875 C-31.4812751 19.71423664 -28.13322177 17.06414287 -25 14 C-23.82761287 12.80777089 -22.65720536 11.61359338 -21.48828125 10.41796875 C-19.0061466 7.89479648 -16.51993976 5.37617134 -14.01171875 2.87890625 C-13.48022217 2.3485376 -12.94872559 1.81816895 -12.40112305 1.27172852 C-8.74637789 -2.04549879 -4.4985239 -1.15765123 0 0 Z " fill="#FAD8D1" transform="translate(255,454)"/>
<path d="M0 0 C2.875 2.5 2.875 2.5 5 5 C5.33 5.33 5.66 5.66 6 6 C6.42578654 9.66176421 6.06894764 11.83703285 4.625 15.25 C1.37506266 18.65469626 -1.00947576 19.34388895 -5.58984375 20.01171875 C-8 20 -8 20 -11 18.4375 C-13.90879451 14.89240669 -15.06791716 12.63001175 -14.875 8 C-13.85886525 4.51610944 -12.51873129 2.59281162 -10 0 C-6.1544104 -1.2818632 -3.93271581 -0.94927623 0 0 Z " fill="#030101" transform="translate(20,307)"/>
<path d="M0 0 C2.99264813 1.29786424 3.81373741 2.32182832 6 5 C6.79882896 8.17807491 6.74864008 10.81540028 6 14 C4.0625 17.0625 4.0625 17.0625 1 19 C-2.15864655 19.69113243 -4.84270771 19.70352709 -8 19 C-11.70219508 16.45474088 -12.7681855 14.81135075 -14 10.5 C-14 6.5736584 -13.42734133 5.03417666 -11 2 C-7.28414673 -0.47723552 -4.30500267 -0.76209087 0 0 Z " fill="#060505" transform="translate(362,266)"/>
</svg>
