<svg height="495pt" viewBox="0 -71 495.996 495" width="495pt" xmlns="http://www.w3.org/2000/svg"><path d="m98.113281 188.535156c-49.769531 0-90.113281 40.390625-90.113281 90.214844v26.476562c0 7.140626 5.78125 12.925782 12.910156 12.925782h154.402344c7.132812 0 12.910156-5.785156 12.910156-12.925782v-26.476562c0-49.824219-40.34375-90.214844-90.109375-90.214844zm0 0" fill="#38b9d1"/><path d="m175.3125 326.152344h-154.402344c-11.53125 0-20.910156-9.386719-20.910156-20.925782v-26.476562c0-54.15625 44.011719-98.214844 98.113281-98.214844 54.09375 0 98.105469 44.058594 98.105469 98.214844v26.476562c.003906 11.539063-9.375 20.925782-20.90625 20.925782zm-77.199219-129.617188c-45.277343 0-82.113281 36.878906-82.113281 82.214844v26.476562c0 2.714844 2.203125 4.925782 4.910156 4.925782h154.40625c2.707032 0 4.910156-2.210938 4.910156-4.925782v-26.476562c-.003906-45.335938-36.839843-82.214844-82.113281-82.214844zm0 0"/><path d="m147.648438 112.839844c0-27.394532-22.179688-49.597656-49.535157-49.597656-27.359375 0-49.539062 22.203124-49.539062 49.597656 0 27.390625 22.179687 49.59375 49.539062 49.59375 27.355469 0 49.535157-22.203125 49.535157-49.59375zm0 0" fill="#fff"/><path d="m98.113281 170.433594c-31.730469 0-57.542969-25.835938-57.542969-57.59375 0-31.761719 25.8125-57.59375 57.542969-57.59375 31.726563 0 57.535157 25.835937 57.535157 57.59375 0 31.753906-25.808594 57.59375-57.535157 57.59375zm0-99.1875c-22.910156 0-41.542969 18.660156-41.542969 41.59375 0 22.929687 18.632813 41.59375 41.542969 41.59375 22.902344 0 41.535157-18.660156 41.535157-41.59375 0-22.9375-18.632813-41.59375-41.535157-41.59375zm0 0"/><path d="m447.425781 112.839844c0-27.394532-22.179687-49.597656-49.539062-49.597656-27.355469 0-49.535157 22.203124-49.535157 49.597656 0 27.390625 22.179688 49.59375 49.535157 49.59375 27.359375 0 49.539062-22.203125 49.539062-49.59375zm0 0" fill="#fff"/><path d="m397.886719 170.433594c-31.726563 0-57.535157-25.835938-57.535157-57.59375 0-31.761719 25.808594-57.59375 57.535157-57.59375 31.730469 0 57.542969 25.835937 57.542969 57.59375 0 31.753906-25.816407 57.59375-57.542969 57.59375zm0-99.1875c-22.902344 0-41.535157 18.660156-41.535157 41.59375 0 22.929687 18.632813 41.59375 41.535157 41.59375 22.910156 0 41.542969-18.660156 41.542969-41.59375 0-22.9375-18.636719-41.59375-41.542969-41.59375zm0 0"/><path d="m397.886719 182.40625c-49.765625 0-90.109375 40.390625-90.109375 90.214844v26.476562c0 7.140625 5.777344 12.929688 12.910156 12.929688h154.402344c7.128906 0 12.910156-5.789063 12.910156-12.929688v-26.476562c0-49.824219-40.34375-90.214844-90.113281-90.214844zm0 0" fill="#38b9d1"/><path d="m475.089844 320.03125h-154.402344c-11.53125 0-20.910156-9.390625-20.910156-20.925781v-26.480469c0-54.15625 44.011718-98.214844 98.105468-98.214844 54.101563 0 98.113282 44.058594 98.113282 98.214844v26.480469c.003906 11.535156-9.375 20.925781-20.90625 20.925781zm-77.203125-129.621094c-45.269531 0-82.105469 36.882813-82.105469 82.214844v26.480469c0 2.714843 2.203125 4.925781 4.910156 4.925781h154.40625c2.707032 0 4.910156-2.210938 4.910156-4.925781v-26.480469c-.007812-45.335938-36.84375-82.214844-82.121093-82.214844zm0 0"/><path d="m248 162.191406c-69.996094 0-126.738281 56.804688-126.738281 126.886719v37.238281c0 10.042969 8.128906 18.179688 18.160156 18.179688h217.152344c10.03125 0 18.160156-8.136719 18.160156-18.179688v-37.238281c.003906-70.082031-56.738281-126.886719-126.734375-126.886719zm0 0" fill="#f1656b"/><path d="m356.578125 352.496094h-217.15625c-14.425781 0-26.160156-11.742188-26.160156-26.179688v-37.238281c0-74.375 60.4375-134.886719 134.738281-134.886719s134.738281 60.507813 134.738281 134.886719v37.238281c0 14.4375-11.734375 26.179688-26.160156 26.179688zm-108.578125-182.304688c-65.472656 0-118.738281 53.332032-118.738281 118.886719v37.238281c0 5.613282 4.558593 10.179688 10.160156 10.179688h217.152344c5.601562 0 10.160156-4.566406 10.160156-10.179688v-37.238281c.003906-65.554687-53.261719-118.886719-118.734375-118.886719zm0 0"/><path d="m311.160156 74.519531c0-36.464843-29.523437-66.023437-65.941406-66.023437s-65.9375 29.558594-65.9375 66.023437c0 36.460938 29.519531 66.019531 65.9375 66.019531s65.941406-29.558593 65.941406-66.019531zm0 0" fill="#fff"/><path d="m245.21875 148.535156c-40.765625 0-73.9375-33.207031-73.9375-74.015625-.003906-40.816406 33.167969-74.023437 73.9375-74.023437 40.773438 0 73.941406 33.207031 73.941406 74.023437 0 40.808594-33.171875 74.015625-73.941406 74.015625zm0-132.039062c-31.945312 0-57.9375 26.03125-57.9375 58.023437 0 31.992188 25.992188 58.015625 57.9375 58.015625 31.949219 0 57.941406-26.027344 57.941406-58.015625 0-31.992187-25.992187-58.023437-57.941406-58.023437zm0 0"/></svg>