<svg viewBox="0 0 512 512" xmlns="http://www.w3.org/2000/svg"><g id="Layer_1" data-name="Layer 1"><path d="m336.931 421.808c0 21.772-71.938 39.421-160.678 39.421s-160.679-17.649-160.679-39.421 71.938-39.421 160.679-39.421 160.678 17.649 160.678 39.421z" fill="#80eaff"/><path d="m188.681 461.113q-6.153.115-12.428.116c-88.741 0-160.679-17.649-160.679-39.421s71.938-39.421 160.679-39.421q6.273 0 12.428.116c-82.932 1.557-148.25 18.559-148.25 39.305s65.318 37.748 148.25 39.305z" fill="#6cf"/><path d="m176.253 423.305s-149.435-70.679-149.435-223.499a149.435 149.435 0 0 1 298.869 0c0 152.82-149.434 223.499-149.434 223.499z" fill="#ff5959"/><path d="m176.253 423.305s-149.435-70.679-149.435-223.498a149.436 149.436 0 0 1 149.435-149.435c-160.679 38.286-145.701 256.214 0 372.933z" fill="#e63a57"/><path d="m267.135 202.216a90.882 90.882 0 1 1 -90.882-90.882 90.883 90.883 0 0 1 90.882 90.882z" fill="#f5f5f5"/><path d="m409.854 381.179v-136.67a9.681 9.681 0 0 1 9.681-9.681h42.24a9.681 9.681 0 0 1 9.68 9.681v136.67a3.256 3.256 0 0 0 3.256 3.256h18.454a3.256 3.256 0 0 1 2.613 5.2l-52.509 70.68a3.256 3.256 0 0 1 -5.228 0l-52.51-70.68a3.256 3.256 0 0 1 2.614-5.2h18.455a3.256 3.256 0 0 0 3.254-3.256zm-129.74 3.256h-18.453a3.256 3.256 0 0 0 -2.613 5.2l52.51 70.68a3.255 3.255 0 0 0 5.227 0l52.51-70.68a3.256 3.256 0 0 0 -2.614-5.2h-18.453a3.256 3.256 0 0 1 -3.256-3.256v-190.558a9.681 9.681 0 0 0 -9.681-9.681h-42.24a9.68 9.68 0 0 0 -9.68 9.681v190.558a3.257 3.257 0 0 1 -3.257 3.256z" fill="#6cf"/><path d="m440.655 461.628a3.235 3.235 0 0 1 -2.614-1.315l-52.51-70.681a3.256 3.256 0 0 1 2.614-5.2h18.455a3.256 3.256 0 0 0 3.256-3.256v-136.667a9.682 9.682 0 0 1 9.681-9.681h21.12zm-126.484-280.688h-21.12a9.68 9.68 0 0 0 -9.68 9.681v190.558a3.257 3.257 0 0 1 -3.257 3.256h-18.453a3.256 3.256 0 0 0 -2.614 5.2l52.511 70.681a3.234 3.234 0 0 0 2.613 1.315z" fill="#4da6ff"/><path d="m501.434 383.333a9.21 9.21 0 0 0 -8.27-5.1h-15.709v-133.923a15.7 15.7 0 0 0 -15.681-15.681h-42.239a15.7 15.7 0 0 0 -15.681 15.681v133.925h-15.709a9.256 9.256 0 0 0 -7.43 14.776l52.51 70.681a9.255 9.255 0 0 0 14.86 0l52.51-70.681a9.21 9.21 0 0 0 .839-9.678zm-60.78 70.238-47.054-63.336h13a9.266 9.266 0 0 0 9.256-9.256v-136.669a3.686 3.686 0 0 1 3.681-3.681h42.239a3.685 3.685 0 0 1 3.681 3.681v136.669a9.266 9.266 0 0 0 9.256 9.256h13zm-73.973-75.336h-15.709v-187.814a15.7 15.7 0 0 0 -15.681-15.68h-5.658c-12.193-74.573-77.208-130.17-153.381-130.17-85.707 0-155.435 69.728-155.435 155.435a226.88 226.88 0 0 0 23.983 102.068c12.691 25.471 30.365 49.447 52.53 71.264q3.853 3.792 7.685 7.307c-33.532 4.114-95.442 15.255-95.442 41.362 0 13.958 17.371 25.3 51.632 33.7 30.8 7.558 71.66 11.72 115.047 11.72 47.413 0 91.882-5.018 123-13.818l7.489 10.081a9.256 9.256 0 0 0 14.861 0l52.509-70.681a9.256 9.256 0 0 0 -7.43-14.776zm-333.864-178.229c0-79.09 64.345-143.435 143.435-143.435 69.633 0 129.168 50.337 141.217 118.17h-24.418a15.7 15.7 0 0 0 -15.681 15.68v138.732c-37.639 52.528-89.13 81.382-101.12 87.631-8.984-4.673-40.086-21.975-70.786-52.273-48.204-47.574-72.647-102.922-72.647-164.505zm228.844 178.229a9.184 9.184 0 0 0 -7.06 3.295q-3.466-.469-7.017-.9a298.859 298.859 0 0 0 29.786-31.683v29.286zm-85.409 77.194c-42.451 0-82.293-4.039-112.188-11.374-33.542-8.229-42.491-17.731-42.491-22.048 0-8.913 29.732-24.183 95.689-30.642 29.852 24.837 55.141 36.956 56.425 37.563a6 6 0 0 0 5.13 0c1.654-.782 26.908-12.922 56.512-37.561 6.657.654 13.14 1.42 19.383 2.291l36.855 49.608c-29.81 7.764-71.167 12.163-115.315 12.163zm137.919-1.858-47.053-63.336h13a9.266 9.266 0 0 0 9.256-9.256v-190.558a3.685 3.685 0 0 1 3.681-3.68h42.24a3.685 3.685 0 0 1 3.681 3.68v190.558a9.266 9.266 0 0 0 9.256 9.256h13zm-137.919-154.271a96.882 96.882 0 1 0 -96.882-96.884 96.993 96.993 0 0 0 96.882 96.884zm0-181.764a84.882 84.882 0 1 1 -84.882 84.88 84.978 84.978 0 0 1 84.882-84.882z"/></g></svg>