<svg id="_x33_0" enable-background="new 0 0 64 64" height="512" viewBox="0 0 64 64" width="512" xmlns="http://www.w3.org/2000/svg"><g><g><g><path d="m18.42 45.17-4.64 1.46-1.45-3.76v-.01c.09-.63.19-1.25.58-3.23 1.91-.56 3.6-1.74 4.78-3.4l6.71-9.39c.38-.53.98-.84 1.63-.84h2.97 16.97c.65 0 1.25.31 1.63.84l.36.51 9.04 12.65h3c1.1 0 2 .9 2 2v4h-3c-.55 0-1 .45-1 1v3h-6-2c1.19-1.79 1.87-3.86 1.98-6 .01-.2.02-.41.02-.61v-3.39l-7-10h-9-9l-5.6 8h-.4c-.55 0-1 .45-1 1v3 1.39c0 2.36.7 4.65 2 6.61h-2c-.89 0-1.73.19-2.49.54l-1.51-1.06z" fill="#ffeaa7"/></g><g><path d="m62 46v4h-4v-3c0-.55.45-1 1-1z" fill="#ff826e"/></g><g><path d="m62 52c0 1.1-.9 2-2 2h-2.34c-.82-2.33-3.05-4-5.66-4h6 4z" fill="#ccd1d9"/></g><g><path d="m50 50h-28-2c2.61 0 4.84 1.67 5.66 4h20.68c.82-2.33 3.05-4 5.66-4z" fill="#ccd1d9"/></g><g><path d="m51.98 44c-.11 2.14-.79 4.21-1.98 6h-14v-6-4h16v3.39c0 .2-.01.41-.02.61z" fill="#fcd770"/></g><g><path d="m36 44v6h-14c-1.3-1.96-2-4.25-2-6.61v-1.39h5c.55 0 1-.45 1-1v-1h10z" fill="#fcd770"/></g><g><path d="m45 30 7 10h-16v-10z" fill="#69d6f4"/></g><g><path d="m36 30v10h-10v-1c0-.55-.45-1-1-1h-3.6l5.6-8z" fill="#69d6f4"/></g><g><path d="m26 40v1c0 .55-.45 1-1 1h-5v-3c0-.55.45-1 1-1h.4 3.6c.55 0 1 .45 1 1z" fill="#aab2bd"/></g><g><path d="m47.6 26.84c-.38-.53-.98-.84-1.63-.84h-16.97c-2.37 0-4.43-1.97-4.95-4.18.82-.64 1.68-1.25 2.58-1.82h.01c1.21-.77 2.49-1.46 3.82-2.06l6.54-2.94-3-2v-6c-1.31 2.63-3.24 4.9-5.63 6.62l-6.13 4.42v.01l-3.47 2.5c-.1.07-.2.14-.3.21-2.01-.65-3.47-2.53-3.47-4.76 0-1.66.82-3.13 2.07-4.04-.04-.31-.07-.63-.07-.96 0-3.87 3.13-7 7-7 .93 0 1.82.19 2.63.51 1.28-1.53 3.21-2.51 5.37-2.51 2.23 0 4.22 1.05 5.5 2.68 1.28-1.63 3.27-2.68 5.5-2.68 3.87 0 7 3.13 7 7 0 2.19-1.01 4.15-2.59 5.43 2.68.99 4.59 3.55 4.59 6.57 0 2.8-1.65 5.22-4.03 6.34l-.01.01z" fill="#b4dd7f"/></g><g><path d="m12.97 61.88.03.12h-5.32c-.93 0-1.68-.75-1.68-1.68 0-.78-.53-1.45-1.28-1.64l-1.45-.36c-.75-.19-1.27-.86-1.27-1.63 0-.44.18-.87.49-1.18l.63-.63c.56-.56.88-1.33.88-2.12v-.47l4.79.75-.35 4.96 3.56-3.37h.01v.01c.04 2.45.37 4.87.96 7.24z" fill="#cf9e76"/></g><g><path d="m18.47 20.76c.1-.07.2-.14.3-.21l3.47-2.5v-.01l6.13-4.42c2.39-1.72 4.32-3.99 5.63-6.62v6l3 2-6.54 2.94c-1.33.6-2.61 1.29-3.82 2.06-.01 0-.01 0-.01 0-.9.57-1.76 1.18-2.58 1.82-5.25 4.12-9.08 9.87-10.81 16.45-.12.45-.23.9-.33 1.36-.39 1.98-.49 2.6-.58 3.23l-.33-.86-1.78 4.63-4.64-1.46 2.42 4.31-4 2.81v-15.05c0-.69.55-1.24 1.24-1.24.46 0 .89.26 1.1.68l.26.53c.25.48.74.79 1.28.79.66 0 1.23-.45 1.39-1.08l.73-2.92c-.55 0-1.05-.22-1.41-.59-.37-.36-.59-.86-.59-1.41l1.51-1.51c.31-.31.49-.74.49-1.18 0-.77-.52-1.44-1.27-1.63l-1.82-.45c-.53-.14-.91-.62-.91-1.17 0-.61.45-1.12 1.05-1.19l1.11-.14c3.71-.47 7.25-1.83 10.31-3.97z" fill="#cf9e76"/></g><g><path d="m46.34 54c.82-2.33 3.05-4 5.66-4s4.84 1.67 5.66 4c.22.63.34 1.3.34 2 0 3.31-2.69 6-6 6s-6-2.69-6-6c0-.7.12-1.37.34-2z" fill="#969faa"/></g><g><path d="m15.56 58-.35-4.96 4.79-.75-2.49-1.75c.76-.35 1.6-.54 2.49-.54 2.61 0 4.84 1.67 5.66 4 .22.63.34 1.3.34 2 0 3.31-2.69 6-6 6-3.13 0-5.7-2.4-5.98-5.46z" fill="#969faa"/></g><g><circle cx="52" cy="56" fill="#ccd1d9" r="2"/></g><g><circle cx="20" cy="56" fill="#ccd1d9" r="2"/></g><g><path d="m20 52.29-4.79.75.35 4.96-1.54-1.46-2.01-1.9v-.01h-.01l-3.56 3.37.35-4.96-4.79-.75 4-2.81-2.42-4.31 4.64 1.46 1.78-4.63.33.86v.01l1.45 3.76 4.64-1.46-2.42 4.31 1.51 1.06z" fill="#ff826e"/></g></g><g><path d="m52 53c-1.654 0-3 1.346-3 3s1.346 3 3 3 3-1.346 3-3-1.346-3-3-3zm0 4c-.551 0-1-.449-1-1s.449-1 1-1 1 .449 1 1-.449 1-1 1z"/><path d="m60 39h-2.485l-8.095-11.333c2.205-1.469 3.58-3.974 3.58-6.667 0-2.825-1.512-5.42-3.88-6.849 1.208-1.43 1.88-3.242 1.88-5.151 0-4.411-3.589-8-8-8-2.072 0-4.022.789-5.5 2.196-1.478-1.407-3.428-2.196-5.5-2.196-2.139 0-4.166.849-5.663 2.351-.758-.233-1.542-.351-2.337-.351-4.411 0-8 3.589-8 8 0 .171.007.344.021.527-1.275 1.135-2.021 2.766-2.021 4.473 0 1.966.942 3.748 2.465 4.854-2.58 1.517-5.455 2.512-8.431 2.884l-1.105.138c-1.099.137-1.929 1.077-1.929 2.186 0 1.012.686 1.891 1.668 2.136l1.822.456c.301.074.51.343.51.653 0 .18-.07.349-.197.477l-1.51 1.51 1.414 1.414 1.51-1.51c.505-.506.783-1.177.783-1.891 0-1.229-.833-2.296-2.025-2.594l-1.822-.456c-.09-.022-.153-.103-.153-.195 0-.102.076-.188.177-.201l1.105-.138c3.987-.498 7.817-2.005 11.075-4.358l9.602-6.935c2.501-1.806 4.554-4.22 5.935-6.981l-1.789-.895c-1.237 2.474-3.075 4.637-5.316 6.255l-3.371 2.435c.38-1.382.582-2.81.582-4.244v-2h-2v2c0 2.217-.544 4.42-1.557 6.391l-3.102 2.24c-1.414-.644-2.341-2.044-2.341-3.631 0-1.286.605-2.462 1.661-3.229l.485-.352-.082-.594c-.037-.27-.064-.544-.064-.825 0-3.309 2.691-6 6-6 .772 0 1.53.148 2.252.441l.675.274.467-.559c1.147-1.37 2.825-2.156 4.606-2.156 1.847 0 3.565.837 4.714 2.297l.786.999.786-.999c1.149-1.46 2.867-2.297 4.714-2.297 3.309 0 6 2.691 6 6 0 1.813-.81 3.511-2.222 4.658l-1.365 1.109 1.651.606c2.354.865 3.936 3.126 3.936 5.627 0 2.054-1.069 3.96-2.774 5.053-.566-.654-1.382-1.053-2.255-1.053h-16.971c-1.757 0-3.202-1.349-3.786-2.816.556-.415 1.133-.806 1.72-1.184h6.68c3.446 0 6.815.649 10.014 1.929l.743-1.857c-3.436-1.375-7.055-2.072-10.756-2.072h-3.045c.1-.046.196-.098.297-.144l6.543-2.944-.82-1.824-6.543 2.944c-8.829 3.973-15.305 11.622-17.769 20.984-.266 1.01-.476 2.038-.66 3.07-.246.103-.451.295-.551.554l-1.443 3.75-3.739-1.175c-.307-.096-.633-.034-.885.149v-7.128c0-.219.35-.301.447-.105l.263.526c.415.828 1.248 1.343 2.174 1.343 1.117 0 2.086-.757 2.357-1.84l.729-2.917-1.94-.485-.729 2.917c-.087.351-.64.411-.801.088l-.264-.527c-.382-.762-1.148-1.236-2-1.236-1.233 0-2.236 1.003-2.236 2.236v15.521c0 .534-.208 1.037-.586 1.415l-.631.631c-.505.505-.783 1.176-.783 1.89 0 1.229.833 2.296 2.025 2.594l1.457.364c.305.077.518.349.518.664 0 1.481 1.204 2.685 2.685 2.685h12.315c3.86 0 7-3.14 7-7 0-.34-.033-.672-.08-1h18.16c-.047.328-.08.66-.08 1 0 3.86 3.14 7 7 7s7-3.14 7-7c0-.34-.033-.672-.08-1h1.08c1.654 0 3-1.346 3-3v-10c0-1.654-1.346-3-3-3zm-14.029-12c.322 0 .626.157.813.418l9.701 13.582h3.515c.551 0 1 .449 1 1v3h-2c-1.103 0-2 .897-2 2v2h-5.284c.842-1.742 1.284-3.649 1.284-5.605v-3.71l-7.479-10.685h-19.042l-5.609 8.013c-1.041.068-1.87.928-1.87 1.987v4.395c0 .337.015.673.041 1.007-.257-.209-.601-.288-.925-.186l-3.739 1.175-1.011-2.625c.112-.793.253-1.585.417-2.373 1.889-.688 3.551-1.939 4.723-3.58l6.71-9.393c.187-.263.491-.42.813-.42zm15.029 20v2h-2v-2zm-43.686 2.181 1.913-3.415c.209 1.12.56 2.206 1.056 3.234h-.283c-.813 0-1.602.143-2.356.413zm27.165-18.181 5.6 8h-13.079v-8zm-9.479 8h-8c0-1.103-.897-2-2-2h-1.68l4.2-6h7.48zm-10 0v2h-4v-2zm-2.442 10c-1.017-1.695-1.558-3.62-1.558-5.605v-.395h4c1.103 0 2-.897 2-2h8v2h-2v2h2v4zm14.442-8h14v2h-2v2h1.882c-.209 1.413-.7 2.767-1.44 4h-12.442zm-13.385-17.532c.335.666.776 1.261 1.299 1.769-.522.211-.99.549-1.325 1.019l-6.71 9.394c-.654.916-1.512 1.658-2.476 2.225 1.629-5.678 4.84-10.651 9.212-14.407zm-13.695 24.111c.506.159 1.043-.103 1.233-.595l.847-2.2.847 2.201c.189.492.729.754 1.233.595l2.232-.701-1.185 2.114c-.25.448-.122 1.012.298 1.307l1.974 1.386-2.346.368c-.513.08-.879.541-.843 1.059l.17 2.392-1.692-1.604c-.193-.183-.44-.274-.688-.274s-.495.091-.688.274l-1.692 1.602.17-2.392c.037-.518-.33-.979-.843-1.059l-2.346-.368 1.974-1.386c.42-.295.548-.859.298-1.307l-1.185-2.114zm3.88 13.421c-.24-1.052-.429-2.115-.56-3.187.326 1.238.976 2.328 1.851 3.187zm-7.114-11.819-1.686 1.184v-4.193zm.314 11.134c0-1.234-.836-2.305-2.033-2.604l-1.457-.364c-.301-.075-.51-.344-.51-.654 0-.18.07-.349.197-.477l.631-.631c.59-.59.965-1.333 1.104-2.138l2.797.438-.288 4.043c-.029.411.197.798.57.975.372.177.816.106 1.115-.179l2-1.895c.119 1.402.332 2.794.626 4.17h-4.067c-.378.001-.685-.306-.685-.684zm13 .685c-1.678 0-3.154-.816-4.061-2.085.016-.007.033-.004.049-.011.373-.177.6-.564.57-.975l-.288-4.043 1.977-.31c-.752.546-1.247 1.426-1.247 2.424 0 1.654 1.346 3 3 3s3-1.346 3-3c0-1.442-1.024-2.649-2.382-2.935.173-.138.304-.325.356-.549.092-.397-.066-.811-.399-1.045l-.658-.462c.028-.001.055-.009.083-.009 2.757 0 5 2.243 5 5s-2.243 5-5 5zm0-6c.551 0 1 .449 1 1s-.449 1-1 1-1-.449-1-1 .449-1 1-1zm4.89-4h10.11v2h-8.685c-.357-.749-.839-1.426-1.425-2zm12.11 2v-2h10.11c-.587.574-1.068 1.251-1.425 2zm15 8c-2.757 0-5-2.243-5-5s2.243-5 5-5 5 2.243 5 5-2.243 5-5 5zm8-8h-1.685c-.357-.749-.839-1.426-1.425-2h4.11v1c0 .551-.449 1-1 1z"/></g></g></svg>