<svg width="400" height="100" viewBox="0 0 400 100" fill="none" xmlns="http://www.w3.org/2000/svg">
<path d="M102.943 68V33H124.993V38.2H108.343V62.8H124.993V68H102.943ZM105.393 52.65V47.45H122.243V52.65H105.393ZM149.806 68L141.306 56.95L140.556 56L129.506 41.75H136.006L144.356 52.65L145.206 53.75L156.106 68H149.806ZM129.556 68L139.906 54.5L142.956 58.15L135.656 68H129.556ZM145.506 55.3L142.656 51.7L149.106 41.75H155.206L145.506 55.3ZM170.068 68.5C167.635 68.5 165.452 67.9 163.518 66.7C161.618 65.5 160.102 63.8667 158.968 61.8C157.868 59.7333 157.318 57.4167 157.318 54.85C157.318 52.2833 157.868 49.9667 158.968 47.9C160.102 45.8333 161.618 44.2 163.518 43C165.452 41.8 167.635 41.2 170.068 41.2C172.402 41.2 174.518 41.6833 176.418 42.65C178.352 43.5833 179.818 44.8667 180.818 46.5L177.968 50C177.435 49.2333 176.752 48.5333 175.918 47.9C175.085 47.2667 174.202 46.7667 173.268 46.4C172.335 46.0333 171.435 45.85 170.568 45.85C168.968 45.85 167.535 46.25 166.268 47.05C165.035 47.8167 164.052 48.8833 163.318 50.25C162.585 51.6167 162.218 53.15 162.218 54.85C162.218 56.55 162.602 58.0833 163.368 59.45C164.135 60.7833 165.152 61.85 166.418 62.65C167.685 63.45 169.085 63.85 170.618 63.85C171.518 63.85 172.385 63.7 173.218 63.4C174.085 63.1 174.918 62.65 175.718 62.05C176.518 61.45 177.268 60.7167 177.968 59.85L180.818 63.35C179.752 64.85 178.218 66.0833 176.218 67.05C174.252 68.0167 172.202 68.5 170.068 68.5ZM185.676 68V31H190.826V47.15L189.926 47.75C190.26 46.5833 190.91 45.5167 191.876 44.55C192.843 43.55 193.993 42.75 195.326 42.15C196.66 41.5167 198.026 41.2 199.426 41.2C201.426 41.2 203.093 41.6 204.426 42.4C205.76 43.1667 206.76 44.35 207.426 45.95C208.093 47.55 208.426 49.5667 208.426 52V68H203.276V52.35C203.276 50.85 203.076 49.6167 202.676 48.65C202.276 47.65 201.66 46.9333 200.826 46.5C199.993 46.0333 198.96 45.8333 197.726 45.9C196.726 45.9 195.81 46.0667 194.976 46.4C194.143 46.7 193.41 47.1333 192.776 47.7C192.176 48.2667 191.693 48.9333 191.326 49.7C190.993 50.4333 190.826 51.2333 190.826 52.1V68H188.276C187.843 68 187.41 68 186.976 68C186.543 68 186.11 68 185.676 68ZM225.513 68.5C223.346 68.5 221.363 67.9 219.563 66.7C217.796 65.5 216.379 63.8667 215.313 61.8C214.246 59.7333 213.713 57.4 213.713 54.8C213.713 52.1667 214.246 49.8333 215.313 47.8C216.413 45.7333 217.879 44.1167 219.713 42.95C221.579 41.7833 223.663 41.2 225.963 41.2C227.329 41.2 228.579 41.4 229.713 41.8C230.846 42.2 231.829 42.7667 232.663 43.5C233.529 44.2 234.229 45.0167 234.763 45.95C235.329 46.8833 235.679 47.8833 235.813 48.95L234.663 48.55V41.75H239.863V68H234.663V61.75L235.863 61.4C235.663 62.3 235.246 63.1833 234.613 64.05C234.013 64.8833 233.229 65.6333 232.263 66.3C231.329 66.9667 230.279 67.5 229.113 67.9C227.979 68.3 226.779 68.5 225.513 68.5ZM226.863 63.75C228.429 63.75 229.813 63.3667 231.013 62.6C232.213 61.8333 233.146 60.7833 233.813 59.45C234.513 58.0833 234.863 56.5333 234.863 54.8C234.863 53.1 234.513 51.5833 233.813 50.25C233.146 48.9167 232.213 47.8667 231.013 47.1C229.813 46.3333 228.429 45.95 226.863 45.95C225.329 45.95 223.963 46.3333 222.763 47.1C221.596 47.8667 220.663 48.9167 219.963 50.25C219.296 51.5833 218.963 53.1 218.963 54.8C218.963 56.5333 219.296 58.0833 219.963 59.45C220.663 60.7833 221.596 61.8333 222.763 62.6C223.963 63.3667 225.329 63.75 226.863 63.75ZM247.053 68V41.75H252.203V47.15L251.303 47.75C251.636 46.5833 252.286 45.5167 253.253 44.55C254.22 43.55 255.37 42.75 256.703 42.15C258.036 41.5167 259.403 41.2 260.803 41.2C262.803 41.2 264.47 41.6 265.803 42.4C267.136 43.1667 268.136 44.35 268.803 45.95C269.47 47.55 269.803 49.5667 269.803 52V68H264.653V52.35C264.653 50.85 264.453 49.6167 264.053 48.65C263.653 47.65 263.036 46.9333 262.203 46.5C261.37 46.0333 260.336 45.8333 259.103 45.9C258.103 45.9 257.186 46.0667 256.353 46.4C255.52 46.7 254.786 47.1333 254.153 47.7C253.553 48.2667 253.07 48.9333 252.703 49.7C252.37 50.4333 252.203 51.2333 252.203 52.1V68H249.653C249.22 68 248.786 68 248.353 68C247.92 68 247.486 68 247.053 68ZM288.539 79.5C286.673 79.5 284.806 79.2 282.939 78.6C281.106 78.0333 279.623 77.2833 278.489 76.35L280.389 72.35C281.056 72.85 281.839 73.2833 282.739 73.65C283.639 74.05 284.589 74.35 285.589 74.55C286.589 74.7833 287.573 74.9 288.539 74.9C290.373 74.9 291.906 74.6 293.139 74C294.373 73.4 295.306 72.5167 295.939 71.35C296.573 70.1833 296.889 68.7333 296.889 67V61.95L297.439 62.3C297.273 63.3333 296.723 64.3333 295.789 65.3C294.889 66.2333 293.756 67 292.389 67.6C291.023 68.2 289.623 68.5 288.189 68.5C285.689 68.5 283.456 67.9167 281.489 66.75C279.556 65.55 278.023 63.9333 276.889 61.9C275.756 59.8333 275.189 57.4833 275.189 54.85C275.189 52.2167 275.739 49.8833 276.839 47.85C277.973 45.7833 279.506 44.1667 281.439 43C283.406 41.8 285.606 41.2 288.039 41.2C289.039 41.2 290.006 41.3333 290.939 41.6C291.873 41.8333 292.739 42.1833 293.539 42.65C294.339 43.0833 295.056 43.5667 295.689 44.1C296.323 44.6333 296.839 45.2 297.239 45.8C297.639 46.4 297.889 46.9667 297.989 47.5L296.889 47.9V41.75H302.039V66.4C302.039 68.5 301.723 70.35 301.089 71.95C300.489 73.5833 299.606 74.95 298.439 76.05C297.273 77.1833 295.856 78.0333 294.189 78.6C292.523 79.2 290.639 79.5 288.539 79.5ZM288.739 63.75C290.373 63.75 291.823 63.3667 293.089 62.6C294.356 61.8333 295.339 60.7833 296.039 59.45C296.739 58.1167 297.089 56.5833 297.089 54.85C297.089 53.1167 296.723 51.5833 295.989 50.25C295.289 48.8833 294.306 47.8167 293.039 47.05C291.806 46.2833 290.373 45.9 288.739 45.9C287.139 45.9 285.706 46.3 284.439 47.1C283.206 47.8667 282.223 48.9333 281.489 50.3C280.789 51.6333 280.439 53.15 280.439 54.85C280.439 56.55 280.789 58.0833 281.489 59.45C282.223 60.7833 283.206 61.8333 284.439 62.6C285.706 63.3667 287.139 63.75 288.739 63.75ZM321.51 68.5C318.81 68.5 316.41 67.9333 314.31 66.8C312.243 65.6333 310.61 64.05 309.41 62.05C308.243 60.05 307.66 57.75 307.66 55.15C307.66 53.0833 307.993 51.2 308.66 49.5C309.327 47.8 310.243 46.3333 311.41 45.1C312.61 43.8333 314.027 42.8667 315.66 42.2C317.327 41.5 319.127 41.15 321.06 41.15C322.76 41.15 324.343 41.4833 325.81 42.15C327.277 42.7833 328.543 43.6667 329.61 44.8C330.71 45.9333 331.543 47.2833 332.11 48.85C332.71 50.3833 332.993 52.0667 332.96 53.9L332.91 56.1H311.46L310.31 52H328.46L327.71 52.85V51.65C327.61 50.55 327.243 49.5667 326.61 48.7C325.977 47.8333 325.177 47.15 324.21 46.65C323.243 46.15 322.193 45.9 321.06 45.9C319.26 45.9 317.743 46.25 316.51 46.95C315.277 47.6167 314.343 48.6167 313.71 49.95C313.077 51.25 312.76 52.8667 312.76 54.8C312.76 56.6333 313.143 58.2333 313.91 59.6C314.677 60.9333 315.76 61.9667 317.16 62.7C318.56 63.4333 320.177 63.8 322.01 63.8C323.31 63.8 324.51 63.5833 325.61 63.15C326.743 62.7167 327.96 61.9333 329.26 60.8L331.86 64.45C331.06 65.25 330.077 65.95 328.91 66.55C327.777 67.15 326.56 67.6333 325.26 68C323.993 68.3333 322.743 68.5 321.51 68.5Z" fill="#3D9AE2"/>
<path fill-rule="evenodd" clip-rule="evenodd" d="M23.1523 62.3986H27.3797V73.1247C27.3797 73.2831 27.5093 73.4128 27.6678 73.4128C27.8276 73.4128 27.9558 73.2846 27.9558 73.1247V62.3986H32.1832V83.8493H23.1523V62.3986ZM55.9053 51.988C49.4857 51.988 44.2646 46.7668 44.2646 40.3473C44.2646 33.9278 49.4857 28.7052 55.9053 28.7052C62.3262 28.7052 67.5474 33.9263 67.5474 40.3473C67.5474 46.7683 62.3248 51.988 55.9053 51.988ZM51.6534 21.3768L52.931 21.1795C56.202 20.6725 59.5579 21.0182 62.6618 22.1676C66.7264 23.6741 70.1356 26.4784 72.4113 30.1671C74.6813 33.8471 75.6636 38.171 75.1868 42.4689C74.7087 46.7711 72.8117 50.8055 69.7828 53.9007C69.2369 54.4581 69.2441 55.3684 69.8015 55.9157C70.3603 56.4645 71.2706 56.4559 71.8179 55.897C75.2934 52.3466 77.4683 47.7174 78.0156 42.7829C78.5615 37.857 77.4438 32.8879 74.8412 28.6692C72.2299 24.4389 68.3151 21.2241 63.6527 19.4972C59.8935 18.1044 55.7785 17.7429 51.8363 18.4775L50.8425 18.6618L50.301 16.8513L50.2966 16.8542L50.1569 16.3933L48.3176 18.3435L48.3191 18.3449L44.8983 21.9674L48.5999 22.8431L48.6259 22.8517L52.3592 23.7361L51.6534 21.3768ZM59.9007 59.3754L58.603 59.5569C55.4213 60.0005 52.1647 59.6447 49.1516 58.5285C45.0856 57.0219 41.6792 54.2176 39.4035 50.5289C37.135 46.8518 36.1527 42.5222 36.628 38.2271C37.1047 33.9263 39.0031 29.8906 42.0306 26.7968C42.5765 26.2393 42.5679 25.3291 42.0105 24.7817C41.4531 24.2344 40.5428 24.2402 39.9955 24.799C36.52 28.3494 34.3436 32.9786 33.7963 37.9146C33.2504 42.8405 34.371 47.8096 36.9722 52.0283C39.5821 56.26 43.4998 59.4719 48.1621 61.1988C51.8493 62.5657 55.8548 62.9416 59.7293 62.2647L60.7145 62.0933L61.2633 63.9239L61.2676 63.921L61.4058 64.3805L63.2264 62.449L63.225 62.4476L66.6616 58.8036L62.96 57.9279L62.934 57.9192L59.1993 57.0349L59.9007 59.3754ZM54.6176 81.9179C54.6075 81.9179 54.596 81.9193 54.5859 81.9193L40.4967 82.1858C39.994 82.1958 39.5302 82.1541 39.0376 82.0561L32.7607 80.8131V65.4348L38.9599 64.2077C39.4885 64.1025 39.9595 64.1184 40.4794 64.2581L58.9458 69.2056C59.9238 69.4677 60.703 70.1936 61.0386 71.1486L61.0472 71.1745L61.0544 71.2004C61.0573 71.2119 61.063 71.2235 61.0674 71.235L61.076 71.258L61.0832 71.2811C61.2445 71.8226 61.2532 72.3988 61.1063 72.9461C60.896 73.734 60.3875 74.3907 59.6818 74.7983C58.9775 75.2045 58.1507 75.3169 57.3643 75.1066L44.9098 71.7694C44.7572 71.729 44.5973 71.8198 44.557 71.9724C44.5166 72.1251 44.6074 72.285 44.76 72.3253L57.2159 75.6625C58.1507 75.9132 59.1316 75.7806 59.9698 75.2967C60.8095 74.8113 61.413 74.0335 61.6637 73.0959C61.7904 72.6206 61.8207 72.1237 61.7501 71.6354L61.6939 71.2494L74.1671 64.0478C74.87 63.6416 75.6982 63.5365 76.4817 63.7468C77.2681 63.957 77.9321 64.4612 78.3397 65.1655C78.7473 65.8698 78.851 66.6994 78.6393 67.4858C78.4261 68.2708 77.9278 68.9319 77.222 69.3395L56.1429 81.5102C55.682 81.7781 55.152 81.9222 54.6176 81.9179ZM59.1748 43.2366C59.1748 41.2345 57.8799 40.0592 55.9053 40.0592C54.233 40.0592 53.2119 39.1317 53.2119 37.4566C53.2119 35.986 54.4577 34.8539 55.9053 34.8539C57.3542 34.8539 58.5987 35.986 58.5987 37.4566C58.5987 37.615 58.7283 37.7446 58.8867 37.7446C59.0466 37.7446 59.1748 37.6164 59.1748 37.4566C59.1748 35.9543 58.0945 34.6883 56.6427 34.3599L56.1933 34.2591V32.5422C56.1933 32.3823 56.0637 32.2541 55.9053 32.2541C55.7468 32.2541 55.6172 32.3838 55.6172 32.5422V34.2591L55.1678 34.3599C53.7174 34.6868 52.6357 35.9543 52.6357 37.4566C52.6357 39.4586 53.9291 40.6354 55.9053 40.6354C57.576 40.6354 58.5987 41.5615 58.5987 43.2366C58.5987 44.7071 57.3542 45.8392 55.9053 45.8392C54.4563 45.8392 53.2119 44.7057 53.2119 43.2366C53.2119 43.0767 53.0837 42.9485 52.9238 42.9485C52.7654 42.9485 52.6357 43.0767 52.6357 43.2366C52.6357 44.7388 53.716 46.0063 55.1678 46.3333L55.6172 46.4341V48.151C55.6172 48.3108 55.7454 48.439 55.9053 48.439C56.0651 48.439 56.1933 48.3108 56.1933 48.151V46.4341L56.6427 46.3333C58.096 46.0078 59.1748 44.7388 59.1748 43.2366Z" fill="#D1E7FF"/>
<path fill-rule="evenodd" clip-rule="evenodd" d="M53.7879 37.4564C53.7879 38.3811 54.1552 39.483 55.9052 39.483C58.2414 39.483 59.7508 40.9564 59.7508 43.2364C59.7508 45.0167 58.4761 46.5117 56.7694 46.8949V48.1508C56.7694 48.629 56.3834 49.015 55.9052 49.015C55.4284 49.015 55.041 48.629 55.041 48.1508V46.8949C53.3356 46.5117 52.0595 45.0167 52.0595 43.2364C52.0595 42.7597 52.447 42.3722 52.9237 42.3722C53.4019 42.3722 53.7879 42.7597 53.7879 43.2364C53.7879 44.3541 54.7385 45.263 55.9052 45.263C57.0733 45.263 58.0224 44.3541 58.0224 43.2364C58.0224 42.3132 57.6552 41.2114 55.9052 41.2114C53.569 41.2114 52.0595 39.7365 52.0595 37.4564C52.0595 35.6762 53.3356 34.1826 55.041 33.798V32.5421C55.041 32.0653 55.4284 31.6779 55.9052 31.6779C56.3834 31.6779 56.7694 32.0653 56.7694 32.5421V33.798C58.4761 34.1826 59.7508 35.6762 59.7508 37.4564C59.7508 37.9332 59.3648 38.3206 58.8866 38.3206C58.4099 38.3206 58.0224 37.9332 58.0224 37.4564C58.0224 36.3387 57.0733 35.4299 55.9052 35.4299C54.7385 35.4299 53.7879 36.3387 53.7879 37.4564ZM55.9052 51.4117C62.0078 51.4117 66.9712 46.4484 66.9712 40.3472C66.9712 34.2445 62.0078 29.2812 55.9052 29.2812C49.804 29.2812 44.8406 34.2445 44.8406 40.3472C44.8406 46.4484 49.804 51.4117 55.9052 51.4117ZM55.9052 27.5528C48.8519 27.5528 43.1122 33.2925 43.1122 40.3472C43.1122 47.4004 48.8519 53.1401 55.9052 53.1401C62.9599 53.1401 68.6995 47.4004 68.6995 40.3472C68.6995 33.2925 62.9599 27.5528 55.9052 27.5528ZM49.1184 18.3318L46.0015 21.6359L48.7583 22.2884L48.7842 22.297L51.5208 22.9452L50.9116 20.9086L52.8416 20.609C56.2091 20.0876 59.6644 20.4419 62.8605 21.6259C67.0475 23.1771 70.5561 26.0649 72.8995 29.8631C75.2429 33.6626 76.2512 38.0945 75.7571 42.5307C75.266 46.9611 73.3129 51.1164 70.1932 54.3024C69.8705 54.6337 69.8734 55.1781 70.2032 55.5037C70.5345 55.8277 71.079 55.8249 71.4045 55.4921C74.7892 52.0354 76.9108 47.5257 77.4409 42.7179C77.9767 37.9029 76.8935 33.0923 74.3485 28.9701C71.8049 24.8479 67.9923 21.7209 63.4496 20.0357C59.7753 18.6746 55.7914 18.3261 51.9385 19.0419L50.4363 19.3213L49.9581 17.724L49.9552 17.7255L49.8904 17.5109L49.1184 18.3318ZM44.1709 22.951L48.3161 23.9333C48.332 23.9376 48.3478 23.9419 48.3651 23.9462L52.506 24.9271C52.663 24.976 52.8344 24.9804 53.0044 24.93C53.4537 24.796 53.7101 24.3207 53.5747 23.8713L53.1023 22.2913C56.1716 21.816 59.3317 22.1329 62.2685 23.2217C66.0998 24.6419 69.3059 27.2806 71.4506 30.7575C73.5952 34.233 74.5156 38.2832 74.0647 42.3434C73.6154 46.3936 71.8322 50.1961 68.9775 53.1113C67.9981 54.1123 68.0125 55.7341 69.0107 56.7164C70.0131 57.7016 71.6378 57.6872 72.6215 56.6833C76.2742 52.9514 78.56 48.0889 79.1318 42.9052C79.7094 37.7128 78.5369 32.5233 75.796 28.0771C73.0536 23.6293 68.9401 20.2561 64.0415 18.4399C60.0634 16.9664 55.7683 16.5991 51.6274 17.3683L51.1003 15.6053H51.0988C51.057 15.467 50.9793 15.3374 50.8669 15.2308C50.5256 14.9096 49.9883 14.9255 49.6671 15.2668L46.7058 18.4053L46.7073 18.4067L43.7546 21.5366C43.6524 21.6431 43.576 21.7771 43.5386 21.9326C43.432 22.3878 43.7143 22.8444 44.1709 22.951ZM34.3695 37.9764C33.8366 42.7899 34.9211 47.6006 37.4633 51.7243C40.0069 55.8465 43.8194 58.9734 48.3622 60.6571C51.9587 61.9894 55.8519 62.3524 59.6298 61.6956L61.1191 61.4363L61.6016 63.0452L61.6045 63.0437L61.6693 63.2584L62.4269 62.4547L62.4255 62.4532L65.5568 59.1333L62.8 58.4808L62.7741 58.4722L60.0375 57.824L60.6453 59.852L58.6821 60.1257C55.4039 60.5851 52.0552 60.2178 48.9513 59.067C44.7643 57.5158 41.2557 54.6294 38.9123 50.8298C36.5689 47.0317 35.5635 42.5998 36.0547 38.1622C36.5458 33.7332 38.4989 29.5779 41.6186 26.3919C41.9413 26.0606 41.9384 25.5147 41.6071 25.1907C41.2773 24.8651 40.7328 24.8695 40.4073 25.2007C37.0226 28.6589 34.9024 33.1686 34.3695 37.9764ZM47.7702 62.253C51.6649 63.6962 55.862 64.0793 59.9222 63.3721L60.4595 65.1639L60.4609 65.1625C60.5027 65.3022 60.579 65.4318 60.6928 65.5384C61.0342 65.8596 61.5714 65.8423 61.8926 65.5009L64.8524 62.3625H64.851L67.8037 59.2327C67.9074 59.1261 67.9837 58.9907 68.0197 58.8366C68.1263 58.3814 67.844 57.9248 67.3889 57.8183L63.2436 56.836C63.2263 56.8316 63.2105 56.8273 63.1932 56.823L59.0537 55.8421C58.8967 55.7917 58.7239 55.7874 58.5554 55.8393C58.1045 55.9732 57.8496 56.4471 57.9836 56.8979L58.4459 58.4405C55.4587 58.8582 52.3965 58.5283 49.5433 57.4711C45.712 56.0524 42.5059 53.4123 40.3612 49.9368C38.2166 46.4599 37.2962 42.4111 37.747 38.3494C38.1964 34.2992 39.9795 30.4982 42.8342 27.5816C43.8137 26.5806 43.7993 24.9588 42.8011 23.9765C41.7987 22.9927 40.174 23.0057 39.1902 24.011C35.5376 27.7415 33.2532 32.604 32.6785 37.7877C32.1024 42.9815 33.272 48.171 36.0158 52.6173C38.7581 57.0635 42.8717 60.4382 47.7702 62.253ZM78.0832 67.3359C77.9118 67.9768 77.5057 68.5126 76.9339 68.841L55.8548 81.0118C55.4731 81.2321 55.0395 81.3488 54.5974 81.3402C54.5887 81.3416 54.5801 81.3401 54.5714 81.3416L40.4836 81.608C40.0112 81.6167 39.6123 81.5807 39.147 81.4899L33.3353 80.3391V65.9071L39.0707 64.7721C39.5158 64.6828 39.8917 64.6958 40.3295 64.8139L58.7959 69.7614C59.6169 69.9818 60.2319 70.591 60.494 71.3386C60.5027 71.3746 60.5156 71.4106 60.53 71.4466C60.6568 71.8729 60.6726 72.3381 60.5488 72.7976C60.3788 73.4342 59.9683 73.9671 59.3922 74.2999C58.8161 74.6326 58.1492 74.7204 57.5126 74.5505L45.0581 71.2132C44.5972 71.0908 44.1219 71.363 43.9995 71.8239C43.8756 72.2848 44.1493 72.7587 44.6102 72.8826L57.0661 76.2198C58.1477 76.5107 59.2813 76.3595 60.2564 75.7963C61.2315 75.2332 61.9286 74.3272 62.2181 73.2455C62.3708 72.6766 62.3981 72.1034 62.3189 71.5546L74.4551 64.5474C75.0254 64.2176 75.6923 64.1326 76.3332 64.304C76.9756 64.4754 77.5114 64.8845 77.8413 65.4548C78.1725 66.0252 78.2604 66.6935 78.0832 67.3359ZM31.6069 83.2716H23.7284V62.9746H26.8035V73.1246C26.8035 73.6013 27.1909 73.9887 27.6677 73.9887C28.1459 73.9887 28.5319 73.6013 28.5319 73.1246V62.9746H31.6069V83.2716ZM79.3392 64.5907C79.8995 65.5614 80.0464 66.695 79.7569 67.7824C79.4616 68.8713 78.7674 69.7787 77.8009 70.339L56.7189 82.5082C56.0823 82.8755 55.3593 83.07 54.6247 83.07C54.6146 83.07 54.6046 83.07 54.5945 83.0685L40.5182 83.335C40.4606 83.3364 40.403 83.3379 40.3468 83.3379C39.8211 83.3379 39.3415 83.2889 38.8143 83.1852L33.3353 82.1006V84.1358C33.3353 84.6126 32.9479 85 32.4711 85H22.8642C22.3874 85 22 84.6126 22 84.1358V62.109C22 61.6322 22.3874 61.2448 22.8642 61.2448H32.4711C32.9479 61.2448 33.3353 61.6322 33.3353 62.109V64.1441L38.7351 63.0769C39.4365 62.9372 40.0861 62.9588 40.7775 63.1446L59.2438 68.0921C60.3053 68.3773 61.1652 69.0456 61.7097 69.9098L73.5909 63.0509C74.5602 62.4907 75.6937 62.3423 76.7812 62.6347C77.8715 62.9256 78.7789 63.6213 79.3392 64.5907Z" fill="#3D9AE2"/>
<rect x="1.5" y="1.5" width="397" height="97" rx="18.5" stroke="#3D9AE2" stroke-width="3"/>
</svg>
