<?xml version="1.0" encoding="UTF-8"?>
<!DOCTYPE svg PUBLIC "-//W3C//DTD SVG 1.1//EN" "http://www.w3.org/Graphics/SVG/1.1/DTD/svg11.dtd">
<svg xmlns="http://www.w3.org/2000/svg" version="1.1" width="64px" height="64px" style="shape-rendering:geometricPrecision; text-rendering:geometricPrecision; image-rendering:optimizeQuality; fill-rule:evenodd; clip-rule:evenodd" xmlns:xlink="http://www.w3.org/1999/xlink">
<g><path style="opacity:0.929" fill="#030303" d="M 0.5,0.5 C 15.1667,0.5 29.8333,0.5 44.5,0.5C 44.1681,10.5222 44.5015,20.5222 45.5,30.5C 47.7534,31.2531 49.5867,32.5864 51,34.5C 52.1901,38.3808 52.8568,42.3808 53,46.5C 57.194,49.8412 60.3607,53.8412 62.5,58.5C 62.8333,61.5 61.5,62.8333 58.5,62.5C 57.5,62.3333 56.5,62.1667 55.5,62C 52.318,58.6507 48.9846,55.484 45.5,52.5C 44.5713,53.6888 44.238,55.0222 44.5,56.5C 29.8333,56.5 15.1667,56.5 0.5,56.5C 0.5,37.8333 0.5,19.1667 0.5,0.5 Z"/></g>
<g><path style="opacity:1" fill="#e4e4e4" d="M 30.5,49.5 C 31.5,49.5 32.5,49.5 33.5,49.5C 36.1245,51.568 39.1245,52.9013 42.5,53.5C 29.1833,54.4992 15.85,54.8325 2.5,54.5C 2.5,37.1667 2.5,19.8333 2.5,2.5C 15.8333,2.5 29.1667,2.5 42.5,2.5C 42.8316,11.8571 42.4983,21.1904 41.5,30.5C 36.7388,28.63 31.7388,27.9633 26.5,28.5C 26.5,35.8333 26.5,43.1667 26.5,50.5C 28.099,50.7678 29.4324,50.4345 30.5,49.5 Z"/></g>
<g><path style="opacity:1" fill="#0a0a0a" d="M 7.5,4.5 C 9.60395,4.2011 11.604,4.53443 13.5,5.5C 11.9806,7.55628 11.1472,9.88962 11,12.5C 8.74347,15.1192 6.5768,15.1192 4.5,12.5C 5.96669,12.277 7.46669,11.9437 9,11.5C 9.16667,10.6667 9.33333,9.83333 9.5,9C 8.92645,7.39332 8.25979,5.89332 7.5,4.5 Z"/></g>
<g><path style="opacity:1" fill="#111111" d="M 25.5,4.5 C 33.2962,3.40543 35.6296,6.5721 32.5,14C 30.1902,14.4966 27.8568,14.6633 25.5,14.5C 25.5,11.1667 25.5,7.83333 25.5,4.5 Z"/></g>
<g><path style="opacity:1" fill="#151515" d="M 17.5,4.5 C 22.9885,4.50401 24.8219,7.17068 23,12.5C 20.6667,15.1667 18.3333,15.1667 16,12.5C 15.1093,9.5024 15.6093,6.83574 17.5,4.5 Z"/></g>
<g><path style="opacity:1" fill="#dadada" d="M 27.5,6.5 C 28.9778,6.23798 30.3112,6.57131 31.5,7.5C 30.8333,7.83333 30.1667,8.16667 29.5,8.5C 28.2867,8.25284 27.62,7.58617 27.5,6.5 Z"/></g>
<g><path style="opacity:1" fill="#dcdcdc" d="M 18.5,6.5 C 20.4841,6.484 21.4841,7.484 21.5,9.5C 20.1667,13.5 18.8333,13.5 17.5,9.5C 17.685,8.41635 18.0183,7.41635 18.5,6.5 Z"/></g>
<g><path style="opacity:0.963" fill="#020100" d="M 46.5,7.5 C 51.8333,7.5 57.1667,7.5 62.5,7.5C 62.5,14.8333 62.5,22.1667 62.5,29.5C 59.5,30.8333 56.5,32.1667 53.5,33.5C 53.5,32.1667 53.5,30.8333 53.5,29.5C 51.1667,29.5 48.8333,29.5 46.5,29.5C 46.5,22.1667 46.5,14.8333 46.5,7.5 Z"/></g>
<g><path style="opacity:1" fill="#fef183" d="M 48.5,9.5 C 52.5,9.5 56.5,9.5 60.5,9.5C 60.5,15.5 60.5,21.5 60.5,27.5C 58.6096,27.2965 57.1096,27.9632 56,29.5C 53.8938,27.709 51.3938,27.0423 48.5,27.5C 48.5,21.5 48.5,15.5 48.5,9.5 Z"/></g>
<g><path style="opacity:1" fill="#dadada" d="M 27.5,10.5 C 28.9778,10.238 30.3112,10.5713 31.5,11.5C 30.8333,11.8333 30.1667,12.1667 29.5,12.5C 28.2867,12.2528 27.62,11.5862 27.5,10.5 Z"/></g>
<g><path style="opacity:1" fill="#000000" d="M 50.5,11.5 C 53.2469,11.1866 55.9135,11.52 58.5,12.5C 57.1667,12.8333 55.8333,13.1667 54.5,13.5C 52.6672,13.4146 51.3339,12.7479 50.5,11.5 Z"/></g>
<g><path style="opacity:1" fill="#000000" d="M 50.5,15.5 C 53.2469,15.1866 55.9135,15.52 58.5,16.5C 57.1667,16.8333 55.8333,17.1667 54.5,17.5C 52.6672,17.4146 51.3339,16.7479 50.5,15.5 Z"/></g>
<g><path style="opacity:1" fill="#000000" d="M 4.5,16.5 C 9.8746,16.1718 15.2079,16.5052 20.5,17.5C 17.8333,17.8333 15.1667,18.1667 12.5,18.5C 9.40984,18.4783 6.74317,17.8117 4.5,16.5 Z"/></g>
<g><path style="opacity:1" fill="#000000" d="M 50.5,19.5 C 53.2469,19.1866 55.9135,19.52 58.5,20.5C 57.1667,20.8333 55.8333,21.1667 54.5,21.5C 52.6672,21.4146 51.3339,20.7479 50.5,19.5 Z"/></g>
<g><path style="opacity:1" fill="#000000" d="M 4.5,20.5 C 16.5185,20.1677 28.5185,20.501 40.5,21.5C 34.5,21.8333 28.5,22.1667 22.5,22.5C 16.1275,22.496 10.1275,21.8293 4.5,20.5 Z"/></g>
<g><path style="opacity:1" fill="#000000" d="M 50.5,23.5 C 53.2469,23.1866 55.9135,23.52 58.5,24.5C 57.1667,24.8333 55.8333,25.1667 54.5,25.5C 52.6672,25.4146 51.3339,24.7479 50.5,23.5 Z"/></g>
<g><path style="opacity:1" fill="#000000" d="M 4.5,24.5 C 16.5185,24.1677 28.5185,24.501 40.5,25.5C 34.5,25.8333 28.5,26.1667 22.5,26.5C 16.1275,26.496 10.1275,25.8293 4.5,24.5 Z"/></g>
<g><path style="opacity:1" fill="#000000" d="M 4.5,28.5 C 5.97782,28.238 7.31116,28.5713 8.5,29.5C 7.83333,29.8333 7.16667,30.1667 6.5,30.5C 5.28665,30.2528 4.61998,29.5862 4.5,28.5 Z"/></g>
<g><path style="opacity:1" fill="#000000" d="M 10.5,28.5 C 15.2137,28.1734 19.8804,28.5067 24.5,29.5C 22.1667,29.8333 19.8333,30.1667 17.5,30.5C 14.7305,30.4714 12.3972,29.8048 10.5,28.5 Z"/></g>
<g><path style="opacity:1" fill="#f36555" d="M 33.5,49.5 C 32.5,49.5 31.5,49.5 30.5,49.5C 28.6068,43.4546 27.9401,37.1213 28.5,30.5C 31.8499,30.335 35.1832,30.5017 38.5,31C 29.9162,35.2062 28.2495,41.3728 33.5,49.5 Z"/></g>
<g><path style="opacity:1" fill="#000000" d="M 4.5,32.5 C 5.97782,32.238 7.31116,32.5713 8.5,33.5C 7.83333,33.8333 7.16667,34.1667 6.5,34.5C 5.28665,34.2528 4.61998,33.5862 4.5,32.5 Z"/></g>
<g><path style="opacity:1" fill="#000000" d="M 10.5,32.5 C 15.2137,32.1734 19.8804,32.5067 24.5,33.5C 22.1667,33.8333 19.8333,34.1667 17.5,34.5C 14.7305,34.4714 12.3972,33.8048 10.5,32.5 Z"/></g>
<g><path style="opacity:1" fill="#6d808f" d="M 38.5,32.5 C 46.9863,32.1514 50.8197,36.1514 50,44.5C 47.6471,49.4264 43.8138,51.2598 38.5,50C 30.5548,44.1697 30.5548,38.3363 38.5,32.5 Z"/></g>
<g><path style="opacity:1" fill="#000000" d="M 4.5,36.5 C 5.97782,36.238 7.31116,36.5713 8.5,37.5C 7.83333,37.8333 7.16667,38.1667 6.5,38.5C 5.28665,38.2528 4.61998,37.5862 4.5,36.5 Z"/></g>
<g><path style="opacity:1" fill="#000000" d="M 10.5,36.5 C 15.2137,36.1734 19.8804,36.5067 24.5,37.5C 22.1667,37.8333 19.8333,38.1667 17.5,38.5C 14.7305,38.4714 12.3972,37.8048 10.5,36.5 Z"/></g>
<g><path style="opacity:1" fill="#0b0d0e" d="M 38.5,35.5 C 46.5204,35.3918 48.8538,38.8918 45.5,46C 39.7867,49.0594 36.4533,47.3927 35.5,41C 35.8627,38.8077 36.8627,36.9744 38.5,35.5 Z"/></g>
<g><path style="opacity:1" fill="#b8c0c7" d="M 39.5,37.5 C 45.4877,37.664 46.821,40.164 43.5,45C 37.4034,45.1475 36.0701,42.6475 39.5,37.5 Z"/></g>
<g><path style="opacity:1" fill="#000000" d="M 4.5,40.5 C 5.97782,40.238 7.31116,40.5713 8.5,41.5C 7.83333,41.8333 7.16667,42.1667 6.5,42.5C 5.28665,42.2528 4.61998,41.5862 4.5,40.5 Z"/></g>
<g><path style="opacity:1" fill="#000000" d="M 10.5,40.5 C 15.2137,40.1734 19.8804,40.5067 24.5,41.5C 22.1667,41.8333 19.8333,42.1667 17.5,42.5C 14.7305,42.4714 12.3972,41.8048 10.5,40.5 Z"/></g>
<g><path style="opacity:1" fill="#000000" d="M 4.5,44.5 C 5.97782,44.238 7.31116,44.5713 8.5,45.5C 7.83333,45.8333 7.16667,46.1667 6.5,46.5C 5.28665,46.2528 4.61998,45.5862 4.5,44.5 Z"/></g>
<g><path style="opacity:1" fill="#000000" d="M 10.5,44.5 C 15.2137,44.1734 19.8804,44.5067 24.5,45.5C 22.1667,45.8333 19.8333,46.1667 17.5,46.5C 14.7305,46.4714 12.3972,45.8048 10.5,44.5 Z"/></g>
<g><path style="opacity:1" fill="#000000" d="M 4.5,48.5 C 5.97782,48.238 7.31116,48.5713 8.5,49.5C 7.83333,49.8333 7.16667,50.1667 6.5,50.5C 5.28665,50.2528 4.61998,49.5862 4.5,48.5 Z"/></g>
<g><path style="opacity:1" fill="#000000" d="M 10.5,48.5 C 15.2137,48.1734 19.8804,48.5067 24.5,49.5C 22.1667,49.8333 19.8333,50.1667 17.5,50.5C 14.7305,50.4714 12.3972,49.8048 10.5,48.5 Z"/></g>
<g><path style="opacity:1" fill="#727272" d="M 49.5,48.5 C 53.4023,50.8926 56.9023,53.8926 60,57.5C 60.5,59.6667 59.6667,60.5 57.5,60C 54.6667,57.1667 51.8333,54.3333 49,51.5C 48.5304,50.4232 48.6971,49.4232 49.5,48.5 Z"/></g>
</svg>
