<?xml version="1.0" encoding="UTF-8"?>
<svg version="1.1" xmlns="http://www.w3.org/2000/svg" width="512" height="512">
<path d="M0 0 C0.64531871 -0.0072672 1.29063742 -0.01453441 1.95551124 -0.02202183 C4.11523321 -0.04025201 6.27317467 -0.02292895 8.43288326 -0.00571251 C9.99780669 -0.01147456 11.56272336 -0.01941624 13.12762588 -0.02934873 C17.42579734 -0.0502339 21.72341419 -0.0398995 26.02158773 -0.02441764 C30.65765139 -0.01311493 35.29361901 -0.03056141 39.92966366 -0.04431725 C49.01053379 -0.06656521 58.09119743 -0.06174167 67.1720757 -0.04725404 C74.55081691 -0.03596863 81.9295002 -0.03442788 89.30824757 -0.03987312 C90.8826556 -0.04102237 90.8826556 -0.04102237 92.48886986 -0.04219484 C94.62101501 -0.04379344 96.75316015 -0.0454145 98.88530528 -0.04705779 C118.88403586 -0.06131968 138.88265189 -0.04491529 158.88136368 -0.01805596 C176.04857287 0.00428646 193.21561303 0.00040051 210.38281918 -0.02264977 C230.31083632 -0.04939437 250.23875307 -0.05994978 270.16678566 -0.04458845 C272.29084391 -0.04299567 274.41490217 -0.04142382 276.53896046 -0.03987312 C277.58408476 -0.03910175 278.62920907 -0.03833037 279.7060038 -0.03753562 C287.0780879 -0.03321484 294.45010841 -0.04051323 301.82218266 -0.05227089 C310.80307609 -0.06627939 319.78375097 -0.06253058 328.7646193 -0.03586717 C333.34858098 -0.02270724 337.93217797 -0.01761357 342.51613712 -0.03411293 C346.71009039 -0.04898049 350.90333996 -0.04087776 355.09722912 -0.01422517 C356.61663706 -0.00862659 358.13610411 -0.0115115 359.65547425 -0.02360411 C361.71757833 -0.03876106 363.77725699 -0.0232732 365.8392334 0 C367.5584749 0.00121764 367.5584749 0.00121764 369.31244856 0.00245988 C373.3179898 0.82711562 374.80989646 2.4997978 377.35669613 5.6292057 C378.28184749 8.40465979 378.48043596 10.03880107 378.47695065 12.90024757 C378.47901264 14.20642036 378.47901264 14.20642036 378.48111629 15.53898048 C378.47752102 16.49132072 378.47392574 17.44366096 378.47022152 18.42486 C378.47036755 19.42991585 378.47051357 20.43497169 378.47066402 21.47048378 C378.46996642 24.7981525 378.46218107 28.12576549 378.45435238 31.45342445 C378.45248766 33.7584219 378.45106401 36.06341975 378.45006466 38.36841774 C378.44624372 44.43965178 378.43641702 50.51086196 378.42536068 56.58208656 C378.41513748 62.77552403 378.41056509 68.96896536 378.40552425 75.16240883 C378.3947944 87.31801828 378.37772302 99.47361001 378.35669613 111.6292057 C379.73595272 111.38798988 379.73595272 111.38798988 381.14307308 111.14190102 C406.57781079 107.08409131 434.60233473 115.46779807 455.22778988 130.3401432 C478.22812497 147.65972771 494.02926329 171.98013026 498.95532894 200.53911781 C503.02031347 231.83504795 496.05276001 260.33703938 477.23560238 285.46123695 C459.64047942 307.88639367 434.56230278 322.04532189 406.32276058 325.659235 C405.13299618 325.799058 405.13299618 325.799058 403.91919613 325.9417057 C403.2052972 326.03040932 402.49139828 326.11911293 401.75586605 326.21050453 C396.46284938 326.73670402 391.32343863 326.50462001 386.03223324 326.14165688 C385.2925304 326.09306274 384.55282757 326.04446861 383.7907095 325.99440193 C381.97921295 325.87505552 380.16793101 325.75245948 378.35669613 325.6292057 C378.35946151 326.5255781 378.36222689 327.42195049 378.36507607 328.34548569 C378.43132159 350.15358063 378.48096976 371.96165824 378.51213264 393.76983261 C378.52760323 404.31609268 378.54869647 414.86228561 378.58301449 425.40850258 C378.61291091 434.6003047 378.63226974 443.79205819 378.63896161 452.98390758 C378.64287345 457.85117925 378.65207088 462.71831178 378.6738863 467.58553886 C378.69425523 472.16718005 378.70052909 476.74862484 378.69601917 481.33030701 C378.69684419 483.01130745 378.70280744 484.69231449 378.71431255 486.37327576 C378.72926328 488.67042501 378.72564069 490.96683509 378.71745968 493.26400185 C378.72022506 494.54898127 378.72299044 495.83396069 378.72583961 497.15787888 C378.31873535 500.98617875 377.38948056 503.37583355 375.35669613 506.6292057 C371.80178754 508.99914476 370.3024297 508.88209459 366.08532906 508.88926792 C365.44377148 508.89307359 364.80221389 508.89687926 364.14121518 508.90080026 C361.97673005 508.91116275 359.8125049 508.90720141 357.64800167 508.90336037 C356.0863867 508.90781026 354.524774 508.91312348 352.96316463 508.91922909 C348.66031258 508.93344948 344.35753262 508.93507162 340.05466044 508.93463218 C335.41854799 508.93627684 330.78246555 508.94933674 326.14636898 508.96082497 C316.00390569 508.98370125 305.86146328 508.99159836 295.71897769 508.99665141 C289.38888693 508.9999053 283.05880226 509.0064259 276.72871494 509.0136528 C259.21073985 509.03322195 241.69277044 509.04962438 224.17478371 509.05252934 C223.05317378 509.0527169 221.93156385 509.05290447 220.77596574 509.05309773 C218.5020773 509.05346399 216.22818886 509.05382768 213.95430043 509.05418884 C212.82550165 509.05437165 211.69670288 509.05455446 210.53369808 509.05474281 C208.83843913 509.05501364 208.83843913 509.05501364 207.10893253 509.05528993 C188.79022119 509.05883264 170.47162733 509.0858597 152.15295675 509.1232407 C133.35620021 509.1612911 114.55950202 509.18068657 95.7627061 509.18098885 C85.20462384 509.18157415 74.64668171 509.19011275 64.08863544 509.21898651 C55.09930595 509.2434567 46.11016769 509.25081285 37.12081393 509.23573899 C32.5326811 509.22855223 27.94492622 509.2295032 23.35683537 509.25214958 C19.15780562 509.27267738 14.95944587 509.27019785 10.76042388 509.24927474 C9.24022346 509.24576789 7.71997531 509.25074029 6.19983753 509.26497918 C4.13427254 509.28308224 2.07107924 509.27039615 0.00558662 509.25003147 C-1.14182088 509.25084593 -2.28922838 509.25166038 -3.4714058 509.25249952 C-7.82411984 508.39716947 -9.71680351 506.94851851 -12.64330387 503.6292057 C-13.24700649 500.57219953 -13.45302696 498.30366418 -13.39835072 495.25048256 C-13.40707136 494.40540123 -13.41579201 493.56031989 -13.42477691 492.68963003 C-13.44675777 489.84429849 -13.42581522 487.00089178 -13.40520573 484.15557289 C-13.41211602 482.10066037 -13.42164323 480.04575524 -13.43356919 477.99086571 C-13.45868871 472.33363104 -13.446204 466.67700121 -13.42765188 461.01976395 C-13.41411193 454.9228607 -13.43501287 448.82606364 -13.45153141 442.72918129 C-13.47670901 431.472289 -13.47447153 420.21559112 -13.4580626 408.9587028 C-13.44297885 398.56007201 -13.43902455 388.16151218 -13.44619846 377.7628727 C-13.44665677 377.07354132 -13.44711508 376.38420995 -13.44758728 375.67398974 C-13.44945526 372.87588272 -13.45136566 370.07777574 -13.45334587 367.27966879 C-13.47170657 341.02257369 -13.45504853 314.76560187 -13.42276448 288.50852579 C-13.39429005 265.17238429 -13.39683778 241.83643923 -13.42553043 218.50029945 C-13.45764699 192.29173836 -13.47040453 166.08328622 -13.45185685 139.87470818 C-13.4499325 137.08165171 -13.44805546 134.28859522 -13.44619846 131.49553871 C-13.445724 130.80779939 -13.44524954 130.12006007 -13.44476069 129.41148016 C-13.43793118 119.01849 -13.44592615 108.62557852 -13.46107578 98.23259926 C-13.47821281 86.41719565 -13.47340325 74.60197968 -13.44139132 62.78659058 C-13.4255888 56.75455871 -13.41950504 50.72292618 -13.43928623 44.69089699 C-13.45710547 39.17382685 -13.44743993 33.65752791 -13.41542092 28.1405282 C-13.4086933 26.13993677 -13.41218506 24.13928079 -13.42667565 22.13873053 C-13.44481421 19.42752534 -13.42632698 16.71899233 -13.39835072 14.00792885 C-13.41239771 13.22352912 -13.42644471 12.4391294 -13.44091737 11.63095999 C-13.35463858 7.47358849 -12.7927115 5.7986155 -10.01131994 2.64486086 C-6.27300303 0.40759191 -4.31664246 0.0030568 0 0 Z " fill="#E9EFEF" transform="translate(12.643303871154785,1.3707942962646484)"/>
<path d="M0 0 C0.64531871 -0.0072672 1.29063742 -0.01453441 1.95551124 -0.02202183 C4.11523321 -0.04025201 6.27317467 -0.02292895 8.43288326 -0.00571251 C9.99780669 -0.01147456 11.56272336 -0.01941624 13.12762588 -0.02934873 C17.42579734 -0.0502339 21.72341419 -0.0398995 26.02158773 -0.02441764 C30.65765139 -0.01311493 35.29361901 -0.03056141 39.92966366 -0.04431725 C49.01053379 -0.06656521 58.09119743 -0.06174167 67.1720757 -0.04725404 C74.55081691 -0.03596863 81.9295002 -0.03442788 89.30824757 -0.03987312 C90.8826556 -0.04102237 90.8826556 -0.04102237 92.48886986 -0.04219484 C94.62101501 -0.04379344 96.75316015 -0.0454145 98.88530528 -0.04705779 C118.88403586 -0.06131968 138.88265189 -0.04491529 158.88136368 -0.01805596 C176.04857287 0.00428646 193.21561303 0.00040051 210.38281918 -0.02264977 C230.31083632 -0.04939437 250.23875307 -0.05994978 270.16678566 -0.04458845 C272.29084391 -0.04299567 274.41490217 -0.04142382 276.53896046 -0.03987312 C277.58408476 -0.03910175 278.62920907 -0.03833037 279.7060038 -0.03753562 C287.0780879 -0.03321484 294.45010841 -0.04051323 301.82218266 -0.05227089 C310.80307609 -0.06627939 319.78375097 -0.06253058 328.7646193 -0.03586717 C333.34858098 -0.02270724 337.93217797 -0.01761357 342.51613712 -0.03411293 C346.71009039 -0.04898049 350.90333996 -0.04087776 355.09722912 -0.01422517 C356.61663706 -0.00862659 358.13610411 -0.0115115 359.65547425 -0.02360411 C361.71757833 -0.03876106 363.77725699 -0.0232732 365.8392334 0 C367.5584749 0.00121764 367.5584749 0.00121764 369.31244856 0.00245988 C373.3179898 0.82711562 374.80989646 2.4997978 377.35669613 5.6292057 C378.28184749 8.40465979 378.48043596 10.03880107 378.47695065 12.90024757 C378.47901264 14.20642036 378.47901264 14.20642036 378.48111629 15.53898048 C378.47752102 16.49132072 378.47392574 17.44366096 378.47022152 18.42486 C378.47036755 19.42991585 378.47051357 20.43497169 378.47066402 21.47048378 C378.46996642 24.7981525 378.46218107 28.12576549 378.45435238 31.45342445 C378.45248766 33.7584219 378.45106401 36.06341975 378.45006466 38.36841774 C378.44624372 44.43965178 378.43641702 50.51086196 378.42536068 56.58208656 C378.41513748 62.77552403 378.41056509 68.96896536 378.40552425 75.16240883 C378.3947944 87.31801828 378.37772302 99.47361001 378.35669613 111.6292057 C379.73595272 111.38798988 379.73595272 111.38798988 381.14307308 111.14190102 C406.57781079 107.08409131 434.60233473 115.46779807 455.22778988 130.3401432 C478.22812497 147.65972771 494.02926329 171.98013026 498.95532894 200.53911781 C503.02031347 231.83504795 496.05276001 260.33703938 477.23560238 285.46123695 C459.64047942 307.88639367 434.56230278 322.04532189 406.32276058 325.659235 C405.13299618 325.799058 405.13299618 325.799058 403.91919613 325.9417057 C403.2052972 326.03040932 402.49139828 326.11911293 401.75586605 326.21050453 C396.46284938 326.73670402 391.32343863 326.50462001 386.03223324 326.14165688 C385.2925304 326.09306274 384.55282757 326.04446861 383.7907095 325.99440193 C381.97921295 325.87505552 380.16793101 325.75245948 378.35669613 325.6292057 C378.35946151 326.5255781 378.36222689 327.42195049 378.36507607 328.34548569 C378.43132159 350.15358063 378.48096976 371.96165824 378.51213264 393.76983261 C378.52760323 404.31609268 378.54869647 414.86228561 378.58301449 425.40850258 C378.61291091 434.6003047 378.63226974 443.79205819 378.63896161 452.98390758 C378.64287345 457.85117925 378.65207088 462.71831178 378.6738863 467.58553886 C378.69425523 472.16718005 378.70052909 476.74862484 378.69601917 481.33030701 C378.69684419 483.01130745 378.70280744 484.69231449 378.71431255 486.37327576 C378.72926328 488.67042501 378.72564069 490.96683509 378.71745968 493.26400185 C378.72022506 494.54898127 378.72299044 495.83396069 378.72583961 497.15787888 C378.31873535 500.98617875 377.38948056 503.37583355 375.35669613 506.6292057 C371.80178754 508.99914476 370.3024297 508.88209459 366.08532906 508.88926792 C365.44377148 508.89307359 364.80221389 508.89687926 364.14121518 508.90080026 C361.97673005 508.91116275 359.8125049 508.90720141 357.64800167 508.90336037 C356.0863867 508.90781026 354.524774 508.91312348 352.96316463 508.91922909 C348.66031258 508.93344948 344.35753262 508.93507162 340.05466044 508.93463218 C335.41854799 508.93627684 330.78246555 508.94933674 326.14636898 508.96082497 C316.00390569 508.98370125 305.86146328 508.99159836 295.71897769 508.99665141 C289.38888693 508.9999053 283.05880226 509.0064259 276.72871494 509.0136528 C259.21073985 509.03322195 241.69277044 509.04962438 224.17478371 509.05252934 C223.05317378 509.0527169 221.93156385 509.05290447 220.77596574 509.05309773 C218.5020773 509.05346399 216.22818886 509.05382768 213.95430043 509.05418884 C212.82550165 509.05437165 211.69670288 509.05455446 210.53369808 509.05474281 C208.83843913 509.05501364 208.83843913 509.05501364 207.10893253 509.05528993 C188.79022119 509.05883264 170.47162733 509.0858597 152.15295675 509.1232407 C133.35620021 509.1612911 114.55950202 509.18068657 95.7627061 509.18098885 C85.20462384 509.18157415 74.64668171 509.19011275 64.08863544 509.21898651 C55.09930595 509.2434567 46.11016769 509.25081285 37.12081393 509.23573899 C32.5326811 509.22855223 27.94492622 509.2295032 23.35683537 509.25214958 C19.15780562 509.27267738 14.95944587 509.27019785 10.76042388 509.24927474 C9.24022346 509.24576789 7.71997531 509.25074029 6.19983753 509.26497918 C4.13427254 509.28308224 2.07107924 509.27039615 0.00558662 509.25003147 C-1.14182088 509.25084593 -2.28922838 509.25166038 -3.4714058 509.25249952 C-7.82411984 508.39716947 -9.71680351 506.94851851 -12.64330387 503.6292057 C-13.24700649 500.57219953 -13.45302696 498.30366418 -13.39835072 495.25048256 C-13.40707136 494.40540123 -13.41579201 493.56031989 -13.42477691 492.68963003 C-13.44675777 489.84429849 -13.42581522 487.00089178 -13.40520573 484.15557289 C-13.41211602 482.10066037 -13.42164323 480.04575524 -13.43356919 477.99086571 C-13.45868871 472.33363104 -13.446204 466.67700121 -13.42765188 461.01976395 C-13.41411193 454.9228607 -13.43501287 448.82606364 -13.45153141 442.72918129 C-13.47670901 431.472289 -13.47447153 420.21559112 -13.4580626 408.9587028 C-13.44297885 398.56007201 -13.43902455 388.16151218 -13.44619846 377.7628727 C-13.44665677 377.07354132 -13.44711508 376.38420995 -13.44758728 375.67398974 C-13.44945526 372.87588272 -13.45136566 370.07777574 -13.45334587 367.27966879 C-13.47170657 341.02257369 -13.45504853 314.76560187 -13.42276448 288.50852579 C-13.39429005 265.17238429 -13.39683778 241.83643923 -13.42553043 218.50029945 C-13.45764699 192.29173836 -13.47040453 166.08328622 -13.45185685 139.87470818 C-13.4499325 137.08165171 -13.44805546 134.28859522 -13.44619846 131.49553871 C-13.445724 130.80779939 -13.44524954 130.12006007 -13.44476069 129.41148016 C-13.43793118 119.01849 -13.44592615 108.62557852 -13.46107578 98.23259926 C-13.47821281 86.41719565 -13.47340325 74.60197968 -13.44139132 62.78659058 C-13.4255888 56.75455871 -13.41950504 50.72292618 -13.43928623 44.69089699 C-13.45710547 39.17382685 -13.44743993 33.65752791 -13.41542092 28.1405282 C-13.4086933 26.13993677 -13.41218506 24.13928079 -13.42667565 22.13873053 C-13.44481421 19.42752534 -13.42632698 16.71899233 -13.39835072 14.00792885 C-13.41239771 13.22352912 -13.42644471 12.4391294 -13.44091737 11.63095999 C-13.35463858 7.47358849 -12.7927115 5.7986155 -10.01131994 2.64486086 C-6.27300303 0.40759191 -4.31664246 0.0030568 0 0 Z M7.35669613 20.6292057 C7.35669613 175.0692057 7.35669613 329.5092057 7.35669613 488.6292057 C122.85669613 488.6292057 238.35669613 488.6292057 357.35669613 488.6292057 C357.35669613 432.8592057 357.35669613 377.0892057 357.35669613 319.6292057 C352.07669613 317.3192057 346.79669613 315.0092057 341.35669613 312.6292057 C338.61585643 311.0892993 336.14340817 309.66312408 333.60669613 307.8792057 C332.99801693 307.46074379 332.38933773 307.04228188 331.76221371 306.6111393 C315.26689594 294.9884105 299.21293828 278.1751306 293.79419613 258.2542057 C291.21834272 251.31564563 283.74316181 248.29924732 277.62378597 244.89678383 C274.60526483 243.20906449 271.63739879 241.44074677 268.66431332 239.67461586 C264.17752838 237.0116538 259.67698 234.37496605 255.13403988 231.8088932 C254.23814144 231.29584633 253.342243 230.78279945 252.41919613 230.2542057 C251.29191097 229.62385414 251.29191097 229.62385414 250.14185238 228.9807682 C248.03298992 227.38412398 247.29257902 226.08530446 246.35669613 223.6292057 C245.8855619 219.93865425 245.92793671 218.25801978 248.04468441 215.15361977 C250.45518696 212.52166661 252.6471176 210.96491046 255.72388363 209.1760807 C256.76826595 208.56184242 257.81264828 207.94760414 258.88867855 207.31475258 C259.99187435 206.67602211 261.09507015 206.03729164 262.23169613 205.3792057 C264.49621938 204.0305837 266.76054361 202.68162746 269.02466488 201.3323307 C272.61954099 199.21076447 276.22406187 197.1394308 279.90747738 195.1760807 C287.9226405 190.76779243 291.19680567 186.16731351 293.95044613 177.67217445 C297.74337054 166.07609826 305.2061632 155.54211841 313.35669613 146.6292057 C314.11466488 145.79002602 314.87263363 144.95084633 315.65357113 144.08623695 C327.1944266 131.92308045 341.42860635 122.93856896 357.35669613 117.6292057 C357.35669613 85.6192057 357.35669613 53.6092057 357.35669613 20.6292057 C241.85669613 20.6292057 126.35669613 20.6292057 7.35669613 20.6292057 Z " fill="#000000" transform="translate(12.643303871154785,1.3707942962646484)"/>
<path d="M0 0 C13.05489494 11.07651049 21.92407903 25.39855655 27.06640625 41.65234375 C27.38480469 42.62945312 27.70320312 43.6065625 28.03125 44.61328125 C34.53543134 67.9324199 28.69590387 92.74108993 17.125 113.39453125 C4.61157737 133.19755681 -14.31226834 145.9104512 -36.93359375 151.65234375 C-37.79984375 151.87792969 -38.66609375 152.10351562 -39.55859375 152.3359375 C-61.68735281 157.22720284 -85.03402633 152.35705614 -104.12890625 140.55859375 C-122.44783493 128.10784557 -133.69455202 112.05598646 -141.12109375 91.33984375 C-147.94207284 81.22597821 -163.58016715 75.44917672 -173.93359375 69.65234375 C-173.93359375 68.99234375 -173.93359375 68.33234375 -173.93359375 67.65234375 C-171.87741375 66.33384641 -169.83750946 65.14839747 -167.6953125 63.984375 C-166.38695996 63.24877534 -165.07903063 62.51242252 -163.77148438 61.77539062 C-161.70225835 60.61945451 -159.63023904 59.46983846 -157.55004883 58.33374023 C-155.54628698 57.23505749 -153.55801825 56.11178353 -151.5703125 54.984375 C-150.64202888 54.49019829 -150.64202888 54.49019829 -149.69499207 53.98603821 C-144.87231627 51.21588359 -143.64704694 48.72108338 -141.93359375 43.65234375 C-141.5571875 42.63914063 -141.18078125 41.6259375 -140.79296875 40.58203125 C-140.426875 39.57398438 -140.06078125 38.5659375 -139.68359375 37.52734375 C-130.34175127 13.37121852 -113.60622469 -3.87152529 -90.0703125 -14.66015625 C-59.5305222 -27.26535043 -25.22207178 -20.59751358 0 0 Z " fill="#FDCC61" transform="translate(461.93359375,153.34765625)"/>
<path d="M0 0 C1.37586525 -0.0098568 1.37586525 -0.0098568 2.77952576 -0.01991272 C5.82404659 -0.03967109 8.86851803 -0.05131441 11.91308594 -0.0612793 C12.95185631 -0.06535482 13.99062668 -0.06943035 15.06087494 -0.07362938 C20.55962425 -0.09450166 26.05834853 -0.10879797 31.55712891 -0.11816406 C37.23789984 -0.12922661 42.91827887 -0.16362164 48.59891129 -0.20333576 C52.9655429 -0.22947939 57.33208087 -0.23785395 61.69878387 -0.24144554 C63.79274897 -0.24631787 65.88670971 -0.25795019 67.98059845 -0.27648354 C70.91316265 -0.30082505 73.8447095 -0.29991884 76.77734375 -0.29296875 C77.64095016 -0.30577881 78.50455658 -0.31858887 79.39433289 -0.33178711 C84.91921122 -0.28411265 87.89666841 0.58049377 92.14746094 4.17700195 C93.28370213 6.44948433 93.41192937 7.96002959 93.52246094 10.48950195 C93.57144531 11.24875977 93.62042969 12.00801758 93.67089844 12.7902832 C92.86149375 16.48092697 91.07053081 17.84444944 88.14746094 20.17700195 C85.15945592 20.64630995 82.75474557 20.81353311 79.77709961 20.74462891 C78.94731598 20.74535904 78.11753235 20.74608917 77.26260376 20.74684143 C74.52953921 20.74336776 71.79819516 20.70451855 69.06542969 20.6652832 C67.16686433 20.65595426 65.26828691 20.64883853 63.3697052 20.6438446 C58.37991937 20.62478122 53.39086472 20.57568599 48.40136719 20.52032471 C43.30706676 20.46911806 38.21264784 20.44632753 33.11816406 20.42114258 C23.12755724 20.36756644 13.13768437 20.27963583 3.14746094 20.17700195 C3.14746094 30.40700195 3.14746094 40.63700195 3.14746094 51.17700195 C84.98746094 51.17700195 166.82746094 51.17700195 251.14746094 51.17700195 C251.14746094 40.94700195 251.14746094 30.71700195 251.14746094 20.17700195 C247.32438354 20.2241333 247.32438354 20.2241333 243.42407227 20.2722168 C235.00241746 20.37164228 226.58073669 20.43791275 218.1586504 20.48787498 C213.05230982 20.51918572 207.94657062 20.56165402 202.84057617 20.62963867 C197.91276327 20.69484015 192.9855287 20.73070994 188.05731773 20.74626541 C186.17737408 20.75735035 184.29746204 20.77899726 182.41776466 20.81138229 C179.78375542 20.85495764 177.15213406 20.86093584 174.51782227 20.8581543 C173.74098587 20.87972595 172.96414948 20.90129761 172.16377258 20.92352295 C169.23127693 20.89002624 166.87293238 20.76900457 164.54599571 18.87016678 C162.23693658 16.17988449 160.42754146 13.78666454 160.39746094 10.17700195 C160.73134924 6.79300089 161.59023625 5.25256575 164.10557556 2.97354126 C168.45033685 -0.51902953 172.14425395 -0.66474194 177.56762695 -0.56762695 C178.48560059 -0.57492828 179.40357422 -0.58222961 180.34936523 -0.5897522 C183.36746475 -0.60589371 186.38339273 -0.57880982 189.40136719 -0.54956055 C191.50691222 -0.54852255 193.6124592 -0.54956102 195.71800232 -0.55258179 C200.12373921 -0.55240266 204.5287417 -0.53160969 208.93432617 -0.49536133 C214.57585431 -0.44995872 220.21631152 -0.44890673 225.85797215 -0.46239662 C230.20323676 -0.46908531 234.54825806 -0.45579962 238.89347649 -0.43613815 C240.97344629 -0.42845162 243.05344319 -0.42613049 245.13342476 -0.42930984 C248.04170265 -0.43005323 250.94861689 -0.40475849 253.85668945 -0.37231445 C254.71244064 -0.37726929 255.56819183 -0.38222412 256.44987488 -0.3873291 C261.80561843 -0.29216789 264.91495652 0.59519321 269.14746094 4.17700195 C271.40613454 7.56501236 271.41190789 8.7857626 271.45385742 12.76245117 C271.46984482 13.90728973 271.48583221 15.0521283 271.50230408 16.23165894 C271.51034813 18.08792404 271.51034813 18.08792404 271.51855469 19.98168945 C271.52758316 21.25295685 271.53661163 22.52422424 271.5459137 23.83401489 C271.56043493 26.52579916 271.57010265 29.21715848 271.57299805 31.90893555 C271.57837985 35.35145865 271.61605039 38.79280713 271.66174221 42.2349987 C271.69871139 45.52549241 271.70002896 48.81601596 271.70605469 52.10668945 C271.72558701 53.34015106 271.74511932 54.57361267 271.76524353 55.8444519 C271.71500056 65.3606452 271.71500056 65.3606452 268.73754883 68.43139648 C265.32967514 70.72815366 263.68712693 71.30248179 259.63617229 71.31122303 C258.6808233 71.31568087 257.72547431 71.32013872 256.74117535 71.32473165 C255.15585003 71.3244551 255.15585003 71.3244551 253.53849792 71.32417297 C251.86288637 71.32968801 251.86288637 71.32968801 250.15342408 71.33531445 C246.38474887 71.34638758 242.61610119 71.35020125 238.84741211 71.35400391 C236.15575494 71.36026574 233.46410076 71.36689915 230.77244568 71.37391663 C222.6767866 71.3936913 214.58112625 71.40374828 206.48544905 71.41264442 C202.67514159 71.41702546 198.86483554 71.42239273 195.05452919 71.42763329 C182.39194496 71.44464617 169.7293616 71.4591412 157.06676769 71.46638203 C153.77978197 71.46829199 150.49279625 71.47021231 147.20581055 71.47216797 C145.98033171 71.47289358 145.98033171 71.47289358 144.73009572 71.47363385 C131.49011129 71.48193736 118.25021711 71.50727939 105.01027211 71.53974865 C91.42404373 71.57279612 77.83786125 71.59082867 64.25159246 71.59402627 C56.62055924 71.59619346 48.98965766 71.60497259 41.35866356 71.63048744 C34.8608714 71.65216289 28.36324284 71.6602605 21.86541864 71.65052066 C18.54927707 71.64596673 15.23354482 71.65009376 11.91743469 71.6672821 C8.32379316 71.68487063 4.73101568 71.6779584 1.13737488 71.66474915 C0.08718349 71.67571839 -0.96300789 71.68668764 -2.04502326 71.69798928 C-6.50745401 71.65823353 -9.10509893 71.63284922 -12.97690868 69.27151775 C-15.94929646 65.95225334 -15.99064785 63.99330101 -16.04541016 59.61328125 C-16.06147308 58.44834641 -16.07753601 57.28341156 -16.09408569 56.08317566 C-16.13844362 50.75319882 -16.18003998 45.42337019 -16.20263672 40.09326172 C-16.2159723 37.27912867 -16.24381626 34.46572144 -16.28466797 31.65185547 C-16.34346924 27.60151927 -16.36129661 23.55196147 -16.37597656 19.5012207 C-16.39864594 18.24274826 -16.42131531 16.98427582 -16.44467163 15.68766785 C-16.42110483 5.97668954 -16.42110483 5.97668954 -13.44482422 2.90673828 C-8.90740795 -0.12091234 -5.33329495 0.01645137 0 0 Z " fill="#020202" transform="translate(68.8525390625,51.822998046875)"/>
<path d="M0 0 C3.0625 2.25 3.0625 2.25 5 5 C5 6.32 5 7.64 5 9 C12.92 9 20.84 9 29 9 C29.99 11.31 30.98 13.62 32 16 C34.94291646 18.94291646 38.08354391 18.30802442 42.02978516 18.31884766 C43.27380348 18.33391609 43.27380348 18.33391609 44.54295349 18.34928894 C47.29164926 18.38024662 50.0402471 18.39719084 52.7890625 18.4140625 C54.6919337 18.43276404 56.59479652 18.45233668 58.49765015 18.4727478 C63.51174998 18.52418217 68.52587674 18.56374724 73.5401001 18.60089111 C78.65440593 18.64086007 83.76859869 18.69198474 88.8828125 18.7421875 C98.92180366 18.83908063 108.96084105 18.92241178 119 19 C119 29.23 119 39.46 119 50 C37.16 50 -44.68 50 -129 50 C-129 39.77 -129 29.54 -129 19 C-125.16121216 18.96241577 -125.16121216 18.96241577 -121.24487305 18.92407227 C-112.79905577 18.84067879 -104.35330021 18.75198253 -95.90756512 18.66066074 C-90.78581084 18.60544398 -85.66405085 18.5520259 -80.54223633 18.50268555 C-75.60147387 18.4550237 -70.66078136 18.40268012 -65.72010231 18.34705925 C-63.83303374 18.32664397 -61.945946 18.30792952 -60.05884361 18.29092598 C-57.42026194 18.26686375 -54.78181256 18.23681156 -52.14331055 18.20532227 C-51.3592836 18.1995668 -50.57525665 18.19381134 -49.76747131 18.18788147 C-46.58884044 18.14462571 -44.03725341 18.0124178 -41 17 C-40.34 13.7 -39.68 10.4 -39 7 C-38.505 7.99 -38.505 7.99 -38 9 C-30.41 9 -22.82 9 -15 9 C-14.34 7.02 -13.68 5.04 -13 3 C-9.68259392 -0.98088729 -4.80152448 -0.92271289 0 0 Z " fill="#FC7C94" transform="translate(201,53)"/>
<path d="M0 0 C7.99963546 6.49080742 14.25890402 15.72753369 16 26 C17.17431416 40.64222967 13.56924112 51.54331315 4.48046875 62.8984375 C-2.17805167 70.31839456 -12.80298156 75.42798264 -22.703125 76.21484375 C-36.13946582 76.6454957 -47.18325918 72.48457782 -57.1875 63.5 C-66.20786935 54.02127855 -69.39720351 42.38180642 -69.27734375 29.63671875 C-68.58671605 20.58074139 -64.51779839 13.06170792 -59 6 C-58.52175781 5.38382812 -58.04351562 4.76765625 -57.55078125 4.1328125 C-42.46447181 -12.96753825 -17.49949696 -12.62258797 0 0 Z " fill="#020303" transform="translate(171,383)"/>
<path d="M0 0 C0.89656254 -0.00297112 1.79312508 -0.00594224 2.71685618 -0.0090034 C5.73928122 -0.01771691 8.76166677 -0.01920088 11.78410339 -0.02069092 C13.9437468 -0.02531722 16.10338938 -0.03034162 18.26303101 -0.03573608 C24.14322574 -0.04888022 30.02340905 -0.05530896 35.90361619 -0.05974674 C39.57447543 -0.06267422 43.24533153 -0.0667784 46.91618919 -0.07125092 C58.39314631 -0.08493114 69.87009627 -0.09459523 81.34706098 -0.09845281 C94.6109248 -0.10293503 107.87468565 -0.1204884 121.13851815 -0.1494534 C131.38059223 -0.17104585 141.62263728 -0.18115578 151.86473387 -0.18249393 C157.9866838 -0.1835437 164.108537 -0.18948812 170.23046303 -0.20731354 C175.98829916 -0.22375209 181.74596542 -0.22597023 187.5038166 -0.21717453 C189.61901046 -0.21640189 191.73421328 -0.22077656 193.84938431 -0.23063278 C196.73353392 -0.2432857 199.61707583 -0.23751168 202.5012207 -0.22705078 C203.34130088 -0.23510719 204.18138106 -0.24316359 205.04691821 -0.25146413 C210.86276788 -0.20201621 214.22656631 0.92592239 218.44108582 5.14044189 C219.20766839 9.67754109 219.01834764 13.18497405 216.62858582 17.14044189 C212.5191241 20.89766403 208.02103037 20.2887619 202.76191711 20.28761292 C201.86450015 20.2912896 200.96708318 20.29496629 200.04247177 20.29875439 C197.0231564 20.3098033 194.00387542 20.31363709 190.98454285 20.31744385 C188.82475169 20.32370746 186.66496162 20.33035417 184.50517273 20.33735657 C178.62917275 20.35477282 172.7531809 20.36531951 166.8771615 20.3735621 C163.20847462 20.37870971 159.53979028 20.38478547 155.87110519 20.39107323 C144.39949283 20.41012492 132.9278869 20.42435751 121.45626175 20.4326852 C108.20086768 20.44246605 94.94564021 20.46880788 81.69030488 20.50918609 C71.45245758 20.53930591 61.21465817 20.55415004 50.97676742 20.55746621 C44.85815092 20.55982092 38.73971243 20.56883648 32.62114334 20.59392738 C26.86736229 20.61714149 21.11387731 20.62146815 15.36006165 20.611166 C13.24647413 20.61066895 11.13287236 20.61703901 9.01932907 20.63072205 C6.13726838 20.648339 3.25628205 20.6413851 0.3742218 20.62818909 C-0.46517626 20.63915833 -1.30457432 20.65012758 -2.16940868 20.66142923 C-6.16770724 20.61712827 -8.09705895 20.43420372 -11.55473518 18.2349577 C-14.65897367 14.99079809 -14.89269956 12.66933316 -14.85188293 8.17950439 C-14.39636452 5.00909623 -12.80575761 3.32120169 -10.55891418 1.14044189 C-7.26949481 -0.50426779 -3.61573774 -0.0036999 0 0 Z " fill="#000000" transform="translate(67.55891418457031,264.85955810546875)"/>
<path d="M0 0 C3.43203219 0.8517906 5.0647359 2.79004399 7.15625 5.53515625 C8.51064668 8.2439496 8.22126451 10.54448893 8.15625 13.53515625 C9.39375 13.62796875 9.39375 13.62796875 10.65625 13.72265625 C16.40478413 15.05713739 21.0864424 18.14647685 25.21875 22.34765625 C27.39959336 25.93549533 27.74932418 27.6042209 26.9296875 31.6328125 C25.46371955 35.23850136 23.48769108 36.52372013 20.15625 38.53515625 C16.69980702 39.399267 14.92040834 38.98842624 11.87109375 37.1796875 C10.62005859 36.36564453 10.62005859 36.36564453 9.34375 35.53515625 C4.51039453 32.45607588 0.82179112 31.38189393 -4.84375 32.53515625 C-7.81287882 33.92496123 -9.54032028 35.23172653 -11.84375 37.53515625 C-12.35841029 41.55801574 -12.35841029 41.55801574 -10.66015625 45.046875 C-4.83741305 49.81776782 2.8315946 52.47596637 9.84375 54.97265625 C20.60879298 59.0208281 26.5939536 65.07129713 31.46875 75.28515625 C33.58855883 85.30607073 32.14816543 93.61289727 27.15625 102.53515625 C23.07014319 108.55785463 17.64457213 113.21554958 11.15625 116.53515625 C10.16625 116.53515625 9.17625 116.53515625 8.15625 116.53515625 C8.094375 117.58703125 8.0325 118.63890625 7.96875 119.72265625 C6.99411633 124.29593733 5.8915289 125.77429793 2.15625 128.53515625 C-1.28125 129.66015625 -1.28125 129.66015625 -4.84375 129.53515625 C-8.62764655 127.17914519 -10.53763632 125.8106299 -11.59375 121.41015625 C-12.51013942 118.40593187 -12.51013942 118.40593187 -14.86328125 117.6640625 C-16.60433398 117.19068872 -18.35087693 116.73718403 -20.1015625 116.30078125 C-25.73976715 114.72658166 -30.50976159 112.43507913 -33.90625 107.59765625 C-34.94124002 104.21668886 -35.43945392 102.03491676 -34.84375 98.53515625 C-32.40625 95.72265625 -32.40625 95.72265625 -29.84375 93.53515625 C-29.34875 93.04015625 -29.34875 93.04015625 -28.84375 92.53515625 C-23.72540585 91.98676223 -20.9810181 92.20527102 -16.65625 95.03515625 C-10.96231787 98.51478144 -5.33113993 98.32150654 1.15625 97.53515625 C5.36231451 96.08478918 8.14287557 94.56190511 10.15625 90.53515625 C11.28157341 86.18879844 11.99828978 83.03648542 9.734375 79 C6.21633851 75.6365439 2.47249937 74.25153479 -2.03125 72.53515625 C-25.64886745 63.3203523 -25.64886745 63.3203523 -31.34375 52.41015625 C-33.96478837 45.45614002 -34.1027271 38.28094676 -31.73828125 31.24609375 C-27.72789257 22.58021366 -22.68985315 17.23817617 -13.84375 13.53515625 C-13.18375 13.53515625 -12.52375 13.53515625 -11.84375 13.53515625 C-11.946875 12.50390625 -12.05 11.47265625 -12.15625 10.41015625 C-11.84375 6.53515625 -11.84375 6.53515625 -9.90625 3.09765625 C-6.32070659 0.09750768 -4.54892538 -0.29568015 0 0 Z " fill="#030201" transform="translate(407.84375,155.46484375)"/>
<path d="M0 0 C6.44976069 4.09311736 10.03507866 10.24624691 14.08984375 16.54296875 C17.46540845 21.76953386 21.04493873 26.84978232 24.625 31.9375 C25.25349854 32.83227051 25.88199707 33.72704102 26.52954102 34.64892578 C28.01822036 36.76699404 29.50832272 38.88404252 31 41 C31.00410889 40.00145996 31.00821777 39.00291992 31.01245117 37.97412109 C31.03431323 34.24997164 31.08867401 30.52686818 31.15258789 26.80322266 C31.17570671 25.19525214 31.19014924 23.58713152 31.19555664 21.97900391 C31.20489196 19.65953701 31.24597459 17.34241086 31.29296875 15.0234375 C31.2890361 14.31069672 31.28510345 13.59795593 31.28105164 12.86361694 C31.44507806 7.1832821 33.11733362 4.85291555 37 1 C39.86608129 -0.43304064 41.81300783 -0.30644155 45 0 C50.57894737 3.15789474 50.57894737 3.15789474 52 6 C52.11768939 8.21427815 52.16985212 10.43212999 52.19287109 12.64941406 C52.20513733 13.67415077 52.20513733 13.67415077 52.21765137 14.71958923 C52.2425028 16.98492558 52.25902228 19.25019918 52.2734375 21.515625 C52.27876118 22.28961388 52.28408485 23.06360275 52.28956985 23.86104584 C52.31630278 27.95927439 52.33567552 32.0574725 52.35009766 36.15576172 C52.36672908 40.38389509 52.41149272 44.6112465 52.4624691 48.83908463 C52.49617034 52.09396227 52.50767824 55.34865515 52.51332474 58.6036911 C52.52003137 60.16180128 52.53523839 61.71989955 52.55921555 63.27783966 C52.59092956 65.46353781 52.59089593 67.64713885 52.58349609 69.83300781 C52.59158295 71.07495911 52.5996698 72.3169104 52.60800171 73.59649658 C51.79749101 78.1336153 50.23397596 79.76250214 47 83 C44.71875 83.91015625 44.71875 83.91015625 42.5 84.0625 C41.7678125 84.13597656 41.035625 84.20945312 40.28125 84.28515625 C36.40834531 83.80104316 34.05523733 82.29156841 31.57958984 79.26147461 C29.97374559 77.02166136 28.44794156 74.7427177 26.9375 72.4375 C26.3803833 71.60500732 25.8232666 70.77251465 25.24926758 69.91479492 C24.08285868 68.16920594 22.92106803 66.4205231 21.76367188 64.66894531 C20.01337894 62.0202462 18.25088933 59.38008991 16.484375 56.7421875 C13.64628622 52.50135095 10.82000899 48.25287842 8 44 C7.98541748 44.97348389 7.97083496 45.94696777 7.95581055 46.94995117 C7.89766704 50.57515476 7.82043623 54.1997476 7.73754883 57.82446289 C7.70437468 59.39076801 7.67631942 60.95719051 7.65356445 62.52368164 C7.61987884 64.78061763 7.56755951 67.03648526 7.51171875 69.29296875 C7.50213387 70.33701118 7.50213387 70.33701118 7.49235535 71.40214539 C7.33115217 76.77967177 5.9688555 80.0311445 2.1875 83.8125 C-0.8527265 85.46290867 -2.57949832 85.54728027 -6 85 C-8.9228334 83.16899068 -11.43323854 81.13352292 -13 78 C-13.11778055 75.74980297 -13.1698656 73.49607986 -13.19287109 71.24291992 C-13.20104858 70.54840225 -13.20922607 69.85388458 -13.21765137 69.13832092 C-13.24250069 66.83571231 -13.25902027 64.53316534 -13.2734375 62.23046875 C-13.27876118 61.44419916 -13.28408485 60.65792957 -13.28956985 59.84783363 C-13.31629975 55.68591919 -13.3356749 51.52403471 -13.35009766 47.36206055 C-13.36674332 43.0643331 -13.41151986 38.76737284 -13.4624691 34.46993542 C-13.49613432 31.16448593 -13.50767421 27.8592187 -13.51332474 24.55361366 C-13.52003956 22.96955821 -13.53526785 21.38551486 -13.55921555 19.80162621 C-13.59085686 17.58220393 -13.59090691 15.36485251 -13.58349609 13.14526367 C-13.59158295 11.88332687 -13.5996698 10.62139008 -13.60800171 9.32121277 C-12.83815474 5.11591933 -11.26160521 3.66610588 -8 1 C-5.04206277 -0.47896861 -3.29779776 -0.4355582 0 0 Z " fill="#020202" transform="translate(290,374)"/>
<path d="M0 0 C4.75595882 2.58405072 6.83359009 4.7004762 8.796875 9.71484375 C9.03412292 10.30804916 9.27137085 10.90125458 9.51580811 11.51243591 C10.36713284 13.66660761 11.18419471 15.83213088 12 18 C12.70888188 19.85306656 13.41787345 21.70609115 14.12695312 23.55908203 C16.53258893 29.8819686 18.89274104 36.22145448 21.25 42.5625 C22.47227625 45.84110181 23.69549812 49.119349 24.91912842 52.39744568 C25.67472668 54.42267701 26.42937108 56.44826456 27.18292236 58.47425842 C27.52377869 59.38968918 27.86463501 60.30511993 28.21582031 61.24829102 C28.66166473 62.44736839 28.66166473 62.44736839 29.11651611 63.67066956 C29.74196812 65.31969159 30.40140156 66.95600936 31.08416748 68.58213806 C32.36782786 71.97109128 32.44192373 74.40147821 32 78 C30.21198512 80.97116227 28.14892094 83.42553953 25 85 C20.89836757 85.55931351 19.29403181 85.18659711 15.75 82.9375 C12.15132452 80.06436393 12.46161052 78.11563681 11 73 C1.43 73 -8.14 73 -18 73 C-18.66 75.31 -19.32 77.62 -20 80 C-22.32500304 83.18637464 -25.11703175 84.81604828 -29 85.625 C-32.98412031 84.79497494 -35.64186781 83.28702843 -38 80 C-40.26234376 72.93335765 -38.09084285 67.06180821 -35.40625 60.47265625 C-35.02190796 59.48486679 -34.63756592 58.49707733 -34.24157715 57.47935486 C-33.01252292 54.33291716 -31.75695633 51.19788087 -30.5 48.0625 C-29.6857058 45.99224127 -28.87319007 43.92128209 -28.0625 41.84960938 C-26.47668974 37.80284731 -24.8748808 33.76298037 -23.26171875 29.72705078 C-21.79902727 26.05434609 -20.38349919 22.3701422 -19.01953125 18.65966797 C-18.71317749 17.83631454 -18.40682373 17.01296112 -18.09118652 16.16465759 C-17.53112086 14.65216881 -16.98143417 13.13577306 -16.44494629 11.61476135 C-13.30736502 3.20713043 -8.96987628 -0.74748969 0 0 Z " fill="#030303" transform="translate(233,374)"/>
<path d="M0 0 C1.15805145 -0.00708481 2.31610291 -0.01416962 3.50924683 -0.02146912 C4.78100769 -0.0189917 6.05276855 -0.01651428 7.36306763 -0.01396179 C8.71498903 -0.01830869 10.06690797 -0.02349176 11.41882324 -0.02944946 C15.09244557 -0.04285461 18.76596512 -0.04341636 22.43960714 -0.04088616 C25.50618988 -0.03981727 28.57275175 -0.04469782 31.63933003 -0.04949158 C38.87473236 -0.06059245 46.11008277 -0.06102122 53.3454895 -0.05497742 C60.80896739 -0.0489389 68.27225669 -0.0612441 75.7357024 -0.08254749 C82.14344353 -0.1001648 88.55112466 -0.10616457 94.95888913 -0.10290974 C98.78593706 -0.10109662 102.61285055 -0.1037357 106.43987656 -0.11762428 C110.0399541 -0.13019987 113.63973791 -0.12826132 117.23981094 -0.11521339 C119.18902603 -0.11171994 121.13825007 -0.12302818 123.08743286 -0.13478088 C124.83296951 -0.12425941 124.83296951 -0.12425941 126.61376953 -0.11352539 C128.12750058 -0.113777 128.12750058 -0.113777 129.67181206 -0.1140337 C132.93971252 0.32932463 134.78937793 1.31454358 137.43386841 3.26069641 C139.94637424 7.02945516 139.96402927 8.79219775 139.43386841 13.26069641 C137.42056915 16.73750937 135.31850702 18.96581687 131.43386841 20.26069641 C129.60811622 20.36171393 127.77890952 20.404329 125.95039368 20.41459656 C124.81061569 20.42319702 123.67083771 20.43179749 122.496521 20.44065857 C120.61928848 20.44704849 120.61928848 20.44704849 118.70413208 20.4535675 C116.7282032 20.46583374 116.7282032 20.46583374 114.71235657 20.47834778 C110.34220418 20.50454036 105.97204233 20.51987143 101.60183716 20.53413391 C100.09659634 20.5394945 98.59135558 20.54487201 97.08611488 20.55026627 C90.82466938 20.57188986 84.56322643 20.59062657 78.30175304 20.60188866 C69.33182492 20.61812931 60.36232983 20.65131533 51.39256495 20.7082895 C45.08333333 20.74699707 38.77421751 20.76652221 32.46487027 20.77180922 C28.6974494 20.77546128 24.93049069 20.78746626 21.16319847 20.81991196 C17.61799557 20.85000809 14.0735341 20.85629964 10.52823067 20.8445282 C8.61135031 20.84420262 6.69451561 20.86865757 4.77780151 20.89390564 C-4.62423089 20.825792 -4.62423089 20.825792 -8.32350159 17.84922791 C-10.76898682 15.02655295 -11.4897789 14.11966417 -11.81613159 10.44819641 C-11.53319399 6.840742 -10.72047482 5.13315404 -8.56613159 2.26069641 C-5.16635377 -0.00582214 -3.98839415 0.00811945 0 0 Z " fill="#020202" transform="translate(200.56613159179688,317.7393035888672)"/>
<path d="M0 0 C1.84513184 -0.010952 1.84513184 -0.010952 3.72753906 -0.02212524 C7.08567622 -0.03552048 10.44158022 -0.02217422 13.79949689 0.00453901 C17.32140484 0.02726103 20.84325887 0.018946 24.36521912 0.01504517 C30.27736488 0.01328233 36.18905064 0.03537671 42.10107422 0.07226562 C48.92739371 0.11461666 55.75304021 0.12161502 62.5794645 0.10914171 C69.15924143 0.09773662 75.73878241 0.10906514 82.31852531 0.1314888 C85.11307088 0.14075548 87.90747155 0.14253961 90.70202827 0.13831711 C94.60629287 0.13383634 98.5099224 0.16282335 102.4140625 0.1953125 C103.56903732 0.19035767 104.72401215 0.18540283 105.91398621 0.18029785 C112.08916827 0.26232424 115.98863904 0.51123321 120.64233398 4.74462891 C121.77225453 7.00447 121.94033355 8.54189378 122.07983398 11.05712891 C122.14041992 11.81638672 122.20100586 12.57564453 122.26342773 13.35791016 C121.49297879 16.31856618 120.09237709 17.7898852 117.71954536 19.67333794 C113.24823515 21.97934988 108.11343093 21.4245621 103.19873047 21.37573242 C101.94767517 21.38288773 100.69661987 21.39004303 99.40765381 21.39741516 C95.98781338 21.41140058 92.56949126 21.40302237 89.14977527 21.38332486 C85.56599232 21.36690236 81.98225753 21.37575608 78.39845276 21.38084412 C72.38204489 21.38536051 66.36594838 21.36952235 60.34960938 21.34155273 C53.3989064 21.309488 46.44876443 21.30952348 39.49802154 21.3267675 C32.80346562 21.34264246 26.10911492 21.33589385 19.41456795 21.31883049 C16.56894514 21.3119671 13.72348719 21.31298496 10.87786674 21.32037544 C6.90387529 21.32947356 2.93045831 21.30548149 -1.04345703 21.27807617 C-2.81172096 21.28786499 -2.81172096 21.28786499 -4.6157074 21.29785156 C-12.55849698 21.20458371 -12.55849698 21.20458371 -16.56480408 18.89878845 C-18.87950103 16.11763368 -19.31994063 13.99455959 -19.85766602 10.43212891 C-19.24293625 5.89849691 -18.11375901 4.77815856 -14.65721321 2.00044632 C-10.06970494 -0.50486115 -5.10708971 -0.06771713 0 0 Z " fill="#020202" transform="translate(164.357666015625,158.25537109375)"/>
<path d="M0 0 C5.57894737 3.15789474 5.57894737 3.15789474 7 6 C7.09110781 7.87919548 7.11752837 9.76166792 7.11352539 11.64306641 C7.11344986 12.82413971 7.11337433 14.00521301 7.11329651 15.22207642 C7.10813522 16.50230682 7.10297394 17.78253723 7.09765625 19.1015625 C7.0962413 20.40829926 7.09482635 21.71503601 7.09336853 23.06137085 C7.08954894 26.53676258 7.07972342 30.01211257 7.06866455 33.48748779 C7.05843843 37.03331945 7.05386833 40.57915785 7.04882812 44.125 C7.03810066 51.08335049 7.02103092 58.04167324 7 65 C7.57967529 64.97905273 8.15935059 64.95810547 8.7565918 64.93652344 C11.40004924 64.85303193 14.0432288 64.80123847 16.6875 64.75 C17.59951172 64.71648437 18.51152344 64.68296875 19.45117188 64.6484375 C23.81769795 64.58492439 26.28725121 64.56277514 30.08203125 66.890625 C33.04358954 70.14773595 33.39152746 72.53997465 33.359375 76.9609375 C32.7567698 80.38006698 30.63213933 81.93189052 28 84 C23.51929752 86.24035124 17.43447387 85.2685735 12.4519043 85.29516602 C10.20624427 85.31235651 7.96206567 85.35624 5.71679688 85.40039062 C4.28386497 85.41052001 2.85092057 85.41903535 1.41796875 85.42578125 C0.11625732 85.44036377 -1.1854541 85.45494629 -2.52661133 85.4699707 C-6.59545183 84.91943173 -8.16291612 83.9184822 -11 81 C-13.29992757 77.46557608 -13.27002563 74.37400282 -13.30639648 70.21533203 C-13.31472 69.54163574 -13.32304352 68.86793945 -13.33161926 68.17382812 C-13.35566943 65.95176373 -13.36448498 63.72999315 -13.37109375 61.5078125 C-13.38006376 59.95848505 -13.38918567 58.40915847 -13.39845276 56.85983276 C-13.41493165 53.61340228 -13.42264087 50.36707478 -13.42553711 47.12060547 C-13.43092049 42.96870089 -13.468602 38.81776946 -13.51428127 34.6661396 C-13.5440818 31.46614073 -13.5512613 28.2663754 -13.55226326 25.06624985 C-13.55645952 23.53606585 -13.56887016 22.00588077 -13.58978081 20.47583389 C-13.61676114 18.33098837 -13.61185319 16.18838786 -13.59936523 14.04345703 C-13.60443588 12.82530304 -13.60950653 11.60714905 -13.61473083 10.3520813 C-12.79255352 5.86880985 -11.17910788 4.22179545 -8 1 C-5.13391871 -0.43304064 -3.18699217 -0.30644155 0 0 Z " fill="#030303" transform="translate(67,374)"/>
<path d="M0 0 C0.7514328 -0.0065712 1.5028656 -0.0131424 2.27706909 -0.01991272 C4.76967464 -0.03966028 7.26221986 -0.05131247 9.75488281 -0.0612793 C10.60609962 -0.06535482 11.45731644 -0.06943035 12.3343277 -0.07362938 C16.84104673 -0.0944979 21.34773527 -0.10879533 25.85449219 -0.11816406 C30.50622184 -0.12922077 35.1574721 -0.16360966 39.80903244 -0.20333576 C43.38817219 -0.22950395 46.96719787 -0.23785614 50.54642487 -0.24144554 C52.26080812 -0.24631222 53.97518626 -0.2579286 55.68947601 -0.27648354 C58.09284707 -0.30087652 60.4949801 -0.29990999 62.8984375 -0.29296875 C63.60308136 -0.30577881 64.30772522 -0.31858887 65.03372192 -0.33178711 C70.02527019 -0.27940324 72.86385838 1.04776916 76.70800781 4.17700195 C78.31009642 7.38117916 78.20085996 10.70039627 77.70800781 14.17700195 C75.58352511 17.62012909 74.5594814 18.89317742 70.70800781 20.17700195 C68.19501937 20.29327335 65.70865335 20.35500113 63.19482422 20.36987305 C62.43188553 20.37805054 61.66894684 20.38622803 60.88288879 20.39465332 C58.35845724 20.41946369 55.83408167 20.43601033 53.30957031 20.45043945 C52.44698986 20.45576313 51.58440941 20.46108681 50.69569016 20.46657181 C46.13177123 20.4932819 41.56787948 20.51266535 37.00390625 20.52709961 C33.22664235 20.54045115 29.4499171 20.5683286 25.67285156 20.60913086 C21.11114184 20.65840814 16.54992153 20.68321416 11.987957 20.69032669 C10.25039705 20.69704393 8.51284823 20.71227837 6.77544022 20.7362175 C4.34304015 20.76782595 1.91253185 20.76791344 -0.52001953 20.76049805 C-1.59404778 20.78510605 -1.59404778 20.78510605 -2.68977356 20.81021118 C-6.59504036 20.76152539 -8.1602558 20.28567495 -11.21524048 17.76553345 C-14.44708494 13.73725644 -14.82008967 11.36996055 -14.29199219 6.17700195 C-9.76041151 0.69140429 -6.79317844 0.02562812 0 0 Z " fill="#010101" transform="translate(159.2919921875,211.822998046875)"/>
<path d="M0 0 C4.95321872 3.29297319 9.83923222 8.47501077 11.109375 14.40234375 C12.11159511 22.15562987 10.4815631 27.93610767 6.109375 34.40234375 C2.10215172 39.00404521 -3.21275652 41.84638689 -9.2421875 42.7578125 C-15.90322262 43.1393269 -20.58540513 41.39439039 -25.890625 37.40234375 C-30.42410183 33.28716777 -33.39176489 28.11945992 -34.2109375 22.015625 C-34.48864045 15.97095738 -33.52886458 11.29724547 -29.890625 6.40234375 C-21.3803271 -2.60542459 -11.56747878 -5.76322968 0 0 Z " fill="#E6ECEC" transform="translate(155.890625,396.59765625)"/>
<path d="M0 0 C1.53718437 -0.01441132 1.53718437 -0.01441132 3.10542297 -0.02911377 C4.77256599 -0.03548859 4.77256599 -0.03548859 6.47338867 -0.04199219 C7.61289474 -0.04769226 8.75240082 -0.05339233 9.92643738 -0.05926514 C12.34157378 -0.06872488 14.75672314 -0.07525297 17.171875 -0.07910156 C20.86570812 -0.08879984 24.55898328 -0.11981183 28.25268555 -0.15136719 C30.59708328 -0.15789779 32.941485 -0.16314804 35.28588867 -0.16699219 C36.39124466 -0.17933899 37.49660065 -0.19168579 38.63545227 -0.20440674 C40.18682137 -0.19990509 40.18682137 -0.19990509 41.76953125 -0.1953125 C43.12948967 -0.20078094 43.12948967 -0.20078094 44.516922 -0.20635986 C47.66620039 0.24538327 49.51572598 1.29987147 52.07885742 3.16113281 C54.53814486 6.85006398 54.77191321 9.87754703 54.07885742 14.16113281 C51.95437472 17.60425995 50.93033101 18.87730828 47.07885742 20.16113281 C45.40302152 20.26830746 43.72334893 20.31980947 42.04418945 20.33813477 C40.50711838 20.35738762 40.50711838 20.35738762 38.93899536 20.37702942 C37.27959427 20.38810982 37.27959427 20.38810982 35.58666992 20.39941406 C34.4485788 20.40748581 33.31048767 20.41555756 32.13790894 20.4238739 C29.7287549 20.43770965 27.31958131 20.44843408 24.91040039 20.45629883 C21.22529085 20.47353258 17.54107351 20.51742716 13.85620117 20.56152344 C11.51636402 20.57164857 9.17651925 20.58016523 6.83666992 20.58691406 C5.73445099 20.60442215 4.63223206 20.62193024 3.49661255 20.63996887 C-4.15856192 20.61824692 -4.15856192 20.61824692 -8.09350586 18.25952148 C-10.96870132 14.95838537 -11.25402408 12.59059855 -11.21411133 8.20019531 C-10.75859291 5.02978714 -9.16798601 3.34189261 -6.92114258 1.16113281 C-4.4442681 -0.07730442 -2.77071051 0.02092162 0 0 Z " fill="#020202" transform="translate(63.921142578125,211.8388671875)"/>
<path d="M0 0 C1.53245613 -0.01925285 1.53245613 -0.01925285 3.09587097 -0.03889465 C4.20932388 -0.04628159 5.32277679 -0.05366852 6.4699707 -0.0612793 C7.60852005 -0.06935104 8.7470694 -0.07742279 9.92012024 -0.08573914 C12.33703072 -0.09960204 14.75396095 -0.11031426 17.17089844 -0.11816406 C20.86276642 -0.13534455 24.55373179 -0.17920858 28.24536133 -0.22338867 C30.59105785 -0.23351787 32.93676201 -0.24203326 35.2824707 -0.2487793 C36.38580246 -0.26628738 37.48913422 -0.28379547 38.62590027 -0.30183411 C44.77937712 -0.28448068 48.5659592 -0.0270341 53.20825195 4.17700195 C54.81034056 7.38117916 54.7011041 10.70039627 54.20825195 14.17700195 C52.08376925 17.62012909 51.05972554 18.89317742 47.20825195 20.17700195 C45.53241606 20.2841766 43.85274346 20.33567861 42.17358398 20.35400391 C40.63651291 20.37325676 40.63651291 20.37325676 39.06838989 20.39289856 C37.4089888 20.40397896 37.4089888 20.40397896 35.71606445 20.4152832 C34.57797333 20.42335495 33.4398822 20.4314267 32.26730347 20.43974304 C29.85814944 20.45357879 27.44897584 20.46430322 25.03979492 20.47216797 C21.35468538 20.48940172 17.67046804 20.5332963 13.9855957 20.57739258 C11.64575855 20.58751771 9.30591378 20.59603437 6.96606445 20.6027832 C5.86384552 20.62029129 4.76162659 20.63779938 3.62600708 20.65583801 C-4.02916739 20.63411606 -4.02916739 20.63411606 -7.96411133 18.27539062 C-10.81713263 14.99971361 -11.17884214 12.58175223 -11.1550293 8.21606445 C-10.55140202 4.82796295 -8.37615324 3.25713297 -5.79174805 1.17700195 C-4.15099396 -0.46375213 -2.26240988 0.02465158 0 0 Z " fill="#020202" transform="translate(63.791748046875,158.822998046875)"/>
<path d="M0 0 C3.0432531 1.9874306 4.62073803 3.32041127 5.4375 6.9375 C5.67021319 10.77726765 5.23162678 12.63711804 3.125 15.9375 C0.20157849 18.77493852 -0.63926349 18.96451772 -4.8125 19.375 C-8.23041924 19.31907041 -8.97465048 19.0177986 -11.9375 16.9375 C-14.43209094 13.38459775 -15.07615714 11.34095695 -15 7 C-11.26359549 0.04255712 -7.58786981 -1.12509794 0 0 Z " fill="#050404" transform="translate(201,53)"/>
<path d="M0 0 C2.51242417 3.03794555 3.88228534 5.91438973 5.1875 9.625 C5.53167969 10.58664062 5.87585938 11.54828125 6.23046875 12.5390625 C7 15 7 15 7 17 C2.71 17 -1.58 17 -6 17 C-4.31108451 11.12900806 -2.53630629 5.55571853 0 0 Z " fill="#D9DEDE" transform="translate(229,410)"/>
</svg>
