<?xml version="1.0" encoding="UTF-8"?>
<svg version="1.1" xmlns="http://www.w3.org/2000/svg" width="512" height="512">
<path d="M0 0 C4.83916017 2.83425022 9.33225957 6.6857663 11.1796875 12.12109375 C11.59476562 12.72050781 12.00984375 13.31992188 12.4375 13.9375 C15.51256551 14.4965458 15.51256551 14.4965458 19.0625 14.4375 C26.61536007 14.77799779 31.49395376 15.91649202 36.8125 21.375 C39.39821419 25.45247237 40.4375 28.06428778 40.4375 32.9375 C41.15000916 32.92417633 41.86251831 32.91085266 42.59661865 32.89712524 C49.36209383 32.77613284 56.12740417 32.68516635 62.8936882 32.62662697 C66.37116983 32.59551671 69.84774624 32.55342858 73.32470703 32.48486328 C77.33634346 32.40626326 81.34705241 32.37791535 85.359375 32.3515625 C86.58799255 32.32059479 87.81661011 32.28962708 89.0824585 32.25772095 C97.70217709 32.25441138 104.25538306 34.05521694 111.4375 38.9375 C117.20550918 44.83628662 119.68521423 50.55897157 119.69476891 58.83981037 C119.69827498 59.52528579 119.70178105 60.21076121 119.70539337 60.91700861 C119.71471313 63.21886708 119.70978264 65.52047288 119.70492554 67.82234192 C119.70866151 69.4873771 119.71326282 71.15241053 119.71865618 72.81744117 C119.73090815 77.3969554 119.73062313 81.97639669 119.72826743 86.55592358 C119.72785982 91.49333331 119.73889308 96.43071949 119.74838257 101.36811829 C119.76500555 111.04296696 119.7704927 120.71779127 119.77160732 130.39265303 C119.77255718 138.25574182 119.77666433 146.11882255 119.78300858 153.9819088 C119.80062447 176.26820831 119.80984689 198.55448855 119.80834763 220.84079508 C119.80822776 222.64352119 119.80822776 222.64352119 119.80810547 224.48266602 C119.80802371 225.68594839 119.80794195 226.88923077 119.80785771 228.12897625 C119.80704469 247.63279735 119.82618538 267.13654124 119.8543822 286.64034001 C119.88309654 306.65984213 119.8969233 326.67930658 119.89519465 346.69882983 C119.89453025 357.94103072 119.90004443 369.18315066 119.92155075 380.42533302 C119.93974345 389.99680817 119.9441256 399.56816569 119.9305319 409.13965062 C119.92399263 414.02367646 119.92391968 418.90747652 119.9412384 423.79148102 C119.95693173 428.26307723 119.95414384 432.73426792 119.93667014 437.20585402 C119.93359199 438.82293086 119.93726327 440.44003769 119.94839029 442.05707917 C120.01136966 451.85931637 119.70695946 458.83786786 113.1875 466.625 C105.86274885 472.78444983 100.20187541 475.08584333 90.60215759 475.09140015 C89.6878507 475.0957824 88.7735438 475.10016465 87.83153063 475.1046797 C84.75479115 475.11807946 81.67808033 475.12424926 78.60131836 475.13037109 C76.40037913 475.13827124 74.1994412 475.14654013 71.99850464 475.15515137 C64.75813028 475.18138527 57.51775011 475.19668205 50.27734375 475.2109375 C47.78532978 475.21629693 45.29331585 475.22167444 42.80130196 475.22706985 C32.43425884 475.24870206 22.06721637 475.26758943 11.70015621 475.27869225 C9.01014641 475.28162183 6.32013666 475.2845835 3.63012695 475.28759766 C2.62727388 475.28871673 2.62727388 475.28871673 1.60416115 475.28985842 C-9.21717156 475.30250186 -20.03833958 475.33571148 -30.85959537 475.37739949 C-41.97679592 475.41987536 -53.09392808 475.44298665 -64.21121114 475.44861281 C-70.45019719 475.45226522 -76.68890419 475.46427511 -82.92781258 475.49671555 C-88.80066354 475.52681405 -94.67306688 475.5331013 -100.54597855 475.52133179 C-102.69778678 475.52111119 -104.84961589 475.52940429 -107.00135231 475.54698563 C-129.38867971 475.71990175 -129.38867971 475.71990175 -137.67068577 467.96297264 C-146.26724977 459.0320113 -145.5625 453.10824016 -145.5625 439.9375 C-180.2125 439.9375 -214.8625 439.9375 -250.5625 439.9375 C-250.5625 452.8075 -250.5625 465.6775 -250.5625 478.9375 C-254.83884077 492.83560751 -258.86582757 501.11681734 -271.5625 507.9375 C-277.79490066 510.20557287 -283.68001056 510.2597302 -290.26953125 510.2734375 C-291.39010422 510.2800943 -292.51067719 510.2867511 -293.66520691 510.29360962 C-296.02947353 510.3037066 -298.39376848 510.30842756 -300.75805664 510.30810547 C-304.35286008 510.3124731 -307.94642949 510.34881104 -311.54101562 510.38671875 C-313.84635 510.39258879 -316.15169017 510.39655693 -318.45703125 510.3984375 C-319.52089554 510.41280853 -320.58475983 510.42717957 -321.68086243 510.44198608 C-332.78775912 510.37483309 -340.38019103 506.94940498 -348.36328125 499.3046875 C-355.98478353 491.10108114 -357.88574396 483.00442151 -357.7578125 472.06640625 C-357.7549826 471.144077 -357.75215271 470.22174774 -357.74923706 469.27146912 C-357.73810974 466.34750987 -357.71301912 463.42386549 -357.6875 460.5 C-357.67746057 458.50846799 -357.6683364 456.51693114 -357.66015625 454.52539062 C-357.63819483 449.6626405 -357.60371673 444.8001235 -357.5625 439.9375 C-358.48094948 439.84886436 -358.48094948 439.84886436 -359.41795349 439.75843811 C-360.22418655 439.67581223 -361.03041962 439.59318634 -361.86108398 439.50805664 C-363.05797096 439.38848351 -363.05797096 439.38848351 -364.27903748 439.26649475 C-373.12061962 437.99262488 -381.26945054 431.90913228 -386.5625 424.9375 C-390.33958906 418.58254766 -392.68183512 413.12239186 -392.70967102 405.68370056 C-392.71682632 404.37300598 -392.72398163 403.0623114 -392.73135376 401.7118988 C-392.73419406 400.25576806 -392.73690579 398.79963706 -392.73950195 397.34350586 C-392.74576744 395.8125086 -392.75241432 394.28151287 -392.75941467 392.7505188 C-392.78045412 387.71780455 -392.7908196 382.68509001 -392.80078125 377.65234375 C-392.80482939 375.91812181 -392.80894633 374.18390003 -392.81313133 372.44967842 C-392.8321858 364.29860443 -392.84641411 356.14753949 -392.8547433 347.9964475 C-392.86450541 338.59883688 -392.89079693 329.20146244 -392.93124419 319.80393499 C-392.96145534 312.53413731 -392.97621706 305.26440712 -392.97952431 297.9945479 C-392.98186987 293.65588023 -392.99076501 289.31746479 -393.01598549 284.97886467 C-393.03935774 280.89202855 -393.04346298 276.80560907 -393.03322411 272.7187233 C-393.03273079 271.22484128 -393.03899072 269.73093813 -393.05278015 268.23711967 C-393.16535331 255.31070734 -391.01054131 246.60759862 -381.921875 237.1328125 C-376.04493313 231.66453215 -368.37145337 227.16015305 -360.1484375 226.8449707 C-357.23822201 226.13091364 -357.23822201 226.13091364 -355.7097168 222.88647461 C-355.12399877 221.54604233 -354.55921035 220.19633822 -354.01171875 218.83984375 C-353.55621391 217.77655602 -353.55621391 217.77655602 -353.09150696 216.69178772 C-352.12608776 214.42675556 -351.18793248 212.15153282 -350.25 209.875 C-349.6000717 208.33714376 -348.94839931 206.80002335 -348.29492188 205.26367188 C-346.69708752 201.49651989 -345.1236109 197.72000945 -343.5625 193.9375 C-345.21342651 193.85097168 -345.21342651 193.85097168 -346.89770508 193.76269531 C-348.35499491 193.68059448 -349.81226954 193.59822347 -351.26953125 193.515625 C-351.99338013 193.47840332 -352.717229 193.44118164 -353.4630127 193.40283203 C-360.30930013 193.00481475 -364.9312592 192.04249264 -370.375 187.6875 C-374.55189315 182.43654861 -376.28054257 177.63923066 -375.5625 170.9375 C-373.86272701 165.7487193 -371.83698977 162.35709182 -367.5625 158.9375 C-362.1833471 156.2546858 -357.2898363 155.51345785 -351.34375 155.64453125 C-350.60040405 155.64877609 -349.85705811 155.65302094 -349.09118652 155.65739441 C-346.74790142 155.67400919 -344.40551923 155.71162546 -342.0625 155.75 C-340.46095004 155.76506922 -338.85938642 155.77875368 -337.2578125 155.79101562 C-333.35903417 155.82385574 -329.46091944 155.87551437 -325.5625 155.9375 C-325.39723816 155.40568619 -325.23197632 154.87387238 -325.06170654 154.32594299 C-323.12544537 148.28969824 -320.74353907 142.5532351 -318.140625 136.77734375 C-317.71755066 135.82920303 -317.29447632 134.88106232 -316.85858154 133.90419006 C-315.51384865 130.89267043 -314.16338385 127.88376477 -312.8125 124.875 C-311.4811799 121.89963523 -310.15105734 118.92373784 -308.82125854 115.94769287 C-307.95527316 114.01071778 -307.08819844 112.07422933 -306.22000122 110.13824463 C-304.28052541 105.80911513 -302.35411112 101.47603169 -300.47998047 97.11816406 C-300.16462341 96.38642471 -299.84926636 95.65468536 -299.52435303 94.90077209 C-298.95391259 93.57211684 -298.38748038 92.24172901 -297.82623291 90.90916443 C-293.93054375 81.83622744 -288.34753788 75.46442488 -279.5625 70.9375 C-271.74135744 68.03789424 -264.29436339 67.51659134 -256.02270508 67.59692383 C-254.82140961 67.59648575 -253.62011414 67.59604767 -252.38241577 67.59559631 C-249.12474741 67.59731421 -245.86747813 67.61224071 -242.60988832 67.63331819 C-239.19198519 67.65221753 -235.77407219 67.65384577 -232.35612488 67.65739441 C-225.90008632 67.6666763 -219.44420224 67.6912371 -212.98823136 67.72144288 C-205.63142713 67.75510786 -198.27461508 67.77150314 -190.91775286 67.78652918 C-175.79924954 67.81779069 -160.6808903 67.8704751 -145.5625 67.9375 C-145.58570313 66.91849609 -145.60890625 65.89949219 -145.6328125 64.84960938 C-145.65158222 63.49349696 -145.66978113 62.13737656 -145.6875 60.78125 C-145.71263672 59.77723145 -145.71263672 59.77723145 -145.73828125 58.75292969 C-145.8104778 51.37083248 -143.60336629 46.2900869 -138.6953125 40.87890625 C-130.3411204 33.06107279 -123.07571954 32.50748171 -111.97265625 32.64453125 C-110.67299423 32.64877609 -109.37333221 32.65302094 -108.0342865 32.65739441 C-104.59990741 32.66878051 -101.16591649 32.6981925 -97.73168945 32.73150635 C-94.21896616 32.76234292 -90.70617937 32.77592859 -87.19335938 32.79101562 C-80.31624805 32.82306937 -73.43939273 32.87418885 -66.5625 32.9375 C-66.3464209 31.27025879 -66.3464209 31.27025879 -66.12597656 29.56933594 C-65.24701559 23.90407446 -62.58616591 20.41823116 -58 17.0625 C-53.59221281 15.02813668 -50.02647752 14.9375 -45.1875 14.9375 C-40.4261465 14.70955989 -40.4261465 14.70955989 -36.6953125 12.08203125 C-35.7644475 10.51218264 -34.87535138 8.91689306 -34.02734375 7.30078125 C-27.30911215 -3.53796573 -10.73883058 -4.99290141 0 0 Z " fill="#F2D45B" transform="translate(392.5625,2.0625)"/>
<path d="M0 0 C0.89382069 0.00152028 1.78764137 0.00304056 2.70854753 0.0046069 C5.67969181 0.01332093 8.65020483 0.04365573 11.62120056 0.07402039 C13.76042578 0.08473715 15.89965807 0.09411185 18.03889465 0.10224915 C23.82964112 0.12806372 29.62010882 0.17260214 35.41070867 0.22054696 C41.4684782 0.26750492 47.52633202 0.29718146 53.584198 0.32870483 C65.04814556 0.39097876 76.51193323 0.46875514 87.97574466 0.55212516 C103.47206872 0.66392328 118.96852762 0.75172584 134.46499538 0.84088421 C158.8700035 0.98192918 183.27467743 1.15499217 207.67955017 1.32279968 C207.67955017 35.97279968 207.67955017 70.62279968 207.67955017 106.32279968 C175.66955017 106.32279968 143.65955017 106.32279968 110.67955017 106.32279968 C110.67955017 118.20279968 110.67955017 130.08279968 110.67955017 142.32279968 C142.68955017 142.32279968 174.69955017 142.32279968 207.67955017 142.32279968 C207.67955017 165.75279968 207.67955017 189.18279968 207.67955017 213.32279968 C173.02955017 213.32279968 138.37955017 213.32279968 102.67955017 213.32279968 C102.67955017 226.19279968 102.67955017 239.06279968 102.67955017 252.32279968 C98.4032094 266.22090719 94.3762226 274.50211702 81.67955017 281.32279968 C75.44714951 283.59087256 69.56203961 283.64502988 62.97251892 283.65873718 C61.85194595 283.66539398 60.73137299 283.67205078 59.57684326 283.6789093 C57.21257664 283.68900628 54.84828169 283.69372724 52.48399353 283.69340515 C48.88919009 283.69777278 45.29562069 283.73411072 41.70103455 283.77201843 C39.39570017 283.77788848 37.09036 283.78185661 34.78501892 283.78373718 C33.72115463 283.79810822 32.65729034 283.81247925 31.56118774 283.82728577 C20.45429105 283.76013277 12.86185915 280.33470467 4.87876892 272.68998718 C-2.74273335 264.48638083 -4.64369379 256.38972119 -4.51576233 245.45170593 C-4.51293243 244.52937668 -4.51010254 243.60704742 -4.50718689 242.6567688 C-4.49605957 239.73280955 -4.47096895 236.80916517 -4.44544983 233.88529968 C-4.4354104 231.89376767 -4.42628623 229.90223082 -4.41810608 227.91069031 C-4.39614466 223.04794018 -4.36166656 218.18542318 -4.32044983 213.32279968 C-4.93274948 213.26370926 -5.54504913 213.20461884 -6.17590332 213.14373779 C-6.98213638 213.06111191 -7.78836945 212.97848602 -8.61903381 212.89335632 C-9.81592079 212.77378319 -9.81592079 212.77378319 -11.0369873 212.65179443 C-19.87856945 211.37792456 -28.02740037 205.29443196 -33.32044983 198.32279968 C-37.09753888 191.96784735 -39.43978495 186.50769155 -39.46762085 179.06900024 C-39.47477615 177.75830566 -39.48193146 176.44761108 -39.48930359 175.09719849 C-39.49214389 173.64106774 -39.49485562 172.18493674 -39.49745178 170.72880554 C-39.50371727 169.19780829 -39.51036415 167.66681255 -39.5173645 166.13581848 C-39.53840395 161.10310423 -39.54876943 156.07038969 -39.55873108 151.03764343 C-39.56277922 149.30342149 -39.56689616 147.56919972 -39.57108116 145.8349781 C-39.59013563 137.68390411 -39.60436394 129.53283917 -39.61269313 121.38174719 C-39.62245524 111.98413656 -39.64874676 102.58676212 -39.68919402 93.18923467 C-39.71940517 85.91943699 -39.73416689 78.6497068 -39.73747414 71.37984759 C-39.7398197 67.04117991 -39.74871484 62.70276447 -39.77393532 58.36416435 C-39.79730757 54.27732823 -39.80141281 50.19090875 -39.79117393 46.10402298 C-39.79068061 44.61014096 -39.79694055 43.11623781 -39.81072998 41.62241936 C-39.92330314 28.69600703 -37.76849114 19.9928983 -28.67982483 10.51811218 C-20.45384534 2.86413789 -11.11556646 -0.17159305 0 0 Z " fill="#E54C3C" transform="translate(39.32044982910156,228.6772003173828)"/>
<path d="M0 0 C1.22052472 -0.0003616 2.44104944 -0.00072321 3.69855976 -0.00109577 C7.61277013 0.00112669 11.52654106 0.02389593 15.44067383 0.04760742 C17.87186477 0.05202343 20.30305856 0.05508079 22.73425293 0.0567627 C31.70544741 0.07243155 40.67658065 0.11431537 49.64770508 0.15307617 C69.71583008 0.21495117 89.78395508 0.27682617 110.46020508 0.34057617 C110.46020508 52.81057617 110.46020508 105.28057617 110.46020508 159.34057617 C40.50020508 159.34057617 -29.45979492 159.34057617 -101.53979492 159.34057617 C-98.43336891 151.26386854 -95.32268164 143.37092474 -91.72729492 135.52807617 C-91.3205957 134.63282227 -90.91389648 133.73756836 -90.49487305 132.81518555 C-89.51317064 130.65544025 -88.52816186 128.49727747 -87.53979492 126.34057617 C-88.60198242 126.30319336 -89.66416992 126.26581055 -90.75854492 126.22729492 C-107.58655609 125.50316724 -107.58655609 125.50316724 -114.35229492 120.09057617 C-118.52918807 114.83962478 -120.25783749 110.04230683 -119.53979492 103.34057617 C-117.84002193 98.15179547 -115.81428469 94.76016799 -111.53979492 91.34057617 C-106.16064203 88.65776197 -101.26713122 87.91653402 -95.32104492 88.04760742 C-94.57769897 88.05185226 -93.83435303 88.05609711 -93.06848145 88.06047058 C-90.72519635 88.07708536 -88.38281415 88.11470163 -86.03979492 88.15307617 C-84.43824496 88.16814539 -82.83668134 88.18182985 -81.23510742 88.1940918 C-77.33632909 88.22693191 -73.43821436 88.27859054 -69.53979492 88.34057617 C-69.29190216 87.54285545 -69.29190216 87.54285545 -69.03900146 86.72901917 C-67.10274029 80.69277441 -64.72083399 74.95631127 -62.11791992 69.18041992 C-61.69484558 68.23227921 -61.27177124 67.28413849 -60.83587646 66.30726624 C-59.49114357 63.2957466 -58.14067877 60.28684094 -56.78979492 57.27807617 C-55.45847482 54.3027114 -54.12835226 51.32681401 -52.79855347 48.35076904 C-51.93256808 46.41379396 -51.06549336 44.4773055 -50.19729614 42.5413208 C-48.25782033 38.2121913 -46.33140604 33.87910786 -44.45727539 29.52124023 C-43.98423981 28.42363121 -43.98423981 28.42363121 -43.50164795 27.30384827 C-42.93120751 25.97519301 -42.3647753 24.64480518 -41.80352783 23.3122406 C-37.90783867 14.23930361 -32.32483281 7.86750105 -23.53979492 3.34057617 C-15.71865132 0.44097003 -8.27158431 -0.08024068 0 0 Z " fill="#B0D3EF" transform="translate(136.539794921875,69.659423828125)"/>
<path d="M0 0 C81.51 0 163.02 0 247 0 C247 23.43 247 46.86 247 71 C212.35 71 177.7 71 142 71 C142 83.87 142 96.74 142 110 C137.72365923 123.89810751 133.69667243 132.17931734 121 139 C114.76759934 141.26807287 108.88248944 141.3222302 102.29296875 141.3359375 C100.6121093 141.3459227 100.6121093 141.3459227 98.89729309 141.35610962 C96.53302647 141.3662066 94.16873152 141.37092756 91.80444336 141.37060547 C88.20963992 141.3749731 84.61607051 141.41131104 81.02148438 141.44921875 C78.71615 141.45508879 76.41080983 141.45905693 74.10546875 141.4609375 C73.04160446 141.47530853 71.97774017 141.48967957 70.88163757 141.50448608 C59.77474088 141.43733309 52.18230897 138.01190498 44.19921875 130.3671875 C36.57771647 122.16358114 34.67675604 114.06692151 34.8046875 103.12890625 C34.8075174 102.206577 34.81034729 101.28424774 34.81326294 100.33396912 C34.82439026 97.41000987 34.84948088 94.48636549 34.875 91.5625 C34.88503943 89.57096799 34.8941636 87.57943114 34.90234375 85.58789062 C34.92430517 80.7251405 34.95878327 75.8626235 35 71 C34.38770035 70.94090958 33.7754007 70.88181915 33.14454651 70.82093811 C32.33831345 70.73831223 31.53208038 70.65568634 30.70141602 70.57055664 C29.90349136 70.49084122 29.10556671 70.41112579 28.28346252 70.32899475 C19.44188038 69.05512488 11.29304946 62.97163228 6 56 C-5.07319238 37.36935381 0 27.61984787 0 0 Z " fill="#C03A2B" transform="translate(0,371)"/>
<path d="M0 0 C13.80340887 -0.02333058 27.6068147 -0.04091354 41.41023922 -0.05181217 C47.81899128 -0.05704166 54.22773015 -0.0641405 60.63647461 -0.07543945 C66.81559441 -0.08626599 72.99470148 -0.09227634 79.17383003 -0.09487724 C81.5370561 -0.09673192 83.90028144 -0.10035332 86.26350212 -0.10573006 C89.56101896 -0.11293738 92.85848247 -0.11399107 96.15600586 -0.11352539 C97.14358887 -0.11712067 98.13117188 -0.12071594 99.14868164 -0.12442017 C100.04195663 -0.1230455 100.93523163 -0.12167084 101.85557556 -0.12025452 C102.63633422 -0.12117631 103.41709288 -0.1220981 104.22151089 -0.12304783 C106 0 106 0 107 1 C107.13868728 3.73242629 107.21325699 6.4375951 107.23828125 9.171875 C107.246353 10.00527405 107.25442474 10.8386731 107.26274109 11.69732666 C107.2766126 13.47283841 107.28732094 15.24837718 107.29516602 17.02392578 C107.3121661 19.69748787 107.35599394 22.36974278 107.40039062 25.04296875 C107.51788187 37.85745657 106.80930966 49.7948924 98.0546875 59.99609375 C88.58659636 69.23018263 80.12002925 71.30925508 67.29296875 71.3359375 C65.6121093 71.3459227 65.6121093 71.3459227 63.89729309 71.35610962 C61.53302647 71.3662066 59.16873152 71.37092756 56.80444336 71.37060547 C53.20963992 71.3749731 49.61607051 71.41131104 46.02148438 71.44921875 C43.71615 71.45508879 41.41080983 71.45905693 39.10546875 71.4609375 C38.04160446 71.47530853 36.97774017 71.48967957 35.88163757 71.50448608 C24.77474088 71.43733309 17.18230897 68.01190498 9.19921875 60.3671875 C1.50591528 52.08629602 -0.32121777 43.94173065 -0.1953125 32.91015625 C-0.1924826 31.96563095 -0.18965271 31.02110565 -0.18673706 30.04795837 C-0.17560684 27.05267276 -0.1505156 24.05769414 -0.125 21.0625 C-0.11496095 19.0227908 -0.10583672 16.98307688 -0.09765625 14.94335938 C-0.07569096 9.9621226 -0.04121076 4.98111322 0 0 Z " fill="#2C3D4F" transform="translate(35,441)"/>
<path d="M0 0 C4.83916017 2.83425022 9.33225957 6.6857663 11.1796875 12.12109375 C11.59476562 12.72050781 12.00984375 13.31992188 12.4375 13.9375 C15.51256551 14.4965458 15.51256551 14.4965458 19.0625 14.4375 C26.61536007 14.77799779 31.49395376 15.91649202 36.8125 21.375 C40.14535367 26.63065386 40.84011671 30.20348506 40.03125 36.37109375 C38.92915664 41.13474729 37.04053125 45.30316341 32.79458809 47.96901703 C27.93420237 50.56469103 23.81250159 51.51817424 18.28076172 51.45507812 C17.12303757 51.46559204 17.12303757 51.46559204 15.94192505 51.47631836 C13.4166355 51.4937779 10.89248638 51.48232178 8.3671875 51.46875 C6.59937324 51.47144785 4.83156043 51.4753327 3.06375122 51.48034668 C-0.62968157 51.48622491 -4.32272585 51.47773107 -8.01611328 51.45898438 C-12.74175385 51.43616208 -17.46648724 51.44934896 -22.1920948 51.47327423 C-25.83819377 51.48774913 -29.48407865 51.48311908 -33.13018417 51.47276306 C-34.87244653 51.47010218 -36.61472856 51.473343 -38.35696793 51.48268127 C-40.79335084 51.49287886 -43.22827604 51.47730417 -45.66455078 51.45507812 C-46.37846985 51.46317505 -47.09238892 51.47127197 -47.82794189 51.47961426 C-54.34758451 51.36982791 -57.83652949 48.66347051 -62.3125 44.1875 C-65.69478005 39.30198437 -66.60352734 35.27605832 -66.5 29.375 C-65.038205 24.01508501 -62.4822909 20.34222505 -58 17.0625 C-53.59221281 15.02813668 -50.02647752 14.9375 -45.1875 14.9375 C-40.4261465 14.70955989 -40.4261465 14.70955989 -36.6953125 12.08203125 C-35.7644475 10.51218264 -34.87535138 8.91689306 -34.02734375 7.30078125 C-27.30911215 -3.53796573 -10.73883058 -4.99290141 0 0 Z " fill="#54757F" transform="translate(392.5625,2.0625)"/>
<path d="M0 0 C32.01 0 64.02 0 97 0 C97 11.55 97 23.1 97 35 C64.99 35 32.98 35 0 35 C0 23.45 0 11.9 0 0 Z " fill="#EBEEEF" transform="translate(150,336)"/>
<path d="M0 0 C1.23070221 -0.0010952 1.23070221 -0.0010952 2.48626709 -0.00221252 C5.17057806 0.00124251 7.85310548 0.04000201 10.53710938 0.0793457 C12.4089666 0.08868131 14.28083611 0.09579389 16.15270996 0.1007843 C21.05861661 0.11979532 25.96377283 0.16884476 30.86938477 0.2243042 C35.88352306 0.27562442 40.89778365 0.29832554 45.91210938 0.32348633 C55.73540733 0.37696993 65.55795329 0.46485704 75.38085938 0.56762695 C75.38085938 12.11762695 75.38085938 23.66762695 75.38085938 35.56762695 C43.37085938 35.56762695 11.36085938 35.56762695 -21.61914062 35.56762695 C-21.61914062 13.56762695 -21.61914062 13.56762695 -16.61914062 5.56762695 C-11.71524616 0.86700779 -6.5875605 -0.15649599 0 0 Z " fill="#802F34" transform="translate(171.619140625,299.432373046875)"/>
<path d="M0 0 C4.01814341 1.57855634 5.56656322 2.50812644 7.5 6.375 C7.5754112 10.59802724 7.20704163 12.60159345 4.3359375 15.7421875 C1.29761893 18.56288546 -1.78433523 21.30896761 -4.9375 24 C-5.85112305 24.78213867 -5.85112305 24.78213867 -6.78320312 25.58007812 C-11.50352813 29.59211182 -16.34271967 33.42869505 -21.23901367 37.22241211 C-26.13208691 41.03406757 -30.83612107 45.03986414 -35.5246582 49.09887695 C-39.63325882 52.65061514 -43.81783229 56.0838739 -48.078125 59.453125 C-52.59661741 63.03876736 -57.04068708 66.71623694 -61.5 70.375 C-64.25043449 72.62606482 -67.00155923 74.87627393 -69.75390625 77.125 C-71.57840999 78.61989923 -73.39876557 80.11987621 -75.21484375 81.625 C-77.96121164 83.89459527 -80.72727768 86.13769992 -83.5 88.375 C-84.00740723 88.79410645 -84.51481445 89.21321289 -85.03759766 89.64501953 C-86.59521902 90.92654563 -88.17003505 92.18367803 -89.75 93.4375 C-91.14992188 94.56865234 -91.14992188 94.56865234 -92.578125 95.72265625 C-96.16581949 97.75152626 -98.43778124 97.82367737 -102.5 97.375 C-104.86497439 95.50791495 -106.16030715 94.05438569 -107.5 91.375 C-107.90720927 87.71011661 -107.91748975 85.9683244 -105.765625 82.91015625 C-103.61509445 80.50378672 -101.48856581 78.59188435 -98.9375 76.625 C-95.27965165 73.76630034 -91.65083387 70.88322394 -88.0625 67.9375 C-86.68771484 66.81021484 -86.68771484 66.81021484 -85.28515625 65.66015625 C-84.36605469 64.90605469 -83.44695312 64.15195313 -82.5 63.375 C-80.66689838 61.87471683 -78.83356573 60.37471592 -77 58.875 C-76.0925 58.1325 -75.185 57.39 -74.25 56.625 C-33 22.875 -33 22.875 -30.24609375 20.625 C-28.42159001 19.13010077 -26.60123443 17.63012379 -24.78515625 16.125 C-22.97409908 14.62834444 -21.15507202 13.14127966 -19.328125 11.6640625 C-17.86930445 10.48330443 -16.41182571 9.30046499 -14.97851562 8.08886719 C-5.01038013 -0.33464505 -5.01038013 -0.33464505 0 0 Z " fill="#FDFEFE" transform="translate(213.5,96.625)"/>
<path d="M0 0 C6.34534077 5.13080289 11.2024167 11.02596583 12.3828125 19.30078125 C12.87519701 27.53216572 10.72428698 33.87959678 6 40.6171875 C3.53667095 43.05220243 1.01350067 44.92133085 -2 46.6171875 C-2.59039062 46.98972656 -3.18078125 47.36226563 -3.7890625 47.74609375 C-9.78399393 50.10805437 -19.29483162 49.51761384 -25.4375 47.6171875 C-31.86596627 44.60603228 -36.60807427 39.19950918 -39.5 32.8046875 C-42.02934114 25.39814146 -42.22029052 18.57190527 -39 11.3671875 C-35.25985053 4.74027478 -29.69995308 -0.63408211 -22.328125 -2.94140625 C-14.37925205 -4.44849122 -6.9234024 -4.5053023 0 0 Z " fill="#F8E8AE" transform="translate(85,277.3828125)"/>
<path d="M0 0 C1.07549103 -0.0071553 2.15098206 -0.01431061 3.25906372 -0.02168274 C6.80652614 -0.03856225 10.35272369 -0.01917122 13.90014648 0.00219727 C16.36824142 0.00136857 18.8363363 -0.00109084 21.3044281 -0.00511169 C26.47346638 -0.00796913 31.64207123 0.00672823 36.81103516 0.03417969 C43.43798504 0.06827941 50.06416075 0.06223735 56.6911478 0.04351711 C61.78609169 0.0329516 66.88085527 0.04188074 71.97578239 0.05690193 C74.41942751 0.06208624 76.86309144 0.06159895 79.30673409 0.05535698 C82.72052681 0.04990978 86.13320881 0.07026534 89.546875 0.09765625 C90.55740433 0.09113037 91.56793365 0.08460449 92.60908508 0.07788086 C96.9982669 0.13779455 99.5096703 0.20129656 103.31260681 2.53944397 C105.81258172 5.29721213 106.17175493 6.23166227 106.52124023 10.00610352 C106.20874023 13.63110352 106.20874023 13.63110352 104.33374023 16.00610352 C101.24658982 18.3668656 99.57398003 18.7589407 95.74992371 18.78500366 C94.81201492 18.79360413 93.87410614 18.80220459 92.90777588 18.81106567 C91.35942047 18.8174556 91.35942047 18.8174556 89.77978516 18.82397461 C88.15279442 18.83624084 88.15279442 18.83624084 86.49293518 18.84875488 C82.8916988 18.87363482 79.29050186 18.89013069 75.68920898 18.90454102 C74.46163691 18.90986469 73.23406483 18.91518837 71.96929359 18.92067337 C66.14352106 18.94465547 60.31776486 18.96389642 54.49195689 18.97669542 C47.76845296 18.99175979 41.04543433 19.02685439 34.32211608 19.07869661 C28.49794989 19.12207353 22.67394683 19.13804152 16.84963417 19.14442825 C14.37245247 19.15115714 11.89527892 19.16642132 9.41820335 19.19031906 C5.95368595 19.22183873 2.49050128 19.22202662 -0.97412109 19.21459961 C-2.00028534 19.23100494 -3.02644958 19.24741028 -4.08370972 19.26431274 C-8.85008183 19.22241681 -11.04819844 19.20222583 -14.92362976 16.22354126 C-16.70955923 13.74451118 -17.49691374 12.6325611 -17.47875977 9.63110352 C-17.50325195 8.99172852 -17.52774414 8.35235352 -17.55297852 7.69360352 C-14.61339474 -0.26588487 -7.17954171 -0.0832367 0 0 Z " fill="#394C5D" transform="translate(290.791259765625,184.368896484375)"/>
<path d="M0 0 C1.08349228 -0.0087616 2.16698456 -0.01752319 3.28330994 -0.02655029 C6.86384159 -0.04855112 10.44313748 -0.03398674 14.02368164 -0.01708984 C16.51323178 -0.02045799 19.00278032 -0.02531059 21.49232483 -0.03158569 C27.37839859 -0.03990232 33.26402445 -0.02240875 39.15003258 0.00416815 C43.83913548 0.02293276 48.52771351 0.01630879 53.21679688 -0.00488281 C59.6871467 -0.03387195 66.15698962 -0.03840711 72.62738228 -0.02210617 C75.09253623 -0.01877193 77.5577118 -0.02285979 80.0228405 -0.03450394 C83.47023471 -0.04721292 86.91600768 -0.02783116 90.36328125 0 C91.38113708 -0.01012115 92.39899292 -0.02024231 93.44769287 -0.03067017 C97.94578611 0.03655335 101.25142781 0.14495812 104.88746643 2.96865845 C107.24633789 5.64697266 107.24633789 5.64697266 107.87133789 9.14697266 C107.1619711 13.11942667 106.07402082 14.81928973 103.24633789 17.64697266 C100.88881779 18.82573271 99.46173465 18.78275908 96.83221436 18.8008728 C95.90416489 18.80947327 94.97611542 18.81807373 94.01994324 18.82693481 C92.4879705 18.83332474 92.4879705 18.83332474 90.92504883 18.83984375 C89.8517482 18.84802124 88.77844757 18.85619873 87.67262268 18.86462402 C84.10865848 18.88950563 80.54473419 18.90600118 76.98071289 18.92041016 C75.76542152 18.92573383 74.55013016 18.93105751 73.29801178 18.93654251 C66.86559174 18.96328612 60.43319118 18.98265717 54.00073242 18.99707031 C47.35136724 19.01372088 40.7025095 19.05849933 34.05331039 19.10944176 C28.94551005 19.14307308 23.83782787 19.15464331 18.72992706 19.16029739 C16.27869125 19.1670212 13.82746351 19.18227233 11.37633514 19.2061882 C7.94554614 19.23775256 4.51610074 19.23788887 1.08520508 19.23046875 C0.07198685 19.24687408 -0.94123138 19.26327942 -1.9851532 19.28018188 C-6.53327398 19.23990476 -9.74976111 19.15401348 -13.38348389 16.2394104 C-16.56057924 12.76438822 -16.56057924 12.76438822 -16.44116211 9.64697266 C-16.4450293 9.00759766 -16.44889648 8.36822266 -16.45288086 7.70947266 C-13.7140139 -0.36941984 -7.21058204 -0.07155686 0 0 Z " fill="#394C5D" transform="translate(289.753662109375,96.35302734375)"/>
<path d="M0 0 C1.08670486 -0.00394272 2.17340973 -0.00788544 3.29304504 -0.01194763 C6.88325161 -0.01865771 10.47218548 0.01050548 14.06225586 0.04077148 C16.55659234 0.04502151 19.05093277 0.04735015 21.54527283 0.0478363 C27.44084596 0.05479242 33.3359504 0.08542511 39.23137802 0.12618631 C44.60099152 0.16161938 49.9704002 0.17198714 55.34011847 0.17492443 C61.15525995 0.1781791 66.97029778 0.19329054 72.78539848 0.21491814 C75.25777959 0.2238065 77.73016943 0.23053351 80.20256233 0.23507881 C83.65472233 0.24410688 87.10652916 0.26648527 90.55859375 0.29296875 C92.09616333 0.29396576 92.09616333 0.29396576 93.66479492 0.29498291 C94.60545303 0.30495804 95.54611115 0.31493317 96.51527405 0.32521057 C97.3310193 0.32986108 98.14676455 0.33451159 98.98722935 0.33930302 C101.51074874 0.63394287 103.07716903 1.23334908 105.21459961 2.59936523 C107.70619001 6.33675083 107.67253245 8.17268106 107.21459961 12.59936523 C105.07780676 15.98876079 104.03712291 17.3251908 100.21459961 18.59936523 C98.71588832 18.69639858 97.21328417 18.7385329 95.7114563 18.74653625 C94.78900116 18.75369156 93.86654602 18.76084686 92.9161377 18.76821899 C91.90619751 18.7709079 90.89625732 18.7735968 89.85571289 18.77636719 C88.25776382 18.78622398 88.25776382 18.78622398 86.62753296 18.79627991 C83.09665866 18.81601681 79.56582685 18.82767505 76.03491211 18.83764648 C74.22802729 18.84375978 74.22802729 18.84375978 72.38463974 18.84999657 C66.01171795 18.87085674 59.6388177 18.88515998 53.26586914 18.89453125 C46.67591995 18.90560902 40.08630719 18.94002523 33.49647713 18.97970295 C28.43504191 19.00581241 23.37368765 19.01421795 18.31219101 19.01781273 C15.88247271 19.02269159 13.45275833 19.03434227 11.02310562 19.05285072 C7.62588837 19.07712577 4.22955231 19.07629829 0.83227539 19.06933594 C-0.17361633 19.082146 -1.17950806 19.09495605 -2.21588135 19.1081543 C-6.60117619 19.07534441 -9.08441477 19.02983705 -12.88650513 16.69499207 C-15.34895559 13.97742393 -15.74139363 12.98809165 -16.16040039 9.28686523 C-15.78540039 5.59936523 -15.78540039 5.59936523 -13.93605042 2.90635681 C-9.36188328 -0.44297268 -5.53556462 -0.08026822 0 0 Z " fill="#394C5D" transform="translate(289.785400390625,361.400634765625)"/>
<path d="M0 0 C1.09485214 -0.0087616 2.18970428 -0.01752319 3.31773376 -0.02655029 C6.93553334 -0.0485505 10.55210994 -0.03398793 14.16992188 -0.01708984 C16.68428787 -0.02045776 19.19865228 -0.02531017 21.7130127 -0.03158569 C26.98214184 -0.03895789 32.25095312 -0.02871671 37.52001953 -0.00488281 C43.6056932 0.02232758 49.69052927 0.01351277 55.77618265 -0.01401484 C61.63835611 -0.03946688 67.50021201 -0.03673747 73.3624115 -0.02210617 C75.85351173 -0.01876942 78.34463332 -0.02286861 80.83570862 -0.03450394 C84.31683064 -0.04719503 87.7963418 -0.02785685 91.27734375 0 C92.3081456 -0.01012115 93.33894745 -0.02024231 94.40098572 -0.03067017 C99.11073814 0.03919525 101.40481329 0.10432502 105.27844238 2.96865845 C107.74723834 6.52317219 107.89625579 8.40450273 107.13867188 12.64697266 C105.0982896 15.58466657 103.48049213 17.37153689 99.88890076 18.10878372 C97.0075536 18.30005107 94.16500332 18.32229843 91.27734375 18.29394531 C90.18249161 18.30270691 89.08763947 18.31146851 87.95960999 18.32049561 C84.34181041 18.34249581 80.72523381 18.32793324 77.10742188 18.31103516 C74.59305588 18.31440307 72.07869147 18.31925548 69.56433105 18.32553101 C64.29520191 18.3329032 59.02639063 18.32266202 53.75732422 18.29882812 C47.67165055 18.27161773 41.58681448 18.28043254 35.5011611 18.30796015 C29.63898764 18.33341219 23.77713174 18.33068278 17.91493225 18.31605148 C15.42383202 18.31271473 12.93271043 18.31681393 10.44163513 18.32844925 C6.96051311 18.34114035 3.48100195 18.32180217 0 18.29394531 C-1.03080185 18.30406647 -2.0616037 18.31418762 -3.12364197 18.32461548 C-7.83339439 18.25475006 -10.12746954 18.1896203 -14.00109863 15.32528687 C-16.46989459 11.77077312 -16.61891204 9.88944259 -15.86132812 5.64697266 C-11.577533 -0.52073375 -6.89170226 -0.0676677 0 0 Z " fill="#35495D" transform="translate(289.861328125,273.35302734375)"/>
<path d="M0 0 C3.76224609 1.11473958 5.25775121 1.69709188 7.375 5 C8.14903846 10.41826923 8.14903846 10.41826923 7.375 13 C3.55606809 17.38226094 -1.06873654 20.95791466 -5.5625 24.625 C-6.31031738 25.23819092 -7.05813477 25.85138184 -7.82861328 26.4831543 C-13.07472871 30.77102682 -18.36214118 35.00353344 -23.72509766 39.14453125 C-26.4362149 41.24366347 -29.04756329 43.37297959 -31.62109375 45.64453125 C-40.60183493 53.55406058 -40.60183493 53.55406058 -46.359375 53.66796875 C-52.58143683 51.83353328 -57.43680906 45.85184068 -61.25 40.8125 C-62.88676795 37.46456556 -63.32815598 35.67203678 -62.625 32 C-60.5625 29.125 -60.5625 29.125 -57.625 27 C-53.2281656 26.2933659 -51.38772533 26.48069765 -47.6875 29 C-46.6665625 29.99 -46.6665625 29.99 -45.625 31 C-40.37222968 29.43338429 -36.77955086 26.04543055 -32.6875 22.5625 C-31.17289967 21.29434811 -29.65725868 20.02743817 -28.140625 18.76171875 C-27.00657227 17.81304932 -27.00657227 17.81304932 -25.84960938 16.84521484 C-22.58522235 14.13755054 -19.2718347 11.49577707 -15.9375 8.875 C-15.11100952 8.22059937 -15.11100952 8.22059937 -14.26782227 7.55297852 C-4.63493103 0 -4.63493103 0 0 0 Z " fill="#51BA6E" transform="translate(477.625,97)"/>
<path d="M0 0 C2.9375 1.5 2.9375 1.5 5 4 C5.84158416 9.21782178 5.84158416 9.21782178 5 12 C1.75663993 16.44854305 -1.91650713 19.75686913 -6.3125 23.0625 C-7.5583406 24.01946932 -8.80308875 24.97786213 -10.046875 25.9375 C-10.69333984 26.43507813 -11.33980469 26.93265625 -12.00585938 27.4453125 C-14.71637183 29.5585034 -17.37825979 31.72822554 -20.03759766 33.90527344 C-22.05249094 35.55430836 -24.07623838 37.19192679 -26.1015625 38.828125 C-28.62503442 40.8693334 -31.1151207 42.94235919 -33.5859375 45.046875 C-42.60504979 52.60206421 -42.60504979 52.60206421 -47.5625 53.375 C-54.40912282 52.61001421 -59.81418153 44.90610541 -64 40 C-65.42662219 37.14675563 -65.31033868 35.16545451 -65 32 C-62.94170825 28.29507485 -61.6884319 27.21672856 -57.625 25.9375 C-53.200932 26.01377703 -51.48049869 27.38962598 -48 30 C-44.594426 30 -44.19532698 29.63793578 -41.69921875 27.54296875 C-40.73822266 26.74741577 -40.73822266 26.74741577 -39.7578125 25.93579102 C-39.07460938 25.35885498 -38.39140625 24.78191895 -37.6875 24.1875 C-36.24428436 22.99122802 -34.80025856 21.79593282 -33.35546875 20.6015625 C-32.62763184 19.99731445 -31.89979492 19.39306641 -31.14990234 18.77050781 C-26.84997779 15.22939348 -22.45938285 11.80496442 -18.05859375 8.390625 C-16.21575234 6.95024321 -14.3894749 5.48775455 -12.59765625 3.984375 C-8.38320204 0.522213 -5.67910637 -1.0715295 0 0 Z " fill="#51BA6E" transform="translate(480,274)"/>
<path d="M0 0 C2.09375 0.375 2.09375 0.375 4.65625 1.875 C6.27333038 4.6873137 6.61349706 7.04751583 6.72265625 10.27734375 C5.15856926 15.49420533 -0.77454294 19.08189109 -4.84375 22.5 C-5.40658691 22.97445557 -5.96942383 23.44891113 -6.54931641 23.93774414 C-11.69531837 28.24835618 -16.96132572 32.39634957 -22.2578125 36.51953125 C-26.91812226 40.15201927 -31.51541667 43.86336178 -36.10888672 47.57983398 C-41.85820131 52.20731221 -41.85820131 52.20731221 -46.03125 52.875 C-51.59055986 52.1576697 -54.0501228 49.22304308 -57.90625 45.375 C-58.875625 44.570625 -59.845 43.76625 -60.84375 42.9375 C-63.19847708 40.01192999 -63.93055252 38.09271489 -64.15625 34.3828125 C-63.6482139 30.30264756 -62.15908612 28.91221218 -58.90625 26.375 C-55.72252539 26.01877906 -52.93238737 26.32661908 -49.90625 27.375 C-49.40351563 27.91253906 -48.90078125 28.45007813 -48.3828125 29.00390625 C-47.65191406 29.68259766 -47.65191406 29.68259766 -46.90625 30.375 C-43.6429965 29.95364584 -41.76295047 28.70208338 -39.2890625 26.6015625 C-38.60618164 26.02905762 -37.92330078 25.45655273 -37.21972656 24.86669922 C-36.4975293 24.25068848 -35.77533203 23.63467773 -35.03125 23 C-33.5089155 21.72264264 -31.98546068 20.44661937 -30.4609375 19.171875 C-29.6987793 18.53314453 -28.93662109 17.89441406 -28.15136719 17.23632812 C-24.86685349 14.51328197 -21.52058027 11.87339288 -18.15625 9.25 C-17.59695801 8.81381348 -17.03766602 8.37762695 -16.46142578 7.92822266 C-15.93274902 7.51620605 -15.40407227 7.10418945 -14.859375 6.6796875 C-12.96704419 5.20286848 -11.1094468 3.67973843 -9.30078125 2.1015625 C-6.03215409 -0.25526165 -3.9072997 -0.20838932 0 0 Z " fill="#51BA6E" transform="translate(478.90625,185.625)"/>
<path d="M0 0 C1.88671875 0.703125 1.88671875 0.703125 3.94921875 2.265625 C5.40965163 6.0627505 6.22455756 8.83008164 4.88671875 12.703125 C1.66737625 16.55483835 -2.18326438 19.60959931 -6.11328125 22.703125 C-6.65355957 23.13496094 -7.19383789 23.56679688 -7.75048828 24.01171875 C-10.59995372 26.28791396 -13.46972635 28.53564417 -16.35546875 30.765625 C-19.73331201 33.38627287 -23.04080444 36.08588904 -26.34130859 38.80297852 C-36.51395229 47.16103609 -36.51395229 47.16103609 -41.17578125 50.578125 C-42.09037109 51.25488281 -42.09037109 51.25488281 -43.0234375 51.9453125 C-46.4267011 53.17939313 -48.65049935 52.65492708 -52.11328125 51.703125 C-54.53780099 49.98594871 -56.48458141 47.9494042 -58.48828125 45.765625 C-59.02066406 45.21455078 -59.55304688 44.66347656 -60.1015625 44.09570312 C-64.93585186 39.03384544 -64.93585186 39.03384544 -65.48828125 34.890625 C-65.11328125 31.703125 -65.11328125 31.703125 -63.11328125 28.828125 C-58.9676511 25.89163698 -57.11999836 25.9878797 -52.11328125 26.703125 C-49.61328125 28.703125 -49.61328125 28.703125 -48.11328125 30.703125 C-43.67422388 29.26144949 -40.61018882 26.81537892 -37.17578125 23.765625 C-31.92485553 19.21159075 -26.58136743 14.81862081 -21.07568359 10.57543945 C-18.49310898 8.58468975 -15.98607328 6.59005125 -13.546875 4.421875 C-9.01721853 0.45153263 -6.09226673 -1.31839629 0 0 Z " fill="#51BA6E" transform="translate(480.11328125,362.296875)"/>
<path d="M0 0 C1.55337248 0.01507027 3.10675906 0.02875454 4.66015625 0.04101562 C8.44045615 0.07384503 12.22007063 0.12549746 16 0.1875 C15.41921976 5.06342905 13.89345341 9.14068553 11.83984375 13.5546875 C11.37584923 14.57406906 11.37584923 14.57406906 10.90248108 15.61404419 C9.92082623 17.766655 8.92935175 19.91457148 7.9375 22.0625 C7.2669224 23.52834604 6.59699368 24.9944891 5.92773438 26.4609375 C4.29264328 30.03993838 2.64873498 33.61476519 1 37.1875 C-1.83392926 37.26924796 -4.66544819 37.32834985 -7.5 37.375 C-8.68722656 37.41270508 -8.68722656 37.41270508 -9.8984375 37.45117188 C-16.8033789 37.5360687 -22.28030118 36.36325906 -27.8125 31.9375 C-31.98939315 26.68654861 -33.71804257 21.88923066 -33 15.1875 C-30.86513528 8.67054453 -27.99581391 4.75494592 -21.88671875 1.55859375 C-14.98197699 -0.92512631 -7.23754981 -0.12229229 0 0 Z " fill="#C03A2B" transform="translate(50,157.8125)"/>
<path d="M0 0 C1.24482651 -0.00004028 2.48965302 -0.00008057 3.77220154 -0.00012207 C7.0701831 0.00659835 10.36695177 0.03655773 13.66467285 0.07556152 C15.68345346 0.09374874 17.70160629 0.0963185 19.72045898 0.09277344 C23.60558876 0.08612122 27.48994779 0.10122022 31.375 0.125 C33.178265 0.12530212 33.178265 0.12530212 35.01795959 0.12561035 C36.70011818 0.14947815 36.70011818 0.14947815 38.41625977 0.17382812 C39.39965836 0.18224731 40.38305695 0.1906665 41.39625549 0.19934082 C45.55332479 0.80105958 48.19078889 2.66344514 51.12109375 5.59375 C51.80877283 12.69976719 51.80877283 12.69976719 49.24609375 16.03125 C45.80280442 18.56308039 43.80332572 18.73353499 39.55737305 18.78662109 C37.80997078 18.81071548 37.80997078 18.81071548 36.02726746 18.83529663 C30.69729061 18.87965456 25.36746198 18.92125092 20.03735352 18.94384766 C17.22322047 18.95718324 14.40981323 18.98502719 11.59594727 19.02587891 C7.54561107 19.08468018 3.49605326 19.10250754 -0.5546875 19.1171875 C-1.81315994 19.13985687 -3.07163239 19.16252625 -4.36824036 19.18588257 C-14.07968896 19.16231463 -14.07968896 19.16231463 -17.16796875 16.18994141 C-18.79102748 13.727098 -19.58400007 12.50259427 -19.56640625 9.59375 C-19.59089844 8.954375 -19.61539062 8.315 -19.640625 7.65625 C-16.42517375 -1.05020262 -7.72956373 -0.10559345 0 0 Z " fill="#394C5D" transform="translate(292.87890625,131.40625)"/>
<path d="M0 0 C1.89697632 -0.00717545 1.89697632 -0.00717545 3.83227539 -0.01449585 C6.50266699 -0.01789419 9.17075861 -0.01123393 11.84082031 0.01220703 C15.25082742 0.04069668 18.65886686 0.02428115 22.06880188 -0.00565529 C25.3376036 -0.02814151 28.60617252 -0.01236457 31.875 0 C33.09388916 -0.01012115 34.31277832 -0.02024231 35.56860352 -0.03067017 C44.99604157 0.0995086 44.99604157 0.0995086 48.70410156 3.07666016 C51.7611876 6.61830837 51.7611876 6.61830837 51.6875 9.6640625 C51.71070313 10.623125 51.71070313 10.623125 51.734375 11.6015625 C50.38899314 15.0837273 48.18141115 17.01064673 44.9375 18.6640625 C40.50146704 19.41667618 36.11185584 19.36466467 31.62109375 19.328125 C29.68726585 19.33530045 29.68726585 19.33530045 27.71437073 19.34262085 C24.99327442 19.34996885 22.27300203 19.33935442 19.55200195 19.31591797 C16.07240866 19.28740005 12.59474122 19.30386208 9.11521816 19.33378029 C5.78369066 19.35623664 2.4526759 19.34049598 -0.87890625 19.328125 C-2.74779259 19.34330673 -2.74779259 19.34330673 -4.6544342 19.35879517 C-14.24898669 19.22860112 -14.24898669 19.22860112 -17.34277344 16.25146484 C-18.97786993 13.79139206 -19.76761807 12.57691693 -19.75 9.6640625 C-19.77449219 9.0246875 -19.79898437 8.3853125 -19.82421875 7.7265625 C-16.59500444 -1.01715624 -7.76381223 -0.06446751 0 0 Z " fill="#394C5D" transform="translate(293.0625,396.3359375)"/>
<path d="M0 0 C1.29300522 0.00233139 2.58601044 0.00466278 3.91819763 0.00706482 C6.64951073 0.01321754 9.3799996 0.03585438 12.11108398 0.0715332 C15.60711349 0.11685022 19.10239868 0.13156233 22.5986948 0.13527012 C25.94090485 0.14076969 29.28286445 0.16414609 32.625 0.1875 C33.87922256 0.1928627 35.13344513 0.1982254 36.42567444 0.20375061 C38.17285011 0.2277317 38.17285011 0.2277317 39.95532227 0.25219727 C40.97948746 0.26283707 42.00365265 0.27347687 43.05885315 0.28443909 C45.82883897 0.56703549 47.43619798 1.02787923 49.74609375 2.55859375 C52.23768415 6.29597935 52.2040266 8.13190958 51.74609375 12.55859375 C49.9504697 15.31188396 48.69354453 17.08486836 45.74609375 18.55859375 C43.92456183 18.66988581 42.099012 18.71782425 40.27416992 18.7355957 C39.12925583 18.74843094 37.98434174 18.76126617 36.80473328 18.77449036 C34.94072624 18.78557076 34.94072624 18.78557076 33.0390625 18.796875 C31.76638016 18.80494675 30.49369781 18.81301849 29.18244934 18.82133484 C26.48479563 18.83518602 23.78726457 18.84619936 21.08959961 18.85375977 C17.63941126 18.86481644 14.18986926 18.89920711 10.73990917 18.93893147 C7.44385776 18.97141348 4.14774958 18.9758781 0.8515625 18.984375 C-0.38503616 19.00188309 -1.62163483 19.01939117 -2.89570618 19.03742981 C-4.05007675 19.03450424 -5.20444733 19.03157867 -6.39379883 19.02856445 C-7.40702713 19.03443069 -8.42025543 19.04029694 -9.46418762 19.04634094 C-13.005525 18.42718267 -14.67965478 17.01491108 -17.25390625 14.55859375 C-18.82326219 11.41988187 -18.60591728 9.02003553 -18.25390625 5.55859375 C-13.9361365 -1.30767383 -7.43439078 -0.11596477 0 0 Z " fill="#394C5D" transform="translate(292.25390625,308.44140625)"/>
<path d="M0 0 C1.31282959 -0.00478363 2.62565918 -0.00956726 3.97827148 -0.01449585 C6.75241627 -0.02185236 9.52575402 -0.01120336 12.29980469 0.01220703 C15.84779598 0.04069678 19.39389627 0.02428586 22.94181824 -0.00565529 C26.33636196 -0.02811455 29.73040261 -0.01236908 33.125 0 C34.39593506 -0.01012115 35.66687012 -0.02024231 36.97631836 -0.03067017 C46.76633361 0.09956933 46.76633361 0.09956933 49.86328125 2.98681641 C52.13006137 6.55829785 52.30443055 8.50925143 51.5625 12.6640625 C49.90796496 15.27090606 49.20238549 16.24092576 46.5625 17.6640625 C42.08885166 18.42771268 37.65413586 18.364193 33.125 18.328125 C31.15575562 18.33530045 31.15575562 18.33530045 29.14672852 18.34262085 C26.37258373 18.34997736 23.59924598 18.33932836 20.82519531 18.31591797 C17.27720402 18.28742822 13.73110373 18.30383914 10.18318176 18.33378029 C6.78863804 18.35623955 3.39459739 18.34049408 0 18.328125 C-1.27093506 18.33824615 -2.54187012 18.34836731 -3.85131836 18.35879517 C-13.64133361 18.22855567 -13.64133361 18.22855567 -16.73828125 15.34130859 C-19.00506137 11.76982715 -19.17943055 9.81887357 -18.4375 5.6640625 C-14.07192473 -1.2142275 -7.48197623 -0.05958309 0 0 Z " fill="#35495D" transform="translate(292.4375,220.3359375)"/>
</svg>
