<svg id="Filled_Expand" height="512" viewBox="0 0 64 64" width="512" xmlns="http://www.w3.org/2000/svg" data-name="Filled Expand"><g fill="#f54f78"><circle cx="51.5" cy="24.5" r="2.5"/><circle cx="8.5" cy="49.5" r="2.5"/><circle cx="26.5" cy="41.5" r="2.5"/><circle cx="17.5" cy="29.5" r="2.5"/><circle cx="43.5" cy="47.5" r="2.5"/></g><path d="m32 8a10.191 10.191 0 0 1 8.739 15.435l-8.739 14.565-8.739-14.565a10.191 10.191 0 0 1 8.739-15.435z" fill="#fa668c"/><path d="m40.739 23.435a10.19 10.19 0 0 0 -4.1-14.312 11.639 11.639 0 0 0 -1.639-.123c-7.922 0-12.815 7.642-8.739 14.435l7.239 12.065z" fill="#f54f78"/><circle cx="32" cy="18.207" fill="#f8fbff" r="5"/><path d="m32 24.207a6 6 0 1 0 -6-6 6.006 6.006 0 0 0 6 6zm0-10a4 4 0 1 1 -4 4 4 4 0 0 1 4-4z"/><path d="m54.93 25.193a3.5 3.5 0 0 0 -3.43-4.193 3.48 3.48 0 0 0 -2.529 1.094 41.424 41.424 0 0 0 -5.971-1.848 11.188 11.188 0 1 0 -21.993 0c-12.007 2.77-20.007 9.817-20.007 17.754a14.026 14.026 0 0 0 4.449 9.819 3.461 3.461 0 0 0 -.449 1.681 3.5 3.5 0 0 0 5.98 2.466 43.261 43.261 0 0 0 21.02 5.034c17.093 0 31-8.523 31-19 0-4.788-2.863-9.311-8.07-12.807zm-3.43-2.193a1.5 1.5 0 1 1 -1.5 1.5 1.5 1.5 0 0 1 1.5-1.5zm-27.5-9.337a9.192 9.192 0 1 1 15.882 9.257l-7.882 13.137-7.882-13.137a9.088 9.088 0 0 1 -.118-9.257zm19.5 30.337a3.5 3.5 0 0 0 -3.478 3.281 44.576 44.576 0 0 1 -8.022.719c-11.925 0-22-4.579-22-10 0-2.224 1.741-4.4 4.891-6.191a3.485 3.485 0 0 0 6.109-2.309c0-.034-.009-.065-.01-.1a39.071 39.071 0 0 1 4.161-.873l2.777 4.627c-3.887.3-11.928 1.341-11.928 4.846 0 2.34 3.685 3.581 7.079 4.23a3.493 3.493 0 0 0 6.6.707c.768.031 1.538.063 2.317.063 7.706 0 16-1.564 16-5 0-3.505-8.041-4.546-11.928-4.844l2.781-4.635c8.816 1.351 15.151 5.284 15.151 9.479 0 2.822-2.835 5.592-7.627 7.51a3.5 3.5 0 0 0 -2.873-1.51zm1.5 3.5a1.5 1.5 0 1 1 -1.5-1.5 1.5 1.5 0 0 1 1.5 1.5zm-29-18a1.5 1.5 0 1 1 1.5 1.5 1.5 1.5 0 0 1 -1.5-1.5zm10.5 8.5a3.5 3.5 0 0 0 -3.251 2.224c-3.977-.79-5.249-1.888-5.249-2.224 0-.681 3.316-2.5 11.086-2.914l2.057 3.428a1 1 0 0 0 1.714 0l2.057-3.428c7.77.414 11.086 2.233 11.086 2.914 0 .9-4.763 3-14 3-.692 0-1.373-.03-2.056-.055a3.5 3.5 0 0 0 -3.444-2.945zm1.5 3.5a1.5 1.5 0 1 1 -1.5-1.5 1.5 1.5 0 0 1 1.5 1.5zm-19.5 9.5a1.5 1.5 0 1 1 1.5-1.5 1.5 1.5 0 0 1 -1.5 1.5zm23.5 4a41.208 41.208 0 0 1 -20.072-4.793 3.5 3.5 0 0 0 -3.428-4.207 3.465 3.465 0 0 0 -1.626.419 12.085 12.085 0 0 1 -3.874-8.419c0-7 7.425-13.294 18.554-15.834a11.474 11.474 0 0 0 .849 1.783l1.631 2.718c-1.276.22-2.5.5-3.675.826a3.465 3.465 0 0 0 -6.309 2.5c-3.895 2.179-6.05 4.996-6.05 8.007 0 6.729 10.542 12 24 12a46.558 46.558 0 0 0 8.476-.77 3.488 3.488 0 0 0 6.524-1.73c0-.03-.008-.057-.009-.087 5.734-2.261 9.009-5.662 9.009-9.413 0-5.216-6.386-9.671-16.037-11.327l1.637-2.724a11.455 11.455 0 0 0 .847-1.778 39.79 39.79 0 0 1 5.618 1.713 3.493 3.493 0 0 0 5.92 3.079c4.529 3.095 7.015 6.987 7.015 11.037 0 9.374-13.009 17-29 17z"/></svg>