<?xml version="1.0" encoding="UTF-8"?>
<!DOCTYPE svg PUBLIC "-//W3C//DTD SVG 1.1//EN" "http://www.w3.org/Graphics/SVG/1.1/DTD/svg11.dtd">
<svg xmlns="http://www.w3.org/2000/svg" version="1.1" width="512px" height="512px" style="shape-rendering:geometricPrecision; text-rendering:geometricPrecision; image-rendering:optimizeQuality; fill-rule:evenodd; clip-rule:evenodd" xmlns:xlink="http://www.w3.org/1999/xlink">
<g><path style="opacity:0.994" fill="#383838" d="M 148.5,-0.5 C 155.833,-0.5 163.167,-0.5 170.5,-0.5C 190.274,4.47317 207.107,14.4732 221,29.5C 233.399,17.3699 248.232,12.8699 265.5,16C 276.947,18.6412 286.447,24.4745 294,33.5C 308.838,16.6728 327.005,5.33945 348.5,-0.5C 355.833,-0.5 363.167,-0.5 370.5,-0.5C 389.8,5.51022 399.8,18.8436 400.5,39.5C 398.257,60.8139 389.924,79.3139 375.5,95C 398.167,95.3333 420.833,95.6667 443.5,96C 445.333,96.5 446.5,97.6667 447,99.5C 447.667,123.5 447.667,147.5 447,171.5C 446.5,173.333 445.333,174.5 443.5,175C 434.173,175.5 424.839,175.666 415.5,175.5C 415.167,214.506 415.5,253.506 416.5,292.5C 438.584,283.399 458.751,286.399 477,301.5C 479.374,305.894 480.041,310.56 479,315.5C 449.293,352.88 418.46,389.38 386.5,425C 314.906,448.531 243.24,471.864 171.5,495C 140.835,495.5 110.168,495.667 79.5,495.5C 79.6655,499.514 79.4988,503.514 79,507.5C 78.3103,509.35 77.1436,510.684 75.5,511.5C 51.5,511.5 27.5,511.5 3.5,511.5C 1.83333,510.5 0.5,509.167 -0.5,507.5C -0.5,495.5 -0.5,483.5 -0.5,471.5C 2.16667,471.5 4.83333,471.5 7.5,471.5C 10.1667,471.5 12.8333,471.5 15.5,471.5C 15.5,479.5 15.5,487.5 15.5,495.5C 20.8333,495.5 26.1667,495.5 31.5,495.5C 42.1667,495.5 52.8333,495.5 63.5,495.5C 63.5,444.833 63.5,394.167 63.5,343.5C 52.8333,343.5 42.1667,343.5 31.5,343.5C 26.1667,343.5 20.8333,343.5 15.5,343.5C 15.5,378.167 15.5,412.833 15.5,447.5C 12.8333,447.5 10.1667,447.5 7.5,447.5C 4.83333,447.5 2.16667,447.5 -0.5,447.5C -0.5,408.833 -0.5,370.167 -0.5,331.5C 0.316435,329.856 1.64977,328.69 3.5,328C 27.5,327.333 51.5,327.333 75.5,328C 77.3333,328.5 78.5,329.667 79,331.5C 79.4988,335.486 79.6655,339.486 79.5,343.5C 80.8734,343.657 82.2068,343.49 83.5,343C 92.6667,333.833 101.833,324.667 111,315.5C 111.5,268.835 111.667,222.168 111.5,175.5C 102.161,175.666 92.8274,175.5 83.5,175C 81.6667,174.5 80.5,173.333 80,171.5C 79.3333,147.5 79.3333,123.5 80,99.5C 80.5,97.6667 81.6667,96.5 83.5,96C 103.5,95.6667 123.5,95.3333 143.5,95C 129.076,79.3139 120.743,60.8139 118.5,39.5C 119.2,18.8436 129.2,5.51022 148.5,-0.5 Z"/></g>
<g><path style="opacity:1" fill="#d94337" d="M 151.5,15.5 C 171.383,15.4027 188.716,21.9027 203.5,35C 216.858,47.2111 226.025,62.0444 231,79.5C 231.781,84.5544 231.614,89.5544 230.5,94.5C 227.167,95.8333 223.833,95.8333 220.5,94.5C 205.234,66.8639 182.234,49.3639 151.5,42C 146.177,41.5006 140.844,41.334 135.5,41.5C 134.782,28.9073 140.116,20.2407 151.5,15.5 Z"/></g>
<g><path style="opacity:1" fill="#d94337" d="M 351.5,15.5 C 360.045,14.5068 368.045,16.0068 375.5,20C 381.62,25.8565 384.286,33.0231 383.5,41.5C 366.452,40.5118 350.786,44.6784 336.5,54C 320.209,64.1232 307.543,77.6232 298.5,94.5C 295.167,95.8333 291.833,95.8333 288.5,94.5C 286.394,81.9168 288.894,70.2501 296,59.5C 308.862,37.5131 327.362,22.8464 351.5,15.5 Z"/></g>
<g><path style="opacity:1" fill="#d94337" d="M 248.5,31.5 C 258.864,30.1833 268.197,32.6833 276.5,39C 280.155,42.1588 282.322,45.9921 283,50.5C 274.004,64.1485 270.171,79.1485 271.5,95.5C 263.5,95.5 255.5,95.5 247.5,95.5C 248.277,76.101 242.944,58.601 231.5,43C 232.101,41.395 233.101,40.0616 234.5,39C 238.815,35.6782 243.482,33.1782 248.5,31.5 Z"/></g>
<g><path style="opacity:1" fill="#a31e1b" d="M 139.5,58.5 C 151.195,57.675 162.195,60.5084 172.5,67C 184.412,74.2439 194.412,83.5772 202.5,95C 190.833,95.6667 179.167,95.6667 167.5,95C 155.372,84.8782 146.039,72.7115 139.5,58.5 Z"/></g>
<g><path style="opacity:1" fill="#a31e1b" d="M 371.5,57.5 C 374.187,57.3359 376.854,57.5026 379.5,58C 372.824,72.6762 363.157,85.0095 350.5,95C 339.485,95.8324 328.485,95.6658 317.5,94.5C 330.795,75.1943 348.795,62.861 371.5,57.5 Z"/></g>
<g><path style="opacity:0.97" fill="#373737" d="M 40.5,77.5 C 50.7595,86.0906 60.4261,95.4239 69.5,105.5C 65.8333,109.833 61.8333,113.833 57.5,117.5C 47.8333,108.5 38.5,99.1667 29.5,89.5C 33.1886,85.4799 36.8553,81.4799 40.5,77.5 Z"/></g>
<g><path style="opacity:0.927" fill="#373737" d="M 484.5,77.5 C 489.419,80.7483 493.753,84.7483 497.5,89.5C 488.681,98.8192 479.681,107.986 470.5,117C 469.5,117.667 468.5,117.667 467.5,117C 464.333,113.833 461.167,110.667 458,107.5C 457.333,106.5 457.333,105.5 458,104.5C 467.036,95.6317 475.869,86.6317 484.5,77.5 Z"/></g>
<g><path style="opacity:1" fill="#f3b400" d="M 95.5,111.5 C 135.5,111.5 175.5,111.5 215.5,111.5C 215.5,127.5 215.5,143.5 215.5,159.5C 175.5,159.5 135.5,159.5 95.5,159.5C 95.5,143.5 95.5,127.5 95.5,111.5 Z"/></g>
<g><path style="opacity:1" fill="#da4436" d="M 231.5,111.5 C 252.833,111.5 274.167,111.5 295.5,111.5C 295.5,127.5 295.5,143.5 295.5,159.5C 274.167,159.5 252.833,159.5 231.5,159.5C 231.5,143.5 231.5,127.5 231.5,111.5 Z"/></g>
<g><path style="opacity:1" fill="#f3b400" d="M 375.5,167.5 C 370.167,167.5 364.833,167.5 359.5,167.5C 359.5,164.833 359.5,162.167 359.5,159.5C 354.167,159.5 348.833,159.5 343.5,159.5C 343.5,162.167 343.5,164.833 343.5,167.5C 338.167,167.5 332.833,167.5 327.5,167.5C 327.5,164.833 327.5,162.167 327.5,159.5C 322.167,159.5 316.833,159.5 311.5,159.5C 311.5,143.5 311.5,127.5 311.5,111.5C 351.5,111.5 391.5,111.5 431.5,111.5C 431.5,127.5 431.5,143.5 431.5,159.5C 412.833,159.5 394.167,159.5 375.5,159.5C 375.5,162.167 375.5,164.833 375.5,167.5 Z"/></g>
<g><path style="opacity:1" fill="#373837" d="M 15.5,127.5 C 31.5,127.5 47.5,127.5 63.5,127.5C 63.5,132.833 63.5,138.167 63.5,143.5C 47.5,143.5 31.5,143.5 15.5,143.5C 15.5,138.167 15.5,132.833 15.5,127.5 Z"/></g>
<g><path style="opacity:1" fill="#373837" d="M 511.5,127.5 C 511.5,132.833 511.5,138.167 511.5,143.5C 495.5,143.5 479.5,143.5 463.5,143.5C 463.5,138.167 463.5,132.833 463.5,127.5C 479.5,127.5 495.5,127.5 511.5,127.5 Z"/></g>
<g><path style="opacity:0.93" fill="#373737" d="M 56.5,153.5 C 61.4194,156.748 65.7528,160.748 69.5,165.5C 60.5,175.167 51.1667,184.5 41.5,193.5C 37.1667,189.833 33.1667,185.833 29.5,181.5C 38.5214,172.146 47.5214,162.813 56.5,153.5 Z"/></g>
<g><path style="opacity:0.964" fill="#383838" d="M 468.5,153.5 C 478.759,162.091 488.426,171.424 497.5,181.5C 493.833,185.833 489.833,189.833 485.5,193.5C 475.833,184.5 466.5,175.167 457.5,165.5C 461.189,161.48 464.855,157.48 468.5,153.5 Z"/></g>
<g><path style="opacity:1" fill="#373837" d="M 359.5,167.5 C 359.5,170.167 359.5,172.833 359.5,175.5C 354.167,175.5 348.833,175.5 343.5,175.5C 343.5,172.833 343.5,170.167 343.5,167.5C 343.5,164.833 343.5,162.167 343.5,159.5C 348.833,159.5 354.167,159.5 359.5,159.5C 359.5,162.167 359.5,164.833 359.5,167.5 Z"/></g>
<g><path style="opacity:1" fill="#f19500" d="M 327.5,167.5 C 332.833,167.5 338.167,167.5 343.5,167.5C 343.5,170.167 343.5,172.833 343.5,175.5C 348.833,175.5 354.167,175.5 359.5,175.5C 359.5,172.833 359.5,170.167 359.5,167.5C 364.833,167.5 370.167,167.5 375.5,167.5C 375.5,170.167 375.5,172.833 375.5,175.5C 383.5,175.5 391.5,175.5 399.5,175.5C 399.5,180.833 399.5,186.167 399.5,191.5C 364.833,191.5 330.167,191.5 295.5,191.5C 295.5,186.167 295.5,180.833 295.5,175.5C 306.167,175.5 316.833,175.5 327.5,175.5C 327.5,172.833 327.5,170.167 327.5,167.5 Z"/></g>
<g><path style="opacity:1" fill="#f29500" d="M 231.5,191.5 C 203.167,191.5 174.833,191.5 146.5,191.5C 154.206,236.265 174.872,273.598 208.5,303.5C 181.5,303.5 154.5,303.5 127.5,303.5C 127.5,260.833 127.5,218.167 127.5,175.5C 162.167,175.5 196.833,175.5 231.5,175.5C 231.5,180.833 231.5,186.167 231.5,191.5 Z"/></g>
<g><path style="opacity:1" fill="#c52e25" d="M 279.5,191.5 C 268.833,191.5 258.167,191.5 247.5,191.5C 247.5,186.167 247.5,180.833 247.5,175.5C 258.167,175.5 268.833,175.5 279.5,175.5C 279.5,180.833 279.5,186.167 279.5,191.5 Z"/></g>
<g><path style="opacity:1" fill="#f3b300" d="M 231.5,191.5 C 231.5,226.167 231.5,260.833 231.5,295.5C 234.167,295.5 236.833,295.5 239.5,295.5C 239.5,298.167 239.5,300.833 239.5,303.5C 229.167,303.5 218.833,303.5 208.5,303.5C 174.872,273.598 154.206,236.265 146.5,191.5C 174.833,191.5 203.167,191.5 231.5,191.5 Z"/></g>
<g><path style="opacity:1" fill="#da4336" d="M 247.5,191.5 C 258.167,191.5 268.833,191.5 279.5,191.5C 279.5,226.167 279.5,260.833 279.5,295.5C 282.167,295.5 284.833,295.5 287.5,295.5C 287.5,312.167 287.5,328.833 287.5,345.5C 282.244,345.738 279.244,343.405 278.5,338.5C 274.021,317.355 261.021,305.688 239.5,303.5C 239.5,300.833 239.5,298.167 239.5,295.5C 242.167,295.5 244.833,295.5 247.5,295.5C 247.5,260.833 247.5,226.167 247.5,191.5 Z"/></g>
<g><path style="opacity:1" fill="#f3b300" d="M 295.5,191.5 C 330.167,191.5 364.833,191.5 399.5,191.5C 399.667,230.168 399.5,268.835 399,307.5C 385.382,322.432 371.549,337.099 357.5,351.5C 333.816,352.964 310.482,350.964 287.5,345.5C 287.5,328.833 287.5,312.167 287.5,295.5C 290.167,295.5 292.833,295.5 295.5,295.5C 295.5,260.833 295.5,226.167 295.5,191.5 Z"/></g>
<g><path style="opacity:1" fill="#efcfb3" d="M 449.5,305.5 C 428.545,330.96 407.378,356.294 386,381.5C 384.062,384.106 381.562,385.939 378.5,387C 308.5,409.667 238.5,432.333 168.5,455C 138.835,455.5 109.169,455.667 79.5,455.5C 79.5,423.5 79.5,391.5 79.5,359.5C 83.9362,359.79 88.2695,359.29 92.5,358C 105.167,345.333 117.833,332.667 130.5,320C 167.833,319.333 205.167,319.333 242.5,320C 258.269,324.123 264.769,334.29 262,350.5C 258.851,359.984 252.351,365.484 242.5,367C 225.503,367.5 208.503,367.667 191.5,367.5C 191.5,372.833 191.5,378.167 191.5,383.5C 243.834,383.667 296.168,383.5 348.5,383C 353.565,379.943 358.065,376.11 362,371.5C 380.132,351.033 398.632,330.867 417.5,311C 427.403,303.679 438.069,301.845 449.5,305.5 Z"/></g>
<g><path style="opacity:1" fill="#deb18a" d="M 449.5,305.5 C 454.277,306.22 458.61,308.053 462.5,311C 433.792,344.04 405.458,377.373 377.5,411C 307.376,433.263 237.376,455.93 167.5,479C 138.169,479.5 108.835,479.667 79.5,479.5C 79.5,471.5 79.5,463.5 79.5,455.5C 109.169,455.667 138.835,455.5 168.5,455C 238.5,432.333 308.5,409.667 378.5,387C 381.562,385.939 384.062,384.106 386,381.5C 407.378,356.294 428.545,330.96 449.5,305.5 Z"/></g>
<g><path style="opacity:1" fill="#2b69b2" d="M 31.5,343.5 C 31.5,394.167 31.5,444.833 31.5,495.5C 26.1667,495.5 20.8333,495.5 15.5,495.5C 15.5,487.5 15.5,479.5 15.5,471.5C 12.8333,471.5 10.1667,471.5 7.5,471.5C 7.5,463.5 7.5,455.5 7.5,447.5C 10.1667,447.5 12.8333,447.5 15.5,447.5C 15.5,412.833 15.5,378.167 15.5,343.5C 20.8333,343.5 26.1667,343.5 31.5,343.5 Z"/></g>
<g><path style="opacity:1" fill="#4285f4" d="M 31.5,343.5 C 42.1667,343.5 52.8333,343.5 63.5,343.5C 63.5,394.167 63.5,444.833 63.5,495.5C 52.8333,495.5 42.1667,495.5 31.5,495.5C 31.5,444.833 31.5,394.167 31.5,343.5 Z"/></g>
<g><path style="opacity:1" fill="#c32e26" d="M 278.5,338.5 C 279.244,343.405 282.244,345.738 287.5,345.5C 287.5,352.833 287.5,360.167 287.5,367.5C 282.125,367.828 276.792,367.495 271.5,366.5C 276.96,357.994 279.293,348.661 278.5,338.5 Z"/></g>
<g><path style="opacity:1" fill="#f19400" d="M 287.5,345.5 C 310.482,350.964 333.816,352.964 357.5,351.5C 353.401,356.774 349.067,361.941 344.5,367C 325.503,367.5 306.503,367.667 287.5,367.5C 287.5,360.167 287.5,352.833 287.5,345.5 Z"/></g>
</svg>
