<?xml version="1.0" encoding="UTF-8"?>
<svg version="1.1" xmlns="http://www.w3.org/2000/svg" width="512" height="512">
<path d="M0 0 C60.39 0 120.78 0 183 0 C184 64 184 64 184 89 C180 93 180 93 177.640625 93.390625 C176.85171875 93.34421875 176.0628125 93.2978125 175.25 93.25 C174.45078125 93.21390625 173.6515625 93.1778125 172.828125 93.140625 C172.22484375 93.09421875 171.6215625 93.0478125 171 93 C171.03029297 93.56807373 171.06058594 94.13614746 171.09179688 94.72143555 C171.42949908 101.14621992 171.72999636 107.57201867 172 114 C172.04737305 115.07604492 172.04737305 115.07604492 172.09570312 116.17382812 C172.5605923 127.79605741 172.5605923 127.79605741 169 133 C168.34 133.99 167.68 134.98 167 136 C169.31 140.62 171.62 145.24 174 150 C177.57084142 148.80971953 180.92113466 147.67718053 184.35180664 146.21923828 C185.56354301 145.70638275 185.56354301 145.70638275 186.79975891 145.1831665 C187.66119003 144.81592468 188.52262115 144.44868286 189.41015625 144.0703125 C190.32319016 143.68341248 191.23622406 143.29651245 192.17692566 142.89788818 C195.13961001 141.6421971 198.10104223 140.38358076 201.0625 139.125 C205.1308501 137.39948092 209.20000342 135.6758645 213.26953125 133.953125 C214.77777969 133.31448013 214.77777969 133.31448013 216.3164978 132.66293335 C226.14490628 128.50630534 236.00412512 124.42606697 245.88305664 120.39111328 C247.49555298 119.72958252 247.49555298 119.72958252 249.140625 119.0546875 C250.06391602 118.67812012 250.98720703 118.30155273 251.93847656 117.91357422 C253.94974996 117.17024484 253.94974996 117.17024484 255 116 C254.25556641 115.50693359 254.25556641 115.50693359 253.49609375 115.00390625 C244.55581385 108.74401387 238.16696146 100.40606525 235.41796875 89.7421875 C233.29827446 75.83540815 235.07839929 63.62426922 243.38671875 52.05859375 C250.08277724 43.51422856 258.97978096 37.40173766 269.828125 35.25 C282.55999379 33.78446115 294.51789791 35.65543941 305.01171875 43.38671875 C305.99591797 44.18529297 305.99591797 44.18529297 307 45 C307.93779297 45.75216797 307.93779297 45.75216797 308.89453125 46.51953125 C317.82015796 54.51175908 321.09452819 65.37730449 322 77 C322.22388007 81.20531486 322.34850825 84.95447526 321 89 C326.49957301 86.70259583 331.99865201 84.40401386 337.49731445 82.10443115 C339.45294457 81.28668936 341.40867331 80.46918338 343.36450195 79.6519165 C353.62357323 75.3645339 363.87756924 71.06713731 374.09765625 66.6875 C374.86508652 66.35920197 375.63251678 66.03090393 376.42320251 65.69265747 C380.01216651 64.15701564 383.59868925 62.61610077 387.18139648 61.06591797 C388.4541676 60.52028215 389.72702981 59.97485872 391 59.4296875 C392.093125 58.95772949 393.18625 58.48577148 394.3125 57.99951172 C397 57 397 57 400 57 C407.54333246 74.0855803 414.740886 91.30665585 421.90325928 108.55407715 C425.44060866 117.06832847 429.00314854 125.57198642 432.56665039 134.07531738 C439.8166596 151.37600915 447.04085793 168.68733074 454.25100708 186.00466919 C461.29269889 202.91654868 468.35838044 219.81828152 475.44140625 236.71289062 C475.98219315 238.00336052 475.98219315 238.00336052 476.53390503 239.31990051 C477.20210707 240.91435954 477.87064074 242.50867965 478.5395813 244.10282898 C479.11521818 245.47655367 479.68922236 246.85096435 480.26113892 248.22624207 C480.89856147 249.75648007 481.54510428 251.28291318 482.19335938 252.80859375 C484.26254691 258.42997005 483.91584071 265.81188422 482.27734375 271.515625 C478.9841551 278.50198474 473.74076941 282.56833557 467 286 C465.67487126 286.36458568 464.34260148 286.70621412 463 287 C463.44472656 288.2065625 463.88945312 289.413125 464.34765625 290.65625 C464.92015855 292.27051878 465.49172352 293.8851202 466.0625 295.5 C466.35705078 296.29148437 466.65160156 297.08296875 466.95507812 297.8984375 C467.3659668 299.07792969 467.3659668 299.07792969 467.78515625 300.28125 C468.04176025 300.99345703 468.29836426 301.70566406 468.56274414 302.43945312 C469.92026741 310.38903662 466.59684506 318.950669 464.578125 326.5546875 C464.23266869 327.86447528 463.88735477 329.17430062 463.54217529 330.48416138 C462.81964359 333.22011009 462.09277585 335.95486494 461.36328125 338.68896484 C460.43673918 342.16446127 459.52510781 345.64367666 458.61726761 349.12409782 C457.90924369 351.82871132 457.19114925 354.53057886 456.4703598 357.23181534 C455.96697215 359.12754005 455.47348638 361.02588541 454.98028564 362.92428589 C453.26834419 369.27349297 451.29528095 375.0239894 448.15008545 380.81008911 C446.90634173 383.17833741 445.82616419 385.45304234 445 388 C445.97898406 389.67909737 446.98241704 391.34401005 448 393 C448.31848388 395.78471085 448.48766159 398.35937937 448.51171875 401.14453125 C448.53864555 402.2992115 448.53864555 402.2992115 448.56611633 403.47721863 C448.62005387 405.92225764 448.65406073 408.36710332 448.6875 410.8125 C448.72068782 412.47593826 448.75517884 414.13935107 448.79101562 415.80273438 C448.87577037 419.86834971 448.94265973 423.93390936 449 428 C450.85625 427.9071875 450.85625 427.9071875 452.75 427.8125 C456.95060434 427.60246978 457.20242053 428.1518154 461 431 C462.56604292 457.62272961 462 484.33125008 462 511 C401.61 511 341.22 511 279 511 C277.58433735 434.55421687 277.58433735 434.55421687 281 430 C283.48046875 429.609375 283.48046875 429.609375 286.1875 429.75 C287.08855469 429.78609375 287.98960937 429.8221875 288.91796875 429.859375 C289.60503906 429.90578125 290.29210937 429.9521875 291 430 C290.9278125 429.14921875 290.855625 428.2984375 290.78125 427.421875 C290.1930233 419.74224868 289.84610006 412.07713734 289.75 404.375 C289.72873047 403.52260742 289.70746094 402.67021484 289.68554688 401.79199219 C289.65870269 396.96962688 289.96523308 393.96287524 293 390 C293.66 389.01 294.32 388.02 295 387 C294.29423828 385.67548828 294.29423828 385.67548828 293.57421875 384.32421875 C289.76466555 377.03149978 286.73697956 370.10590463 285 362 C283.45326208 362.71834666 281.91285474 363.45032774 280.375 364.1875 C279.08722656 364.79658203 279.08722656 364.79658203 277.7734375 365.41796875 C274.87804116 366.94782178 274.87804116 366.94782178 272.2824707 369.37597656 C269.05563284 372.09820413 265.55285873 373.87088932 261.70703125 375.56640625 C261.01121445 375.8822467 260.31539764 376.19808716 259.59849548 376.52349854 C257.34049862 377.54565364 255.076727 378.55423099 252.8125 379.5625 C251.2441229 380.26901393 249.67609206 380.97629697 248.10839844 381.68432617 C244.1618394 383.46362975 240.21017402 385.23121959 236.25616455 386.99389648 C234.11382772 387.9492402 231.97248223 388.90676347 229.83154297 389.86523438 C223.0719593 392.89065388 216.30994257 395.91064265 209.52856445 398.88696289 C207.97106386 399.57255189 206.4167413 400.26548189 204.86791992 400.97045898 C200.10890986 403.10724756 197.15364257 403.59140161 192 403 C189.33475523 401.15483054 188.32778064 399.76482149 187.0625 396.8125 C186.99915166 393.96182476 187.41526301 392.71953484 188.4375 390.125 C191.37710698 381.97303436 191.31391543 372.4768159 188.25 364.375 C184.03689256 355.57105825 177.71426685 351.61903897 169 347.625 C160.37376135 345.82786695 152.85836563 346.99446535 145 351 C137.96506703 355.86671242 133.35458565 361.71904199 131 370 C130.03020987 379.61896485 130.79052448 387.16032972 136.47265625 395.04296875 C140.35047704 399.78252749 144.88369333 403.47159561 149.765625 407.140625 C153.25794811 410.04682396 154.85721047 411.87808227 155.4375 416.4375 C154.90780974 420.75069215 154.02893463 421.9221063 151 425 C148.34003076 426.62242999 145.54402399 427.84647411 142.6875 429.08203125 C141.85777176 429.45370422 141.02804352 429.8253772 140.173172 430.20831299 C137.45428617 431.42254302 134.72745887 432.61766732 132 433.8125 C130.11366357 434.64980584 128.22784477 435.48827872 126.3425293 436.32788086 C122.47535526 438.04778206 118.60495166 439.7600984 114.73193359 441.46679688 C109.29579508 443.864719 103.87477255 446.29523265 98.45703125 448.734375 C96.01876318 449.82937263 93.58016617 450.9236327 91.14135742 452.01742554 C89.59989394 452.70915707 88.05887116 453.40187157 86.51831055 454.09561157 C84.37496835 455.05937094 82.22892734 456.01684492 80.08203125 456.97265625 C78.87780518 457.51156494 77.6735791 458.05047363 76.43286133 458.60571289 C72.97012242 460.01213504 69.60704097 461.04344142 66 462 C65.61481201 461.12939941 65.22962402 460.25879883 64.83276367 459.36181641 C56.71378314 441.01938915 48.53173066 422.70706537 40.25 404.4375 C34.62171952 392.02019256 29.01484586 379.59518465 23.49291992 367.13012695 C19.20530081 357.45163737 14.88664864 347.78720849 10.5625 338.125 C10.19838013 337.3112088 9.83426025 336.4974176 9.45910645 335.65896606 C5.7808587 327.43848488 2.1000393 319.21917204 -1.58984375 311.00390625 C-6.84228968 299.30849921 -12.07751326 287.60603696 -17.25 275.875 C-17.71647949 274.81885498 -18.18295898 273.76270996 -18.66357422 272.67456055 C-19.08912598 271.70687744 -19.51467773 270.73919434 -19.953125 269.7421875 C-20.32598633 268.8951123 -20.69884766 268.04803711 -21.08300781 267.17529297 C-23.90762984 260.47471196 -24.15254654 252.61018614 -22.38671875 245.546875 C-19.13220488 238.26364572 -12.26697665 232.94139531 -5 230 C-4.34 230 -3.68 230 -3 230 C-3.30035156 229.2265625 -3.60070312 228.453125 -3.91015625 227.65625 C-4.29042969 226.6146875 -4.67070312 225.573125 -5.0625 224.5 C-5.44535156 223.4790625 -5.82820313 222.458125 -6.22265625 221.40625 C-8.09707029 213.19273723 -4.71040096 204.4506095 -2.61328125 196.515625 C-2.27028721 195.21061084 -1.92736769 193.9055771 -1.58451843 192.6005249 C-0.86631455 189.87293555 -0.14355476 187.14659768 0.58178711 184.42089844 C1.50079796 180.96390334 2.40280026 177.50271941 3.30060101 174.04016495 C4.00289156 171.34365188 4.71725914 168.65043985 5.43476295 165.95793915 C5.9335231 164.07488352 6.42017099 162.18863271 6.90641785 160.30230713 C8.81224442 153.23324677 11.24708127 146.96867602 14.73225403 140.52288818 C15.85455056 138.28945285 16.67121908 136.47224182 17 134 C16.53166748 133.42797852 16.06333496 132.85595703 15.58081055 132.26660156 C13.25733054 128.93514389 13.62805046 125.6457604 13.70703125 121.734375 C13.71127609 120.94097717 13.71552094 120.14757935 13.71989441 119.33013916 C13.7366496 116.8030768 13.77429494 114.27682017 13.8125 111.75 C13.82755097 110.03386571 13.84123866 108.31771888 13.85351562 106.6015625 C13.88654265 102.40073254 13.93830235 98.20050275 14 94 C12.96939453 94.05220703 12.96939453 94.05220703 11.91796875 94.10546875 C11.01691406 94.13253906 10.11585937 94.15960938 9.1875 94.1875 C7.84751953 94.23970703 7.84751953 94.23970703 6.48046875 94.29296875 C4 94 4 94 1 91 C-0.26286943 60.69113359 0 30.33516478 0 0 Z " fill="#020201" transform="translate(26,0)"/>
<path d="M0 0 C6.48339658 4.61296535 10.07179978 10.82109507 12.25 18.375 C12.4453125 21.37939453 12.4453125 21.37939453 12.375 24.5078125 C12.35953125 25.64347656 12.3440625 26.77914062 12.328125 27.94921875 C12.30234375 29.12097656 12.2765625 30.29273438 12.25 31.5 C12.19894533 33.83575117 12.15689203 36.1717211 12.125 38.5078125 C12.10179687 39.53793457 12.07859375 40.56805664 12.0546875 41.62939453 C12.25503621 44.4457965 12.73996512 46.01523464 14.25 48.375 C16.79987029 50.35823245 18.11013105 50.38603071 21.35498047 50.13012695 C25.84547077 49.25955616 29.69328511 47.7715741 33.8828125 45.98046875 C34.70542068 45.63654587 35.52802887 45.29262299 36.37556458 44.9382782 C38.13494719 44.20147486 39.892769 43.46093519 41.6491394 42.71697998 C44.39389112 41.55449907 47.14270857 40.40217426 49.89282227 39.25244141 C56.92624691 36.30930074 63.95094434 33.34555436 70.97509766 30.38037109 C74.41937564 28.92666383 77.86629659 27.47940653 81.31512451 26.03652954 C83.16021169 25.26146301 85.00128716 24.47686868 86.84228516 23.69213867 C88.48076416 23.00535034 88.48076416 23.00535034 90.15234375 22.3046875 C91.09585693 21.90491699 92.03937012 21.50514648 93.01147461 21.09326172 C95.25 20.375 95.25 20.375 97.25 21.375 C98.40388001 23.82014494 99.451174 26.24918017 100.4609375 28.75390625 C100.94059715 29.91984062 100.94059715 29.91984062 101.4299469 31.10932922 C102.13001053 32.81326398 102.82695002 34.51848471 103.52120972 36.22479248 C104.64175028 38.97866597 105.77007362 41.72923019 106.90063477 44.47900391 C108.10275019 47.40315191 109.30431535 50.32751499 110.50349426 53.25286865 C114.60756954 63.2638216 118.76489804 73.25231253 122.93078613 83.2376709 C124.19767386 86.27438662 125.46367432 89.31147099 126.72949219 92.34863281 C134.08846259 110.00256701 141.47159543 127.64635706 148.86289978 145.28677368 C151.23628272 150.95215033 153.60651996 156.61883415 155.97476196 162.28636169 C157.6265537 166.23931643 159.27905918 170.19197264 160.93157959 174.1446228 C161.71696234 176.02372927 162.50200575 177.90297761 163.28668213 179.78237915 C164.37510025 182.38915792 165.46476798 184.99541119 166.5546875 187.6015625 C166.87056824 188.35903275 167.18644897 189.11650299 167.51190186 189.89692688 C169.4078243 194.42634477 171.38595681 198.90452814 173.46218872 203.35458374 C175.16522243 207.72217416 174.63327322 211.22518033 173.1875 215.5625 C170.60488219 219.31146133 168.37022726 220.46203734 164.25 222.375 C163.26 222.375 162.27 222.375 161.25 222.375 C158.2076779 214.02168262 155.25751253 205.67486156 152.8125 197.125 C150.87735007 190.43079122 148.86964562 183.76330558 146.75 177.125 C146.47744385 176.23135742 146.2048877 175.33771484 145.92407227 174.41699219 C143.96921883 168.39551479 141.71648562 164.70008182 136.328125 161.0859375 C130.35688044 159.04314331 122.56434172 159.34527733 116.8125 161.9375 C109.15706854 166.54687558 104.77704343 174.23668725 102.65625 182.76171875 C101.45842196 190.46697799 101.95480877 198.18984467 103.68359375 205.7578125 C104.71322387 210.51541375 105.2821258 215.34739722 105.94384766 220.16748047 C106.57205341 224.69717461 107.22635494 229.22319641 107.875 233.75 C108.13810859 235.59113329 108.40113648 237.43227812 108.6640625 239.2734375 C108.85936973 240.64062575 109.0546813 242.00781339 109.25 243.375 C104.31156965 247.13890666 99.58826575 249.77390507 93.84765625 252.09765625 C93.0338298 252.43565247 92.22000336 252.77364868 91.3815155 253.12188721 C88.69518476 254.23537484 86.00390244 255.33633459 83.3125 256.4375 C81.40620169 257.22525156 79.50028468 258.01392639 77.59472656 258.8034668 C73.56305974 260.47273787 69.52953557 262.13740417 65.49462891 263.79882812 C56.17165862 267.64065032 46.86774921 271.52819783 37.5617981 275.41101074 C34.51520362 276.68116148 31.46761125 277.94888654 28.41967773 279.21582031 C19.39901387 282.96666774 10.38519968 286.73104621 1.3984375 290.5625 C-0.07450249 291.1884935 -1.54748269 291.81439239 -3.02050781 292.44018555 C-5.68243387 293.5712277 -8.3399055 294.71194174 -10.99511719 295.85864258 C-12.13883789 296.34486084 -13.28255859 296.8310791 -14.4609375 297.33203125 C-15.44368652 297.75460205 -16.42643555 298.17717285 -17.43896484 298.61254883 C-19.75 299.375 -19.75 299.375 -21.75 298.375 C-22.71614075 296.51322937 -22.71614075 296.51322937 -23.73364258 294.0456543 C-24.1177681 293.12346603 -24.50189362 292.20127777 -24.8976593 291.25114441 C-25.30912704 290.24400894 -25.72059479 289.23687347 -26.14453125 288.19921875 C-26.57376389 287.16368362 -27.00299652 286.1281485 -27.44523621 285.06123352 C-28.82398972 281.73089901 -30.19336845 278.39680018 -31.5625 275.0625 C-32.47398952 272.85586365 -33.38609166 270.64948024 -34.29882812 268.44335938 C-36.38609977 263.39577242 -38.46871714 258.34632049 -40.54043579 253.29232788 C-41.40038938 251.21822005 -42.27534382 249.15030409 -43.16049194 247.08682251 C-43.61888458 246.01378876 -44.07727722 244.940755 -44.54956055 243.83520508 C-44.97037399 242.86126297 -45.39118744 241.88732086 -45.82475281 240.88386536 C-46.75 238.375 -46.75 238.375 -46.75 235.375 C-45.73421875 235.33761719 -44.7184375 235.30023438 -43.671875 235.26171875 C-28.6317703 234.59575656 -15.32153227 232.55978792 -4.4375 221.1875 C2.8663987 212.42282156 6.7664011 201.41180771 6.50390625 190.01953125 C5.29584681 177.43712758 -0.20794878 166.6420936 -9.75 158.375 C-21.84458202 150.56627867 -34.8635402 148.31575399 -48.9921875 150.98828125 C-59.34350487 154.39371465 -67.96232183 161.19286079 -73.75 170.375 C-76.35353982 169.07323009 -76.50232846 168.02319244 -77.59423828 165.35620117 C-77.94865997 164.49987595 -78.30308167 163.64355072 -78.66824341 162.76127625 C-79.04842621 161.82298477 -79.42860901 160.8846933 -79.8203125 159.91796875 C-80.22023407 158.9457991 -80.62015564 157.97362946 -81.03219604 156.97200012 C-82.31947856 153.83806028 -83.59723907 150.70033228 -84.875 147.5625 C-85.71294174 145.51993607 -86.55147699 143.47761552 -87.390625 141.43554688 C-92.58389554 128.77804375 -97.69072201 116.08659002 -102.75 103.375 C-98.60709469 101.55577646 -94.46088959 99.74417783 -90.3125 97.9375 C-89.66561218 97.65576935 -89.01872437 97.3740387 -88.35223389 97.08377075 C-74.14937532 90.90881203 -59.84262441 84.9895661 -45.51391602 79.11352539 C-44.65982651 78.76198395 -43.805737 78.4104425 -42.92576599 78.04824829 C-41.33190513 77.39224736 -39.73706314 76.73862245 -38.14100647 76.08798218 C-29.24228144 73.07570255 -29.24228144 73.07570255 -22.75 67.375 C-22.61642547 63.70170036 -22.5828432 60.87647041 -23.75 57.375 C-25.5846844 56.5658402 -25.5846844 56.5658402 -27.8125 56.0625 C-34.87447931 53.91466871 -40.7045049 49.58772461 -44.75 43.375 C-49.04750352 34.67217028 -51.67258689 26.8687167 -48.80859375 17.1953125 C-44.68905928 6.83836377 -39.74416492 1.43493884 -29.75 -3.625 C-19.33077131 -7.57712123 -9.37270459 -5.67088009 0 0 Z " fill="#FEBA25" transform="translate(322.75,52.625)"/>
<path d="M0 0 C1.70532227 2.45043945 1.70532227 2.45043945 3.25390625 5.80078125 C3.68854942 6.72495598 3.68854942 6.72495598 4.13197327 7.6678009 C5.11044376 9.76898654 6.05696366 11.88268891 7 14 C7.34343445 14.76052673 7.6868689 15.52105347 8.04071045 16.30462646 C10.32372127 21.36366656 12.56164391 26.44144242 14.77905273 31.52954102 C15.92894601 34.1678736 17.08410382 36.80384865 18.24023438 39.43945312 C22.06165277 48.16505052 25.84040314 56.9090011 29.56640625 65.67578125 C29.91299789 66.48484421 30.25958954 67.29390717 30.61668396 68.12748718 C33 73.76740966 33 73.76740966 33 76 C36.59264452 77.19754817 39.22717474 77.33094958 43 77 C46.40335845 74.79782688 47.5927831 71.81685756 49.25 68.25 C52.86128144 60.78521702 58.39723652 54.67507629 66.25390625 51.625 C75.86621993 49.43727569 86.42148597 49.88466385 95 55 C101.99347311 59.65313762 107.21579684 66.72778536 109 75 C110.02304143 84.78971952 108.06248718 93.5784736 101.875 101.375 C96.75933529 106.74424291 90.26664006 109.80675235 83 111 C81.21902245 111.03428817 79.43653511 111.01737721 77.65625 110.95703125 C76.65722656 110.93576172 75.65820312 110.91449219 74.62890625 110.89257812 C72.54263616 110.8391842 70.45663308 110.77407388 68.37109375 110.69726562 C62.31322144 110.54375519 62.31322144 110.54375519 56.84375 112.88671875 C54.21527112 115.8994456 53.66367387 117.89121598 53.73199463 121.90115356 C54.27556105 126.15801771 56.12328593 129.98699755 57.8046875 133.90234375 C58.397621 135.32350494 58.397621 135.32350494 59.00253296 136.77337646 C60.28209363 139.83294932 61.57860075 142.88502935 62.875 145.9375 C63.75095105 148.02721601 64.62562474 150.1174679 65.49902344 152.20825195 C68.88198838 160.29403636 72.29804643 168.36566619 75.73916626 176.42686462 C76.4822584 178.1690787 77.22194263 179.91274517 77.96142578 181.65649414 C78.79649271 183.62075255 79.64067062 185.58117245 80.49560547 187.53686523 C81.03145264 188.79285522 81.03145264 188.79285522 81.578125 190.07421875 C81.88137695 190.77119873 82.18462891 191.46817871 82.49707031 192.1862793 C83 194 83 194 82 197 C79.82397461 198.31176758 79.82397461 198.31176758 76.90234375 199.64453125 C75.80519043 200.15024658 74.70803711 200.65596191 73.57763672 201.17700195 C72.3763916 201.71671631 71.17514648 202.25643066 69.9375 202.8125 C68.69520531 203.37855831 67.45318498 203.94521912 66.21142578 204.51245117 C62.14961799 206.3611415 58.07606246 208.1829951 54 210 C52.91099396 210.48605713 52.91099396 210.48605713 51.79998779 210.98193359 C46.66429043 213.27239924 41.52193906 215.54741918 36.375 217.8125 C35.66769745 218.12458405 34.9603949 218.43666809 34.23165894 218.75820923 C32.22657754 219.64122774 30.21923309 220.51885174 28.2109375 221.39453125 C27.05899902 221.89831299 25.90706055 222.40209473 24.72021484 222.92114258 C22 224 22 224 20 224 C20.05800781 222.85144531 20.11601562 221.70289063 20.17578125 220.51953125 C20.64717507 207.17490569 18.7499083 196.42585803 9.8046875 185.92578125 C2.03262545 177.6322172 -7.05347067 172.6153286 -18.53125 171.7265625 C-31.54212433 171.39360705 -41.7330827 174.1211994 -51.84375 182.8203125 C-61.55712166 192.63926429 -64.35136221 203.2682523 -64.38061523 216.62670898 C-64.16469391 228.0076074 -60.14277551 235.64464688 -52.29296875 243.796875 C-49.29453083 246.67782728 -46.23374984 249.38547885 -43 252 C-46.85129683 255.31295053 -51.35082581 257.12060804 -55.9453125 259.16796875 C-56.82919647 259.56647537 -57.71308044 259.96498199 -58.62374878 260.37556458 C-61.45543304 261.65086281 -64.2901612 262.91923183 -67.125 264.1875 C-68.97806498 265.02103902 -70.83093153 265.8550193 -72.68359375 266.68945312 C-76.33817852 268.33478755 -79.99646366 269.97149059 -83.65722656 271.60302734 C-87.19909328 273.18412296 -90.72488775 274.79504848 -94.24121094 276.43212891 C-95.47639969 277.00028069 -95.47639969 277.00028069 -96.73654175 277.57991028 C-98.28246664 278.2915383 -99.8243692 279.01199476 -101.36135864 279.74272156 C-106.43149648 282.05866957 -106.43149648 282.05866957 -109.10665894 281.78259277 C-112.51176156 280.37512913 -113.39607419 276.6284607 -114.765625 273.41796875 C-115.11574646 272.62997391 -115.46586792 271.84197906 -115.82659912 271.03010559 C-116.98164518 268.42179633 -118.11561644 265.80485374 -119.25 263.1875 C-120.05586254 261.35809375 -120.8631726 259.52932452 -121.671875 257.70117188 C-123.32858845 253.95039924 -124.9773097 250.19627549 -126.61914062 246.43896484 C-129.72434614 239.33601813 -132.87829651 232.2549784 -136.03259277 225.17373657 C-137.00943489 222.97880008 -137.98406153 220.78289276 -138.95800781 218.58666992 C-143.93201563 207.37300873 -148.95872912 196.18355995 -154 185 C-160.41858076 170.75831852 -166.81546152 156.50736712 -173.13671875 142.22216797 C-173.4566983 141.4990744 -173.77667786 140.77598083 -174.10635376 140.03097534 C-174.75046365 138.57538651 -175.39448658 137.1197592 -176.03842163 135.66409302 C-178.08747464 131.03892571 -180.15853989 126.42418864 -182.2434845 121.81509399 C-183.66296474 118.67392761 -185.07393199 115.52897645 -186.48379517 112.38348389 C-187.15394536 110.89409576 -187.82799571 109.40645552 -188.50619507 107.92071533 C-189.44143808 105.87084438 -190.36273993 103.81522386 -191.28125 101.7578125 C-191.80783203 100.5939502 -192.33441406 99.43008789 -192.87695312 98.23095703 C-194.04437758 94.87232763 -194.34504644 92.52431425 -194 89 C-191.53439033 84.25844294 -188.74502471 81.47136703 -184 79 C-181.94018555 79.07417297 -181.94018555 79.07417297 -180 80 C-178.86254883 82.24382019 -178.86254883 82.24382019 -177.95703125 85.25073242 C-177.60987061 86.3724736 -177.26270996 87.49421478 -176.9050293 88.64994812 C-176.54449463 89.87276993 -176.18395996 91.09559174 -175.8125 92.35546875 C-175.22514609 94.26480754 -174.6377819 96.17414323 -174.04981995 98.08329487 C-173.22785982 100.76649016 -172.42103384 103.45413834 -171.61437988 106.14196777 C-170.20769164 110.82543188 -168.78795367 115.50485577 -167.35229492 120.17951965 C-166.58960158 122.66833422 -165.83676805 125.16019682 -165.0949707 127.65531921 C-162.00275603 137.80527144 -162.00275603 137.80527144 -154.875 145.375 C-149.50197829 148.10160803 -144.07689591 147.76582534 -138.34765625 146.33984375 C-131.27637101 143.88350256 -127.24652801 140.27634914 -123.78515625 133.6875 C-116.92992494 118.8548287 -120.30488973 102.88545006 -123 87.375 C-123.43221734 84.83439361 -123.86063835 82.29323709 -124.28393555 79.75112915 C-124.54521488 78.18746404 -124.81195297 76.62469719 -125.08520508 75.06307983 C-125.77338928 71.00303535 -126.30089805 67.11769495 -126 63 C-124.27734375 61.12890625 -124.27734375 61.12890625 -121.9375 59.5625 C-116.59515162 55.76331033 -112.2214712 51.44623474 -107.82348633 46.60327148 C-104.80719389 43.8222316 -101.82945348 42.1950232 -98.12109375 40.57421875 C-97.44946701 40.26976837 -96.77784027 39.96531799 -96.08586121 39.65164185 C-93.87450199 38.65260339 -91.65624251 37.67001829 -89.4375 36.6875 C-87.87181242 35.98425283 -86.3065527 35.28005242 -84.74169922 34.57495117 C-80.64935358 32.73479659 -76.55073924 30.9090957 -72.44976807 29.08825684 C-70.06495224 28.02885364 -67.68140177 26.96666221 -65.29833984 25.90332031 C-59.24730742 23.20362646 -53.19623771 20.50419027 -47.13427734 17.82910156 C-39.88572937 14.62909361 -32.65667714 11.3960634 -25.46484375 8.0703125 C-23.46513928 7.1514403 -21.46501842 6.2334805 -19.46478271 5.31576538 C-18.21058929 4.73671651 -16.9586055 4.15285404 -15.70904541 3.56387329 C-14.00037551 2.75857881 -12.28356103 1.97063345 -10.56640625 1.18359375 C-9.12696655 0.51154907 -9.12696655 0.51154907 -7.65844727 -0.17407227 C-4.51154881 -1.15175226 -3.04288359 -1.29057625 0 0 Z " fill="#D12631" transform="translate(209,163)"/>
<path d="M0 0 C52.47 0 104.94 0 159 0 C159 26.73 159 53.46 159 81 C106.86 81.33 54.72 81.66 1 82 C0.67 54.94 0.34 27.88 0 0 Z " fill="#01C5DF" transform="translate(38,0)"/>
<path d="M0 0 C0.91548363 0.00085602 1.83096725 0.00171204 2.77419281 0.00259399 C13.93281639 0.01381808 25.0914082 0.03363819 36.25 0.0625 C36.39784815 5.20966049 36.53979379 10.35694592 36.67724609 15.50439453 C36.72429338 17.23946065 36.77270312 18.97449059 36.82275391 20.70947266 C37.29586102 37.17166933 37.25 53.58034258 37.25 70.0625 C-14.89 70.0625 -67.03 70.0625 -120.75 70.0625 C-121.89927198 44.77851634 -121.89927198 44.77851634 -121.84765625 35.6328125 C-121.8462413 34.62072723 -121.84482635 33.60864197 -121.84336853 32.56588745 C-121.83792172 29.43972362 -121.82540385 26.31364089 -121.8125 23.1875 C-121.80746503 21.02343856 -121.80290572 18.85937596 -121.79882812 16.6953125 C-121.78800346 11.48434537 -121.77085401 6.27343624 -121.75 1.0625 C-110.79183284 0.88421822 -99.83350194 0.71876004 -88.875 0.5625 C-88.04252243 0.55062275 -87.21004486 0.5387455 -86.3523407 0.52650833 C-57.56761098 0.11966209 -28.78747587 -0.02711323 0 0 Z " fill="#FEBA25" transform="translate(438.75,440.9375)"/>
<path d="M0 0 C2.77094186 5.95352993 5.09963313 11.91783197 7.09375 18.171875 C7.50385315 19.43828827 7.50385315 19.43828827 7.92224121 20.73028564 C8.78609453 23.40206495 9.64305943 26.07599663 10.5 28.75 C11.07378815 30.52618083 11.64800383 32.3022236 12.22265625 34.078125 C14.92171083 42.43534087 17.5688023 50.80491992 20.12841797 59.20605469 C20.95547868 61.85728234 21.83298727 64.48397077 22.73828125 67.109375 C23.00060547 67.88410156 23.26292969 68.65882813 23.53320312 69.45703125 C24.05953511 71.00568726 24.59895834 72.5499466 25.15039062 74.08984375 C28.19653741 83.25130286 25.98688852 90.82523058 23.25 99.8125 C21.13957592 106.94429981 19.18840667 114.08412799 17.4375 121.3125 C13.93290422 135.55366235 10.23724918 148.64412623 2 161 C-0.11903763 161.38869667 -0.11903763 161.38869667 -2.79376221 161.40786743 C-3.80595322 161.42210754 -4.81814423 161.43634766 -5.86100769 161.45101929 C-6.97583023 161.45123077 -8.09065277 161.45144226 -9.23925781 161.45166016 C-10.41009415 161.46334229 -11.58093048 161.47502441 -12.7872467 161.48706055 C-16.00444899 161.51495973 -19.22131011 161.52898803 -22.43861866 161.53470278 C-24.44915362 161.53905391 -26.45963074 161.54742653 -28.47014618 161.55720139 C-35.48614964 161.59097118 -42.50198463 161.60808489 -49.51806641 161.61083984 C-56.0542328 161.61387172 -62.58945132 161.65427319 -69.12534261 161.71198809 C-74.73820576 161.75980331 -80.35075659 161.78057195 -85.96382213 161.78063047 C-89.31560777 161.7811682 -92.66646662 161.79271958 -96.01804352 161.83180618 C-99.76057804 161.86843447 -103.50055204 161.86084518 -107.24316406 161.84228516 C-108.34988968 161.86273895 -109.4566153 161.88319275 -110.59687805 161.90426636 C-117.945551 161.80404486 -117.945551 161.80404486 -121.00829315 159.46862411 C-127.53074818 152.01737064 -131.20414459 141.86698866 -131 132 C-119.98441952 126.09910816 -108.43041885 121.52872516 -96.875 116.8125 C-92.76478944 115.1270329 -88.65587151 113.43842424 -84.546875 111.75 C-83.04491074 111.13358391 -83.04491074 111.13358391 -81.51260376 110.50471497 C-69.96857105 105.7634477 -58.47512312 100.90558977 -47 96 C-46.67 96.66 -46.34 97.32 -46 98 C-46.99609375 100.1640625 -46.99609375 100.1640625 -48.4375 102.625 C-48.91058594 103.44226563 -49.38367188 104.25953125 -49.87109375 105.1015625 C-50.24363281 105.72804688 -50.61617188 106.35453125 -51 107 C-47.34658827 108.27444595 -43.79911118 109.28159908 -40 110 C-39.53851563 109.03320312 -39.07703125 108.06640625 -38.6015625 107.0703125 C-32.09386658 93.89379711 -24.4362527 85.47071246 -11 79 C-11.97418239 70.55321442 -13.08643083 62.14973278 -14.5078125 53.765625 C-14.63919617 52.9866687 -14.77057983 52.2077124 -14.90594482 51.40515137 C-15.44635759 48.21379157 -15.99013112 45.02311282 -16.54638672 41.83447266 C-21.2660345 14.66758527 -21.2660345 14.66758527 -14 4 C-9.87131011 -0.81680488 -5.89865434 -0.3849695 0 0 Z " fill="#EDCBAF" transform="translate(455,224)"/>
<path d="M0 0 C4.63454466 -0.1140694 9.26988717 -0.18836151 13.90515518 -0.26647949 C16.43243747 -0.31752219 18.95944484 -0.38491016 21.48584366 -0.46899414 C25.00937661 -0.58203022 28.52860717 -0.63207855 32.05365372 -0.6675415 C33.60262848 -0.74014946 33.60262848 -0.74014946 35.18289566 -0.81422424 C39.61208913 -0.8031379 42.15439693 -0.7022523 45.38519669 2.50076294 C49.08651265 7.6812861 53.20990372 13.81329848 53.20990372 20.34417725 C51.60218959 21.06341778 49.99447145 21.78264936 48.38673782 22.50184631 C46.9204381 23.15786544 45.45420325 23.8140296 43.98802567 24.47032166 C39.81273095 26.33899615 35.6362564 28.20496013 31.45770645 30.06634521 C23.32469102 33.69249249 15.20082967 37.33402787 7.11792374 41.07081604 C3.66927463 42.66407729 0.21499872 44.24492063 -3.23974228 45.82492065 C-4.89173633 46.58473417 -6.54091195 47.35070721 -8.18712997 48.12295532 C-10.49450208 49.20465151 -12.81075131 50.26467019 -15.12994003 51.32073975 C-15.80446716 51.64382614 -16.47899429 51.96691254 -17.17396164 52.29978943 C-23.91300253 55.31791487 -29.11451769 53.7864621 -35.79009628 51.34417725 C-36.27478378 52.32257568 -36.75947128 53.30097412 -37.25884628 54.309021 C-43.25353875 66.14876534 -49.40383939 75.44595968 -61.79009628 81.34417725 C-63.11856011 81.69641686 -64.45143584 82.03292637 -65.79009628 82.34417725 C-64.99275293 87.17853076 -64.19306621 92.01248939 -63.39141464 96.84613037 C-63.12029781 98.48274835 -62.84976818 100.11946373 -62.5798912 101.75628662 C-60.97104859 111.51120572 -59.28180876 121.23768577 -57.37090683 130.93841553 C-55.71774392 140.63224594 -56.36322496 149.86118313 -61.66509628 158.34417725 C-64.9187292 161.40642 -67.52194513 162.19199911 -71.91509628 162.71917725 C-74.79009628 162.34417725 -74.79009628 162.34417725 -76.35216904 160.64859009 C-77.90427555 158.1611943 -78.78500872 155.89182712 -79.67193222 153.09857178 C-80.17826187 151.52379562 -80.17826187 151.52379562 -80.6948204 149.91720581 C-81.05110519 148.78193451 -81.40738998 147.64666321 -81.77447128 146.47698975 C-82.15315353 145.29184784 -82.53183578 144.10670593 -82.92199326 142.88565063 C-83.93099531 139.7229518 -84.93321622 136.55826581 -85.93218613 133.39239502 C-87.31420063 129.02017845 -88.71114517 124.65269319 -90.10442734 120.28405762 C-90.88343367 117.83256492 -91.65794359 115.37963879 -92.42791367 112.92529297 C-94.20829249 107.2548848 -96.02600897 101.60992962 -97.99908066 96.00335693 C-98.33683517 95.02011444 -98.67458969 94.03687195 -99.02257919 93.02383423 C-99.64322012 91.22550538 -100.28317083 89.43365143 -100.94775009 87.65109253 C-103.20794211 81.00828449 -102.51875972 76.06139684 -100.79009628 69.34417725 C-100.55948502 68.38896179 -100.32887375 67.43374634 -100.09127426 66.44958496 C-99.33041702 63.37218265 -98.52599562 60.30923018 -97.70806503 57.246521 C-97.41200867 56.13160782 -97.1159523 55.01669464 -96.81092453 53.86799622 C-96.1871616 51.52697712 -95.56096249 49.1866059 -94.93243027 46.84686279 C-93.98005564 43.29086005 -93.04404656 39.73079908 -92.10845566 36.17034912 C-91.49682685 33.88297174 -90.88422893 31.59585323 -90.27056503 29.309021 C-89.99641266 28.25770493 -89.72226028 27.20638885 -89.43980026 26.12321472 C-87.60555384 19.38327864 -85.14923796 13.45937253 -81.79009628 7.34417725 C-81.27721054 6.16452393 -80.7643248 4.98487061 -80.23589706 3.76947021 C-76.76883035 0.33147454 -73.97501849 0.59846567 -69.2130394 0.51210022 C-68.03964005 0.52113876 -66.86624069 0.53017731 -65.65728378 0.53948975 C-63.80231781 0.51818245 -63.80231781 0.51818245 -61.90987778 0.4964447 C-58.53064364 0.46400676 -55.15349866 0.45813067 -51.77425766 0.46640396 C-48.24626336 0.47104283 -44.71842169 0.44944456 -41.19048691 0.43084717 C-36.81768353 0.40974827 -32.44499861 0.3933754 -28.07213974 0.39286804 C-18.70940378 0.38847778 -9.35936097 0.2443514 0 0 Z " fill="#EDCBAF" transform="translate(134.79009628295898,136.65582275390625)"/>
<path d="M0 0 C0.99 6.93 1.98 13.86 3 21 C-4.87476583 26.62483274 -4.87476583 26.62483274 -7.98022461 27.90258789 C-8.6875322 28.19881042 -9.39483978 28.49503296 -10.12358093 28.80023193 C-10.87557266 29.10463196 -11.62756439 29.40903198 -12.40234375 29.72265625 C-13.62308342 30.22965057 -13.62308342 30.22965057 -14.8684845 30.74688721 C-17.55481524 31.86037484 -20.24609756 32.96133459 -22.9375 34.0625 C-24.84379831 34.85025156 -26.74971532 35.63892639 -28.65527344 36.4284668 C-32.68694026 38.09773787 -36.72046443 39.76240417 -40.75537109 41.42382812 C-50.07834138 45.26565032 -59.38225079 49.15319783 -68.6882019 53.03601074 C-71.73479638 54.30616148 -74.78238875 55.57388654 -77.83032227 56.84082031 C-86.85098613 60.59166774 -95.86480032 64.35604621 -104.8515625 68.1875 C-106.32450249 68.8134935 -107.79748269 69.43939239 -109.27050781 70.06518555 C-111.93243387 71.1962277 -114.5899055 72.33694174 -117.24511719 73.48364258 C-118.96069824 74.21296997 -118.96069824 74.21296997 -120.7109375 74.95703125 C-121.69368652 75.37960205 -122.67643555 75.80217285 -123.68896484 76.23754883 C-126 77 -126 77 -128 76 C-128.979599 74.11131287 -128.979599 74.11131287 -130.01538086 71.60717773 C-130.40596176 70.6720787 -130.79654266 69.73697968 -131.19895935 68.77354431 C-131.6167012 67.75386063 -132.03444305 66.73417694 -132.46484375 65.68359375 C-132.89881973 64.63857193 -133.33279572 63.59355011 -133.77992249 62.51686096 C-135.17209002 59.15964646 -136.55470942 55.79858602 -137.9375 52.4375 C-138.86594977 50.19702241 -139.79497913 47.95678491 -140.72460938 45.71679688 C-148.03085199 28.07295026 -148.03085199 28.07295026 -151 20 C-149.95473145 19.98018066 -148.90946289 19.96036133 -147.83251953 19.93994141 C-99.92264018 19.00211806 -53.22354836 14.97947579 -7.01025391 1.41601562 C-2.18462171 0 -2.18462171 0 0 0 Z " fill="#F79F1E" transform="translate(429,275)"/>
<path d="M0 0 C43.56 0 87.12 0 132 0 C132 0.33 132 0.66 132 1 C131.04222656 1.14695313 130.08445313 1.29390625 129.09765625 1.4453125 C102.15808989 5.8599518 80.75968627 18.3563093 61 37 C60.28585938 37.6496875 59.57171875 38.299375 58.8359375 38.96875 C47.22189252 49.94930162 36.47574811 64.28255091 29.6875 78.80859375 C28 81 28 81 25.1015625 81.70703125 C23.38066406 81.75923828 23.38066406 81.75923828 21.625 81.8125 C19.94277344 81.88404297 19.94277344 81.88404297 18.2265625 81.95703125 C12.48465386 82.01540555 6.74220536 82 1 82 C0.67 54.94 0.34 27.88 0 0 Z " fill="#04BDCB" transform="translate(38,0)"/>
<path d="M0 0 C0.9724916 0.00092179 1.9449832 0.00184359 2.94694424 0.00279331 C4.05898724 0.00141865 5.17103024 0.00004398 6.31677151 -0.00137234 C7.54747372 0.00222294 8.77817593 0.00581821 10.04617214 0.00952244 C11.33378948 0.00937641 12.62140682 0.00923038 13.94804287 0.00907993 C17.48920685 0.00879197 21.03033724 0.01468847 24.57149339 0.02165389 C28.26840913 0.02788766 31.96532556 0.02849125 35.66224575 0.0296793 C42.66749824 0.03279255 49.6727352 0.04100584 56.67798084 0.05102879 C64.65124801 0.06219013 72.6245159 0.06770043 80.59778893 0.07272422 C97.00368957 0.08318846 113.40956881 0.10153386 129.81545925 0.12304783 C129.81545925 10.68304783 129.81545925 21.24304783 129.81545925 32.12304783 C114.2377248 33.04633849 98.74565579 33.25540475 83.14358425 33.22070408 C80.63868138 33.21883393 78.13377815 33.21741285 75.62887478 33.21641636 C69.10579282 33.21263814 62.5827339 33.20284921 56.05966091 33.19171238 C49.37539875 33.18139606 42.69113337 33.17689706 36.0068655 33.17187595 C22.94305371 33.16122168 9.87925772 33.14440153 -3.18454075 33.12304783 C-3.20919467 28.58407078 -3.22737863 24.0451324 -3.23947239 19.50610447 C-3.24451215 17.96085017 -3.25134394 16.41560066 -3.2599802 14.87036228 C-3.27206151 12.65379754 -3.27777248 10.43729564 -3.282197 8.22070408 C-3.28735828 7.52590443 -3.29251957 6.83110477 -3.29783726 6.11525059 C-3.29803352 4.45075453 -3.24643204 2.78639284 -3.18454075 1.12304783 C-2.18454075 0.12304783 -2.18454075 0.12304783 0 0 Z " fill="#CECDDC" transform="translate(332.1845407485962,396.8769521713257)"/>
<path d="M0 0 C43.89 0 87.78 0 133 0 C133 10.56 133 21.12 133 32 C123.95843923 32.17471615 114.91689147 32.3440756 105.875 32.5 C104.84248171 32.51781588 104.84248171 32.51781588 103.78910446 32.53599167 C79.54621353 32.9502652 55.30874506 33.08919556 31.0625 33.0625 C29.88782291 33.06121597 29.88782291 33.06121597 28.68941498 33.05990601 C19.12624027 33.04866259 9.56315852 33.02566908 0 33 C0 22.11 0 11.22 0 0 Z " fill="#D0CFDE" transform="translate(52,93)"/>
<path d="M0 0 C27.06 0 54.12 0 82 0 C82.58321063 23.32842517 83 46.66428584 83 70 C39.77 70 -3.46 70 -48 70 C-48 69.67 -48 69.34 -48 69 C-47.09121094 68.90203125 -46.18242187 68.8040625 -45.24609375 68.703125 C-19.48721626 65.63847906 4.53260143 56.34808613 24 39 C24.83917969 38.29230469 25.67835938 37.58460938 26.54296875 36.85546875 C37.68417757 27.26884721 47.39571732 15.20856536 54 2 C36.18 1.67 18.36 1.34 0 1 C0 0.67 0 0.34 0 0 Z " fill="#F69E1D" transform="translate(393,441)"/>
<path d="M0 0 C15.84 0 31.68 0 48 0 C48 0.33 48 0.66 48 1 C38.1 1 28.2 1 18 1 C18 11.56 18 22.12 18 33 C12.06 33 6.12 33 0 33 C0 22.11 0 11.22 0 0 Z " fill="#AEAEBF" transform="translate(52,93)"/>
<path d="M0 0 C5.94 0 11.88 0 18 0 C18 10.56 18 21.12 18 32 C12.06 32 6.12 32 0 32 C0 21.44 0 10.88 0 0 Z " fill="#B3B3C4" transform="translate(444,397)"/>
<path d="M0 0 C1.53393555 2.37670898 1.53393555 2.37670898 3.13671875 5.49609375 C3.71357422 6.61177734 4.29042969 7.72746094 4.88476562 8.87695312 C5.47966797 10.05193359 6.07457031 11.22691406 6.6875 12.4375 C7.29400391 13.60861328 7.90050781 14.77972656 8.52539062 15.98632812 C13 24.70904809 13 24.70904809 13 27 C11.37750059 27.83819158 9.75191503 28.6704116 8.125 29.5 C7.22007812 29.9640625 6.31515625 30.428125 5.3828125 30.90625 C3 32 3 32 1 32 C-0.98958197 28.2763007 -2.96480551 24.54516937 -4.9375 20.8125 C-5.50146484 19.75740234 -6.06542969 18.70230469 -6.64648438 17.61523438 C-7.18466797 16.59365234 -7.72285156 15.57207031 -8.27734375 14.51953125 C-8.77484131 13.58214111 -9.27233887 12.64475098 -9.78491211 11.67895508 C-10.95953988 9.08920412 -11.57131815 6.8008695 -12 4 C-10.56988027 3.13353333 -9.13059381 2.28218171 -7.6875 1.4375 C-6.48673828 0.72400391 -6.48673828 0.72400391 -5.26171875 -0.00390625 C-3 -1 -3 -1 0 0 Z " fill="#000000" transform="translate(137,465)"/>
<path d="M0 0 C4.29 8.58 8.58 17.16 13 26 C10.02551753 28.97448247 7.85803457 30.42529201 4 32 C1.99707031 31.88989258 1.99707031 31.88989258 0 31 C-1.55566406 28.83862305 -1.55566406 28.83862305 -3.015625 26.01171875 C-3.54414063 24.99529297 -4.07265625 23.97886719 -4.6171875 22.93164062 C-5.15601563 21.86107422 -5.69484375 20.79050781 -6.25 19.6875 C-6.80429687 18.62853516 -7.35859375 17.56957031 -7.9296875 16.47851562 C-12 8.54341133 -12 8.54341133 -12 4 C-10.75539217 3.32332002 -9.50403104 2.65905281 -8.25 2 C-7.55390625 1.62875 -6.8578125 1.2575 -6.140625 0.875 C-4 0 -4 0 0 0 Z " fill="#000000" transform="translate(388,17)"/>
<path d="M0 0 C4.23962514 1.31226492 8.05233556 2.98193624 12 5 C10.60941509 7.98164317 9.21154484 10.95981819 7.8125 13.9375 C7.42513672 14.76830078 7.03777344 15.59910156 6.63867188 16.45507812 C3.97904088 22.10404643 1.10201189 27.58151343 -2 33 C-6.31044511 31.43256542 -10.04467696 29.29213067 -14 27 C-9.50260575 17.90247914 -4.95550263 8.85983804 0 0 Z " fill="#000000" transform="translate(53,464)"/>
<path d="M0 0 C3.96 1.98 7.92 3.96 12 6 C10.58443104 9.00052223 9.16757633 12.00042627 7.75 15 C7.35425781 15.83917969 6.95851563 16.67835937 6.55078125 17.54296875 C4.09826712 22.72943306 1.58467342 27.87807837 -1 33 C-5.75481646 32.42365861 -8.97048212 30.44931479 -13 28 C-12.39368083 24.03850535 -11.15202596 21.01276471 -9.27734375 17.48046875 C-8.73916016 16.45888672 -8.20097656 15.43730469 -7.64648438 14.38476562 C-7.08251953 13.32966797 -6.51855469 12.27457031 -5.9375 11.1875 C-5.36966797 10.11306641 -4.80183594 9.03863281 -4.21679688 7.93164062 C-2.81688348 5.28474556 -1.40919098 2.6419674 0 0 Z " fill="#000000" transform="translate(474,16)"/>
<path d="M0 0 C4.29 0 8.58 0 13 0 C13 10.23 13 20.46 13 31 C2 31 2 31 0 30 C0 20.1 0 10.2 0 0 Z " fill="#000000" transform="translate(424,1)"/>
<path d="M0 0 C1.216875 -0.020625 2.43375 -0.04125 3.6875 -0.0625 C4.71423828 -0.07990234 4.71423828 -0.07990234 5.76171875 -0.09765625 C8 0 8 0 13 1 C12.67 10.9 12.34 20.8 12 31 C7.71 31 3.42 31 -1 31 C-1.02720502 27.52077963 -1.04693774 24.04177632 -1.0625 20.5625 C-1.07087891 19.58861328 -1.07925781 18.61472656 -1.08789062 17.61132812 C-1.10782078 11.65221031 -0.77609518 5.90932317 0 0 Z " fill="#000000" transform="translate(89,481)"/>
<path d="M0 0 C4.16987934 5.11757919 5.58293745 9.35451308 5 16 C3.63593572 20.09219285 2.13293727 22.18602088 -1.5 24.375 C-5 26 -5 26 -8 26 C-9.00380916 23.20964954 -10.0031945 20.41785145 -11 17.625 C-11.28617187 16.8309375 -11.57234375 16.036875 -11.8671875 15.21875 C-12.13789063 14.45820313 -12.40859375 13.69765625 -12.6875 12.9140625 C-12.93886719 12.2123291 -13.19023437 11.5105957 -13.44921875 10.78759766 C-14 9 -14 9 -14 7 C-12.04350603 6.16235732 -10.08474444 5.33000941 -8.125 4.5 C-6.48917969 3.80390625 -6.48917969 3.80390625 -4.8203125 3.09375 C-2 2 -2 2 0 2 C0 1.34 0 0.68 0 0 Z " fill="#F29C1D" transform="translate(492,249)"/>
</svg>
