<svg viewBox="0 0 512 512" xmlns="http://www.w3.org/2000/svg"><g id="Layer_1" data-name="Layer 1"><path d="m335.451 422.007c0 21.772-71.938 39.422-160.679 39.422s-160.679-17.65-160.679-39.422 71.939-39.421 160.679-39.421 160.679 17.65 160.679 39.421z" fill="#80eaff"/><path d="m187.2 461.312q-6.153.115-12.429.117c-88.74 0-160.679-17.65-160.679-39.422s71.939-39.421 160.679-39.421q6.273 0 12.429.117c-82.933 1.556-148.25 18.559-148.25 39.3s65.318 37.753 148.25 39.309z" fill="#6cf"/><path d="m174.772 423.5s-149.435-70.675-149.435-223.494a149.435 149.435 0 0 1 298.87 0c0 152.819-149.435 223.494-149.435 223.494z" fill="#ff5959"/><path d="m174.772 423.5s-149.435-70.675-149.435-223.494a149.437 149.437 0 0 1 149.435-149.435c-160.679 38.286-145.7 256.215 0 372.929z" fill="#e63a57"/><path d="m265.654 202.416a90.882 90.882 0 1 1 -90.882-90.882 90.882 90.882 0 0 1 90.882 90.882z" fill="#f5f5f5"/><path d="m282.543 282.9h-20.724a3.657 3.657 0 0 1 -2.935-5.838l58.972-79.378a3.656 3.656 0 0 1 5.87 0l58.974 79.374a3.657 3.657 0 0 1 -2.935 5.838h-20.727a3.657 3.657 0 0 0 -3.657 3.656v153.487a10.871 10.871 0 0 1 -10.872 10.872h-47.437a10.872 10.872 0 0 1 -10.872-10.872v-153.487a3.656 3.656 0 0 0 -3.657-3.652zm118.139-56.863v214.002a10.871 10.871 0 0 0 10.872 10.872h47.437a10.872 10.872 0 0 0 10.872-10.872v-214.006a3.657 3.657 0 0 1 3.657-3.657h20.724a3.657 3.657 0 0 0 2.935-5.837l-58.971-79.379a3.657 3.657 0 0 0 -5.871 0l-58.971 79.379a3.656 3.656 0 0 0 2.935 5.837h20.724a3.657 3.657 0 0 1 3.657 3.657z" fill="#6cf"/><path d="m320.791 450.912h-23.719a10.873 10.873 0 0 1 -10.872-10.873v-153.487a3.656 3.656 0 0 0 -3.657-3.656h-20.723a3.657 3.657 0 0 1 -2.936-5.838l58.972-79.378a3.634 3.634 0 0 1 2.935-1.476zm114.481-315.228a3.634 3.634 0 0 0 -2.935 1.476l-58.971 79.378a3.657 3.657 0 0 0 2.935 5.838h20.724a3.657 3.657 0 0 1 3.657 3.657v214.006a10.872 10.872 0 0 0 10.872 10.873h23.718z" fill="#57a4ff"/><path d="m330.16 196.278c-1.987-83.992-70.928-151.707-155.389-151.707-85.707 0-155.434 69.728-155.434 155.435a226.879 226.879 0 0 0 23.978 102.068c12.692 25.471 30.366 49.447 52.531 71.264q3.852 3.792 7.684 7.307c-33.53 4.114-95.437 15.255-95.437 41.362 0 13.958 17.371 25.3 51.632 33.7 30.8 7.558 71.66 11.72 115.046 11.72 43.8 0 84.8-4.216 115.673-11.878a16.762 16.762 0 0 0 6.628 1.361h47.437a16.891 16.891 0 0 0 16.872-16.872v-151.138h18.381a9.657 9.657 0 0 0 7.752-15.416zm-298.823 3.728c0-79.09 64.345-143.435 143.434-143.435 75.954 0 138.3 59.344 143.124 134.1a9.678 9.678 0 0 0 -4.856 3.434l-58.972 79.375a9.657 9.657 0 0 0 7.752 15.416h18.381v34.046c-37.935 56.476-92.976 87.349-105.431 93.842-8.985-4.674-40.085-21.975-70.786-52.273-48.204-47.574-72.646-102.922-72.646-164.505zm248.863 186.121c-10.439-2.188-21.835-4.026-34.075-5.494a295.569 295.569 0 0 0 34.075-37.147zm-217.616 57.928c-33.542-8.229-42.491-17.731-42.491-22.048 0-8.913 29.731-24.183 95.688-30.642 29.853 24.837 55.142 36.956 56.425 37.563a6 6 0 0 0 5.131 0c1.713-.81 26.959-12.953 56.529-37.56a403.406 403.406 0 0 1 46.334 7.032v41.64a16.774 16.774 0 0 0 .9 5.382c-29.123 6.471-66.474 10.007-106.325 10.007-42.455 0-82.296-4.039-112.191-11.374zm296.454-167.155a9.668 9.668 0 0 0 -9.657 9.656v153.484a4.878 4.878 0 0 1 -4.872 4.872h-47.437a4.878 4.878 0 0 1 -4.872-4.872v-153.488a9.668 9.668 0 0 0 -9.657-9.656h-16.064l54.312-73.106 54.309 73.11zm142.962-63.94-58.971-79.377a9.656 9.656 0 0 0 -15.5 0l-58.972 79.379a9.657 9.657 0 0 0 7.752 15.415h18.381v211.663a16.891 16.891 0 0 0 16.872 16.872h47.437a16.891 16.891 0 0 0 16.872-16.872v-211.664h18.38a9.657 9.657 0 0 0 7.749-15.416zm-28.475 3.416a9.668 9.668 0 0 0 -9.657 9.657v214.007a4.877 4.877 0 0 1 -4.872 4.872h-47.442a4.877 4.877 0 0 1 -4.872-4.872v-214.007a9.668 9.668 0 0 0 -9.658-9.657h-16.063l54.311-73.106 54.311 73.106zm-298.754 82.924a96.882 96.882 0 1 0 -96.881-96.884 96.993 96.993 0 0 0 96.881 96.884zm0-181.764a84.882 84.882 0 1 1 -84.881 84.88 84.978 84.978 0 0 1 84.881-84.882z"/></g></svg>