<?xml version="1.0" encoding="UTF-8"?>
<svg version="1.1" xmlns="http://www.w3.org/2000/svg" width="512" height="512">
<path d="M0 0 C6.04243377 -0.10057828 12.08435664 -0.17225535 18.12744141 -0.21972656 C20.17342641 -0.23956254 22.21935696 -0.26663997 24.26513672 -0.30175781 C41.82190577 -0.59508958 58.98506863 0.65439522 75.3125 7.6875 C76.13242432 8.02998779 76.95234863 8.37247559 77.79711914 8.7253418 C91.16653501 14.48000907 102.29321311 22.20930183 113 32 C113.79921875 32.71671875 114.5984375 33.4334375 115.421875 34.171875 C126.75434489 44.86136787 134.70590735 57.87358899 141 72 C141.72316406 73.58167969 141.72316406 73.58167969 142.4609375 75.1953125 C149.74909118 92.4660282 150.56722183 110.27033201 150.25 128.75 C150.22986522 130.82680532 150.21162702 132.90362991 150.1953125 134.98046875 C150.15195963 139.98747022 150.08333464 144.99351101 150 150 C149.12129494 150.1612738 149.12129494 150.1612738 148.22483826 150.32580566 C142.10101717 151.45630477 135.98702984 152.63172496 129.87670898 153.83300781 C127.59862949 154.27481325 125.3183257 154.70531181 123.03588867 155.12402344 C119.7452103 155.72976663 116.4648148 156.37643651 113.18359375 157.03125 C112.16978134 157.20869751 111.15596893 157.38614502 110.11143494 157.56896973 C102.66395514 159.11669677 99.42986179 161.96114412 95 168 C93.87274124 169.25155027 92.73141317 170.490718 91.5703125 171.7109375 C91.00747559 172.3105127 90.44463867 172.91008789 89.86474609 173.52783203 C89.29062988 174.13739746 88.71651367 174.74696289 88.125 175.375 C83.44813006 180.36242889 78.82286345 185.38701941 74.265625 190.484375 C71.0699394 194.03268798 67.82624735 197.53577726 64.58374023 201.04125977 C61.19297728 204.70710918 57.81040923 208.38021607 54.4375 212.0625 C53.76291748 212.79895752 53.76291748 212.79895752 53.07470703 213.55029297 C52.16937398 214.53884515 51.26410037 215.52745177 50.35888672 216.51611328 C48.53181754 218.51124919 46.70374398 220.50546309 44.87548828 222.49951172 C43.96346864 223.49441281 43.05168214 224.48952768 42.14013672 225.48486328 C39.76626516 228.07647441 37.38826839 230.66412827 35.00390625 233.24609375 C34.51148438 233.78041016 34.0190625 234.31472656 33.51171875 234.86523438 C32.14560217 236.34734199 30.7779293 237.82801468 29.41015625 239.30859375 C28.61480469 240.19675781 27.81945312 241.08492187 27 242 C26.2999585 242.66386719 25.59991699 243.32773437 24.87866211 244.01171875 C22.10173569 248.42881808 22.47235381 252.38792841 22.53125 257.50390625 C22.52420044 258.53700424 22.51715088 259.57010223 22.5098877 260.63450623 C22.48061034 265.0334082 22.4967906 269.43186131 22.50927734 273.83081055 C22.54358661 319.32833064 5.98780156 352.04777326 -25.85546875 383.953125 C-28.6283928 386.72320985 -31.40749781 389.48702151 -34.1875 392.25 C-35.63109531 393.68856536 -37.07445619 395.12736601 -38.51757812 396.56640625 C-42.00902952 400.0469818 -45.50361196 403.52438385 -49 407 C-52.20822172 405.58607352 -54.35250059 403.89506369 -56.82183838 401.41867065 C-57.9407547 400.30387833 -57.9407547 400.30387833 -59.08227539 399.16656494 C-59.89075928 398.3508905 -60.69924316 397.53521606 -61.53222656 396.69482422 C-62.39112488 395.83621796 -63.25002319 394.97761169 -64.13494873 394.09298706 C-66.48539336 391.74138856 -68.83131459 389.38544268 -71.17533588 387.02745199 C-73.627448 384.56283009 -76.08523207 382.10387775 -78.54241943 379.64431763 C-83.1928819 374.98764113 -87.83822297 370.32589026 -92.48174453 365.66229355 C-97.76919919 360.35247752 -103.06233984 355.0483452 -108.35596514 349.74468207 C-119.24364811 338.83609884 -130.12417051 327.92040194 -141 317 C-143.80012153 318.27782326 -145.85040226 319.60094468 -148.02220535 321.7761097 C-148.59447963 322.34440188 -149.16675391 322.91269406 -149.75636983 323.49820721 C-150.68439322 324.43496912 -150.68439322 324.43496912 -151.63116455 325.39065552 C-152.29611773 326.05389985 -152.96107091 326.71714418 -153.64617419 327.40048683 C-155.87729754 329.62831098 -158.1011887 331.86321746 -160.32519531 334.09814453 C-161.92139461 335.69490785 -163.51803418 337.29123114 -165.11508179 338.887146 C-169.4539075 343.22539684 -173.78653018 347.56979565 -178.11808872 351.91530085 C-182.64422853 356.45392558 -187.17601581 360.98690403 -191.70721436 365.52047729 C-199.313243 373.13202002 -206.91576631 380.74704396 -214.515625 388.36474609 C-222.34335888 396.21083931 -230.17319156 404.05482823 -238.00585938 411.89599609 C-238.73012296 412.62104785 -238.73012296 412.62104785 -239.46901813 413.36074711 C-241.89132071 415.78565978 -244.31366465 418.21053113 -246.73602915 420.63538194 C-266.83043501 440.75051965 -286.91750895 460.8729673 -307 481 C-308.11829227 480.04751485 -309.23572573 479.09402133 -310.35279846 478.1401062 C-310.97516168 477.60923841 -311.59752489 477.07837063 -312.2387476 476.53141594 C-314.38171525 474.66809708 -316.40232519 472.71083508 -318.40234375 470.6953125 C-319.14677734 469.94765625 -319.89121094 469.2 -320.65820312 468.4296875 C-321.78645508 467.28886719 -321.78645508 467.28886719 -322.9375 466.125 C-323.71673828 465.34125 -324.49597656 464.5575 -325.29882812 463.75 C-327.20154085 461.83561419 -329.10186171 459.91891966 -331 458 C-326.96569438 453.1615658 -322.74444136 448.60241582 -318.28018188 444.15992737 C-317.62985406 443.50874512 -316.97952624 442.85756287 -316.30949152 442.18664783 C-314.14700571 440.02252531 -311.98098452 437.86197762 -309.81494141 435.70141602 C-308.25721105 434.14396795 -306.69970129 432.58629923 -305.14239502 431.02842712 C-300.9261125 426.81185826 -296.70675871 422.59837497 -292.48683977 418.38544583 C-288.07279802 413.97766465 -283.66159693 409.56704246 -279.25009155 405.15672302 C-271.8491651 397.75854932 -264.44649651 390.36212263 -257.04248047 382.96704102 C-249.41890785 375.35265817 -241.79639424 367.73721773 -234.17529297 360.12036133 C-233.46973953 359.41520197 -233.46973953 359.41520197 -232.74993248 358.69579697 C-230.3900558 356.3372254 -228.03020095 353.97863198 -225.67035413 351.62003052 C-206.11673169 332.07685444 -186.55954333 312.5372501 -167 293 C-170.30405874 289.08649299 -173.62554606 285.2492853 -177.25216675 281.62757874 C-178.04293106 280.83543976 -178.83369537 280.04330078 -179.64842224 279.22715759 C-180.49646927 278.38270584 -181.3445163 277.53825409 -182.21826172 276.66821289 C-183.12621994 275.76010864 -184.03417816 274.85200439 -184.96965027 273.91638184 C-187.4401235 271.44562364 -189.91365083 268.97794419 -192.38776922 266.51083684 C-194.98005325 263.92483664 -197.56947443 261.33597293 -200.15921021 258.74742126 C-205.0550324 253.85469763 -209.95339636 248.96452704 -214.85269558 244.07528538 C-220.4339174 238.50527068 -226.01227394 232.93239016 -231.59040046 227.35927594 C-243.05709847 215.90300888 -254.52736069 204.45031734 -266 193 C-265.06062038 191.89545145 -264.11998939 190.79196709 -263.17884827 189.68891907 C-262.65517198 189.07429967 -262.13149569 188.45968027 -261.59195042 187.82643604 C-259.22359019 185.10922925 -256.72072747 182.53929902 -254.18359375 179.98046875 C-253.64581802 179.43699295 -253.1080423 178.89351715 -252.55397034 178.33357239 C-251.42172332 177.19195418 -250.28807467 176.05172451 -249.15307617 174.9128418 C-247.45863404 173.20875435 -245.77521825 171.49426238 -244.09179688 169.77929688 C-232.93912431 158.51710676 -221.07843755 149.37441967 -207 142 C-205.98679687 141.46632812 -204.97359375 140.93265625 -203.9296875 140.3828125 C-197.45459574 137.18666746 -190.82831013 134.85370031 -183.9375 132.75 C-183.13489746 132.50362793 -182.33229492 132.25725586 -181.50537109 132.00341797 C-170.6806165 128.83717178 -160.26717276 127.72739826 -148.99915695 127.87843132 C-146.17708629 127.91153991 -143.35535348 127.90839871 -140.53312111 127.90814304 C-135.31034599 127.90828535 -130.08852359 127.92360334 -124.86621094 127.99633789 C-121.20127707 128.04599001 -117.5385085 128.05118921 -113.87334061 128.02820015 C-112.49155418 128.02763662 -111.1096539 128.04301741 -109.72825241 128.07563591 C-102.12737995 128.24802952 -97.13564787 127.85820225 -91.33007812 122.67163086 C-89.86292744 121.13681523 -88.41774673 119.58056457 -87 118 C-85.66040197 116.72945264 -84.31088761 115.46914775 -82.9453125 114.2265625 C-81.67108706 113.02687802 -80.3976558 111.82634947 -79.125 110.625 C-73.4276515 105.26543102 -67.69705508 99.94758005 -61.921875 94.671875 C-58.79356015 91.81122345 -55.6763228 88.9389025 -52.5625 86.0625 C-52.02214111 85.56339111 -51.48178223 85.06428223 -50.92504883 84.55004883 C-49.83035108 83.53879388 -48.73570604 82.52748188 -47.64111328 81.51611328 C-44.38912663 78.51182332 -41.13557388 75.50922901 -37.88183594 72.50683594 C-35.13430947 69.97129464 -32.38816537 67.43428429 -29.64453125 64.89453125 C-29.08636719 64.37826172 -28.52820313 63.86199219 -27.953125 63.33007812 C-26.91486141 62.36968431 -25.87704385 61.40880789 -24.83984375 60.44726562 C-24.35257812 59.99673828 -23.8653125 59.54621094 -23.36328125 59.08203125 C-22.59999512 58.35935059 -22.59999512 58.35935059 -21.82128906 57.62207031 C-20 56 -20 56 -17.49902344 54.10449219 C-9.97281458 48.12352606 -8.09201405 42.97080282 -6.625 33.625 C-6.20095561 31.304608 -5.77646675 28.9842972 -5.3515625 26.6640625 C-5.14692383 25.47071289 -4.94228516 24.27736328 -4.73144531 23.04785156 C-3.37445447 15.32400639 -1.64747153 7.66593272 0 0 Z " fill="#000000" transform="translate(346,16)"/>
</svg>
