<svg id="Capa_1" enable-background="new 0 0 511.975 511.975" height="512" viewBox="0 0 511.975 511.975" width="512" xmlns="http://www.w3.org/2000/svg"><g><g><g><g><g><path d="m159.488 369.254c-13.48 5.879-29.173-.283-35.052-13.762l-4.515-10.353c-10.507-24.091-4.735-52.257 14.363-70.088 14.365-13.413 17.984-34.982 8.799-52.451-10.057-19.129-32.978-28.028-53.314-20.699-21.516 7.74-33.562 30.97-27.441 52.861.547 1.957 1.241 3.904 2.063 5.788 5.879 13.48-.283 29.173-13.762 35.052s-29.173-.283-35.052-13.762c-1.802-4.132-3.328-8.418-4.536-12.738-13.593-48.618 13.055-100.15 60.674-117.302 45.203-16.289 96.15 3.494 118.507 46.018 20.319 38.649 12.263 86.416-19.592 116.16-2.635 2.46-3.395 6.427-1.893 9.873l4.515 10.353c5.877 13.478-.284 29.171-13.764 35.05z" fill="#ffd15b"/></g><path d="m191.162 441.877c-13.48 5.879-29.173-.283-35.052-13.762l-.088-.202c-5.879-13.48.283-29.173 13.762-35.052 13.48-5.879 29.173.283 35.052 13.762l.088.202c5.879 13.48-.283 29.173-13.762 35.052z" fill="#ffd15b"/></g><g fill="#ffc344"><g><path d="m32.616 259.694c1.203 4.322 2.736 8.601 4.538 12.734 4.19 9.607 13.363 15.502 23.167 15.956-2.553 3.029-5.817 5.526-9.694 7.217-13.471 5.875-29.171-.279-35.051-13.762-1.802-4.133-3.323-8.418-4.526-12.739-13.604-48.625 13.054-100.153 60.667-117.306 1.706-.613 3.421-1.173 5.145-1.678-37.089 21.922-56.183 66.872-44.246 109.578z"/><path d="m155.859 265.638c-19.095 17.832-24.873 46.006-14.366 70.095l4.514 10.35c4.19 9.607 13.375 15.496 23.179 15.951-2.553 3.029-5.817 5.526-9.694 7.217-13.483 5.881-29.171-.279-35.051-13.762l-4.514-10.35c-10.506-24.09-4.741-52.258 14.366-70.095 14.361-13.417 17.975-34.973 8.789-52.442-8.633-16.433-26.756-25.317-44.582-22.839 3.753-3.073 8.07-5.551 12.847-7.272 20.338-7.332 43.255 1.565 53.312 20.699 9.187 17.469 5.561 39.031-8.8 52.448z"/></g><path d="m200.859 434.657c-2.553 3.029-5.817 5.526-9.694 7.217-13.483 5.881-29.171-.279-35.051-13.762l-.09-.207c-5.875-13.471.279-29.171 13.762-35.051 3.877-1.691 7.928-2.384 11.884-2.194-6.332 7.506-8.265 18.245-4.08 27.84l.09.207c4.19 9.605 13.375 15.495 23.179 15.95z"/></g></g><g><g><g><path d="m371.883 366.66c-14.205-3.806-22.634-18.407-18.828-32.612l2.923-10.91c6.803-25.387 28.874-43.812 54.923-45.849 19.594-1.533 35.869-16.142 39.578-35.527 4.061-21.227-8.313-42.473-28.783-49.421-21.649-7.361-45.549 3.294-54.41 24.226-.792 1.871-1.463 3.827-1.995 5.812-3.806 14.205-18.407 22.634-32.612 18.828s-22.634-18.407-18.828-32.612c1.167-4.355 2.645-8.657 4.394-12.788 19.68-46.489 72.641-70.17 120.566-53.896 45.499 15.443 73.003 62.671 63.975 109.858-8.206 42.887-44.282 75.214-87.732 78.613-3.594.281-6.662 2.909-7.635 6.54l-2.923 10.91c-3.807 14.205-18.409 22.635-32.613 18.828z" fill="#6fd7a3"/></g><path d="m351.376 443.19c-14.205-3.806-22.634-18.407-18.828-32.612l.057-.213c3.806-14.205 18.407-22.634 32.612-18.828s22.634 18.407 18.828 32.612l-.057.213c-3.806 14.205-18.407 22.634-32.612 18.828z" fill="#6fd7a3"/></g><g fill="#3ec3a4"><g><path d="m340.979 201.904c-1.754 4.129-3.223 8.431-4.39 12.786-2.713 10.123.785 20.451 8.167 26.918-3.884.777-7.993.695-12.079-.4-14.196-3.804-22.635-18.402-18.828-32.611 1.167-4.355 2.649-8.653 4.403-12.782 19.675-46.501 72.642-70.173 120.564-53.904 1.716.584 3.406 1.215 5.069 1.895-42.666-5.98-85.617 17.264-102.906 58.098z"/><path d="m433.638 283.38c-26.047 2.039-48.128 20.467-54.93 45.852l-2.923 10.907c-2.713 10.123.798 20.455 8.18 26.922-3.885.777-7.993.695-12.079-.4-14.209-3.807-22.635-18.403-18.828-32.611l2.923-10.907c6.802-25.385 28.87-43.816 54.93-45.852 19.593-1.538 35.857-16.141 39.564-35.526 3.494-18.231-5.138-36.475-20.621-45.649 4.85-.064 9.77.69 14.579 2.323 20.473 6.945 32.846 28.189 28.782 49.42-3.707 19.383-19.984 33.982-39.577 35.521z"/></g><path d="m363.46 443.589c-3.885.777-7.993.695-12.079-.4-14.209-3.807-22.635-18.402-18.828-32.611l.059-.218c3.804-14.196 18.402-22.635 32.611-18.828 4.085 1.095 7.685 3.078 10.66 5.693-9.63 1.922-17.836 9.114-20.545 19.224l-.059.218c-2.712 10.124.798 20.456 8.181 26.922z"/></g></g><g><g><g><path d="m267.939 331.278c-16.511 0-29.896-13.385-29.896-29.896v-12.681c0-29.509 18.582-55.904 46.239-65.683 20.803-7.356 34.209-27.929 32.597-50.03-1.764-24.2-21.358-43.646-45.577-45.232-25.617-1.692-48.44 16.808-51.966 42.084-.315 2.259-.475 4.575-.475 6.883 0 16.511-13.385 29.896-29.896 29.896s-29.896-13.385-29.896-29.896c0-5.061.353-10.157 1.049-15.145 7.833-56.135 58.386-97.207 115.09-93.486 53.831 3.525 97.382 46.752 101.304 100.549 3.564 48.895-26.167 94.437-72.3 110.749-3.816 1.349-6.379 5.091-6.379 9.311v12.681c.002 16.511-13.383 29.896-29.894 29.896z" fill="#0573ce"/></g><path d="m267.939 420.233c-16.511 0-29.896-13.385-29.896-29.896v-.248c0-16.511 13.385-29.896 29.896-29.896s29.896 13.385 29.896 29.896v.248c0 16.511-13.385 29.896-29.896 29.896z" fill="#0573ce"/></g><g fill="#0067c5"><g><path d="m186.546 161.583c-.702 4.987-1.045 10.08-1.045 15.142 0 11.767 6.794 21.951 16.68 26.819-3.987 1.971-8.467 3.076-13.215 3.076-16.501 0-29.895-13.38-29.895-29.895 0-5.062.358-10.154 1.06-15.142 7.825-56.147 58.387-97.211 115.086-93.493 2.031.134 4.047.328 6.048.582-48.009 5.914-87.835 43.603-94.719 92.911z"/><path d="m310.711 223.016c-27.655 9.781-46.246 36.182-46.246 65.689v12.678c0 11.767 6.809 21.951 16.695 26.819-3.987 1.971-8.467 3.076-13.215 3.076-16.515 0-29.895-13.38-29.895-29.895v-12.678c0-29.507 18.576-55.908 46.246-65.689 20.801-7.362 34.196-27.924 32.583-50.024-1.508-20.786-16.172-38.063-35.629-43.514 5.241-1.478 10.796-2.091 16.486-1.717 24.221 1.583 43.812 21.025 45.574 45.231 1.612 22.1-11.798 42.662-32.599 50.024z"/></g><path d="m281.159 417.155c-3.987 1.971-8.467 3.076-13.215 3.076-16.515 0-29.895-13.38-29.895-29.895v-.254c0-16.5 13.38-29.895 29.895-29.895 4.749 0 9.228 1.105 13.215 3.076-9.885 4.883-16.695 15.067-16.695 26.819v.254c.001 11.767 6.81 21.951 16.695 26.819z"/></g></g></g><g><path d="m211.711 403.625c-3.645-8.356-10.324-14.792-18.81-18.124-8.485-3.332-17.761-3.159-26.115.485-8.355 3.644-14.792 10.324-18.124 18.809-3.331 8.485-3.159 17.76.481 26.108l.091.21c3.645 8.356 10.324 14.792 18.811 18.124 4.043 1.588 8.265 2.379 12.481 2.379 4.633 0 9.26-.957 13.634-2.864 8.355-3.644 14.792-10.324 18.123-18.809 3.332-8.485 3.159-17.76-.481-26.108zm-13.39 20.835c-1.867 4.756-5.475 8.5-10.157 10.542-4.684 2.042-9.884 2.138-14.638.271-4.756-1.867-8.5-5.475-10.539-10.15l-.091-.21c-2.043-4.683-2.14-9.881-.271-14.637 1.867-4.756 5.475-8.5 10.157-10.542 2.452-1.069 5.045-1.605 7.642-1.605 2.363 0 4.729.444 6.995 1.334 4.756 1.867 8.5 5.475 10.539 10.15l.091.21c2.043 4.684 2.139 9.882.272 14.637z"/><path d="m491.828 172.134c-2.439-3.348-7.131-4.084-10.479-1.645s-4.084 7.131-1.645 10.478c14.595 20.03 20.323 45.323 15.716 69.393-7.577 39.584-40.868 69.415-80.957 72.543-6.739.526-12.48 5.373-14.292 12.078l-2.919 10.907c-1.324 4.938-4.49 9.064-8.915 11.62-4.423 2.554-9.578 3.231-14.514 1.907-4.935-1.32-9.06-4.484-11.614-8.909-2.555-4.425-3.232-9.579-1.908-14.517l2.92-10.917c5.981-22.315 25.376-38.512 48.26-40.304 22.952-1.792 42.017-18.893 46.362-41.589 4.757-24.888-9.751-49.797-33.742-57.939-13.521-4.597-28.192-3.132-40.429 3.253.692-6.696.824-13.513.323-20.396-.49-6.716-1.564-13.275-3.159-19.632 18.121-5.692 37.607-5.548 55.571.548 7.033 2.387 13.753 5.662 19.973 9.733 1.267.829 2.691 1.226 4.101 1.226 2.445 0 4.843-1.195 6.282-3.393 2.269-3.466 1.298-8.114-2.168-10.383-7.275-4.763-15.138-8.594-23.367-11.387-21.015-7.133-43.805-7.293-64.979-.621-16.15-40.875-54.888-70.588-100.548-73.578-57.464-3.772-109.029 35.516-121.345 90.772-26.086-14.16-57.154-16.74-85.182-6.647-51.299 18.482-80.005 73.998-65.355 126.37 1.278 4.612 2.921 9.232 4.884 13.735 3.645 8.356 10.324 14.792 18.809 18.123 8.484 3.331 17.757 3.158 26.114-.487 8.355-3.645 14.791-10.326 18.122-18.813s3.158-17.76-.485-26.108c-.673-1.543-1.25-3.164-1.712-4.802-5.071-18.145 4.924-37.381 22.76-43.796 16.836-6.069 35.81 1.297 44.137 17.133 7.611 14.485 4.614 32.364-7.289 43.48-21.419 20.005-27.892 51.581-16.106 78.567l4.512 10.352c5.592 12.821 18.165 20.485 31.34 20.484 4.543 0 9.159-.912 13.583-2.838 8.354-3.645 14.791-10.326 18.122-18.813s3.158-17.76-.484-26.105l-4.512-10.364c-.246-.564-.129-1.147.137-1.394 3.119-2.917 6.076-6.044 8.788-9.294 2.653-3.181 2.226-7.91-.956-10.564-3.18-2.653-7.909-2.226-10.563.956-2.316 2.777-4.844 5.45-7.503 7.936-4.958 4.619-6.426 11.995-3.654 18.351l4.513 10.367c2.043 4.678 2.14 9.874.272 14.63-1.867 4.757-5.475 8.502-10.152 10.543-9.668 4.21-20.965-.227-25.181-9.89l-4.513-10.355c-9.247-21.176-4.185-45.934 12.597-61.607 16.827-15.715 21.074-40.971 10.328-61.422-11.792-22.428-38.664-32.86-62.496-24.267-25.189 9.06-39.3 36.27-32.12 61.963.651 2.308 1.459 4.576 2.404 6.745 2.043 4.679 2.14 9.875.272 14.631-1.867 4.757-5.474 8.502-10.157 10.544-4.683 2.043-9.88 2.14-14.635.273s-8.499-5.474-10.54-10.155c-1.682-3.858-3.088-7.811-4.184-11.764-12.548-44.86 12.046-92.402 55.988-108.233 25.715-9.26 54.437-6.046 77.704 8.493-.25 3.123-.391 6.26-.391 9.385 0 20.62 16.776 37.396 37.396 37.396.035 0 .07-.003.105-.003 6.403 18.83 6.387 39.329-.174 58.312-1.353 3.915.725 8.185 4.639 9.538.812.28 1.638.413 2.45.413 3.109 0 6.016-1.948 7.089-5.052 7.452-21.562 7.663-44.807.769-66.305 13.236-5.764 22.517-18.966 22.517-34.3 0-1.966.136-3.932.402-5.846 2.989-21.418 22.342-37.07 44.049-35.637 20.505 1.343 37.093 17.805 38.586 38.293 1.367 18.739-9.989 36.18-27.616 42.413-30.647 10.835-51.239 40.073-51.239 72.754v12.681c0 20.62 16.775 37.396 37.395 37.396s37.396-16.776 37.396-37.396v-12.681c0-1.032.567-1.953 1.379-2.24 35.179-12.439 61.422-40.781 72.199-74.976 9.391-12.038 25.811-16.992 40.365-12.044 16.947 5.751 27.193 23.343 23.834 40.917-3.078 16.074-16.564 28.186-32.8 29.453-29.209 2.287-53.955 22.933-61.579 51.379l-2.92 10.915c-2.361 8.804-1.152 18.002 3.406 25.898 4.56 7.898 11.922 13.545 20.725 15.899 2.941.789 5.927 1.18 8.894 1.18 5.91 0 11.745-1.551 17.002-4.586 7.894-4.558 13.541-11.918 15.903-20.729l2.915-10.893c.169-.625.628-.992.973-1.019 46.81-3.652 85.679-38.472 94.523-84.677 5.383-28.131-1.296-57.672-18.327-81.044zm-190.114 100.186c-6.806 2.406-11.379 8.99-11.379 16.382v12.681c0 12.349-10.047 22.396-22.396 22.396s-22.395-10.047-22.395-22.396v-12.681c0-26.337 16.572-49.891 41.239-58.612 23.982-8.48 39.435-32.185 37.577-57.646-2.034-27.913-24.633-50.341-52.562-52.17-1.255-.083-2.501-.124-3.743-.124-27.964 0-52.249 20.732-56.145 48.655-.363 2.598-.547 5.262-.547 7.92 0 12.349-10.047 22.396-22.396 22.396-12.35 0-22.396-10.047-22.396-22.396 0-4.713.329-9.46.978-14.109 7.295-52.272 54.365-90.498 107.172-87.038 50.117 3.282 90.663 43.526 94.314 93.61 3.317 45.533-24.365 87.943-67.321 103.132z"/><path d="m367.158 384.292c-8.805-2.359-18.001-1.149-25.896 3.409s-13.542 11.917-15.896 20.704l-.062.231c-4.87 18.177 5.955 36.927 24.131 41.797 2.948.79 5.908 1.167 8.824 1.167 15.066 0 28.894-10.072 32.978-25.313l.053-.198c2.36-8.805 1.149-18.002-3.408-25.897-4.56-7.893-11.919-13.54-20.724-15.9zm9.639 37.931-.053.198c-2.73 10.188-13.24 16.254-23.427 13.525-10.188-2.73-16.255-13.239-13.53-23.408l.062-.231c1.322-4.935 4.487-9.059 8.912-11.614 4.424-2.555 9.577-3.233 14.514-1.911 4.936 1.323 9.061 4.488 11.614 8.912 2.555 4.424 3.234 9.579 1.908 14.529z"/><path d="m267.939 352.694c-20.62 0-37.395 16.776-37.395 37.396v.248c0 20.62 16.775 37.396 37.395 37.396s37.396-16.776 37.396-37.396v-.248c0-20.621-16.776-37.396-37.396-37.396zm22.396 37.643c0 12.349-10.047 22.396-22.396 22.396s-22.395-10.047-22.395-22.396v-.248c0-12.349 10.047-22.396 22.395-22.396 12.349 0 22.396 10.047 22.396 22.396z"/></g></g></svg>