<?xml version="1.0" encoding="UTF-8"?>
<svg version="1.1" xmlns="http://www.w3.org/2000/svg" width="512" height="512">
<path d="M0 0 C2.41180756 2.21708438 4.75448149 4.49852312 7.09863281 6.78710938 C7.8140625 7.44066406 8.52949219 8.09421875 9.26660156 8.76757812 C30.89800147 29.01733173 42.08187665 59.93279047 43.37597656 89.00976562 C44.30532573 123.51896598 31.9442301 155.30772982 8.37133789 180.42797852 C4.79740859 184.15245047 1.20710635 187.6610969 -2.90136719 190.78710938 C-3.56136719 190.78710938 -4.22136719 190.78710938 -4.90136719 190.78710938 C-1.35300656 197.72516411 2.63348091 204.22765535 6.99804688 210.66748047 C11.05219473 216.66467847 14.90767327 222.77773951 18.75048828 228.91186523 C22.30543792 234.57252811 25.97373762 240.13253565 29.77050781 245.63476562 C31.09863281 247.78710937 31.09863281 247.78710937 31.09863281 249.78710938 C31.98164063 249.58214844 32.86464844 249.3771875 33.77441406 249.16601562 C41.2259209 247.49322838 48.46748039 246.15420563 56.09863281 245.78710938 C56.98292969 245.73425781 57.86722656 245.68140625 58.77832031 245.62695312 C84.6444011 244.8029644 111.12955493 254.15268218 130.09863281 271.78710938 C130.58138672 272.22361816 131.06414062 272.66012695 131.56152344 273.10986328 C152.28276056 291.96246509 163.50256396 317.69116187 165.06347656 345.56054688 C165.6747973 372.52300877 156.38530843 397.22131178 139.09863281 417.78710938 C138.43089844 418.63917969 137.76316406 419.49125 137.07519531 420.36914062 C121.47286694 439.45578343 95.58254307 449.85851172 71.64550781 452.50976562 C42.36211638 454.79954623 14.86832244 445.94952551 -7.48339844 426.91992188 C-8.28132813 426.21609375 -9.07925781 425.51226562 -9.90136719 424.78710938 C-10.83529297 423.97886719 -10.83529297 423.97886719 -11.78808594 423.15429688 C-30.22115014 406.05322565 -41.0672978 379.12109179 -42.12011719 354.35351562 C-42.92805528 324.53631552 -32.67623081 298.35059265 -12.45874023 276.28051758 C-3.6743895 267.12388549 7.32372655 259.5412027 19.09863281 254.78710938 C19.75863281 254.78710938 20.41863281 254.78710938 21.09863281 254.78710938 C16.90656171 247.36156364 12.46008021 240.15341681 7.80078125 233.015625 C4.80800351 228.43034145 1.84280111 223.82861383 -1.09667969 219.20898438 C-1.45740067 218.64265793 -1.81812164 218.07633148 -2.18977356 217.49284363 C-3.99401096 214.66007094 -5.79594549 211.82590207 -7.59448242 208.98950195 C-8.25391846 207.95462646 -8.91335449 206.91975098 -9.59277344 205.85351562 C-10.1826001 204.92482666 -10.77242676 203.9961377 -11.38012695 203.03930664 C-12.84492664 200.71676595 -12.84492664 200.71676595 -14.90136719 198.78710938 C-15.66835938 199.28339844 -16.43535156 199.7796875 -17.22558594 200.29101562 C-42.97616949 216.05240649 -76.15235847 221.51014958 -105.69433594 214.88867188 C-119.9908483 211.28959801 -133.20841619 206.2936933 -145.90136719 198.78710938 C-146.86623047 200.388125 -146.86623047 200.388125 -147.85058594 202.02148438 C-153.44516688 211.26214895 -159.1921556 220.3829376 -165.10620117 229.42236328 C-168.67650745 234.88522651 -172.19446242 240.37675408 -175.65136719 245.91210938 C-176.06974854 246.58129395 -176.48812988 247.25047852 -176.91918945 247.93994141 C-179.0173522 251.30263331 -179.0173522 251.30263331 -180.90136719 254.78710938 C-179.88558594 255.03332031 -178.86980469 255.27953125 -177.82324219 255.53320312 C-173.86150818 256.67095739 -170.56355484 258.57255188 -167.15136719 260.84960938 C-166.54647461 261.24809082 -165.94158203 261.64657227 -165.31835938 262.05712891 C-141.57430273 277.95526899 -125.35709448 300.71421801 -119.40917969 328.75976562 C-114.83420996 356.03362365 -119.26596087 384.63736239 -135.20898438 407.67675781 C-138.26052734 411.86638513 -141.51304727 415.86646965 -144.90136719 419.78710938 C-145.5575 420.54636719 -146.21363281 421.305625 -146.88964844 422.08789062 C-165.21710267 441.67118754 -191.90456966 451.50648202 -218.19824219 452.97070312 C-244.13966217 453.50851305 -267.91645506 445.1439913 -287.90136719 428.78710938 C-288.55363281 428.28695313 -289.20589844 427.78679687 -289.87792969 427.27148438 C-295.40073358 422.8835032 -299.60914445 417.34175056 -303.90136719 411.78710938 C-304.51109375 411.01625 -305.12082031 410.24539063 -305.74902344 409.45117188 C-321.97941331 387.78600453 -327.22377718 359.90950295 -323.65136719 333.43164062 C-319.41328971 305.91231572 -304.46561768 281.42337721 -281.96386719 264.91210938 C-255.68959967 247.91111274 -227.60663347 242.4826082 -196.88183594 248.36523438 C-194.88083371 248.80640022 -192.88924509 249.2901399 -190.90136719 249.78710938 C-190.68996094 249.14644531 -190.47855469 248.50578125 -190.26074219 247.84570312 C-188.34575235 243.53697599 -185.75536598 239.77071374 -183.15136719 235.84960938 C-181.97716744 234.06382305 -180.80402928 232.27733835 -179.63183594 230.49023438 C-179.02130371 229.56017578 -178.41077148 228.63011719 -177.78173828 227.671875 C-174.04901481 221.94532858 -170.40210817 216.16389445 -166.74804688 210.38696289 C-163.60539328 205.42870839 -160.40524559 200.52497714 -157.08081055 195.6862793 C-155.74113901 193.69285848 -155.74113901 193.69285848 -154.90136719 190.78710938 C-155.44664062 190.55507812 -155.99191406 190.32304687 -156.55371094 190.08398438 C-171.40891855 181.87777984 -182.45601542 164.50742967 -189.90136719 149.78710938 C-190.21058105 149.18205566 -190.51979492 148.57700195 -190.83837891 147.95361328 C-205.41243253 118.84359818 -206.68832099 84.75798401 -196.71386719 54.03710938 C-190.59292222 36.14486502 -180.86422314 21.53491336 -167.90136719 7.78710938 C-167.23878906 7.04847656 -166.57621094 6.30984375 -165.89355469 5.54882812 C-123.68211174 -39.63186081 -45.33111434 -40.38742535 0 0 Z " fill="#30306E" transform="translate(335.9013671875,44.212890625)"/>
<path d="M0 0 C1.55460937 0.72509766 1.55460937 0.72509766 3.140625 1.46484375 C27.18090657 13.59042437 47.23412893 37.20192121 55.90332031 62.65185547 C65.53543739 93.2420575 64.47304116 124.55213973 49.82421875 153.40234375 C39.5377148 172.7311426 39.5377148 172.7311426 33 176 C32.59910156 175.33355469 32.19820312 174.66710937 31.78515625 173.98046875 C16.01012539 148.40417155 -4.92433307 134.50055359 -33.7734375 127.30859375 C-46.05361219 124.67185954 -58.77052361 125.55098496 -71 128 C-71.94875 128.17144531 -72.8975 128.34289062 -73.875 128.51953125 C-87.49704512 131.38830434 -100.33814309 138.15606339 -111 147 C-111.91136719 147.73734375 -112.82273438 148.4746875 -113.76171875 149.234375 C-120.23932115 154.76337454 -125.07516763 160.79710999 -129.80859375 167.80078125 C-131.75987717 170.64944635 -133.80600303 173.33621781 -136 176 C-156.75209957 155.11444641 -164.40883136 125.04646121 -164.37060547 96.46411133 C-164.19998483 86.90003572 -162.84095439 78.12175537 -160 69 C-159.78569336 68.31115723 -159.57138672 67.62231445 -159.35058594 66.91259766 C-150.40462629 39.16970532 -130.79477075 15.07884055 -105.0390625 1.26171875 C-71.01155049 -16.09945101 -34.38444306 -16.42905462 0 0 Z " fill="#C792DC" transform="translate(307,37)"/>
<path d="M0 0 C4.36633202 3.42747418 8.45351116 6.98900501 12.27734375 11.01953125 C12.77234375 11.45910156 13.26734375 11.89867187 13.77734375 12.3515625 C28.52098907 25.8324419 38.09378825 47.00592101 39.47265625 66.82714844 C40.41498813 90.67599765 35.74789902 115.69916209 19.77734375 134.45703125 C18.95234375 135.30265625 18.12734375 136.14828125 17.27734375 137.01953125 C13.80877135 133.87613751 11.20050817 130.55638801 8.52734375 126.70703125 C-2.68559486 111.09275226 -20.93994773 101.01218555 -39.69921875 97.4921875 C-61.73538139 94.51295258 -82.24698945 98.42875662 -100.66796875 111.03515625 C-103.12122566 112.94074419 -105.43363581 114.92057388 -107.72265625 117.01953125 C-108.76292969 117.93992187 -108.76292969 117.93992187 -109.82421875 118.87890625 C-115.52606707 124.20650198 -119.6029533 130.44553718 -123.72265625 137.01953125 C-127.83009089 135.65038637 -129.24599257 132.86296108 -131.53515625 129.39453125 C-131.97802979 128.72663574 -132.42090332 128.05874023 -132.87719727 127.37060547 C-137.22470443 120.59265216 -140.07255747 113.61004596 -142.72265625 106.01953125 C-143.05007812 105.14167969 -143.3775 104.26382813 -143.71484375 103.359375 C-151.46047206 81.85603545 -147.62820901 55.65395838 -138.4140625 35.33203125 C-126.96886318 12.91741456 -106.74300859 -5.14069731 -82.72265625 -12.98046875 C-54.59692195 -21.19500862 -24.04070194 -17.48728247 0 0 Z " fill="#5EC8F1" transform="translate(168.72265625,316.98046875)"/>
<path d="M0 0 C15.35516749 11.85604787 26.52969384 26.65171794 33.01489258 45.03320312 C33.63364258 46.74056641 33.63364258 46.74056641 34.26489258 48.48242188 C40.19854396 67.86980366 39.05515584 91.25849729 31.38989258 109.97070312 C31.041604 110.83244141 30.69331543 111.69417969 30.33447266 112.58203125 C27.35222426 119.71108235 23.70773607 125.8731957 19.01489258 132.03320312 C18.48508789 132.79632813 17.9552832 133.55945313 17.40942383 134.34570312 C16.94922852 134.90257812 16.4890332 135.45945312 16.01489258 136.03320312 C15.35489258 136.03320312 14.69489258 136.03320312 14.01489258 136.03320312 C12.60981357 134.10121949 11.30666919 132.1638636 10.01489258 130.15820312 C-1.5941553 112.912623 -19.03186135 100.95634904 -39.48510742 96.65820312 C-64.10072886 93.45617107 -85.94008719 97.81664637 -105.92260742 112.84570312 C-111.86179316 117.50284207 -116.53621834 122.96569535 -120.98510742 129.03320312 C-121.53295898 129.77570313 -122.08081055 130.51820313 -122.64526367 131.28320312 C-123.78012301 132.85114249 -124.88706186 134.43926601 -125.98510742 136.03320312 C-139.47170308 123.7366012 -147.70197366 103.54607795 -149.19165039 85.53613281 C-149.28779399 83.01049532 -149.31434351 80.4980915 -149.29760742 77.97070312 C-149.29196777 77.06167236 -149.28632813 76.1526416 -149.28051758 75.21606445 C-148.83007664 49.71263364 -139.43893395 27.63909742 -121.98510742 9.03320312 C-107.67389811 -4.40270286 -90.26460214 -13.40316687 -70.98510742 -16.96679688 C-70.04795898 -17.14855469 -69.11081055 -17.3303125 -68.14526367 -17.51757812 C-44.42091314 -20.89001361 -19.24291521 -14.18782549 0 0 Z " fill="#E690A0" transform="translate(452.985107421875,317.966796875)"/>
<path d="M0 0 C-3.14374246 1.76138762 -6.03995405 2.48861938 -9.5625 3.1875 C-21.02701228 5.99428072 -30.1590328 13.08104469 -36.30859375 23.140625 C-37.31679355 25.07577774 -38.20600226 26.96783747 -39 29 C-39.35449219 29.89203125 -39.70898438 30.7840625 -40.07421875 31.703125 C-43.29115834 43.15923054 -41.55773635 55.61773789 -36 66 C-29.64431987 76.67038129 -20.79240814 82.40253062 -9.25 86.25 C2.79134859 88.87807211 14.30237814 86.73492508 24.75 80.3125 C34.68964939 73.0918489 39.18181924 64.45454228 43 53 C43.14961464 50.09114618 43.23118311 47.22206142 43.25 44.3125 C43.270625 43.53455078 43.29125 42.75660156 43.3125 41.95507812 C43.34032096 37.78541124 42.98443488 34.49496149 41.421875 30.60546875 C40 27 40 27 41 24 C52.84773033 33.03007527 61.35782634 45.8352681 68 59 C68.31453125 59.62100586 68.6290625 60.24201172 68.953125 60.88183594 C81.08578585 85.35848472 83.4457139 114.56489952 77 141 C73 141 73 141 71.53515625 139.6015625 C71.04917969 138.94929687 70.56320312 138.29703125 70.0625 137.625 C57.59094109 122.6379462 39.53427286 114.50703384 21 110 C20.02417969 109.75378906 19.04835938 109.50757813 18.04296875 109.25390625 C5.87520119 106.60873939 -6.8898069 107.57487204 -19 110 C-19.94875 110.17144531 -20.8975 110.34289062 -21.875 110.51953125 C-35.49704512 113.38830434 -48.33814309 120.15606339 -59 129 C-59.91136719 129.73734375 -60.82273438 130.4746875 -61.76171875 131.234375 C-68.23932115 136.76337454 -73.07516763 142.79710999 -77.80859375 149.80078125 C-79.75987717 152.64944635 -81.80600303 155.33621781 -84 158 C-104.75209957 137.11444641 -112.40883136 107.04646121 -112.37060547 78.46411133 C-112.19998483 68.90003572 -110.84095439 60.12175537 -108 51 C-107.78569336 50.31115723 -107.57138672 49.62231445 -107.35058594 48.91259766 C-102.19326215 32.91888828 -94.04231932 17.39826127 -80.875 6.625 C-79.14008998 5.12141131 -77.86470262 3.59650327 -76.4375 1.8125 C-60.75813758 -14.38662029 -18.79628248 -6.51173422 0 0 Z " fill="#CCACDB" transform="translate(255,55)"/>
<path d="M0 0 C0 0.66 0 1.32 0 2 C-0.60585938 2.14695312 -1.21171875 2.29390625 -1.8359375 2.4453125 C-11.63221347 5.06770022 -20.25234524 9.38752672 -26 18 C-31.60674762 27.77124505 -32.60946856 38.26535393 -30.31640625 49.28515625 C-26.58832801 60.28376052 -20.25239585 66.67221002 -10 72 C-1.5505808 75.42081749 8.33114981 75.25981012 16.9375 72.375 C27.3717952 67.94739106 34.58590391 60.4544381 39 50 C40.06820877 45.83030232 40.13364869 41.85657588 40.125 37.5625 C40.12757813 36.28503906 40.13015625 35.00757813 40.1328125 33.69140625 C40.01297995 30.3607663 39.63610631 27.26635544 39 24 C51.72511153 29.48981582 59.50887413 47.35338675 64.45703125 59.66015625 C71.25953195 77.93796199 72.49709692 99.05423264 68 118 C65 118 65 118 63.01171875 116.12890625 C62.24472656 115.28199219 61.47773438 114.43507813 60.6875 113.5625 C44.89761619 97.38359007 24.87369121 90.93517324 2.625 90.625 C-18.09228064 90.68125649 -36.7304468 99.10368179 -52 113 C-55.24716287 116.50288297 -58.17695658 120.14986179 -61 124 C-61.54785156 124.7425 -62.09570312 125.485 -62.66015625 126.25 C-63.79501559 127.81793937 -64.90195443 129.40606289 -66 131 C-79.48659566 118.70339807 -87.71686624 98.51287482 -89.20654297 80.50292969 C-89.30268657 77.9772922 -89.32923609 75.46488837 -89.3125 72.9375 C-89.30686035 72.02846924 -89.3012207 71.11943848 -89.29541016 70.18286133 C-88.84337118 44.58895178 -79.40250811 22.73627699 -62 4 C-58.51758257 0.81203088 -55.78330727 -0.64546244 -51.1875 -1.6875 C-50.21167969 -1.91824219 -49.23585938 -2.14898437 -48.23046875 -2.38671875 C-33.76719164 -5.13246785 -13.59486604 -6.79743302 0 0 Z " fill="#F4AEB9" transform="translate(393,323)"/>
<path d="M0 0 C-2.29442996 2.29442996 -3.46517395 2.49384528 -6.5625 3.25 C-16.9182681 6.25987792 -24.79545506 13.10691506 -30.38671875 22.2734375 C-34.35449015 30.65448446 -34.4617475 41.03049208 -31.875 49.875 C-27.88030819 59.78706239 -21.4156112 66.86240448 -12.0625 71.875 C-3.25788596 75.61726374 6.98225384 75.34334145 16 72.375 C26.15522075 68.00536229 32.62381208 61.22262398 36.875 51 C39.46358203 42.3967715 38.69335524 31.67161754 37 23 C53.56369449 36.03950417 63.99593652 56.02523165 67.6484375 76.6640625 C68.2774715 82.7312932 68.18430187 88.84505409 68.1875 94.9375 C68.19974609 96.16146484 68.21199219 97.38542969 68.22460938 98.64648438 C68.23555664 105.43014142 67.78775695 111.44960202 66 118 C65.01 118 64.02 118 63 118 C62.236875 117.05125 61.47375 116.1025 60.6875 115.125 C49.50950455 101.55760503 30.18469567 92.90186355 13 91 C-9.85320726 89.38935892 -31.10263678 93.7139809 -48.8359375 109.015625 C-49.90714844 109.99789062 -49.90714844 109.99789062 -51 111 C-51.69351563 111.61359375 -52.38703125 112.2271875 -53.1015625 112.859375 C-58.80341082 118.18697073 -62.88029705 124.42600593 -67 131 C-71.10743464 129.63085512 -72.52333632 126.84342983 -74.8125 123.375 C-75.4768103 122.37315674 -75.4768103 122.37315674 -76.15454102 121.35107422 C-80.50204818 114.57312091 -83.34990122 107.59051471 -86 100 C-86.32742187 99.12214844 -86.65484375 98.24429688 -86.9921875 97.33984375 C-94.7317773 75.85326826 -90.92547247 49.61685075 -81.6875 29.31640625 C-77.14396428 20.38709646 -71.92424087 13.34551925 -64.234375 6.90234375 C-61.83796122 4.96580956 -61.83796122 4.96580956 -59.5625 2.125 C-44.92150467 -10.0163132 -16.59849066 -3.91787345 0 0 Z " fill="#60E2E6" transform="translate(112,323)"/>
<path d="M0 0 C1.06927734 -0.01224609 2.13855469 -0.02449219 3.24023438 -0.03710938 C25.66354524 -0.07775586 46.01127477 8.30775871 62.44970703 23.68652344 C68.90916535 30.20322014 74.90299244 37.9342165 78.9375 46.1875 C78.9172056 49.04901011 78.19111602 49.89448732 76.328125 52.046875 C56.36422624 69.67922354 30.41588155 79.633037 3.875 79.5 C2.69123779 79.49436035 1.50747559 79.4887207 0.2878418 79.48291016 C-26.42992236 79.11614234 -50.48239104 70.37528331 -71.0625 53.1875 C-71.85269531 52.54296875 -72.64289063 51.8984375 -73.45703125 51.234375 C-75.0625 49.1875 -75.0625 49.1875 -75.0703125 46.83203125 C-67.93484225 28.10833605 -49.44642492 14.26607437 -31.91894531 5.99658203 C-21.36806016 1.39826097 -11.36318269 0.0066803 0 0 Z " fill="#FCFCFE" transform="translate(254.0625,171.8125)"/>
<path d="M0 0 C9.39683172 7.17813534 16.59247527 15.7510972 22.21875 26.12109375 C7.36747096 41.93051983 -14.68177114 51.47089588 -36.36328125 52.359375 C-60.39474609 52.86803832 -81.79920619 46.17878626 -100.78515625 31.05078125 C-102.83026388 29.07371047 -104.03889426 27.87248217 -104.78125 25.12109375 C-99.02516021 10.16509976 -83.08590834 -0.95470614 -69.34375 -7.62890625 C-46.05130713 -17.54128011 -20.86081583 -14.09277024 0 0 Z " fill="#FCFCFD" transform="translate(438.78125,434.87890625)"/>
<path d="M0 0 C6.91228733 6.16137032 14.53595926 13.20447268 18 22 C16.20242485 28.56238053 8.03126253 32.84864687 2.53125 36.12109375 C-20.76990177 49.35361684 -45.88563772 52.3744518 -71.74609375 45.6171875 C-85.8104353 41.54330772 -98.01594907 33.53878107 -109 24 C-106.0881798 17.59399557 -102.55244741 12.35982591 -98 7 C-97.49984375 6.40316406 -96.9996875 5.80632812 -96.484375 5.19140625 C-71.84709263 -21.74784442 -27.4406149 -23.18414989 0 0 Z " fill="#FCFCFE" transform="translate(160,438)"/>
<path d="M0 0 C0.96486328 0.62068359 0.96486328 0.62068359 1.94921875 1.25390625 C2.64402344 1.67800781 3.33882813 2.10210937 4.0546875 2.5390625 C11.41469593 7.49636649 17.1378327 15.48140854 18.94921875 24.25390625 C20.1292732 35.5882564 17.78496216 44.53931434 10.6484375 53.4375 C5.05207478 59.41981877 -1.93752027 64.09785141 -10.25 64.7578125 C-21.2934968 65.09124256 -29.8739775 63.78856703 -38.41796875 56.1328125 C-46.56129031 47.52714118 -49.44608953 39.34532828 -49.328125 27.640625 C-48.65695909 19.44483844 -44.7543286 12.11521129 -39.05078125 6.25390625 C-28.29708156 -2.62577737 -13.07355375 -7.14687605 0 0 Z " fill="#FCFCFD" transform="translate(271.05078125,68.74609375)"/>
<path d="M0 0 C7.04278968 3.83006809 11.39809135 9.52587529 13.80078125 17.14453125 C15.3388518 25.35280572 14.38632836 32.94396329 10.18359375 40.1875 C4.9978179 46.88793315 -1.72127823 51.39553435 -10.19140625 52.49609375 C-18.97560697 52.92746075 -25.92344717 50.12932275 -32.765625 44.6171875 C-38.07979635 39.07545717 -40.91755255 31.16731045 -41.31640625 23.5625 C-40.89144236 15.87202448 -37.04160822 9.49397768 -31.8515625 3.984375 C-22.48950765 -4.28154675 -11.19712063 -5.15963318 0 0 Z " fill="#FBFBFD" transform="translate(127.81640625,336.8125)"/>
<path d="M0 0 C9.05460147 4.68341456 14.06827195 10.89231584 17.25 20.4375 C18.33085929 28.94262225 15.87281052 37.38422141 10.75 44.25 C5.22685559 50.00965185 -2.46515364 53.73778365 -10.4375 54.0625 C-19.4988071 53.47663963 -26.76005217 49.15925141 -32.75 42.4375 C-37.24014698 35.37784694 -38.53284066 28.74430925 -37.75 20.4375 C-35.80574033 13.04085996 -32.62254283 6.99561809 -26.18359375 2.7421875 C-17.58349033 -2.07925249 -9.37523466 -3.68255358 0 0 Z " fill="#FBFBFD" transform="translate(407.75,335.5625)"/>
<path d="M0 0 C8.50497043 6.74298452 15.75938846 16.1108738 17.11401367 27.20800781 C17.92952366 40.22601934 16.18102445 52.02669548 7.59765625 62.41015625 C1.69047899 68.71918231 -3.92554652 73.35428223 -12.125 76.25 C-13.1975 76.6625 -14.27 77.075 -15.375 77.5 C-27.50509606 79.92601921 -39.48040674 78.08802252 -50 71.4375 C-51.39899359 70.40679723 -52.77563283 69.34486963 -54.125 68.25 C-54.75019531 67.74855469 -55.37539062 67.24710937 -56.01953125 66.73046875 C-63.43676612 60.08889243 -68.86195391 49.10682383 -69.49609375 39.1484375 C-69.85428696 25.92440996 -67.29807819 15.26882298 -58.125 5.25 C-42.12549714 -11.26784529 -18.69362695 -13.28041451 0 0 Z M-43.125 5.25 C-43.81980469 5.67410156 -44.51460937 6.09820312 -45.23046875 6.53515625 C-52.59047718 11.49246024 -58.31361395 19.47750229 -60.125 28.25 C-61.30505445 39.58435015 -58.96074341 48.53540809 -51.82421875 57.43359375 C-46.22785603 63.41591252 -39.23826098 68.09394516 -30.92578125 68.75390625 C-19.88228445 69.08733631 -11.30180375 67.78466078 -2.7578125 60.12890625 C5.38550906 51.52323493 8.27030828 43.34142203 8.15234375 31.63671875 C7.40652623 22.52934147 2.66430309 14.63191424 -4.0078125 8.52734375 C-14.90294109 -0.16739612 -30.98104818 -2.56204115 -43.125 5.25 Z " fill="#323170" transform="translate(282.125,64.75)"/>
<path d="M0 0 C7.38409703 4.80675077 13.21167739 10.61661153 17.23828125 18.45703125 C17.83640625 19.46765625 18.43453125 20.47828125 19.05078125 21.51953125 C22.12497025 29.16108675 21.32572577 39.85751736 18.2734375 47.41015625 C12.88816543 58.0587697 5.61264891 65.48027865 -5.76171875 69.45703125 C-14.05610253 72.10909817 -24.67320711 71.49015306 -32.48828125 67.77734375 C-41.92031857 62.29963135 -49.14927304 54.91732564 -52.2890625 44.23828125 C-53.93937612 34.52734493 -54.33011256 23.93067401 -48.76171875 15.45703125 C-48.32601563 14.76351563 -47.8903125 14.07 -47.44140625 13.35546875 C-43.97346139 8.29568035 -39.93551044 4.71353328 -34.76171875 1.45703125 C-34.14167969 1.04195313 -33.52164062 0.626875 -32.8828125 0.19921875 C-23.87918925 -4.83999113 -9.16888745 -4.48151148 0 0 Z M-38.32421875 16.33203125 C-43.08722417 23.76456773 -44.84702424 30.60192508 -43.76171875 39.45703125 C-41.68331843 47.94383255 -37.2290936 53.29718075 -30.19921875 58.26953125 C-23.75374921 61.4096318 -17.88916688 62.50165076 -10.76171875 61.45703125 C-3.40675961 58.9086422 3.26436455 55.33901282 7.23828125 48.45703125 C10.74332146 41.19344164 12.874605 34.10186406 10.578125 26.1796875 C7.34503218 17.9919849 2.11185939 11.7506471 -5.96484375 8.1484375 C-17.49499378 3.71183629 -30.44456631 6.48732968 -38.32421875 16.33203125 Z " fill="#32316F" transform="translate(413.76171875,327.54296875)"/>
<path d="M0 0 C7.81972468 5.45163795 13.58114246 12.80964709 16.03125 22.11328125 C17.65003301 34.11306721 15.96335063 44.94178316 8.84375 54.92578125 C2.12572317 62.93298167 -6.30440576 67.3393574 -16.6015625 68.53515625 C-27.94421844 69.29198136 -36.00815741 66.25699958 -45.18359375 59.4765625 C-52.28304632 53.06064585 -56.54815781 44.14636601 -57.20703125 34.6953125 C-57.45230807 22.23783179 -55.16833475 14.53353725 -46.40234375 5.37890625 C-33.25111401 -6.86461422 -15.5264779 -8.88499137 0 0 Z M-43.33984375 15.7890625 C-47.53525021 21.77531392 -49.00922111 27.85336485 -47.96875 35.11328125 C-45.84859678 43.60587241 -42.68267855 50.00747181 -35.30078125 54.87109375 C-27.61358752 59.14728172 -21.4668378 60.26636152 -12.85546875 58.73828125 C-5.66830612 56.66423031 0.63976088 50.92126778 4.5546875 44.6875 C8.09185351 36.82295005 8.30956495 28.87506113 5.34375 20.80078125 C1.74679573 12.90746494 -3.15708532 8.62084446 -10.96875 5.11328125 C-23.95035357 0.97918032 -35.02325077 5.62433774 -43.33984375 15.7890625 Z " fill="#303270" transform="translate(134.96875,329.88671875)"/>
</svg>
