<svg id="Capa_1" enable-background="new 0 0 511.981 511.981" height="512" viewBox="0 0 511.981 511.981" width="512" xmlns="http://www.w3.org/2000/svg"><g><g><g><path d="m171.742 293.093 190.622-.012c57.781 0 104.79-47.009 104.79-104.791s-47.008-104.79-104.789-104.79h-274.335c-10.471 0-18.958 8.488-18.958 18.958s8.488 18.958 18.958 18.958h274.335c36.874 0 66.874 30 66.874 66.874s-29.999 66.874-66.874 66.874l-190.622.012c-57.782 0-104.791 47.009-104.791 104.791 0 57.781 47.009 104.79 104.791 104.79h251.314c10.471 0 18.958-8.488 18.958-18.958 0-10.471-8.488-18.958-18.958-18.958h-251.315c-36.874 0-66.874-29.999-66.874-66.874s30-66.874 66.874-66.874z" fill="#918291"/></g><g><path d="m503.075 395.346c0 39.304-40.565 85.187-59.927 104.849-5.573 5.659-14.659 5.754-20.335.198-19.449-19.04-59.704-63.469-59.704-105.046 0-38.651 31.333-69.984 69.984-69.984s69.982 31.332 69.982 69.983z" fill="#fd8087"/></g><g><path d="m465.245 333.192c4.992 9.63 7.83 20.558 7.83 32.154 0 39.305-40.564 85.186-59.927 104.849-3.911 3.972-9.55 5.191-14.528 3.652 8.868 10.981 17.693 20.183 24.193 26.546 5.676 5.557 14.762 5.462 20.335-.198 19.363-19.662 59.927-65.544 59.927-104.849 0-27.055-15.362-50.507-37.83-62.154z" fill="#fe646f"/></g><g><path d="m148.873 77.484c0 39.304-40.565 85.187-59.927 104.849-5.573 5.66-14.66 5.754-20.336.198-19.449-19.041-59.704-63.47-59.704-105.047 0-38.651 31.332-69.984 69.983-69.984s69.984 31.333 69.984 69.984z" fill="#fd8087"/></g><g><path d="m111.043 15.33c4.993 9.63 7.83 20.558 7.83 32.154 0 39.305-40.565 85.186-59.928 104.848-3.911 3.972-9.55 5.191-14.528 3.652 8.868 10.981 17.693 20.183 24.193 26.546 5.676 5.557 14.762 5.462 20.336-.198 19.363-19.662 59.927-65.544 59.927-104.849 0-27.054-15.362-50.506-37.83-62.153z" fill="#fe646f"/></g><g><circle cx="370.089" cy="107.971" fill="#60b7ff" r="35.599"/></g><g><circle cx="177.579" cy="271.699" fill="#ffe177" r="35.599"/></g><g><ellipse cx="231.711" cy="446.922" fill="#9be69d" rx="35.599" ry="35.599" transform="matrix(.16 -.987 .987 .16 -246.556 604.053)"/></g><g><ellipse cx="433.091" cy="397.265" fill="#faf7f7" rx="33.465" ry="33.465" transform="matrix(.924 -.383 .383 .924 -119.06 195.977)"/></g><g><path d="m384.922 75.61c.5 2.375.766 4.836.766 7.36 0 19.661-15.938 35.6-35.599 35.6-5.296 0-10.316-1.165-14.833-3.239 3.391 16.128 17.696 28.239 34.833 28.239 19.661 0 35.599-15.938 35.599-35.6 0-14.365-8.514-26.734-20.766-32.36z" fill="#26a6fe"/></g><g><path d="m192.412 239.339c.5 2.376.766 4.837.766 7.36 0 19.661-15.938 35.6-35.599 35.6-5.296 0-10.316-1.165-14.833-3.239 3.391 16.129 17.696 28.239 34.833 28.239 19.661 0 35.599-15.938 35.599-35.6 0-14.365-8.514-26.734-20.766-32.36z" fill="#ffd15b"/></g><g><path d="m246.544 414.562c.5 2.375.766 4.836.766 7.36 0 19.661-15.938 35.6-35.599 35.6-5.296 0-10.316-1.165-14.833-3.239 3.391 16.128 17.696 28.239 34.833 28.239 19.661 0 35.599-15.939 35.599-35.6.001-14.365-8.513-26.734-20.766-32.36z" fill="#6fd7a3"/></g><g><ellipse cx="78.889" cy="79.403" fill="#faf7f7" rx="33.465" ry="33.465" transform="matrix(.924 -.383 .383 .924 -24.381 36.234)"/></g></g><g><path d="m433.092 317.862c-42.725 0-77.484 34.759-77.484 77.483 0 7.653 1.241 15.668 3.676 23.996h-94.484c-7.912-9.477-19.806-15.519-33.088-15.519s-25.176 6.042-33.089 15.519h-26.88c-32.739 0-59.374-26.635-59.374-59.374 0-24.327 15.031-46.293 37.579-55.223 7.487 6.27 17.123 10.054 27.631 10.054 12.659 0 24.06-5.488 31.952-14.207l57.524-.004c4.142 0 7.499-3.358 7.499-7.5s-3.358-7.5-7.501-7.5l-48.685.003c1.49-4.362 2.31-9.031 2.31-13.891 0-3.096-.335-6.114-.958-9.026l142.646-.009c41.01 0 74.374-33.364 74.374-74.374 0-23.301-10.82-44.977-29.194-59.039 3.584-6.283 5.644-13.544 5.644-21.281 0-.896-.036-1.782-.091-2.664 28.649 17.54 46.557 48.832 46.557 82.984 0 53.646-43.645 97.291-97.291 97.291l-60.312.006c-4.142 0-7.499 3.358-7.499 7.501 0 4.142 3.358 7.499 7.501 7.499l60.31-.006c61.917 0 112.29-50.374 112.29-112.291 0-44.633-26.48-85.044-67.462-102.953-.195-.085-.392-.156-.59-.223-7.631-12.147-21.141-20.243-36.515-20.243-11.095 0-21.223 4.216-28.87 11.128h-130.585c-4.143 0-7.5 3.358-7.5 7.5s3.357 7.5 7.5 7.5h119.844c-2.241 5.211-3.488 10.948-3.488 16.971 0 2.018.15 4.001.42 5.946h-179.69c3.498-7.992 5.943-15.641 7.316-22.917h20.597c4.143 0 7.5-3.358 7.5-7.5s-3.357-7.5-7.5-7.5h-19.297c-.797-42.04-35.218-75.999-77.446-75.999-42.724 0-77.483 34.759-77.483 77.483 0 19.587 8.016 41.504 23.824 65.144 12.694 18.982 27.744 35.091 38.133 45.262 4.247 4.157 9.778 6.229 15.308 6.229 5.67 0 11.339-2.179 15.618-6.524 10.376-10.536 25.411-27.097 38.121-46.161 2.832-4.249 5.405-8.42 7.738-12.518h192.29c7.374 13.202 21.482 22.154 37.649 22.154 10.624 0 20.354-3.871 27.876-10.267 14.955 11.221 23.775 28.697 23.775 47.487 0 32.739-26.635 59.374-59.374 59.374l-149.023.01c-7.748-11.497-20.887-19.074-35.763-19.074-16.897 0-31.545 9.778-38.606 23.969-22.377 6.845-42.498 20.891-56.732 39.651-14.909 19.651-22.79 43.078-22.79 67.748 0 61.917 50.374 112.29 112.292 112.29h25.133c7.844 10.756 20.534 17.764 34.836 17.764 14.301 0 26.991-7.008 34.835-17.764h121.305c10.514 13.835 21.551 25.502 29.714 33.493 4.247 4.158 9.778 6.229 15.309 6.229 5.67 0 11.339-2.179 15.617-6.523 10.376-10.536 25.412-27.097 38.122-46.161 15.899-23.849 23.962-45.365 23.962-63.951 0-42.723-34.759-77.482-77.483-77.482zm-349.489-140.792c-2.667 2.706-7.039 2.752-9.746.101-17.274-16.91-57.451-60.474-57.451-99.687 0-34.454 28.03-62.484 62.483-62.484s62.483 28.03 62.483 62.483c.001 36.935-40.4 81.948-57.769 99.587zm286.486-41c-15.494 0-28.1-12.605-28.1-28.1s12.605-28.099 28.1-28.099c15.494 0 28.1 12.605 28.1 28.099s-12.606 28.1-28.1 28.1zm-192.51 107.53c15.493 0 28.099 12.605 28.099 28.1 0 15.494-12.605 28.099-28.099 28.099s-28.1-12.605-28.1-28.099 12.606-28.1 28.1-28.1zm-5.836 213.658c-53.646 0-97.292-43.645-97.292-97.29 0-21.369 6.826-41.661 19.74-58.682 10.434-13.753 24.513-24.573 40.328-31.179-.019.529-.04 1.058-.04 1.592 0 7.636 2.005 14.809 5.502 21.035-25.747 12.203-42.613 38.39-42.613 67.233 0 41.01 33.364 74.374 74.374 74.374h18.747c-1.218 3.982-1.878 8.205-1.878 12.581 0 3.562.443 7.022 1.261 10.336zm59.969 17.764c-15.494 0-28.1-12.605-28.1-28.1 0-15.494 12.605-28.099 28.1-28.099 15.493 0 28.099 12.605 28.099 28.099-.001 15.495-12.606 28.1-28.099 28.1zm41.22-40.68h91.881c3.292 7.428 7.474 15.076 12.514 22.917h-103.778c.819-3.314 1.262-6.773 1.262-10.336-.001-4.376-.661-8.599-1.879-12.581zm164.871 60.59c-2.665 2.708-7.037 2.751-9.745.101-17.273-16.91-57.451-60.475-57.451-99.687 0-34.454 28.03-62.483 62.484-62.483 34.453 0 62.483 28.03 62.483 62.483.001 36.934-40.4 81.947-57.771 99.586z"/><path d="m433.092 356.3c-22.588 0-40.965 18.377-40.965 40.965s18.377 40.965 40.965 40.965 40.965-18.377 40.965-40.965c-.001-22.588-18.377-40.965-40.965-40.965zm0 66.93c-14.317 0-25.965-11.648-25.965-25.965s11.647-25.965 25.965-25.965c14.317 0 25.965 11.648 25.965 25.965s-11.648 25.965-25.965 25.965z"/><path d="m78.889 38.438c-22.588 0-40.965 18.377-40.965 40.965s18.377 40.965 40.965 40.965 40.965-18.377 40.965-40.965-18.377-40.965-40.965-40.965zm0 66.93c-14.317 0-25.965-11.648-25.965-25.965s11.648-25.965 25.965-25.965 25.965 11.648 25.965 25.965-11.647 25.965-25.965 25.965z"/></g></g></svg>