<?xml version="1.0" encoding="UTF-8"?>
<!DOCTYPE svg PUBLIC "-//W3C//DTD SVG 1.1//EN" "http://www.w3.org/Graphics/SVG/1.1/DTD/svg11.dtd">
<svg xmlns="http://www.w3.org/2000/svg" version="1.1" width="128px" height="128px" style="shape-rendering:geometricPrecision; text-rendering:geometricPrecision; image-rendering:optimizeQuality; fill-rule:evenodd; clip-rule:evenodd" xmlns:xlink="http://www.w3.org/1999/xlink">
<g><path style="opacity:0.934" fill="#602a6f" d="M 41.5,6.5 C 56.9296,6.03185 72.2629,6.53185 87.5,8C 89.9458,12.3901 92.2791,16.8901 94.5,21.5C 97.7848,22.3236 101.118,22.8236 104.5,23C 106.333,23.5 107.5,24.6667 108,26.5C 108.667,29.1667 108.667,31.8333 108,34.5C 105.965,36.2404 104.131,38.0738 102.5,40C 106.134,45.9381 107.467,52.4381 106.5,59.5C 111.487,58.3491 114.987,60.0158 117,64.5C 117.967,79.5931 117.633,94.5931 116,109.5C 115.167,110.333 114.333,111.167 113.5,112C 80.1667,112.667 46.8333,112.667 13.5,112C 12.6667,111.167 11.8333,110.333 11,109.5C 9.36657,94.5931 9.03323,79.5931 10,64.5C 12.0133,60.0158 15.5133,58.3491 20.5,59.5C 19.5327,52.4381 20.8661,45.9381 24.5,40C 22.8686,38.0738 21.0353,36.2404 19,34.5C 18.3333,31.8333 18.3333,29.1667 19,26.5C 19.5,24.6667 20.6667,23.5 22.5,23C 25.8333,22.6667 29.1667,22.3333 32.5,22C 34.6448,16.1931 37.6448,11.0265 41.5,6.5 Z"/></g>
<g><path style="opacity:1" fill="#5fc2f5" d="M 96.5,38.5 C 85.8542,39.8322 74.8542,40.4989 63.5,40.5C 52.1458,40.4989 41.1458,39.8322 30.5,38.5C 34.1637,29.0064 38.497,19.8398 43.5,11C 56.8333,10.3333 70.1667,10.3333 83.5,11C 88.503,19.8398 92.8363,29.0064 96.5,38.5 Z"/></g>
<g><path style="opacity:1" fill="#643376" d="M 45.5,13.5 C 57.5046,13.3335 69.5046,13.5001 81.5,14C 86.0749,21.3151 89.4082,29.1485 91.5,37.5C 72.8333,37.5 54.1667,37.5 35.5,37.5C 37.7341,29.033 41.0675,21.033 45.5,13.5 Z"/></g>
<g><path style="opacity:1" fill="#fde2e3" d="M 47.5,18.5 C 56.1922,18.1686 64.8589,18.502 73.5,19.5C 74.3124,21.9446 75.3124,24.2779 76.5,26.5C 74.4727,26.3379 72.4727,26.5045 70.5,27C 69.2089,28.2917 69.2089,29.4583 70.5,30.5C 72.9686,31.3171 75.6353,31.8171 78.5,32C 79.056,32.3826 79.3893,32.8826 79.5,33.5C 66.4957,33.6666 53.4957,33.4999 40.5,33C 42.7363,28.0298 45.0697,23.1965 47.5,18.5 Z"/></g>
<g><path style="opacity:1" fill="#e8b9c4" d="M 47.5,18.5 C 57.992,17.3412 68.6586,17.1745 79.5,18C 81.8333,23 84.1667,28 86.5,33C 84.1902,33.4966 81.8568,33.6633 79.5,33.5C 79.3893,32.8826 79.056,32.3826 78.5,32C 75.6353,31.8171 72.9686,31.3171 70.5,30.5C 73.8333,30.5 77.1667,30.5 80.5,30.5C 80.8333,27.5 79.5,26.1667 76.5,26.5C 75.3124,24.2779 74.3124,21.9446 73.5,19.5C 64.8589,18.502 56.1922,18.1686 47.5,18.5 Z"/></g>
<g><path style="opacity:1" fill="#5fc2f5" d="M 24.5,26.5 C 26.5,26.5 28.5,26.5 30.5,26.5C 30.4415,29.6229 29.1082,31.9563 26.5,33.5C 22.1675,32.1718 21.5008,29.8385 24.5,26.5 Z"/></g>
<g><path style="opacity:1" fill="#6f3978" d="M 62.5,26.5 C 63.5,26.5 64.5,26.5 65.5,26.5C 65.5,27.8333 65.5,29.1667 65.5,30.5C 64.1667,30.5 62.8333,30.5 61.5,30.5C 61.4326,29.0413 61.7659,27.7079 62.5,26.5 Z"/></g>
<g><path style="opacity:1" fill="#6b3475" d="M 76.5,26.5 C 79.5,26.1667 80.8333,27.5 80.5,30.5C 77.1667,30.5 73.8333,30.5 70.5,30.5C 69.2089,29.4583 69.2089,28.2917 70.5,27C 72.4727,26.5045 74.4727,26.3379 76.5,26.5 Z"/></g>
<g><path style="opacity:1" fill="#5fc2f5" d="M 96.5,26.5 C 98.5273,26.3379 100.527,26.5045 102.5,27C 105.388,30.172 104.722,32.3386 100.5,33.5C 97.8918,31.9563 96.5585,29.6229 96.5,26.5 Z"/></g>
<g><path style="opacity:1" fill="#5f8bc6" d="M 30.5,38.5 C 41.1458,39.8322 52.1458,40.4989 63.5,40.5C 74.8542,40.4989 85.8542,39.8322 96.5,38.5C 97.404,39.209 97.7373,40.209 97.5,41.5C 74.8333,41.5 52.1667,41.5 29.5,41.5C 29.2627,40.209 29.596,39.209 30.5,38.5 Z"/></g>
<g><path style="opacity:1" fill="#5fc7f9" d="M 26.5,45.5 C 51.1689,45.3334 75.8356,45.5 100.5,46C 101.126,46.7504 101.626,47.5838 102,48.5C 102.499,52.1516 102.665,55.8183 102.5,59.5C 76.5,59.5 50.5,59.5 24.5,59.5C 24.0328,54.6001 24.6994,49.9334 26.5,45.5 Z"/></g>
<g><path style="opacity:1" fill="#613073" d="M 36.5,46.5 C 39.8499,46.335 43.1832,46.5017 46.5,47C 50.6185,51.0734 50.2852,54.74 45.5,58C 39.6126,59.9593 35.6126,58.1259 33.5,52.5C 33.9837,50.1992 34.9837,48.1992 36.5,46.5 Z"/></g>
<g><path style="opacity:1" fill="#612e72" d="M 80.5,46.5 C 84.3076,46.1632 87.9743,46.6632 91.5,48C 93.46,57.0328 89.7933,60.3661 80.5,58C 76.5548,54.1694 76.5548,50.3361 80.5,46.5 Z"/></g>
<g><path style="opacity:1" fill="#e8c03d" d="M 38.5,50.5 C 40.8333,50.5 43.1667,50.5 45.5,50.5C 45.8453,53.488 44.512,54.8213 41.5,54.5C 38.0318,54.7205 37.0318,53.3872 38.5,50.5 Z"/></g>
<g><path style="opacity:1" fill="#5f2e74" d="M 53.5,50.5 C 60.175,50.3337 66.8417,50.5004 73.5,51C 74.8333,52 74.8333,53 73.5,54C 66.8333,54.6667 60.1667,54.6667 53.5,54C 52.3157,52.8545 52.3157,51.6879 53.5,50.5 Z"/></g>
<g><path style="opacity:1" fill="#e8c03d" d="M 81.5,50.5 C 83.8568,50.3367 86.1902,50.5034 88.5,51C 89.8333,52 89.8333,53 88.5,54C 86.5,54.6667 84.5,54.6667 82.5,54C 81.6634,52.9887 81.33,51.8221 81.5,50.5 Z"/></g>
<g><path style="opacity:1" fill="#f36fa0" d="M 20.5,63.5 C 20.5,63.8333 20.5,64.1667 20.5,64.5C 19.1667,67.1667 19.1667,69.8333 20.5,72.5C 17.8333,76.1667 17.8333,79.8333 20.5,83.5C 19.0332,86.6543 19.3665,89.6543 21.5,92.5C 20.5,92.5 19.5,92.5 18.5,92.5C 18.1658,95.188 18.8325,97.5214 20.5,99.5C 19.1667,102.167 19.1667,104.833 20.5,107.5C 20.5,107.833 20.5,108.167 20.5,108.5C 18.5328,108.739 16.6995,108.406 15,107.5C 14.3333,93.1667 14.3333,78.8333 15,64.5C 16.6995,63.5939 18.5328,63.2606 20.5,63.5 Z"/></g>
<g><path style="opacity:1" fill="#fc4972" d="M 20.5,64.5 C 49.5,64.5 78.5,64.5 107.5,64.5C 107.5,75.1667 107.5,85.8333 107.5,96.5C 103.5,96.5 99.5,96.5 95.5,96.5C 94.5073,88.3501 94.1739,80.0168 94.5,71.5C 93.5,71.5 92.5,71.5 91.5,71.5C 91.3335,80.8393 91.5002,90.1726 92,99.5C 92.6708,100.252 93.5041,100.586 94.5,100.5C 98.6344,101.485 102.968,101.818 107.5,101.5C 107.739,103.467 107.406,105.301 106.5,107C 77.8353,107.5 49.1686,107.667 20.5,107.5C 19.1667,104.833 19.1667,102.167 20.5,99.5C 32.5343,103.297 37.7009,98.9637 36,86.5C 33.0895,81.1372 28.5895,79.1372 22.5,80.5C 22.5,78.8333 22.5,77.1667 22.5,75.5C 25.5,75.5 28.5,75.5 31.5,75.5C 31.1667,78.5 32.5,79.8333 35.5,79.5C 34.6877,71.7399 30.3544,68.9066 22.5,71C 21.9558,71.7172 21.2891,72.2172 20.5,72.5C 19.1667,69.8333 19.1667,67.1667 20.5,64.5 Z"/></g>
<g><path style="opacity:1" fill="#e3356d" d="M 20.5,64.5 C 20.5,64.1667 20.5,63.8333 20.5,63.5C 50.8352,63.3334 81.1685,63.5 111.5,64C 112.159,71.2569 112.492,78.5902 112.5,86C 112.492,93.4098 112.159,100.743 111.5,108C 81.1685,108.5 50.8352,108.667 20.5,108.5C 20.5,108.167 20.5,107.833 20.5,107.5C 49.1686,107.667 77.8353,107.5 106.5,107C 107.406,105.301 107.739,103.467 107.5,101.5C 102.968,101.818 98.6344,101.485 94.5,100.5C 99.1667,100.5 103.833,100.5 108.5,100.5C 108.5,99.5 108.5,98.5 108.5,97.5C 103.968,97.8182 99.6344,97.4849 95.5,96.5C 99.5,96.5 103.5,96.5 107.5,96.5C 107.5,85.8333 107.5,75.1667 107.5,64.5C 78.5,64.5 49.5,64.5 20.5,64.5 Z"/></g>
<g><path style="opacity:1" fill="#70296d" d="M 20.5,99.5 C 18.8325,97.5214 18.1658,95.188 18.5,92.5C 19.5,92.5 20.5,92.5 21.5,92.5C 22.2341,93.7079 22.5674,95.0413 22.5,96.5C 25.5,96.5 28.5,96.5 31.5,96.5C 31.5,92.8333 31.5,89.1667 31.5,85.5C 27.5863,85.8887 23.9196,85.2221 20.5,83.5C 17.8333,79.8333 17.8333,76.1667 20.5,72.5C 21.2891,72.2172 21.9558,71.7172 22.5,71C 30.3544,68.9066 34.6877,71.7399 35.5,79.5C 32.5,79.8333 31.1667,78.5 31.5,75.5C 28.5,75.5 25.5,75.5 22.5,75.5C 22.5,77.1667 22.5,78.8333 22.5,80.5C 28.5895,79.1372 33.0895,81.1372 36,86.5C 37.7009,98.9637 32.5343,103.297 20.5,99.5 Z"/></g>
<g><path style="opacity:1" fill="#7b2b6e" d="M 44.5,70.5 C 49.7616,70.1953 54.9283,70.5286 60,71.5C 60.6838,72.7839 60.5171,73.9505 59.5,75C 55.5138,75.4988 51.5138,75.6655 47.5,75.5C 47.5,77.1667 47.5,78.8333 47.5,80.5C 49.8568,80.3367 52.1902,80.5034 54.5,81C 55.8333,82.3333 55.8333,83.6667 54.5,85C 52.1902,85.4966 49.8568,85.6633 47.5,85.5C 47.5,89.1667 47.5,92.8333 47.5,96.5C 51.5138,96.3345 55.5138,96.5012 59.5,97C 60.8333,98.3333 60.8333,99.6667 59.5,101C 54.5,101.667 49.5,101.667 44.5,101C 44,100.5 43.5,100 43,99.5C 42.3333,90.5 42.3333,81.5 43,72.5C 43.7172,71.9558 44.2172,71.2891 44.5,70.5 Z"/></g>
<g><path style="opacity:1" fill="#772b6e" d="M 67.5,71.5 C 68.8221,71.33 69.9887,71.6634 71,72.5C 71.4997,80.4931 71.6664,88.4931 71.5,96.5C 75.5138,96.3345 79.5138,96.5012 83.5,97C 84.3366,98.0113 84.67,99.1779 84.5,100.5C 78.9066,100.807 73.4066,100.473 68,99.5C 66.1942,90.1906 66.0275,80.8573 67.5,71.5 Z"/></g>
<g><path style="opacity:1" fill="#60266d" d="M 95.5,96.5 C 99.6344,97.4849 103.968,97.8182 108.5,97.5C 108.5,98.5 108.5,99.5 108.5,100.5C 103.833,100.5 99.1667,100.5 94.5,100.5C 93.5041,100.586 92.6708,100.252 92,99.5C 91.5002,90.1726 91.3335,80.8393 91.5,71.5C 92.5,71.5 93.5,71.5 94.5,71.5C 94.1739,80.0168 94.5073,88.3501 95.5,96.5 Z"/></g>
<g><path style="opacity:1" fill="#fc4973" d="M 20.5,83.5 C 23.9196,85.2221 27.5863,85.8887 31.5,85.5C 31.5,89.1667 31.5,92.8333 31.5,96.5C 28.5,96.5 25.5,96.5 22.5,96.5C 22.5674,95.0413 22.2341,93.7079 21.5,92.5C 19.3665,89.6543 19.0332,86.6543 20.5,83.5 Z"/></g>
</svg>
