<?xml version="1.0" encoding="UTF-8"?>
<svg version="1.1" xmlns="http://www.w3.org/2000/svg" width="512" height="512">
<path d="M0 0 C0.81176193 -0.00979385 1.62352386 -0.01958771 2.45988464 -0.02967834 C20.41050814 -0.20159234 37.77187806 -0.06098703 55.3125 4.23828125 C56.20340332 4.45258789 57.09430664 4.66689453 58.01220703 4.88769531 C97.62055165 14.69167036 136.6766493 36.89115831 162.3125 69.23828125 C163.0653125 70.16511719 163.818125 71.09195313 164.59375 72.046875 C200.8704339 117.40693374 212.76941532 172.77004817 206.71044922 229.85009766 C201.87260133 271.04006885 189.2226898 309.04055147 171.3125 346.23828125 C172.58625488 346.63635986 172.58625488 346.63635986 173.88574219 347.04248047 C177.43576518 348.28129584 180.74366839 349.76007475 184.140625 351.37109375 C184.79465302 351.68001556 185.44868103 351.98893738 186.12252808 352.30722046 C188.27070473 353.32273189 190.4166011 354.34296661 192.5625 355.36328125 C194.07129251 356.07781045 195.58024708 356.79199756 197.08935547 357.50585938 C199.43922792 358.61756513 201.7889414 359.7295974 204.13803101 360.84295654 C209.60409613 363.43326372 215.07710659 366.00836209 220.5546875 368.57421875 C222.05958231 369.27975956 223.56446527 369.98532566 225.06933594 370.69091797 C227.21706548 371.6978701 229.36499325 372.70438096 231.51379395 373.70904541 C235.45400838 375.55191876 239.38655949 377.40969046 243.31066895 379.28662109 C244.69584819 379.94512816 246.08400439 380.59739605 247.4744873 381.24462891 C249.65384095 382.26003012 251.82341338 383.29425921 253.9921875 384.33203125 C254.65219757 384.63435669 255.31220764 384.93668213 255.99221802 385.24816895 C261.19263513 387.77352206 264.67513101 390.96354327 267.3125 396.23828125 C267.84743214 402.01730225 268.44144945 408.61558753 265.00756836 413.61523438 C262.7158112 415.80961744 260.21816374 417.31392231 257.50390625 418.95703125 C256.93223724 419.30340637 256.36056824 419.64978149 255.77157593 420.00665283 C249.41681703 423.8277486 242.93581889 427.4178566 236.4375 430.98828125 C234.10625226 432.27380153 231.77584659 433.56084208 229.4453125 434.84765625 C228.37829102 435.43611328 227.31126953 436.02457031 226.21191406 436.63085938 C222.8942246 438.47017122 219.59778372 440.34182009 216.3125 442.23828125 C216.77887309 448.64926911 217.73847727 454.87000043 218.94140625 461.17578125 C219.17287857 462.39152832 219.17287857 462.39152832 219.4090271 463.63183594 C220.05815921 467.02184443 220.71278483 470.4107076 221.37670898 473.79785156 C226.01778791 497.5671156 226.01778791 497.5671156 222.25 504.61328125 C218.92324947 509.17832226 215.48404371 511.63849942 209.95776367 512.68359375 C199.27000014 513.38775577 190.94999497 508.40649949 181.6875 503.73828125 C179.91367379 502.86645268 178.13858713 501.99718432 176.36230469 501.13037109 C172.74754115 499.36424984 169.13810313 497.5879018 165.53222656 495.80371094 C158.61868231 492.39291033 151.64562723 489.1118391 144.66278076 485.84588623 C142.56922656 484.86642824 140.47703786 483.88411122 138.38525391 482.90087891 C134.36241348 481.01033023 130.3378123 479.1235604 126.3125 477.23828125 C125.65813965 476.93172607 125.0037793 476.6251709 124.32958984 476.30932617 C119.90944689 474.23919491 115.48665663 472.17482115 111.0625 470.11328125 C109.43103027 469.35072021 109.43103027 469.35072021 107.76660156 468.57275391 C100.012768 464.9692479 92.18641825 461.5693281 84.3125 458.23828125 C83.85794434 458.70322998 83.40338867 459.16817871 82.93505859 459.6472168 C78.58217555 464.08328012 74.03776944 468.20489819 69.3125 472.23828125 C68.34183594 473.07488281 67.37117188 473.91148437 66.37109375 474.7734375 C51.60619622 487.44198643 35.99436356 499.42242488 19.6875 510.05078125 C19.01460938 510.49035156 18.34171875 510.92992187 17.6484375 511.3828125 C14.17964024 512.65315799 10.92462463 512.78842361 7.3125 512.23828125 C3.99609375 510.65625 3.99609375 510.65625 0.75 508.42578125 C0.15703125 508.02343262 -0.4359375 507.62108398 -1.046875 507.20654297 C-2.94410148 505.90642577 -4.81741128 504.57708929 -6.6875 503.23828125 C-7.30608887 502.79983887 -7.92467773 502.36139648 -8.56201172 501.90966797 C-27.31216802 488.56980983 -44.82791565 473.88112247 -61.6875 458.23828125 C-72.77017143 463.11030289 -83.78064796 468.10626861 -94.71350098 473.3057251 C-98.61925199 475.16298806 -102.52859108 477.01267634 -106.4375 478.86328125 C-107.2228009 479.23526642 -108.00810181 479.60725159 -108.81719971 479.99050903 C-113.72653275 482.314689 -118.64094817 484.62758927 -123.5625 486.92578125 C-124.49000565 487.35893646 -124.49000565 487.35893646 -125.43624878 487.80084229 C-128.47481714 489.21847707 -131.51574676 490.63069211 -134.55908203 492.03808594 C-140.42473847 494.75344302 -146.26555722 497.50637959 -152.06201172 500.36709595 C-154.94150363 501.78600348 -157.82926974 503.18761339 -160.71765137 504.58831787 C-162.09108929 505.26031085 -163.46051151 505.94058818 -164.82531738 506.62994385 C-173.57079196 511.04414181 -181.92838502 514.53880811 -191.79711914 511.61279297 C-196.76695235 509.23507926 -199.66925972 505.1996172 -201.6875 500.23828125 C-202.49455062 493.34153911 -201.25319543 486.53126211 -199.9375 479.77734375 C-199.75993164 478.82435394 -199.58236328 477.87136414 -199.39941406 476.88949585 C-198.83722006 473.8790964 -198.26309372 470.87114472 -197.6875 467.86328125 C-197.11382457 464.83367819 -196.54274704 461.80362605 -195.97558594 458.77279663 C-195.62368449 456.89555647 -195.26772956 455.01907046 -194.90722656 453.14346313 C-194.74706055 452.29512909 -194.58689453 451.44679504 -194.421875 450.57275391 C-194.27975586 449.83014313 -194.13763672 449.08753235 -193.99121094 448.32241821 C-193.59136536 445.92960737 -193.59136536 445.92960737 -193.6875 442.23828125 C-194.87170532 441.58980225 -194.87170532 441.58980225 -196.07983398 440.92822266 C-222.5180473 426.43599391 -222.5180473 426.43599391 -232.75 420.55078125 C-233.74567993 419.99221436 -233.74567993 419.99221436 -234.76147461 419.42236328 C-239.64254099 416.5758858 -242.88089871 413.65808513 -244.6875 408.23828125 C-245.17738853 402.67282634 -245.45564541 397.83147173 -243 392.73828125 C-238.40422478 387.76987561 -233.48176137 384.96218335 -227.43359375 382.1484375 C-226.62834259 381.76741882 -225.82309143 381.38640015 -224.99343872 380.99383545 C-222.37363689 379.75631021 -219.74944621 378.52842215 -217.125 377.30078125 C-215.31022694 376.44606297 -213.49569399 375.59083469 -211.68139648 374.73510742 C-206.35489109 372.22588006 -201.0224557 369.72948479 -195.6875 367.23828125 C-194.94616821 366.8920874 -194.20483643 366.54589355 -193.44104004 366.18920898 C-186.84592707 363.11110627 -180.24444479 360.0470426 -173.63671875 356.99609375 C-169.83766664 355.24043893 -166.04815086 353.46717786 -162.26953125 351.66796875 C-161.05898071 351.09212036 -161.05898071 351.09212036 -159.82397461 350.50463867 C-158.3739433 349.8128878 -156.92539479 349.11801502 -155.47875977 348.41918945 C-150.90646803 346.23828125 -150.90646803 346.23828125 -148.6875 346.23828125 C-149.06970703 345.41440918 -149.45191406 344.59053711 -149.84570312 343.74169922 C-180.44403019 277.54658192 -199.42675564 201.18426136 -174.58422852 129.85009766 C-173.38666095 126.60079384 -172.06706904 123.41414008 -170.6875 120.23828125 C-170.36410645 119.49271973 -170.04071289 118.7471582 -169.70751953 117.97900391 C-161.17663538 98.61449344 -150.18164349 81.10866207 -135.79296875 65.53125 C-133.92541796 63.49738671 -132.1476578 61.41681102 -130.375 59.30078125 C-99.14357167 23.81052178 -47.19227601 0.47212667 0 0 Z " fill="#F34234" transform="translate(244.6875,-0.23828125)"/>
<path d="M0 0 C0.81176193 -0.00979385 1.62352386 -0.01958771 2.45988464 -0.02967834 C20.41050814 -0.20159234 37.77187806 -0.06098703 55.3125 4.23828125 C56.20340332 4.45258789 57.09430664 4.66689453 58.01220703 4.88769531 C97.62055165 14.69167036 136.6766493 36.89115831 162.3125 69.23828125 C163.0653125 70.16511719 163.818125 71.09195313 164.59375 72.046875 C200.8704339 117.40693374 212.76941532 172.77004817 206.71044922 229.85009766 C201.87260133 271.04006885 189.2226898 309.04055147 171.3125 346.23828125 C172.58625488 346.63635986 172.58625488 346.63635986 173.88574219 347.04248047 C177.43576518 348.28129584 180.74366839 349.76007475 184.140625 351.37109375 C184.79465302 351.68001556 185.44868103 351.98893738 186.12252808 352.30722046 C188.27070473 353.32273189 190.4166011 354.34296661 192.5625 355.36328125 C194.07129251 356.07781045 195.58024708 356.79199756 197.08935547 357.50585938 C199.43922792 358.61756513 201.7889414 359.7295974 204.13803101 360.84295654 C209.60409613 363.43326372 215.07710659 366.00836209 220.5546875 368.57421875 C222.05958231 369.27975956 223.56446527 369.98532566 225.06933594 370.69091797 C227.21706548 371.6978701 229.36499325 372.70438096 231.51379395 373.70904541 C235.45400838 375.55191876 239.38655949 377.40969046 243.31066895 379.28662109 C244.69584819 379.94512816 246.08400439 380.59739605 247.4744873 381.24462891 C249.65384095 382.26003012 251.82341338 383.29425921 253.9921875 384.33203125 C254.65219757 384.63435669 255.31220764 384.93668213 255.99221802 385.24816895 C261.19263513 387.77352206 264.67513101 390.96354327 267.3125 396.23828125 C267.84743214 402.01730225 268.44144945 408.61558753 265.00756836 413.61523438 C262.7158112 415.80961744 260.21816374 417.31392231 257.50390625 418.95703125 C256.93223724 419.30340637 256.36056824 419.64978149 255.77157593 420.00665283 C249.41681703 423.8277486 242.93581889 427.4178566 236.4375 430.98828125 C234.10625226 432.27380153 231.77584659 433.56084208 229.4453125 434.84765625 C228.37829102 435.43611328 227.31126953 436.02457031 226.21191406 436.63085938 C222.8942246 438.47017122 219.59778372 440.34182009 216.3125 442.23828125 C216.77887309 448.64926911 217.73847727 454.87000043 218.94140625 461.17578125 C219.17287857 462.39152832 219.17287857 462.39152832 219.4090271 463.63183594 C220.05815921 467.02184443 220.71278483 470.4107076 221.37670898 473.79785156 C226.01778791 497.5671156 226.01778791 497.5671156 222.25 504.61328125 C218.92324947 509.17832226 215.48404371 511.63849942 209.95776367 512.68359375 C199.27000014 513.38775577 190.94999497 508.40649949 181.6875 503.73828125 C179.91367379 502.86645268 178.13858713 501.99718432 176.36230469 501.13037109 C172.74754115 499.36424984 169.13810313 497.5879018 165.53222656 495.80371094 C158.61868231 492.39291033 151.64562723 489.1118391 144.66278076 485.84588623 C142.56922656 484.86642824 140.47703786 483.88411122 138.38525391 482.90087891 C134.36241348 481.01033023 130.3378123 479.1235604 126.3125 477.23828125 C125.65813965 476.93172607 125.0037793 476.6251709 124.32958984 476.30932617 C119.90944689 474.23919491 115.48665663 472.17482115 111.0625 470.11328125 C109.43103027 469.35072021 109.43103027 469.35072021 107.76660156 468.57275391 C100.012768 464.9692479 92.18641825 461.5693281 84.3125 458.23828125 C83.85794434 458.70322998 83.40338867 459.16817871 82.93505859 459.6472168 C78.58217555 464.08328012 74.03776944 468.20489819 69.3125 472.23828125 C68.34183594 473.07488281 67.37117188 473.91148437 66.37109375 474.7734375 C51.60619622 487.44198643 35.99436356 499.42242488 19.6875 510.05078125 C19.01460938 510.49035156 18.34171875 510.92992187 17.6484375 511.3828125 C14.17964024 512.65315799 10.92462463 512.78842361 7.3125 512.23828125 C3.99609375 510.65625 3.99609375 510.65625 0.75 508.42578125 C0.15703125 508.02343262 -0.4359375 507.62108398 -1.046875 507.20654297 C-2.94410148 505.90642577 -4.81741128 504.57708929 -6.6875 503.23828125 C-7.30608887 502.79983887 -7.92467773 502.36139648 -8.56201172 501.90966797 C-27.31216802 488.56980983 -44.82791565 473.88112247 -61.6875 458.23828125 C-72.77017143 463.11030289 -83.78064796 468.10626861 -94.71350098 473.3057251 C-98.61925199 475.16298806 -102.52859108 477.01267634 -106.4375 478.86328125 C-107.2228009 479.23526642 -108.00810181 479.60725159 -108.81719971 479.99050903 C-113.72653275 482.314689 -118.64094817 484.62758927 -123.5625 486.92578125 C-124.49000565 487.35893646 -124.49000565 487.35893646 -125.43624878 487.80084229 C-128.47481714 489.21847707 -131.51574676 490.63069211 -134.55908203 492.03808594 C-140.42473847 494.75344302 -146.26555722 497.50637959 -152.06201172 500.36709595 C-154.94150363 501.78600348 -157.82926974 503.18761339 -160.71765137 504.58831787 C-162.09108929 505.26031085 -163.46051151 505.94058818 -164.82531738 506.62994385 C-173.57079196 511.04414181 -181.92838502 514.53880811 -191.79711914 511.61279297 C-196.76695235 509.23507926 -199.66925972 505.1996172 -201.6875 500.23828125 C-202.49455062 493.34153911 -201.25319543 486.53126211 -199.9375 479.77734375 C-199.75993164 478.82435394 -199.58236328 477.87136414 -199.39941406 476.88949585 C-198.83722006 473.8790964 -198.26309372 470.87114472 -197.6875 467.86328125 C-197.11382457 464.83367819 -196.54274704 461.80362605 -195.97558594 458.77279663 C-195.62368449 456.89555647 -195.26772956 455.01907046 -194.90722656 453.14346313 C-194.74706055 452.29512909 -194.58689453 451.44679504 -194.421875 450.57275391 C-194.27975586 449.83014313 -194.13763672 449.08753235 -193.99121094 448.32241821 C-193.59136536 445.92960737 -193.59136536 445.92960737 -193.6875 442.23828125 C-194.87170532 441.58980225 -194.87170532 441.58980225 -196.07983398 440.92822266 C-222.5180473 426.43599391 -222.5180473 426.43599391 -232.75 420.55078125 C-233.74567993 419.99221436 -233.74567993 419.99221436 -234.76147461 419.42236328 C-239.64254099 416.5758858 -242.88089871 413.65808513 -244.6875 408.23828125 C-245.17738853 402.67282634 -245.45564541 397.83147173 -243 392.73828125 C-238.40422478 387.76987561 -233.48176137 384.96218335 -227.43359375 382.1484375 C-226.62834259 381.76741882 -225.82309143 381.38640015 -224.99343872 380.99383545 C-222.37363689 379.75631021 -219.74944621 378.52842215 -217.125 377.30078125 C-215.31022694 376.44606297 -213.49569399 375.59083469 -211.68139648 374.73510742 C-206.35489109 372.22588006 -201.0224557 369.72948479 -195.6875 367.23828125 C-194.94616821 366.8920874 -194.20483643 366.54589355 -193.44104004 366.18920898 C-186.84592707 363.11110627 -180.24444479 360.0470426 -173.63671875 356.99609375 C-169.83766664 355.24043893 -166.04815086 353.46717786 -162.26953125 351.66796875 C-161.05898071 351.09212036 -161.05898071 351.09212036 -159.82397461 350.50463867 C-158.3739433 349.8128878 -156.92539479 349.11801502 -155.47875977 348.41918945 C-150.90646803 346.23828125 -150.90646803 346.23828125 -148.6875 346.23828125 C-149.06970703 345.41440918 -149.45191406 344.59053711 -149.84570312 343.74169922 C-180.44403019 277.54658192 -199.42675564 201.18426136 -174.58422852 129.85009766 C-173.38666095 126.60079384 -172.06706904 123.41414008 -170.6875 120.23828125 C-170.36410645 119.49271973 -170.04071289 118.7471582 -169.70751953 117.97900391 C-161.17663538 98.61449344 -150.18164349 81.10866207 -135.79296875 65.53125 C-133.92541796 63.49738671 -132.1476578 61.41681102 -130.375 59.30078125 C-99.14357167 23.81052178 -47.19227601 0.47212667 0 0 Z M-36.6875 23.23828125 C-37.31301758 23.42197266 -37.93853516 23.60566406 -38.58300781 23.79492188 C-64.64876626 31.50089457 -87.1567276 44.62579111 -107.6875 62.23828125 C-108.67105469 63.07875 -109.65460938 63.91921875 -110.66796875 64.78515625 C-115.78758702 69.27740829 -120.38652107 73.96182256 -124.6875 79.23828125 C-125.50863281 80.22183594 -126.32976562 81.20539063 -127.17578125 82.21875 C-150.70854869 110.87947755 -166.99022908 147.79403133 -167.6875 185.23828125 C-167.70796387 186.21796875 -167.72842773 187.19765625 -167.74951172 188.20703125 C-168.61520659 237.20106846 -159.01450768 283.00515978 -137.6875 327.23828125 C-137.29594727 328.06231445 -136.90439453 328.88634766 -136.50097656 329.73535156 C-124.9849321 353.89027802 -110.38799195 376.3416858 -93.6875 397.23828125 C-92.92824219 398.19089844 -92.16898437 399.14351563 -91.38671875 400.125 C-87.08735891 405.44907772 -82.64066714 410.60560225 -78.0234375 415.65625 C-76.76764388 417.04434294 -75.51746623 418.43818501 -74.3046875 419.86401367 C-69.0483829 426.01971966 -63.37582915 431.73607066 -57.65527344 437.45581055 C-55.94955402 439.16371181 -54.25200973 440.8794617 -52.5546875 442.59570312 C-46.64763188 448.53235918 -40.67030053 454.11909956 -34.08569336 459.30761719 C-31.62058171 461.29215378 -29.30909049 463.38778029 -27 465.55078125 C-20.94986334 471.046561 -14.4400732 475.87807615 -7.83251953 480.67578125 C-6.37733217 481.7357857 -4.92794125 482.80378477 -3.48388672 483.87890625 C-1.33579202 485.47607336 0.82905801 487.04736413 3 488.61328125 C3.65887207 489.10812012 4.31774414 489.60295898 4.99658203 490.11279297 C8.55020942 492.69601633 8.55020942 492.69601633 12.7734375 492.8671875 C16.32711793 490.58736482 19.81984884 488.26365221 23.25 485.80078125 C24.37498901 484.99833984 24.37498901 484.99833984 25.52270508 484.1796875 C46.50572271 469.10515699 65.63978324 451.95422495 83.95806885 433.76794434 C85.01037782 432.7236817 86.06416221 431.68090331 87.11956787 430.63977051 C93.1995792 424.63332827 98.8854405 418.52300195 104.21923828 411.82788086 C106.21341751 409.3608574 108.28371351 407.00198583 110.4140625 404.65234375 C114.44257145 400.16537015 118.09348221 395.45216763 121.6875 390.61328125 C122.34032959 389.73575195 122.99315918 388.85822266 123.66577148 387.95410156 C143.90538651 360.57505911 160.53309047 330.78776179 172.34863281 298.83642578 C173.2105416 296.51311439 174.09689624 294.20121083 174.9921875 291.890625 C184.33361791 267.28688922 189.84687031 239.55973917 190.3125 213.23828125 C190.33296387 212.22926758 190.35342773 211.22025391 190.37451172 210.18066406 C191.14863216 165.58876746 182.57824537 124.04776756 154.3125 88.23828125 C153.54035156 87.25730469 152.76820313 86.27632813 151.97265625 85.265625 C149.79104742 82.55446326 147.56868703 79.88756075 145.3125 77.23828125 C144.63316406 76.43519531 143.95382812 75.63210937 143.25390625 74.8046875 C138.93607198 69.81350676 134.40420845 65.42807677 129.3125 61.23828125 C128.80895996 60.8117627 128.30541992 60.38524414 127.78662109 59.94580078 C113.03463398 47.46466849 97.03782299 37.88868321 79.3125 30.23828125 C78.24 29.76777344 77.1675 29.29726563 76.0625 28.8125 C41.83516996 14.71118928 -1.27123571 12.26946449 -36.6875 23.23828125 Z " fill="#000000" transform="translate(244.6875,-0.23828125)"/>
<path d="M0 0 C3.41250972 2.92150113 6.72486099 5.92596602 10 9 C10.88558594 9.77150391 10.88558594 9.77150391 11.7890625 10.55859375 C29.6993004 26.89850273 42.81674895 55.95080651 44 80 C44.56993385 94.53450559 44.89109243 108.88005095 41 123 C40.80664062 123.70350586 40.61328125 124.40701172 40.4140625 125.13183594 C35.70420141 141.76898415 28.0984399 156.69291535 17 170 C16.19175781 170.98355469 15.38351562 171.96710938 14.55078125 172.98046875 C-3.9663833 194.37623586 -29.326261 207.06308853 -56.93652344 211.65600586 C-58.64839962 211.94138607 -60.35449207 212.26121111 -62.05859375 212.58984375 C-92.00036475 216.7649911 -123.10939026 206.91017027 -147 189 C-172.0721843 169.59090775 -189.0259791 142.11146363 -193.60961914 110.54638672 C-194.28542654 104.40706324 -194.34044934 98.29629293 -194.3125 92.125 C-194.31001251 91.46503021 -194.30752502 90.80506042 -194.30496216 90.12509155 C-194.24818154 80.37784956 -193.94616543 71.35224043 -191 62 C-190.77425293 61.27876953 -190.54850586 60.55753906 -190.31591797 59.81445312 C-180.53959799 29.33200089 -160.59822433 2.67000868 -131.90869141 -12.35571289 C-89.42581156 -33.64815267 -37.1698638 -31.0365719 0 0 Z " fill="#F3F3F3" transform="translate(331,103)"/>
<path d="M0 0 C5.81450374 2.80342145 9.42109543 7.02795734 11.61108398 13.06835938 C12.15689858 14.65987823 12.70185498 16.25169158 13.24609375 17.84375 C19.15939692 35.65425345 19.15939692 35.65425345 31.08251953 49.30004883 C40.00476062 53.15765754 50.09630664 53.09336809 59.66381836 52.95063782 C67.212339 52.84930941 75.35979035 53.61827883 81.5625 58.3125 C85.28293667 62.41451992 87.13861828 65.84015362 87.5 71.375 C86.94749993 81.10602731 78.79142178 87.62287812 72.2355957 94.0456543 C70.69417751 95.55595728 69.16364308 97.0766226 67.63476562 98.59960938 C66.63549152 99.58861731 65.63614357 100.57755063 64.63671875 101.56640625 C64.15411591 102.04929108 63.67151306 102.5321759 63.17428589 103.0296936 C60.33270846 105.83465948 57.39200825 108.15817891 54.14453125 110.46484375 C52.19119555 112.00211182 52.19119555 112.00211182 51 114 C50.78354888 118.20903744 51.92096928 121.95688488 53 126 C53.45038632 128.38420364 53.87946727 130.77251351 54.2890625 133.1640625 C54.95942137 136.91018562 55.63067692 140.65580846 56.3203125 144.3984375 C59.5553132 162.65308431 59.5553132 162.65308431 56 169.3125 C53.14327045 173.27973286 49.65985502 176.39262049 45 178 C39.10019901 178.49967702 35.26472566 177.68527684 30.0625 174.8125 C29.40717285 174.470979 28.7518457 174.12945801 28.07666016 173.77758789 C24.67208832 171.9967527 21.29749837 170.16141421 17.92041016 168.32910156 C15.69820255 167.12629438 13.47263017 165.92968489 11.24389648 164.73901367 C9.02292022 163.55134907 6.80989634 162.34867449 4.60571289 161.13012695 C3.57824951 160.5805835 2.55078613 160.03104004 1.4921875 159.46484375 C0.57808105 158.965896 -0.33602539 158.46694824 -1.27783203 157.95288086 C-5.71291257 156.40040379 -8.77893332 157.4668132 -12.98510742 159.3034668 C-14.01482666 159.84656494 -15.0445459 160.38966309 -16.10546875 160.94921875 C-17.82926758 161.85124023 -17.82926758 161.85124023 -19.58789062 162.77148438 C-20.78782912 163.41002715 -21.98769864 164.04869957 -23.1875 164.6875 C-24.35603516 165.30044922 -25.52457031 165.91339844 -26.72851562 166.54492188 C-33.08562641 169.88834378 -39.38832803 173.30327633 -45.61547852 176.88354492 C-49.45621187 178.68181191 -52.88588218 178.91770492 -57 178 C-62.19548513 175.96295831 -66.41505017 172.69441471 -69.25 167.875 C-71.84948208 157.91031869 -68.85305443 147.14951382 -67.0625 137.25 C-66.78111479 135.66029522 -66.50051013 134.07045207 -66.22070312 132.48046875 C-65.70674102 129.56453994 -65.18803054 126.64954191 -64.66430664 123.73535156 C-64.44508545 122.50268555 -64.22586426 121.27001953 -64 120 C-63.77763672 118.89035889 -63.55527344 117.78071777 -63.32617188 116.63745117 C-62.70590386 113.95690672 -62.70590386 113.95690672 -64.37109375 111.91015625 C-65.39396484 110.99556641 -65.39396484 110.99556641 -66.4375 110.0625 C-67.09621094 109.45535156 -67.75492188 108.84820312 -68.43359375 108.22265625 C-69.87389041 106.97527604 -71.31535941 105.72923599 -72.76098633 104.48803711 C-77.9664957 99.98578349 -82.92916733 95.28635194 -87.8125 90.4375 C-88.56208984 89.70853516 -89.31167969 88.97957031 -90.08398438 88.22851562 C-94.93447196 83.41270534 -99.39245879 78.85714621 -99.5 71.625 C-99.31142472 66.54203899 -97.42740748 62.72232394 -94 59 C-89.66621795 55.70448267 -86.31189105 54.36379331 -80.94140625 53.5859375 C-79.94209328 53.43507187 -79.94209328 53.43507187 -78.92259216 53.28115845 C-76.80436321 52.96491081 -74.6838217 52.66970207 -72.5625 52.375 C-71.17492856 52.1706353 -69.787556 51.96491549 -68.40039062 51.7578125 C-67.7160495 51.65811157 -67.03170837 51.55841064 -66.32662964 51.45568848 C-64.94105765 51.25029766 -63.55682894 51.03563844 -62.17410278 50.81188965 C-58.71693921 50.27572179 -55.48921569 49.96077125 -51.98974609 50.11914062 C-47.65460091 50.11695199 -44.93100272 49.86960612 -41 48 C-35.99730244 42.26342837 -33.38101473 34.69401408 -30.5 27.75 C-29.26323444 24.89269501 -28.01012168 22.04399314 -26.73864746 19.20196533 C-25.95494982 17.43803158 -25.19317411 15.66413254 -24.4576416 13.87957764 C-19.46994472 2.32898631 -12.3066211 -1.15978628 0 0 Z " fill="#040402" transform="translate(262,103)"/>
<path d="M0 0 C0.68626465 0.17160645 1.3725293 0.34321289 2.07958984 0.52001953 C38.18570456 9.69203823 68.02477134 32.28556953 87.29345703 64.13818359 C104.96524751 94.36021144 110.83939924 132.9030556 102 167 C91.69382763 204.4126111 67.68429172 234.75281275 34.07519531 253.88623047 C22.78683644 259.94475908 10.39564435 263.91556981 -2 267 C-2.65871094 267.16516113 -3.31742188 267.33032227 -3.99609375 267.50048828 C-36.97882634 275.39511759 -73.1297434 268.1210372 -101.90234375 250.6875 C-129.65219603 233.16614091 -149.88112356 207.72762118 -160.9375 176.8125 C-161.20771973 176.06669678 -161.47793945 175.32089355 -161.75634766 174.55249023 C-166.1871289 161.43271969 -167.53282266 148.31487476 -167.375 134.5625 C-167.37067963 133.84288086 -167.36635925 133.12326172 -167.36190796 132.38183594 C-167.28646688 121.64450216 -166.73553456 111.43268645 -164 101 C-163.83902832 100.33258789 -163.67805664 99.66517578 -163.51220703 98.97753906 C-154.99573532 63.88084007 -131.68626699 34.41672708 -101.1953125 15.6328125 C-71.15436405 -2.33325716 -34.15859907 -8.83228574 0 0 Z M-121.625 54.75 C-144.86416488 81.39925973 -151.29906644 112.41115311 -150 147 C-149.58414131 152.49355363 -148.50293979 157.69986006 -147 163 C-146.80664062 163.69915527 -146.61328125 164.39831055 -146.4140625 165.11865234 C-141.70226746 181.77353899 -134.07884371 196.67900935 -123 210 C-122.24203125 210.92167969 -121.4840625 211.84335937 -120.703125 212.79296875 C-100.81710919 235.83085308 -71.34297848 250.36471525 -41.10058594 252.85058594 C-20.99151885 254.28093799 -1.45292267 251.24481741 17 243 C18.18851563 242.47535156 19.37703125 241.95070313 20.6015625 241.41015625 C48.96433826 228.04632066 70.23225048 204.21293437 81.30761719 174.96582031 C92.12302194 144.2586133 91.01409475 110.28623901 76.95947266 80.81835938 C61.98231593 51.07005909 36.94049016 29.80555369 5.55371094 18.94946289 C-41.17338498 3.89682876 -88.75851553 19.98071906 -121.625 54.75 Z " fill="#030202" transform="translate(287,63)"/>
<path d="M0 0 C0.66 0 1.32 0 2 0 C2.45850342 0.95253662 2.91700684 1.90507324 3.3894043 2.88647461 C5.11066006 6.46053565 6.83546389 10.03287509 8.5612793 13.60473633 C9.30409236 15.14334002 10.04597534 16.68239314 10.78686523 18.22192383 C17.58355072 35.08884221 17.58355072 35.08884221 30.1171875 47.01928711 C33.91601167 48.31162084 37.65243175 48.77144408 41.625 49.25390625 C42.4495166 49.35968491 43.2740332 49.46546356 44.12353516 49.57444763 C46.74827217 49.91006979 49.37403204 50.23666227 52 50.5625 C54.62572317 50.89360504 57.25119318 51.22659843 59.87646484 51.56126404 C61.5066892 51.7685167 63.13721321 51.97342959 64.76806641 52.17567444 C68.54885074 52.65100944 72.2739004 53.18306008 76 54 C74.61370756 57.12324544 73.00488429 59.24190707 70.5859375 61.64453125 C69.90660156 62.32193359 69.22726562 62.99933594 68.52734375 63.69726562 C67.46193359 64.74430664 67.46193359 64.74430664 66.375 65.8125 C65.68792969 66.49892578 65.00085938 67.18535156 64.29296875 67.89257812 C60.23559474 71.91569663 56.05526959 75.73188791 51.73193359 79.46606445 C49.71101049 81.25595166 47.8871062 83.14295094 46.125 85.1875 C45.57070313 85.82042969 45.01640625 86.45335937 44.4453125 87.10546875 C40.78088224 91.90884355 40.46599818 96.06934346 41 102 C41.85391399 107.36328167 42.91641816 112.67905563 44 118 C44.57237205 120.81064128 45.13323174 123.62323895 45.6875 126.4375 C45.93886719 127.67371094 46.19023437 128.90992188 46.44921875 130.18359375 C47.07258469 134.50294495 47.11794282 138.64734843 47 143 C36.2631152 138.02231769 25.65737467 132.88327315 15.2331543 127.27587891 C6.65041648 122.59651593 6.65041648 122.59651593 -3 122 C-6.16850086 123.1462277 -9.09047107 124.67040631 -12.0625 126.25 C-13.33915527 126.90814697 -13.33915527 126.90814697 -14.64160156 127.57958984 C-24.85158389 132.88099809 -34.93698715 138.42579523 -45 144 C-46.28745416 140.13763753 -45.52527333 137.09292999 -44.8203125 133.19140625 C-44.68809296 132.42827621 -44.55587341 131.66514618 -44.41964722 130.87889099 C-43.99496052 128.43883631 -43.55992933 126.00074747 -43.125 123.5625 C-42.83920273 121.9239398 -42.55403905 120.28526896 -42.26953125 118.64648438 C-40.07243716 106.07855724 -40.07243716 106.07855724 -39 102 C-38.21540722 96.80579714 -38.59265912 92.98730426 -41.4375 88.5 C-46.12923757 82.16339443 -51.84838644 76.80845405 -57.8125 71.6875 C-61.52116136 68.49790078 -65.02224251 65.12446866 -68.5 61.6875 C-69.04116455 61.15922607 -69.5823291 60.63095215 -70.13989258 60.08666992 C-71.46660138 58.76337882 -72.73847638 57.38557344 -74 56 C-74 55.34 -74 54.68 -74 54 C-72.10894531 53.75878418 -72.10894531 53.75878418 -70.1796875 53.51269531 C-65.47376734 52.90850783 -60.7705419 52.28518781 -56.06787109 51.65625 C-54.03762518 51.38740317 -52.00669731 51.12365254 -49.97509766 50.86523438 C-47.04392647 50.49147052 -44.11575022 50.09904914 -41.1875 49.703125 C-40.28821777 49.59252747 -39.38893555 49.48192993 -38.46240234 49.36798096 C-31.60897036 48.41342329 -25.80548371 46.76808138 -20.78417969 41.8137207 C-18.36715511 38.00197902 -16.39627202 34.05055859 -14.453125 29.98046875 C-14.03705994 29.12189774 -13.62099487 28.26332672 -13.19232178 27.3787384 C-11.87222301 24.65117272 -10.56100672 21.91944556 -9.25 19.1875 C-8.35344866 17.33109801 -7.45631946 15.47497499 -6.55859375 13.61914062 C-4.36569134 9.08263001 -2.18074208 4.54236791 0 0 Z " fill="#FDDD00" transform="translate(255,120)"/>
<path d="M0 0 C7.19152885 2.15975627 13.74523987 5.1437468 20.47167969 8.46618652 C23.66899933 10.04470408 26.87577636 11.60379493 30.08203125 13.1640625 C31.06787704 13.6444397 31.06787704 13.6444397 32.07363892 14.13452148 C38.84319788 17.42535856 45.66579707 20.5957889 52.5 23.75 C64.04188883 29.08045452 75.53758494 34.5008328 87 40 C87 40.99 87 41.98 87 43 C86.05870239 43.50430542 86.05870239 43.50430542 85.09838867 44.01879883 C74.11493453 49.91218878 63.14183582 55.82677108 52.3125 62 C51.54252686 62.43159424 50.77255371 62.86318848 49.97924805 63.30786133 C44.40822168 66.51636794 39.56587046 69.88056388 37 76 C36.1891188 82.35509833 37.47718284 88.64795793 38.75 94.85546875 C39.01635254 96.21337273 39.01635254 96.21337273 39.28808594 97.59870911 C39.85073371 100.46329018 40.42436502 103.32550275 41 106.1875 C41.57462443 109.06038111 42.14666697 111.93368438 42.71191406 114.8084259 C43.06233343 116.58925068 43.41818046 118.36901879 43.78027344 120.14750671 C44.6404158 124.50481679 45.20287976 128.53166376 45 133 C41.1532012 132.38659741 38.07840195 131.23458074 34.58984375 129.515625 C33.00417603 128.74158325 33.00417603 128.74158325 31.38647461 127.9519043 C30.24831299 127.39027588 29.11015137 126.82864746 27.9375 126.25 C25.48085642 125.04990422 23.02180036 123.8547965 20.5625 122.66015625 C19.93282822 122.35378738 19.30315643 122.04741852 18.65440369 121.73176575 C12.28484562 118.63899319 5.86623446 115.65510773 -0.5625 112.6875 C-12.739361 107.0600779 -24.88255386 101.3638804 -37.01586914 95.64331055 C-38.37124128 95.00436223 -39.72662841 94.36544569 -41.08203125 93.7265625 C-41.73466446 93.41892471 -42.38729767 93.11128693 -43.05970764 92.79432678 C-50.0309325 89.51053931 -57.01457654 86.25345044 -64 83 C-60.19295077 78.4526912 -56.23241606 74.08420195 -52.1875 69.75 C-46.07112865 63.17770866 -39.98921912 56.48382868 -35 49 C-30.97276376 49.74304186 -27.48987494 51.61121083 -23.85546875 53.4140625 C-22.4424669 54.099803 -21.0290418 54.78467191 -19.61523438 55.46875 C-17.39924812 56.54471453 -15.18632918 57.62558172 -12.98022461 58.72167969 C-10.84202699 59.78134281 -8.69388056 60.81800239 -6.54296875 61.8515625 C-5.89168503 62.18169342 -5.24040131 62.51182434 -4.56938171 62.85195923 C0.01051084 65.02176711 3.10372802 65.24712423 8 64 C10.5881216 61.74582958 10.94242643 60.39479021 11.4375 57 C10.88619969 53.219655 9.8753198 52.45227741 7 50 C4.08328082 48.30484268 4.08328082 48.30484268 0.80859375 46.80078125 C0.22207535 46.52026413 -0.36444305 46.23974701 -0.96873474 45.95072937 C-2.82965073 45.06333659 -4.69597167 44.18801535 -6.5625 43.3125 C-7.8200138 42.71362991 -9.07717907 42.11402741 -10.33398438 41.51367188 C-16.5603496 38.49648364 -16.5603496 38.49648364 -23 36 C-21.41170271 31.27141207 -18.79369795 27.58953448 -15.9375 23.5625 C-11.72738014 17.54374844 -7.65893711 11.46015881 -3.73022461 5.25415039 C-1.08822113 1.08822113 -1.08822113 1.08822113 0 0 Z " fill="#00BAD2" transform="translate(406,361)"/>
<path d="M0 0 C1.28344727 1.61376953 1.28344727 1.61376953 2.56640625 3.8828125 C3.04754883 4.71458008 3.52869141 5.54634766 4.02441406 6.40332031 C4.53198242 7.30147461 5.03955078 8.19962891 5.5625 9.125 C10.59370829 17.79277925 15.99824546 25.97995632 22 34 C19.33693877 37.16965746 16.14740431 38.52309196 12.43359375 40.25 C11.13082567 40.86451188 9.82809234 41.47909744 8.52539062 42.09375 C6.47683459 43.05071093 4.42701173 44.0048696 2.3762207 44.95703125 C0.39199209 45.88105579 -1.58730554 46.81505469 -3.56640625 47.75 C-4.75177979 48.30171875 -5.93715332 48.8534375 -7.15844727 49.421875 C-10.22484685 50.84101714 -10.22484685 50.84101714 -12 54 C-12.61703539 58.05480401 -12.32038101 59.54369977 -9.9375 62.9375 C-7.14806614 65.35016551 -7.14806614 65.35016551 -3.71289062 64.80834961 C0.02683936 63.99415669 2.93029079 62.84113636 6.34375 61.12890625 C7.50777344 60.55462891 8.67179687 59.98035156 9.87109375 59.38867188 C11.08111705 58.78071931 12.29075 58.17198924 13.5 57.5625 C15.88193377 56.36897808 18.26798042 55.18481695 20.65625 54.00390625 C21.70619141 53.47611572 22.75613281 52.9483252 23.83789062 52.40454102 C27.20981344 50.90680538 30.43656916 49.93262542 34 49 C34.46148437 49.59425781 34.92296875 50.18851562 35.3984375 50.80078125 C39.91941515 56.54581806 44.65792892 62.00989044 49.60546875 67.390625 C54.25339104 72.45557131 58.7136346 77.62636142 63 83 C23.2627205 101.93382175 23.2627205 101.93382175 5.36547852 110.19140625 C-1.11651718 113.18523165 -7.57874236 116.21627194 -14.02734375 119.28125 C-15.58476978 120.01999801 -17.14222415 120.75868629 -18.69970703 121.49731445 C-20.98362684 122.58058151 -23.26663892 123.66555416 -25.54681396 124.75668335 C-27.65007915 125.76311235 -29.75636689 126.76295681 -31.86328125 127.76171875 C-32.791157 128.20922485 -32.791157 128.20922485 -33.73777771 128.66577148 C-37.77142919 130.56847294 -41.70242026 131.87759269 -46 133 C-45.53237555 126.57839666 -44.57153014 120.34460927 -43.37109375 114.02734375 C-43.21677887 113.21447906 -43.06246399 112.40161438 -42.9034729 111.56411743 C-42.25393005 108.16316116 -41.59857131 104.76339215 -40.93579102 101.36499023 C-40.44866098 98.85793583 -39.97182591 96.34908232 -39.49609375 93.83984375 C-39.34611435 93.08646225 -39.19613495 92.33308075 -39.04161072 91.55686951 C-37.68443883 84.34236115 -36.44385007 76.94176003 -40.67919922 70.51953125 C-43.03571748 67.80844628 -45.94335921 66.16992618 -49.0625 64.5 C-49.7755127 64.09910156 -50.48852539 63.69820313 -51.22314453 63.28515625 C-52.85424798 62.37187382 -54.49037697 61.46753182 -56.13037109 60.5703125 C-59.43605502 58.76138286 -62.72829076 56.9287643 -66.01953125 55.09375 C-69.67489181 53.05662381 -73.33149877 51.02198935 -76.99633789 49.00195312 C-78.11903076 48.38255859 -79.24172363 47.76316406 -80.3984375 47.125 C-81.40567871 46.57070313 -82.41291992 46.01640625 -83.45068359 45.4453125 C-85.34474591 44.37149054 -87.1883902 43.20773987 -89 42 C-89 41.34 -89 40.68 -89 40 C-88.34032227 39.69521729 -87.68064453 39.39043457 -87.00097656 39.07641602 C-72.95308066 32.58124257 -58.93142774 26.0346073 -44.94393921 19.41033936 C-22.95210989 8.99889966 -22.95210989 8.99889966 -11.9375 3.9375 C-11.0520752 3.52604736 -10.16665039 3.11459473 -9.25439453 2.69067383 C-8.05919189 2.14576294 -8.05919189 2.14576294 -6.83984375 1.58984375 C-6.16300537 1.27909912 -5.48616699 0.96835449 -4.78881836 0.64819336 C-3 0 -3 0 0 0 Z " fill="#00BAD2" transform="translate(107,361)"/>
<path d="M0 0 C30.85154382 7.44157841 62.04844076 28.75358456 82 53 C82.42651855 53.50354004 82.85303711 54.00708008 83.29248047 54.52587891 C116.51155787 93.78893537 126.6634661 137.67024249 126 188 C125.99274902 188.77601563 125.98549805 189.55203125 125.97802734 190.3515625 C125.41571687 228.62679716 112.71307461 267.96645135 96 302 C95.52723633 302.96470215 95.05447266 303.9294043 94.56738281 304.92333984 C80.38480487 333.58302211 62.73862758 359.82711139 42 384.125 C41.56252441 384.63804687 41.12504883 385.15109375 40.67431641 385.6796875 C32.27949926 395.40792308 23.45792584 404.71003978 14.35571289 413.7746582 C12.79910611 415.32584727 11.24799829 416.88239392 9.69726562 418.43945312 C4.30404599 423.83652606 -1.17489287 429.06648246 -7 434 C-7.96421875 434.845625 -8.9284375 435.69125 -9.921875 436.5625 C-18.84958965 444.25710489 -28.18939052 451.3598142 -37.70019531 458.31738281 C-39.13329484 459.36588832 -40.56296785 460.41911366 -41.98730469 461.47949219 C-43.62317283 462.69320081 -45.27941496 463.87932327 -46.9375 465.0625 C-47.81277344 465.69285156 -48.68804687 466.32320313 -49.58984375 466.97265625 C-52 468 -52 468 -54.69140625 467.30859375 C-57 466 -57 466 -59 464 C-58.51273438 463.69449219 -58.02546875 463.38898438 -57.5234375 463.07421875 C-35.22685053 448.68278534 -15.7244979 429.77337469 3 411.125 C4.18372192 409.94828735 4.18372192 409.94828735 5.39135742 408.74780273 C10.13241069 403.99364289 14.65637284 399.11922893 19 394 C19.5377002 393.36900391 20.07540039 392.73800781 20.62939453 392.08789062 C34.31001803 375.91950722 46.86354131 359.01927519 58 341 C58.75531006 339.78932861 58.75531006 339.78932861 59.52587891 338.55419922 C73.57544308 315.91326821 84.65496302 292.30149343 93 267 C93.41636719 265.7521875 93.83273437 264.504375 94.26171875 263.21875 C95.23884907 260.15990726 96.13727254 257.09300979 97 254 C97.1954541 253.31341309 97.3909082 252.62682617 97.59228516 251.91943359 C100.63734401 241.15930499 103.05440109 230.45245842 104.64404297 219.3828125 C105.00812197 216.94563073 105.42574353 214.52153186 105.84765625 212.09375 C110.81291005 181.67730964 110.41862486 147.48158603 101 118 C100.70899414 117.05592285 100.70899414 117.05592285 100.41210938 116.09277344 C91.03797242 85.9913781 74.43069715 60.79446879 53 38 C52.12601563 37.04480469 52.12601563 37.04480469 51.234375 36.0703125 C37.00366102 21.0490033 18.27251684 10.25926802 0 1 C0 0.67 0 0.34 0 0 Z " fill="#C61E1D" transform="translate(309,25)"/>
<path d="M0 0 C8.12283234 2.09029997 15.48846632 5.29892879 23 9 C23.9178125 9.44085938 24.835625 9.88171875 25.78125 10.3359375 C53.28416857 24.3300696 72.5359444 50.37940471 82.375 79.125 C88.98415688 99.71831074 89.75907132 124.10155179 84 145 C83.80664062 145.70350586 83.61328125 146.40701172 83.4140625 147.13183594 C78.70420141 163.76898415 71.0984399 178.69291535 60 192 C59.19175781 192.98355469 58.38351562 193.96710938 57.55078125 194.98046875 C43.21706753 211.5424429 24.38579802 222.4978439 4 230 C3.34 230 2.68 230 2 230 C2 229.34 2 228.68 2 228 C4.20547241 226.6120471 6.41318827 225.32839569 8.6875 224.0625 C16.58445919 219.49522182 23.2819399 214.14325282 30 208 C30.79921875 207.28328125 31.5984375 206.5665625 32.421875 205.828125 C52.06388199 187.30055813 64.03890873 161.41677414 68 135 C68.2784375 133.42798828 68.2784375 133.42798828 68.5625 131.82421875 C70.15366916 117.91569551 70.1295921 102.68746889 67 89 C66.75507813 87.78183594 66.51015625 86.56367188 66.2578125 85.30859375 C61.85985387 64.71178458 51.50167031 46.96160196 38 31 C37.44957031 30.31550781 36.89914062 29.63101563 36.33203125 28.92578125 C27.11216337 17.77872008 14.45515111 9.54267479 2.0546875 2.2734375 C1.37664062 1.85320312 0.69859375 1.43296875 0 1 C0 0.67 0 0.34 0 0 Z " fill="#CDD6D9" transform="translate(288,81)"/>
<path d="M0 0 C7.19152885 2.15975627 13.74523987 5.1437468 20.47167969 8.46618652 C23.66899933 10.04470408 26.87577636 11.60379493 30.08203125 13.1640625 C30.73926178 13.48431396 31.39649231 13.80456543 32.07363892 14.13452148 C38.84319788 17.42535856 45.66579707 20.5957889 52.5 23.75 C64.04188883 29.08045452 75.53758494 34.5008328 87 40 C87 40.99 87 41.98 87 43 C86.05870239 43.50430542 86.05870239 43.50430542 85.09838867 44.01879883 C74.11493453 49.91218878 63.14183582 55.82677108 52.3125 62 C51.54252686 62.43159424 50.77255371 62.86318848 49.97924805 63.30786133 C44.40822168 66.51636794 39.56587046 69.88056388 37 76 C36.1891188 82.35509833 37.47718284 88.64795793 38.75 94.85546875 C39.01635254 96.21337273 39.01635254 96.21337273 39.28808594 97.59870911 C39.85073371 100.46329018 40.42436502 103.32550275 41 106.1875 C41.57462443 109.06038111 42.14666697 111.93368438 42.71191406 114.8084259 C43.06233343 116.58925068 43.41818046 118.36901879 43.78027344 120.14750671 C44.6404158 124.50481679 45.20287976 128.53166376 45 133 C40.28629244 132.35014905 36.42313556 130.48438608 32.1875 128.4375 C31.49462891 128.10814453 30.80175781 127.77878906 30.08789062 127.43945312 C28.38955052 126.63127749 26.69444231 125.81631623 25 125 C25.06316406 123.85789062 25.12632812 122.71578125 25.19140625 121.5390625 C25.19301635 113.3114723 23.0991415 105.16995684 21.48803711 97.1328125 C21.05408018 94.95226858 20.63393095 92.76938041 20.21484375 90.5859375 C19.82993774 88.65306885 19.82993774 88.65306885 19.43725586 86.68115234 C18.96932702 82.74177151 18.96029033 79.83369725 20 76 C23.14574215 72.81167235 26.88147324 70.81587905 30.796875 68.6796875 C31.91328369 68.06641602 33.02969238 67.45314453 34.17993164 66.82128906 C35.05538132 66.34423523 35.05538132 66.34423523 35.94851685 65.85754395 C38.98647016 64.20061886 42.01425636 62.52530122 45.04296875 60.8515625 C45.64133041 60.52128052 46.23969208 60.19099854 46.85618591 59.85070801 C51.9542442 57.03360523 57.02637438 54.17633669 62.0625 51.25 C62.75118164 50.8566748 63.43986328 50.46334961 64.14941406 50.05810547 C67.24566843 48.24380623 68.97451269 47.03823096 71 44 C71.50010524 41.04230823 71.50010524 41.04230823 71 38 C68.192323 34.61967217 65.20370592 32.88290501 61.265625 31.01171875 C60.14196533 30.47377686 59.01830566 29.93583496 57.8605957 29.3815918 C56.66909912 28.8225415 55.47760254 28.26349121 54.25 27.6875 C53.01694187 27.10180096 51.78411408 26.51561678 50.55151367 25.92895508 C42.97800994 22.33737532 35.34657586 18.91271117 27.640625 15.6171875 C22.85986386 13.49354468 18.2037937 11.15339581 13.5402832 8.78588867 C8.75767038 6.36062252 3.93029869 4.11298515 -1 2 C-0.67 1.34 -0.34 0.68 0 0 Z " fill="#00818D" transform="translate(406,361)"/>
<path d="M0 0 C2.9375 0.8125 2.9375 0.8125 6 2 C6.33 2.99 6.66 3.98 7 5 C1.25 3.25 1.25 3.25 -1 1 C-0.67 0.67 -0.34 0.34 0 0 Z " fill="#008490" transform="translate(421,368)"/>
</svg>
