<svg id="Capa_1" enable-background="new 0 0 512 512" height="512" viewBox="0 0 512 512" width="512" xmlns="http://www.w3.org/2000/svg"><g><g><path d="m234.081 259.749-148.508-195.219c-4.766-6.266-13.507-7.897-20.212-3.773-6.793 4.177-9.244 12.868-5.635 19.978l110.763 218.228h63.592z" fill="#fea613"/><path d="m85.573 64.53c-4.766-6.266-13.506-7.897-20.212-3.773-2.687 1.653-4.682 4.017-5.904 6.705l146.278 192.288v39.214h28.346v-39.214z" fill="#fe9901"/><path d="m256.122 339.951h-85.633v-85.029c0-20.47 16.594-37.064 37.064-37.064h48.569z" fill="#838383"/><path d="m287.954 339.951v-187.5c0-7.706 6.247-13.953 13.953-13.953h124.152c5.311 0 10.162 3.015 12.512 7.778l50.415 102.142c1.6 3.241 2.432 6.807 2.432 10.422v81.112h-203.464z" fill="#0473ce"/><path d="m13.5 384.428h485c3.314 0 6-2.686 6-6v-32.477c0-3.314-2.686-6-6-6h-485c-3.314 0-6 2.686-6 6v32.477c0 3.314 2.686 6 6 6z" fill="#9c9c9c"/><path d="m287.954 339.951h-31.831v-134.256c0-3.853 3.124-6.977 6.977-6.977h24.855v141.233z" fill="#444"/><circle cx="389.686" cy="396.731" fill="#5a5a5a" r="56.78"/><ellipse cx="389.686" cy="396.731" fill="#bfbfbf" rx="23.852" ry="23.852" transform="matrix(.16 -.987 .987 .16 -64.343 717.836)"/><circle cx="114.845" cy="396.731" fill="#5a5a5a" r="56.78"/><ellipse cx="114.845" cy="396.731" fill="#bfbfbf" rx="23.852" ry="23.852" transform="matrix(.16 -.987 .987 .16 -295.159 446.544)"/><path d="m488.987 248.418-50.415-102.142c-2.351-4.763-7.201-7.778-12.512-7.778h-34.016c5.311 0 10.162 3.015 12.512 7.778l50.415 102.142c1.6 3.241 2.432 6.807 2.432 10.422v81.111h34.016v-81.111c0-3.615-.833-7.181-2.432-10.422z" fill="#0067c5"/><path d="m498.5 339.951h-34.016c3.314 0 6 2.687 6 6v32.477c0 3.314-2.686 6-6 6h34.016c3.314 0 6-2.686 6-6v-32.477c0-3.313-2.686-6-6-6z" fill="#838383"/><path d="m449.616 237.445-31.853-64.535c-1.175-2.381-3.601-3.889-6.256-3.889h-85.969c-3.853 0-6.977 3.124-6.977 6.977v64.535c0 3.853 3.124 6.977 6.977 6.977h117.822c5.171 0 8.545-5.428 6.256-10.065z" fill="#82aee3"/><path d="m491.419 301.833h-33.052c-3.866 0-7-3.134-7-7v-11c0-3.866 3.134-7 7-7h33.052z" fill="#fec165"/><path d="m457.403 276.907v24.852c.316.043.636.074.964.074h33.052v-25h-33.052c-.328 0-.648.03-.964.074z" fill="#fdb441"/><path d="m227.776 217.859h28.346v122.093h-28.346z" fill="#5a5a5a"/><circle cx="215.838" cy="259.749" fill="#fea613" r="18.243"/><path d="m389.686 339.951c-4.894 0-9.643.62-14.173 1.784 24.5 6.295 42.606 28.531 42.606 54.996s-18.106 48.701-42.606 54.996c4.531 1.164 9.279 1.784 14.173 1.784 31.359 0 56.78-25.421 56.78-56.78s-25.421-56.78-56.78-56.78z" fill="#444"/><path d="m114.845 339.951c-4.894 0-9.643.62-14.173 1.784 24.5 6.295 42.606 28.531 42.606 54.996s-18.106 48.701-42.606 54.996c4.531 1.164 9.279 1.784 14.173 1.784 31.358 0 56.779-25.421 56.779-56.78s-25.421-56.78-56.779-56.78z" fill="#444"/><path d="m449.616 237.445-31.853-64.535c-1.175-2.381-3.601-3.889-6.256-3.889h-28.347c2.656 0 5.081 1.507 6.256 3.889l31.853 64.535c2.289 4.637-1.085 10.065-6.256 10.065h28.346c5.172 0 8.546-5.428 6.257-10.065z" fill="#528fd8"/></g><g><path d="m215.838 234.006c-14.195 0-25.743 11.549-25.743 25.743s11.548 25.743 25.743 25.743c14.194 0 25.743-11.549 25.743-25.743s-11.549-25.743-25.743-25.743zm0 36.486c-5.924 0-10.743-4.819-10.743-10.743s4.819-10.743 10.743-10.743c5.923 0 10.743 4.819 10.743 10.743s-4.82 10.743-10.743 10.743z"/><path d="m389.687 365.379c-17.288 0-31.353 14.064-31.353 31.352s14.064 31.352 31.353 31.352c17.287 0 31.352-14.064 31.352-31.352s-14.065-31.352-31.352-31.352zm0 47.703c-9.017 0-16.353-7.335-16.353-16.352s7.336-16.352 16.353-16.352 16.352 7.335 16.352 16.352-7.336 16.352-16.352 16.352z"/><path d="m114.845 365.379c-17.288 0-31.352 14.064-31.352 31.352s14.064 31.352 31.352 31.352 31.352-14.064 31.352-31.352-14.065-31.352-31.352-31.352zm0 47.703c-9.017 0-16.352-7.335-16.352-16.352s7.335-16.352 16.352-16.352 16.352 7.335 16.352 16.352-7.336 16.352-16.352 16.352z"/><path d="m498.919 332.473c0-15.322 0-58.948 0-73.633 0-4.741-1.109-9.493-3.207-13.741l-27.444-55.604c-1.833-3.714-6.327-5.239-10.045-3.406-3.715 1.833-5.239 6.331-3.406 10.045l27.445 55.605c1.084 2.195 1.657 4.65 1.657 7.101v10.493h-25.553c-7.995 0-14.5 6.505-14.5 14.5v11c0 7.995 6.505 14.5 14.5 14.5h25.553v23.118h-188.466c0-2.828 0-174.734 0-180 0-3.559 2.896-6.453 6.454-6.453h124.153c2.474 0 4.691 1.378 5.786 3.597l7.479 15.153c1.833 3.714 6.332 5.239 10.045 3.406 3.715-1.834 5.239-6.331 3.406-10.045l-7.479-15.154c-3.642-7.375-11.013-11.957-19.237-11.957h-124.153c-11.83 0-21.454 9.624-21.454 21.453v38.767h-17.354c-7.982 0-14.477 6.494-14.477 14.477v4.664c-45.198 0-41.019-.017-42.66.04l-34.96-45.956c-2.508-3.297-7.214-3.936-10.51-1.428s-3.936 7.213-1.428 10.51l30.809 40.5c-16.024 6.953-26.884 22.901-26.884 40.898v12.691l-96.576-190.274c-1.808-3.559-.671-8.014 2.876-10.194 3.333-2.05 7.813-1.363 10.314 1.926l58.27 76.598c2.508 3.297 7.214 3.936 10.51 1.428s3.936-7.213 1.428-10.51l-58.27-76.598c-6.947-9.133-19.943-11.875-30.11-5.621-10.439 6.42-13.621 19.465-8.394 29.762l13.73 27.052v87.352c0 6.563 5.339 11.902 11.903 11.902h9.539c2.743 0 4.974 2.231 4.974 4.975v2.445c0 4.092-3.329 7.42-7.42 7.42h-11.495c-4.142 0-7.5 3.357-7.5 7.5s3.358 7.5 7.5 7.5h11.496c12.362 0 22.42-10.058 22.42-22.42v-2.445c0-11.014-8.96-19.975-19.974-19.975h-6.442c0-6.518 0-47.953 0-54.702l81.221 160.022v31.695c-5.195 0-142.058 0-149.489 0-7.444 0-13.5 6.056-13.5 13.5v32.477c0 7.444 6.056 13.5 13.5 13.5h37.264c-.118 1.588-.198 3.186-.198 4.803 0 35.444 28.835 64.28 64.279 64.28s64.279-28.836 64.279-64.28c0-1.617-.08-3.215-.198-4.803h146.679c-2.798 37.672 27.129 69.083 64.082 69.083 35.443 0 64.279-28.836 64.279-64.28 0-1.617-.08-3.215-.198-4.803h44.732c7.444 0 13.5-6.056 13.5-13.5v-32.477c0-7.304-5.832-13.255-13.081-13.479zm-40.053-38.14v-10h25.053v10zm-195.244-76.474v-11.641h16.831v126.233h-16.831zm-85.633 81.11c0-.002 0-.004 0-.006 0-51.032-.003-43.257.005-44.274.125-15.976 13.171-29.33 29.558-29.33h41.069v107.093h-70.633v-33.483zm-124.294 77.959h-38.695v-29.477h58.582c-9.214 7.729-16.187 18.081-19.887 29.477zm61.15 69.083c-27.173 0-49.279-22.107-49.279-49.28 0-27.756 22.895-49.279 49.279-49.279 26.57 0 49.279 21.706 49.279 49.279 0 27.172-22.106 49.28-49.279 49.28zm213.692-69.083h-152.543c-3.561-10.97-10.343-21.471-19.886-29.477h192.315c-9.272 7.779-16.213 18.156-19.886 29.477zm61.15 69.083c-27.173 0-49.28-22.107-49.28-49.28 0-27.697 22.839-49.279 49.28-49.279h.007c26.538 0 49.273 21.688 49.273 49.279-.001 27.172-22.108 49.28-49.28 49.28zm107.313-69.083h-46.165c-3.656-11.266-10.571-21.662-19.886-29.477h66.051z"/><path d="m411.507 161.522h-85.969c-7.982 0-14.477 6.494-14.477 14.477v64.535c0 7.982 6.494 14.477 14.477 14.477h117.821c5.039 0 9.635-2.555 12.295-6.834s2.917-9.531.688-14.05l-31.854-64.534c-2.456-4.98-7.43-8.071-12.981-8.071zm-85.445 78.488v-63.488h85.12l31.337 63.488z"/></g></g></svg>