<svg enable-background="new 0 0 512 512" height="512" viewBox="0 0 512 512" width="512" xmlns="http://www.w3.org/2000/svg"><g id="_x31_7_x2C__reels_x2C__video_button_x2C__social_media_x2C__reel_x2C__media_player_x2C__play"><g><path d="m16 136v-48.74c0-39.36 31.9-71.26 71.26-71.26h337.48c39.36 0 71.26 31.9 71.26 71.26v48.74l-252.5 33.5z" fill="#ff884d"/><path d="m496 136v288.74c0 39.36-31.9 71.26-71.26 71.26h-337.48c-39.36 0-71.26-31.9-71.26-71.26v-288.74z" fill="#fbf3f3"/><path d="m256 211c57.99 0 105 47.01 105 105s-47.01 105-105 105-105-47.01-105-105 47.01-105 105-105z" fill="#ff884d"/><path d="m299.86 316-71.72 41.41v-82.82z" fill="#ff415b"/><g><path d="m307.361 303.01-71.723-41.409c-9.966-5.755-22.5 1.431-22.5 12.99v82.818c0 11.508 12.49 18.77 22.5 12.99l71.723-41.409c9.979-5.762 9.996-20.208 0-25.98zm-64.222 28.419v-30.857l26.722 15.428z"/><path d="m256 196c-66.168 0-120 53.832-120 120s53.832 120 120 120 120-53.832 120-120-53.832-120-120-120zm0 210c-49.626 0-90-40.374-90-90s40.374-90 90-90 90 40.374 90 90-40.374 90-90 90z"/><path d="m424.741 1h-337.482c-47.564 0-86.259 38.695-86.259 86.259v337.482c0 47.564 38.695 86.259 86.259 86.259h337.482c47.564 0 86.259-38.695 86.259-86.259v-337.482c0-47.564-38.695-86.259-86.259-86.259zm-337.482 30h337.482c31.022 0 56.259 25.237 56.259 56.259v33.741h-93.533l21.035-18.821c6.174-5.524 6.7-15.007 1.177-21.181s-15.007-6.699-21.181-1.177l-46.023 41.179h-72.361l21.036-18.821c6.174-5.523 6.7-15.007 1.177-21.181-5.524-6.174-15.007-6.699-21.181-1.177l-46.024 41.179h-72.362l21.035-18.821c6.174-5.524 6.7-15.007 1.177-21.181-5.524-6.174-15.008-6.699-21.181-1.177l-46.022 41.179h-76.769v-33.741c0-31.022 25.237-56.259 56.259-56.259zm337.482 450h-337.482c-31.022 0-56.259-25.237-56.259-56.259v-273.741h450v273.741c0 31.022-25.237 56.259-56.259 56.259z"/></g></g></g></svg>