<?xml version="1.0" encoding="UTF-8"?>
<!DOCTYPE svg PUBLIC "-//W3C//DTD SVG 1.1//EN" "http://www.w3.org/Graphics/SVG/1.1/DTD/svg11.dtd">
<svg xmlns="http://www.w3.org/2000/svg" version="1.1" width="512px" height="512px" style="shape-rendering:geometricPrecision; text-rendering:geometricPrecision; image-rendering:optimizeQuality; fill-rule:evenodd; clip-rule:evenodd" xmlns:xlink="http://www.w3.org/1999/xlink">
<g><path style="opacity:0.99" fill="#040200" d="M 281.5,-0.5 C 286.5,-0.5 291.5,-0.5 296.5,-0.5C 348.607,34.3961 400.607,69.5627 452.5,105C 461.107,112.831 463.607,122.331 460,133.5C 452.539,145.591 444.706,157.424 436.5,169C 450.286,168.132 459.786,173.965 465,186.5C 465.909,192.486 466.743,198.486 467.5,204.5C 473.531,209.043 477.364,215.043 479,222.5C 479.5,247.831 479.667,273.164 479.5,298.5C 485.865,297.901 491.865,299.068 497.5,302C 500.106,303.938 501.939,306.438 503,309.5C 503.667,339.5 503.667,369.5 503,399.5C 498.06,408.995 490.226,412.661 479.5,410.5C 479.667,435.836 479.5,461.169 479,486.5C 475.419,498.912 467.586,507.245 455.5,511.5C 314.167,511.5 172.833,511.5 31.5,511.5C 19.8512,507.35 12.0179,499.35 8,487.5C 7.33333,399.167 7.33333,310.833 8,222.5C 10.3005,212.566 15.9672,205.232 25,200.5C 24.4529,190.551 27.6196,182.051 34.5,175C 37.5544,172.806 40.8878,171.139 44.5,170C 52.8267,169.5 61.16,169.334 69.5,169.5C 73.0627,131.144 76.896,92.8109 81,54.5C 84.8524,43.6497 92.519,37.6497 104,36.5C 141.811,40.4311 179.644,44.2644 217.5,48C 223.593,47.6939 226.593,50.5272 226.5,56.5C 225.242,60.9731 222.242,63.3065 217.5,63.5C 178.249,58.7413 138.916,55.2413 99.5,53C 97.3834,54.7309 95.8834,56.8976 95,59.5C 94.0243,69.4947 93.1909,79.4947 92.5,89.5C 88.5066,123.434 85.1732,157.434 82.5,191.5C 81.5318,193.607 81.1984,195.941 81.5,198.5C 84.8333,198.5 88.1667,198.5 91.5,198.5C 91.5,197.167 91.5,195.833 91.5,194.5C 94.3326,165.177 97.166,135.844 100,106.5C 102.442,99.8884 106.942,95.555 113.5,93.5C 116.09,92.8717 118.423,91.705 120.5,90C 126.289,83.7207 132.289,77.7207 138.5,72C 160.55,72.7378 182.55,74.4045 204.5,77C 207.789,78.4103 209.456,80.9103 209.5,84.5C 207.979,89.6839 204.479,91.6839 199,90.5C 180.487,88.7648 161.987,87.2648 143.5,86C 135.809,96.6861 125.976,104.853 114,110.5C 113.502,113.817 113.335,117.15 113.5,120.5C 110.521,143.626 108.187,166.96 106.5,190.5C 105.527,192.948 105.194,195.615 105.5,198.5C 117.678,198.828 129.678,198.495 141.5,197.5C 157.217,175.112 172.551,152.445 187.5,129.5C 198.191,114.798 208.524,99.7982 218.5,84.5C 224.745,75.6803 230.745,66.6803 236.5,57.5C 247.779,40.3812 259.279,23.3812 271,6.5C 274.308,3.77106 277.808,1.43772 281.5,-0.5 Z"/></g>
<g><path style="opacity:1" fill="#a5e53a" d="M 398.5,197.5 C 394.958,197.813 391.625,197.479 388.5,196.5C 396.572,184.699 404.405,172.699 412,160.5C 412.667,156.5 412.667,152.5 412,148.5C 406.293,137.218 403.959,125.218 405,112.5C 404,110.833 403,109.167 402,107.5C 374.587,88.5431 347.087,69.7098 319.5,51C 315.239,49.6374 310.905,49.3041 306.5,50C 295.894,55.7133 284.561,57.8799 272.5,56.5C 275.641,55.6787 278.975,55.1787 282.5,55C 276.613,50.8958 270.613,47.0624 264.5,43.5C 270.788,33.7665 277.454,24.2665 284.5,15C 287.5,14.3333 290.5,14.3333 293.5,15C 343.971,49.3047 394.304,83.8047 444.5,118.5C 447.148,122.853 446.981,127.187 444,131.5C 428.58,153.404 413.413,175.404 398.5,197.5 Z"/></g>
<g><path style="opacity:1" fill="#b0f149" d="M 264.5,43.5 C 270.613,47.0624 276.613,50.8958 282.5,55C 278.975,55.1787 275.641,55.6787 272.5,56.5C 267.744,57.7436 263.91,60.4102 261,64.5C 230.833,108.833 200.667,153.167 170.5,197.5C 166.833,198.833 163.167,198.833 159.5,197.5C 194.523,146.101 229.523,94.7674 264.5,43.5 Z"/></g>
<g><path style="opacity:1" fill="#a4e339" d="M 226.5,56.5 C 229.939,56.2529 233.272,56.5863 236.5,57.5C 230.745,66.6803 224.745,75.6803 218.5,84.5C 215.5,84.5 212.5,84.5 209.5,84.5C 209.456,80.9103 207.789,78.4103 204.5,77C 182.55,74.4045 160.55,72.7378 138.5,72C 132.289,77.7207 126.289,83.7207 120.5,90C 118.423,91.705 116.09,92.8717 113.5,93.5C 113.389,92.8826 113.056,92.3826 112.5,92C 105.827,91.0998 99.1608,90.2664 92.5,89.5C 93.1909,79.4947 94.0243,69.4947 95,59.5C 95.8834,56.8976 97.3834,54.7309 99.5,53C 138.916,55.2413 178.249,58.7413 217.5,63.5C 222.242,63.3065 225.242,60.9731 226.5,56.5 Z"/></g>
<g><path style="opacity:1" fill="#71c900" d="M 344.5,197.5 C 350.842,197.666 357.175,197.5 363.5,197C 365.458,194.252 367.291,191.418 369,188.5C 369.667,186.5 369.667,184.5 369,182.5C 366.413,177.739 364.413,172.739 363,167.5C 362.934,159.729 362.267,152.062 361,144.5C 359.5,143 358,141.5 356.5,140C 340.894,130.058 325.56,119.725 310.5,109C 296.449,99.3129 282.116,90.1463 267.5,81.5C 269.451,77.7706 271.784,74.2706 274.5,71C 287.699,71.8269 300.199,69.3269 312,63.5C 338.597,81.0943 364.931,99.0943 391,117.5C 390.263,129.816 392.597,141.483 398,152.5C 398.667,153.833 398.667,155.167 398,156.5C 388.377,170.246 378.877,184.08 369.5,198C 360.99,198.823 352.656,198.657 344.5,197.5 Z"/></g>
<g><path style="opacity:1" fill="#75da00" d="M 267.5,81.5 C 282.116,90.1463 296.449,99.3129 310.5,109C 325.56,119.725 340.894,130.058 356.5,140C 358,141.5 359.5,143 361,144.5C 362.267,152.062 362.934,159.729 363,167.5C 364.413,172.739 366.413,177.739 369,182.5C 369.667,184.5 369.667,186.5 369,188.5C 367.291,191.418 365.458,194.252 363.5,197C 357.175,197.5 350.842,197.666 344.5,197.5C 341.301,169.797 326.301,151.963 299.5,144C 271.044,138.149 248.877,147.316 233,171.5C 228.349,179.786 225.515,188.619 224.5,198C 212.167,198.667 199.833,198.667 187.5,198C 214.066,159.014 240.733,120.18 267.5,81.5 Z"/></g>
<g><path style="opacity:1" fill="#71c900" d="M 209.5,84.5 C 212.5,84.5 215.5,84.5 218.5,84.5C 208.524,99.7982 198.191,114.798 187.5,129.5C 186.158,128.207 184.491,127.374 182.5,127C 159.493,124.833 136.493,122.666 113.5,120.5C 113.335,117.15 113.502,113.817 114,110.5C 125.976,104.853 135.809,96.6861 143.5,86C 161.987,87.2648 180.487,88.7648 199,90.5C 204.479,91.6839 207.979,89.6839 209.5,84.5 Z"/></g>
<g><path style="opacity:1" fill="#aff049" d="M 92.5,89.5 C 99.1608,90.2664 105.827,91.0998 112.5,92C 113.056,92.3826 113.389,92.8826 113.5,93.5C 106.942,95.555 102.442,99.8884 100,106.5C 97.166,135.844 94.3326,165.177 91.5,194.5C 90.596,195.209 90.2627,196.209 90.5,197.5C 87.8333,197.5 85.1667,197.5 82.5,197.5C 82.5,195.5 82.5,193.5 82.5,191.5C 85.1732,157.434 88.5066,123.434 92.5,89.5 Z"/></g>
<g><path style="opacity:1" fill="#76db00" d="M 113.5,120.5 C 136.493,122.666 159.493,124.833 182.5,127C 184.491,127.374 186.158,128.207 187.5,129.5C 172.551,152.445 157.217,175.112 141.5,197.5C 129.833,197.5 118.167,197.5 106.5,197.5C 106.5,195.167 106.5,192.833 106.5,190.5C 108.187,166.96 110.521,143.626 113.5,120.5 Z"/></g>
<g><path style="opacity:1" fill="#b4f74b" d="M 329.5,194.5 C 329.5,195.5 329.5,196.5 329.5,197.5C 299.5,197.5 269.5,197.5 239.5,197.5C 243.938,172.563 258.771,158.896 284,156.5C 301.312,156.819 314.645,164.152 324,178.5C 326.936,183.475 328.769,188.808 329.5,194.5 Z"/></g>
<g><path style="opacity:1" fill="#fbae24" d="M 67.5,197.5 C 58.8333,197.5 50.1667,197.5 41.5,197.5C 41.5,195.833 41.5,194.167 41.5,192.5C 42.1434,189.012 44.1434,186.512 47.5,185C 54.4921,184.5 61.4921,184.334 68.5,184.5C 67.8005,188.798 67.4672,193.131 67.5,197.5 Z"/></g>
<g><path style="opacity:1" fill="#fcaf24" d="M 450.5,191.5 C 450.5,193.5 450.5,195.5 450.5,197.5C 439.167,197.5 427.833,197.5 416.5,197.5C 419.156,193.529 421.823,189.529 424.5,185.5C 431.142,184.336 437.808,184.169 444.5,185C 447.409,186.406 449.409,188.572 450.5,191.5 Z"/></g>
<g><path style="opacity:1" fill="#735010" d="M 41.5,192.5 C 41.5,194.167 41.5,195.833 41.5,197.5C 50.1667,197.5 58.8333,197.5 67.5,197.5C 58.6822,198.493 49.6822,198.827 40.5,198.5C 40.2053,196.265 40.5386,194.265 41.5,192.5 Z"/></g>
<g><path style="opacity:1" fill="#587924" d="M 82.5,191.5 C 82.5,193.5 82.5,195.5 82.5,197.5C 85.1667,197.5 87.8333,197.5 90.5,197.5C 90.2627,196.209 90.596,195.209 91.5,194.5C 91.5,195.833 91.5,197.167 91.5,198.5C 88.1667,198.5 84.8333,198.5 81.5,198.5C 81.1984,195.941 81.5318,193.607 82.5,191.5 Z"/></g>
<g><path style="opacity:1" fill="#376600" d="M 106.5,190.5 C 106.5,192.833 106.5,195.167 106.5,197.5C 118.167,197.5 129.833,197.5 141.5,197.5C 129.678,198.495 117.678,198.828 105.5,198.5C 105.194,195.615 105.527,192.948 106.5,190.5 Z"/></g>
<g><path style="opacity:1" fill="#547422" d="M 329.5,194.5 C 330.434,195.568 330.768,196.901 330.5,198.5C 299.995,198.831 269.662,198.498 239.5,197.5C 269.5,197.5 299.5,197.5 329.5,197.5C 329.5,196.5 329.5,195.5 329.5,194.5 Z"/></g>
<g><path style="opacity:1" fill="#51711e" d="M 388.5,196.5 C 391.625,197.479 394.958,197.813 398.5,197.5C 394.981,198.808 391.315,198.808 387.5,197.5C 387.624,196.893 387.957,196.56 388.5,196.5 Z"/></g>
<g><path style="opacity:1" fill="#7a5511" d="M 450.5,191.5 C 451.468,193.607 451.802,195.941 451.5,198.5C 439.655,198.828 427.988,198.495 416.5,197.5C 427.833,197.5 439.167,197.5 450.5,197.5C 450.5,195.5 450.5,193.5 450.5,191.5 Z"/></g>
<g><path style="opacity:1" fill="#fe6c39" d="M 419.5,212.5 C 422.431,216.025 424.598,220.025 426,224.5C 426.5,233.16 426.666,241.827 426.5,250.5C 291.833,250.5 157.167,250.5 22.5,250.5C 22.3336,241.827 22.5002,233.16 23,224.5C 25.5,219.333 29.3333,215.5 34.5,213C 162.833,212.5 291.166,212.333 419.5,212.5 Z"/></g>
<g><path style="opacity:1" fill="#ec5628" d="M 419.5,212.5 C 430.172,212.333 440.839,212.5 451.5,213C 457.247,215.079 461.414,218.912 464,224.5C 464.5,233.16 464.666,241.827 464.5,250.5C 451.833,250.5 439.167,250.5 426.5,250.5C 426.666,241.827 426.5,233.16 426,224.5C 424.598,220.025 422.431,216.025 419.5,212.5 Z"/></g>
<g><path style="opacity:1" fill="#feb024" d="M 22.5,265.5 C 157.167,265.5 291.833,265.5 426.5,265.5C 426.5,276.833 426.5,288.167 426.5,299.5C 412.829,299.333 399.163,299.5 385.5,300C 353.494,309.191 338.661,330.357 341,363.5C 346.53,389.531 362.364,404.864 388.5,409.5C 400.989,410.495 413.656,410.829 426.5,410.5C 426.5,421.5 426.5,432.5 426.5,443.5C 319.665,443.167 212.999,443.501 106.5,444.5C 103.833,445.167 102.167,446.833 101.5,449.5C 90.7549,451.442 79.7549,452.109 68.5,451.5C 68.5902,447.335 66.5902,445.002 62.5,444.5C 49.3438,443.504 36.0105,443.171 22.5,443.5C 22.5,384.167 22.5,324.833 22.5,265.5 Z"/></g>
<g><path style="opacity:1" fill="#fe8f1c" d="M 426.5,265.5 C 439.167,265.5 451.833,265.5 464.5,265.5C 464.5,276.833 464.5,288.167 464.5,299.5C 451.833,299.5 439.167,299.5 426.5,299.5C 426.5,288.167 426.5,276.833 426.5,265.5 Z"/></g>
<g><path style="opacity:1" fill="#fc6b39" d="M 390.5,314.5 C 410.5,314.5 430.5,314.5 450.5,314.5C 450.667,337.502 450.5,360.502 450,383.5C 448.923,386.913 446.756,389.413 443.5,391C 425.5,391.667 407.5,391.667 389.5,391C 380.376,389.133 372.042,385.633 364.5,380.5C 349.803,360.039 351.469,340.873 369.5,323C 375.599,317.951 382.599,315.117 390.5,314.5 Z"/></g>
<g><path style="opacity:1" fill="#e95528" d="M 390.5,314.5 C 422.664,313.336 454.997,313.169 487.5,314C 488.495,341.093 488.828,368.259 488.5,395.5C 454.832,395.667 421.165,395.5 387.5,395C 378.191,392.684 370.524,387.85 364.5,380.5C 372.042,385.633 380.376,389.133 389.5,391C 407.5,391.667 425.5,391.667 443.5,391C 446.756,389.413 448.923,386.913 450,383.5C 450.5,360.502 450.667,337.502 450.5,314.5C 430.5,314.5 410.5,314.5 390.5,314.5 Z"/></g>
<g><path style="opacity:1" fill="#060302" d="M 389.5,325.5 C 415.175,324.009 427.342,336.009 426,361.5C 420.536,378.154 409.036,385.654 391.5,384C 370.266,376.363 363.433,361.863 371,340.5C 375.592,333.394 381.758,328.394 389.5,325.5 Z"/></g>
<g><path style="opacity:1" fill="#ececec" d="M 393.5,339.5 C 405.83,339.331 411.996,345.331 412,357.5C 407.686,369.054 399.853,372.221 388.5,367C 382.096,360.709 380.93,353.542 385,345.5C 387.671,343.098 390.505,341.098 393.5,339.5 Z"/></g>
<g><path style="opacity:1" fill="#ec8a1b" d="M 388.5,409.5 C 413.833,409.5 439.167,409.5 464.5,409.5C 464.5,421.167 464.5,432.833 464.5,444.5C 345.167,444.5 225.833,444.5 106.5,444.5C 212.999,443.501 319.665,443.167 426.5,443.5C 426.5,432.5 426.5,421.5 426.5,410.5C 413.656,410.829 400.989,410.495 388.5,409.5 Z"/></g>
<g><path style="opacity:1" fill="#946615" d="M 22.5,265.5 C 22.5,324.833 22.5,384.167 22.5,443.5C 36.0105,443.171 49.3438,443.504 62.5,444.5C 48.8333,444.5 35.1667,444.5 21.5,444.5C 21.1676,384.664 21.5009,324.998 22.5,265.5 Z"/></g>
<g><path style="opacity:1" fill="#fe6c39" d="M 101.5,449.5 C 100.415,454.17 102.082,457.17 106.5,458.5C 212.999,459.499 319.665,459.833 426.5,459.5C 426.666,466.508 426.5,473.508 426,480.5C 425.5,481.667 424.667,482.5 423.5,483C 293.833,483.667 164.167,483.667 34.5,483C 30.0252,481.598 26.0252,479.431 22.5,476.5C 22.5,470.833 22.5,465.167 22.5,459.5C 36.0105,459.829 49.3438,459.496 62.5,458.5C 66.5902,457.998 68.5902,455.665 68.5,451.5C 79.7549,452.109 90.7549,451.442 101.5,449.5 Z"/></g>
<g><path style="opacity:1" fill="#964022" d="M 62.5,458.5 C 49.3438,459.496 36.0105,459.829 22.5,459.5C 22.5,465.167 22.5,470.833 22.5,476.5C 22.5,478.167 22.5,479.833 22.5,481.5C 21.508,474.018 21.1746,466.352 21.5,458.5C 35.1667,458.5 48.8333,458.5 62.5,458.5 Z"/></g>
<g><path style="opacity:1" fill="#e95628" d="M 106.5,458.5 C 225.833,458.5 345.167,458.5 464.5,458.5C 464.666,466.84 464.5,475.173 464,483.5C 462.573,489.925 458.74,494.092 452.5,496C 312.833,496.667 173.167,496.667 33.5,496C 27.0433,493.241 23.3766,488.408 22.5,481.5C 22.5,479.833 22.5,478.167 22.5,476.5C 26.0252,479.431 30.0252,481.598 34.5,483C 164.167,483.667 293.833,483.667 423.5,483C 424.667,482.5 425.5,481.667 426,480.5C 426.5,473.508 426.666,466.508 426.5,459.5C 319.665,459.833 212.999,459.499 106.5,458.5 Z"/></g>
</svg>
