<?xml version="1.0" encoding="utf-8"?>
<!-- Generator: Adobe Illustrator 27.5.0, SVG Export Plug-In . SVG Version: 6.00 Build 0)  -->
<svg version="1.1" id="BASE" xmlns="http://www.w3.org/2000/svg" xmlns:xlink="http://www.w3.org/1999/xlink" x="0px" y="0px"
	 viewBox="0 0 2122 2122" style="enable-background:new 0 0 2122 2122;" xml:space="preserve">
<g>
	<path style="fill:#ECB842;" d="M1968.291,1757.536l-5.922-11.174l-5.853-11.054L1197.639,303.441
		c-5.442-10.105-12.237-18.489-19.93-25.154c-0.286-0.249-0.574-0.494-0.863-0.737c-0.201-0.17-0.404-0.337-0.606-0.504
		c-0.089-0.073-0.176-0.147-0.265-0.22c-0.217-0.178-0.435-0.354-0.655-0.529c-0.074-0.06-0.149-0.12-0.224-0.18
		c-0.239-0.191-0.48-0.38-0.721-0.567c-0.049-0.038-0.1-0.078-0.149-0.116c-0.242-0.188-0.485-0.373-0.729-0.557
		c-0.057-0.043-0.114-0.087-0.171-0.129c-0.25-0.189-0.502-0.375-0.755-0.56c-0.04-0.029-0.081-0.06-0.122-0.09
		c-0.271-0.198-0.545-0.395-0.818-0.591c-0.02-0.013-0.038-0.027-0.058-0.04c-0.283-0.202-0.566-0.401-0.851-0.597
		c-0.015-0.01-0.03-0.02-0.044-0.03c-7.863-5.431-16.429-9.272-25.297-11.523l-120.279-32.624
		c-32.708-10.297-70.729,2.577-91.067,38.7L153.553,1653.686c-23.08,40.993-11.324,90.051,19.36,115.599l73.648,90.267
		c14.708,18.659,36.471,30.999,62.308,31.087l1586.24,5.418c27.895,0.095,51.369-14.124,66.491-35.215
		c0.211-0.294,0.42-0.59,0.627-0.886c0.097-0.139,0.197-0.277,0.293-0.418c0.059-0.085,0.117-0.171,0.176-0.257
		c0.209-0.304,0.417-0.609,0.623-0.916C1982.042,1830.411,1986.535,1791.432,1968.291,1757.536z"/>
	<path style="fill:#F0CD43;" d="M1820.037,1659.377l-707.37-1314.214l-36.661-68.112l0-0.001l-4.946-9.188
		c-10.945-20.334-27.615-33.394-45.957-39.169c-32.708-10.297-70.729,2.577-91.067,38.7L153.553,1653.686
		c-23.08,40.993-11.324,90.051,19.36,115.599c12.921,10.759,29.198,17.35,47.645,17.413l6.486,0.022h0.001l37.674,0.128
		l1485.298,5.073C1812.27,1792.134,1851.509,1717.852,1820.037,1659.377z"/>
	<path style="fill:#343432;" d="M277.337,1677.515c0.681,0.677,1.388,1.333,2.121,1.968c0.001,0,0.001,0,0.001,0
		c3.06,2.65,6.568,4.907,10.468,6.594c4.826,2.094,10.255,3.279,15.894,3.294l1365.062,4.663c1.913,0.006,3.799-0.121,5.642-0.369
		c6.228-0.833,11.992-3.103,16.873-6.307c7.343-4.824,12.762-11.617,16.137-19.242c3.363-7.635,4.727-16.216,3.564-24.913
		c-0.705-5.246-2.353-10.523-5.034-15.515l-0.003-0.003l-670.29-1248.213c-3.982-7.448-9.864-13.369-16.743-17.165
		c-0.003-0.002-0.005-0.003-0.008-0.005c-0.385-0.212-0.773-0.419-1.164-0.618c-7.372-3.774-15.729-5.157-23.828-4.06
		c-6.27,0.841-12.393,3.168-17.775,6.868c-5.388,3.692-10.004,8.751-13.388,14.826L270.1,1622.866
		c-5.169,9.243-6.753,19.38-5.486,28.714C265.953,1661.38,270.295,1670.48,277.337,1677.515z M295.841,1636.348L990.612,392.797
		c1.347-2.402,2.881-3.96,4.434-5.033c1.558-1.066,3.164-1.652,4.79-1.875c2.098-0.276,4.213,0.054,6.234,1.081
		c0.27,0.14,0.538,0.293,0.806,0.458c0.003,0.003,0.005,0.004,0.008,0.004c1.73,1.074,3.417,2.721,4.872,5.402l670.29,1248.212
		c1.062,1.982,1.693,4.014,1.972,6.073c0.638,4.524-0.62,9.289-2.95,12.668c-1.151,1.694-2.519,3.02-3.921,3.936
		c-1.415,0.919-2.829,1.456-4.43,1.678c-0.485,0.065-0.988,0.099-1.517,0.098l-1365.055-4.662c-1.572-0.011-2.87-0.306-4.137-0.848
		c-1.879-0.81-3.733-2.282-5.268-4.443c-0.726-1.019-1.361-2.183-1.87-3.439c0-0.001,0-0.002,0-0.002
		c-0.564-1.39-0.974-2.893-1.179-4.441C293.196,1643.894,293.808,1639.996,295.841,1636.348z"/>
	<polygon style="fill:#343432;" points="929.242,1369.432 1058.638,1369.874 1101.839,748.646 896.27,747.943 	"/>
	<polygon style="fill:#343432;" points="927.38,1533.629 1056.776,1534.071 1058.163,1411.783 928.766,1411.341 	"/>
</g>
</svg>
